<?xml version="1.0" encoding="UTF-8"?>
<svg width="24px" height="24px" viewBox="0 0 24 24" version="1.1" xmlns="http://www.w3.org/2000/svg" xmlns:xlink="http://www.w3.org/1999/xlink">
    <!-- Generator: sketchtool 50.2 (55047) - http://www.bohemiancoding.com/sketch -->
    <title>D270EE1E-7D2F-44CF-B49F-208F24BC65BD</title>
    <desc>Created with sketchtool.</desc>
    <defs></defs>
    <g id="Documents" stroke="none" stroke-width="1" fill="none" fill-rule="evenodd">
        <g id="Documents_preview-lines_options" transform="translate(-1206.000000, -148.000000)" stroke="#16254F">
            <g id="Group" transform="translate(32.000000, 136.000000)">
                <g id="icon/24/folder/Create-Shared-folder" transform="translate(1174.000000, 12.000000)">
                    <g id="Folder">
                        <path d="M2,0.5 C1.17157288,0.5 0.5,1.17157288 0.5,2 L0.5,22 C0.5,22.8284271 1.17157288,23.5 2,23.5 L22,23.5 C22.8284271,23.5 23.5,22.8284271 23.5,22 L23.5,4.88 C23.5,4.05157288 22.8284271,3.38 22,3.38 L13.42,3.38 L13.42,2 C13.42,1.17157288 12.7484271,0.5 11.92,0.5 L2,0.5 Z" id="Rectangle-2-Copy-3"></path>
                        <path d="M15.5,2.73239205 L23.4745061,3.6622802 L23.4745061,2 C23.4745061,1.17157288 22.8029332,0.5 21.9745061,0.5 L17,0.5 C16.1715729,0.5 15.5,1.17157288 15.5,2 L15.5,2.73239205 Z" id="Rectangle-2-Copy-4"></path>
                    </g>
                    <g id="Group" transform="translate(4.000000, 10.000000)">
                        <path d="M0.5,12.3178589 L11.5,12.3178589 L11.5,10.5361989 C11.5,8.84279127 10.3948936,7.5 9.0874777,7.5 L2.9125223,7.5 C1.60572511,7.5 0.5,8.84084995 0.5,10.5344243 L0.5,12.3178589 Z" id="Rectangle-Copy"></path>
                        <path d="M11.2339145,8.66708592 L15.5,12.8036666 L15.5,10.7550885 C15.5,9.57764966 14.817368,8.66708592 14.0583185,8.66708592 L11.2339145,8.66708592 Z" id="Rectangle-Copy-2"></path>
                        <circle id="Oval-4-Copy" cx="6" cy="3" r="2.5"></circle>
                        <circle id="Oval-4-Copy-2" cx="12.5" cy="4.5" r="2"></circle>
                    </g>
                </g>
            </g>
        </g>
    </g>
</svg>