<?xml version="1.0" encoding="UTF-8"?>
<svg width="24px" height="24px" viewBox="0 0 24 24" version="1.1" xmlns="http://www.w3.org/2000/svg" xmlns:xlink="http://www.w3.org/1999/xlink">
    <!-- Generator: sketchtool 50.2 (55047) - http://www.bohemiancoding.com/sketch -->
    <title>A289B542-8243-430F-A501-1F665C64C540</title>
    <desc>Created with sketchtool.</desc>
    <defs></defs>
    <g id="Symbols" stroke="none" stroke-width="1" fill="none" fill-rule="evenodd">
        <g id="icon/24/photos/Create-Shared-Album">
            <rect id="Rectangle-6-Copy" stroke="#16254F" x="0.5" y="7.5" width="23" height="16" rx="2"></rect>
            <g id="Group" transform="translate(4.000000, 10.000000)" stroke="#16254F">
                <path d="M0.5,13.5 L11.5,13.5 L11.5,10.5361989 C11.5,8.84279127 10.3948936,7.5 9.0874777,7.5 L2.9125223,7.5 C1.60572511,7.5 0.5,8.84084995 0.5,10.5344243 L0.5,13.5 Z" id="Rectangle-Copy"></path>
                <path d="M11.2339145,8.66708592 L15.5,12.8036666 L15.5,10.7550885 C15.5,9.57764966 14.817368,8.66708592 14.0583185,8.66708592 L11.2339145,8.66708592 Z" id="Rectangle-Copy-2"></path>
                <circle id="Oval-4-Copy" cx="6" cy="3" r="2.5"></circle>
                <circle id="Oval-4-Copy-2" cx="12.5" cy="4.5" r="2"></circle>
            </g>
            <rect id="Rectangle-20" fill="#16254F" x="2" y="5" width="20" height="1" rx="0.5"></rect>
            <rect id="Rectangle-20-Copy" fill="#16254F" x="5" y="3" width="14" height="1" rx="0.5"></rect>
            <rect id="Rectangle-20-Copy-2" fill="#16254F" x="7" y="1" width="10" height="1" rx="0.5"></rect>
        </g>
    </g>
</svg>