<svg xmlns="http://www.w3.org/2000/svg" width="30" height="31" viewBox="0 0 30 31">
    <g fill="none" fill-rule="evenodd">
        <g stroke="#16254F">
            <path stroke-linecap="round" stroke-linejoin="round" d="M5.25 5.25h7.5M17.25 5.25h1.5M17.25 9.75h1.5M17.25 14.25h1.5M17.25 18.75h1.5M5.25 9.75h7.5M5.25 14.25h7.5M5.25 18.75h7.5"/>
            <rect width="23" height="23" x=".5" y=".5" rx="2"/>
        </g>
        <path fill="#16254F" d="M29.794 28.971c-5.654-4.26-8.71-3.83-12.971 1.823 4.26-5.654 3.83-8.71-1.823-12.971 5.654 4.26 8.71 3.83 12.971-1.823-4.26 5.654-3.83 8.71 1.823 12.971z"/>
        <path fill="#FFF" d="M26.604 26.569c-3.211-2.42-4.948-2.176-7.368 1.035 2.42-3.211 2.176-4.948-1.036-7.368 3.212 2.42 4.949 2.176 7.369-1.036-2.42 3.212-2.176 4.949 1.035 7.369z"/>
    </g>
</svg>
