<?xml version="1.0" encoding="UTF-8"?>
<svg width="24px" height="24px" viewBox="0 0 24 24" version="1.1" xmlns="http://www.w3.org/2000/svg" xmlns:xlink="http://www.w3.org/1999/xlink">
    <!-- Generator: sketchtool 48.1 (47250) - http://www.bohemiancoding.com/sketch -->
    <title>42537F22-B5FF-4194-8117-E935D062E0C5</title>
    <desc>Created with sketchtool.</desc>
    <defs></defs>
    <g id="Symbols" stroke="none" stroke-width="1" fill="none" fill-rule="evenodd">
        <g id="icon/24/white/delete">
            <g id="Group" transform="translate(0.000000, 1.000000)">
                <path d="M10,-0.499890864 L14,-0.499890864 C15.3807119,-0.499890864 16.5,0.619397262 16.5,2.00010914 L16.5,3.49994543 L7.5,3.49994543 L7.5,2.00010914 C7.5,0.619397262 8.61928813,-0.499890864 10,-0.499890864 Z" id="Rectangle-12" stroke="#FFFFFF"></path>
                <path d="M3.5,3.5 L3.5,18.9996838 C3.5,20.9326804 5.06700338,22.4996838 6.99999976,22.4996838 L16.9999759,22.499679 C18.9329709,22.499679 20.4999736,20.9326781 20.4999759,18.999683 L20.4999992,3.5 L3.5,3.5 Z" id="Rectangle-10" stroke="#FFFFFF"></path>
                <rect id="Rectangle-19" stroke="#FFFFFF" x="0.5" y="3.5" width="23" height="1" rx="0.5"></rect>
                <rect id="Rectangle-19" fill="#FFFFFF" x="12" y="6" width="1" height="13" rx="0.5"></rect>
                <rect id="Rectangle-19-Copy" fill="#FFFFFF" x="8" y="7" width="1" height="10" rx="0.5"></rect>
                <rect id="Rectangle-19-Copy-2" fill="#FFFFFF" x="16" y="7" width="1" height="10" rx="0.5"></rect>
            </g>
        </g>
    </g>
</svg>