<?xml version="1.0" encoding="UTF-8"?>
<svg width="24px" height="24px" viewBox="0 0 24 24" version="1.1" xmlns="http://www.w3.org/2000/svg" xmlns:xlink="http://www.w3.org/1999/xlink">
    <!-- Generator: sketchtool 50.2 (55047) - http://www.bohemiancoding.com/sketch -->
    <title>11134554-3C87-41DC-AABC-93742BC4A639</title>
    <desc>Created with sketchtool.</desc>
    <defs>
        <polygon id="path-1" points="0.032 0.425733333 0.032 23.9989333 23.5733333 23.9989333 23.5733333 0.425733333 0.032 0.425733333"></polygon>
    </defs>
    <g id="Symbols" stroke="none" stroke-width="1" fill="none" fill-rule="evenodd">
        <g id="icon/24/edit">
            <g id="edit-copy-2">
                <mask id="mask-2" fill="white">
                    <use xlink:href="#path-1"></use>
                </mask>
                <g id="Clip-2"></g>
                <path d="M22.4501333,1.54933333 C20.952,0.0512 18.5168,0.0512 17.0186667,1.54933333 L1.63306667,16.9344 C1.62506667,16.9429333 1.6208,16.9514667 1.6144,16.9594667 C1.6064,16.9701333 1.59786667,16.9802667 1.58933333,16.9909333 C1.56693333,17.024 1.54986667,17.0576 1.5376,17.0928 C1.53333333,17.1056 1.52693333,17.1136 1.5248,17.1264 C1.52266667,17.1306667 1.52106667,17.1344 1.51893333,17.1386667 L0.0106666667,23.4741333 C0.00426666667,23.5034667 0.00213333333,23.5322667 0.00213333333,23.5594667 C0.00213333333,23.5658667 0,23.5722667 0,23.576 C0,23.6261333 0.0106666667,23.672 0.0272,23.7178667 C0.0314666667,23.7285333 0.0352,23.7386667 0.0394666667,23.7493333 C0.0602666667,23.7952 0.0874666667,23.8389333 0.1248,23.8741333 C0.1648,23.9157333 0.212266667,23.9472 0.264533333,23.968 C0.3168,23.9888 0.370666667,23.9989333 0.425066667,23.9989333 C0.458133333,23.9989333 0.491733333,23.9973333 0.5248,23.9888 L6.86026667,22.4805333 C6.87306667,22.4784 6.88106667,22.472 6.89386667,22.4677333 C6.90826667,22.464 6.92106667,22.4576 6.93546667,22.4512 C6.9664,22.4368 6.9936,22.4197333 7.0208,22.3989333 C7.03146667,22.3909333 7.0416,22.3845333 7.05226667,22.376 C7.056,22.3722667 7.06026667,22.3701333 7.0624,22.3658667 L22.4501333,6.98026667 C23.9477333,5.48266667 23.9477333,3.0448 22.4501333,1.54933333 Z M21.848,2.15146667 C22.9082667,3.21386667 23,4.88266667 22.1248,6.0512 L17.9477333,1.87413333 C19.1189333,0.998933333 20.7856,1.09066667 21.848,2.15146667 Z M19.7354667,8.48853333 L15.5104,4.264 L16.1146667,3.66186667 L20.3376,7.8848 L19.7354667,8.48853333 Z M2.1168,21.8826667 C1.94986667,21.7157333 1.68106667,21.7157333 1.51253333,21.8826667 L1.18933333,22.2053333 L2.27893333,17.6282667 L4.1664,17.4181333 L3.9248,19.6032 C3.92266667,19.6197333 3.92906667,19.6346667 3.92906667,19.6512 C3.92906667,19.6677333 3.92266667,19.6826667 3.9248,19.6970667 C3.9248,19.7114667 3.93333333,19.7242667 3.93546667,19.7365333 C3.94186667,19.7616 3.94773333,19.7845333 3.9584,19.8074667 C3.96853333,19.8346667 3.98133333,19.8597333 3.99786667,19.8848 C4.01066667,19.9056 4.02506667,19.9221333 4.03946667,19.9386667 C4.06026667,19.9616 4.0832,19.9781333 4.10826667,19.9973333 C4.12693333,20.0096 4.1456,20.0218667 4.1664,20.0325333 C4.1936,20.0448 4.22506667,20.0533333 4.2544,20.0597333 C4.27093333,20.064 4.2832,20.072 4.29973333,20.0741333 C4.3168,20.0762667 4.3312,20.0784 4.34773333,20.0784 L4.34986667,20.0784 C4.3648,20.0784 4.3792,20.0762667 4.39573333,20.0741333 L6.58133333,19.8325333 L6.37066667,21.72 L1.7936,22.8096 L2.1168,22.4864 C2.2832,22.32 2.2832,22.0490667 2.1168,21.8826667 Z M7.47093333,19.5450667 C7.38402684,19.1679253 6.8688,18.9408 6.8688,18.9408 L4.83146667,19.168 C4.83146667,19.168 5.1135185,17.5183628 5.05813333,17.1306667 C5.00274816,16.7429705 5.05853808,16.6677856 4.4544,16.5285333 C3.85026192,16.3892811 3.096,16.6784 3.096,16.6784 L14.9082667,4.86773333 L19.1312,9.09066667 L7.32106667,20.9034667 C7.32106667,20.9034667 7.55783982,19.922208 7.47093333,19.5450667 Z M20.9418667,7.28266667 L16.7168,3.0576 L17.3210667,2.45333333 L21.5456,6.6784 L20.9418667,7.28266667 Z" id="Fill-1" fill="#16254F" mask="url(#mask-2)"></path>
            </g>
        </g>
    </g>
</svg>