<?xml version="1.0" encoding="UTF-8"?>
<svg width="24px" height="24px" viewBox="0 0 24 24" version="1.1" xmlns="http://www.w3.org/2000/svg" xmlns:xlink="http://www.w3.org/1999/xlink">
    <!-- Generator: sketchtool 50.2 (55047) - http://www.bohemiancoding.com/sketch -->
    <title>BBCB1E45-F149-4BB2-8851-FBCCFE3D339D</title>
    <desc>Created with sketchtool.</desc>
    <defs></defs>
    <g id="Documents" stroke="none" stroke-width="1" fill="none" fill-rule="evenodd">
        <g id="Documents_preview-lines_options" transform="translate(-218.000000, -580.000000)" stroke="#16254F">
            <g id="Group-10" transform="translate(-22.000000, 376.000000)">
                <g id="Group-9">
                    <g id="more-options-copy-4" transform="translate(56.000000, 192.000000)">
                        <g id="icon/24/favorite/off" transform="translate(184.000000, 12.000000)">
                            <path d="M11.5346589,19.7446443 L6.15226387,22.5743368 C5.66341929,22.8313376 5.05879213,22.6433911 4.80179132,22.1545465 C4.69945225,21.959886 4.66413758,21.736918 4.70131442,21.5201603 L5.7292604,15.5267754 C5.78489833,15.2023814 5.67734985,14.8713812 5.44166376,14.641644 L1.08721474,10.3971052 C0.691731161,10.011604 0.683638855,9.37849076 1.06914007,8.98300718 C1.22264867,8.82552355 1.42379108,8.72303637 1.64142811,8.69141186 L7.65912866,7.81698879 C7.98483882,7.76966033 8.26640441,7.56509095 8.41206642,7.26994748 L11.1032639,1.81698575 C11.3476862,1.32173209 11.9473121,1.11839309 12.4425657,1.36281539 C12.6397783,1.46014562 12.7994058,1.61977315 12.8967361,1.81698575 L15.5879336,7.26994748 C15.7335956,7.56509095 16.0151612,7.76966033 16.3408713,7.81698879 L22.3585719,8.69141186 C22.9051167,8.77082948 23.2837982,9.27827233 23.2043806,9.82481719 C23.1727561,10.0424542 23.0702689,10.2435966 22.9127853,10.3971052 L18.5583362,14.641644 C18.3226501,14.8713812 18.2151017,15.2023814 18.2707396,15.5267754 L19.2986856,21.5201603 C19.3920466,22.0644968 19.0264588,22.5814527 18.4821223,22.6748137 C18.2653647,22.7119906 18.0423966,22.6766759 17.8477361,22.5743368 L12.4653411,19.7446443 C12.1740171,19.5914862 11.8259829,19.5914862 11.5346589,19.7446443 Z" id="Star-2"></path>
                        </g>
                    </g>
                </g>
            </g>
        </g>
    </g>
</svg>