<?xml version="1.0" encoding="UTF-8"?>
<svg width="23px" height="28px" viewBox="0 0 23 28" version="1.1" xmlns="http://www.w3.org/2000/svg" xmlns:xlink="http://www.w3.org/1999/xlink">
    <!-- Generator: sketchtool 51 (57462) - http://www.bohemiancoding.com/sketch -->
    <title>AD1D70ED-7994-48E5-9873-59AFC2EBD715</title>
    <desc>Created with sketchtool.</desc>
    <defs></defs>
    <g id="Symbols" stroke="none" stroke-width="1" fill="none" fill-rule="evenodd">
        <g id="top-bar/Regular" transform="translate(-1621.000000, -16.000000)" fill="#FFFFFF">
            <g id="Group-3" transform="translate(1621.000000, 16.000000)">
                <path d="M17.8571429,10.0724108 C17.8571429,16.9880379 21.1668571,19.5065003 22.4837143,20.2354759 C22.7605714,20.3882931 23,20.7391108 23,21.0568325 L23,22.4244172 C23,22.7421389 22.744,23 22.4285714,23 L0.571428571,23 C0.255714286,23 0,22.7421389 0,22.4244172 L0,21.0568325 C0,20.7391108 0.239428571,20.3882931 0.516285714,20.2354759 C1.83257143,19.5065003 5.14285714,16.9880379 5.14285714,10.0726986 C5.14285714,9.89196562 5.16685714,9.71929078 5.20971429,9.55352294 C5.42628571,8.0477984 6.16257143,6.71129519 7.23057143,5.73597017 C7.39057143,5.55725172 8.60114286,4.16635594 8.64885714,3.0045421 C8.64742857,2.96223676 8.64285714,2.92050701 8.64285714,2.87791389 C8.64285714,1.28844205 9.92257143,0 11.5,0 C13.0625714,0 14.3308571,1.26455536 14.3548571,2.83330622 C14.3628571,2.86582665 14.3682857,2.89892266 14.3682857,2.93345763 C14.3682857,4.13556226 15.6048571,5.55264706 15.7682857,5.73539459 C16.8348571,6.70928065 17.5708571,8.04261815 17.7891429,9.54575257 C17.8325714,9.71382275 17.8571429,9.88879991 17.8571429,10.0724108 Z M11.5,3.45 C12.1351275,3.45 12.65,2.93512746 12.65,2.3 C12.65,1.66487254 12.1351275,1.15 11.5,1.15 C10.8648725,1.15 10.35,1.66487254 10.35,2.3 C10.35,2.93512746 10.8648725,3.45 11.5,3.45 Z" id="Combined-Shape"></path>
                <path d="M11.5,28 C13.950492,28 15.9395094,26.217996 16,24 L7,24 C7.06017877,26.217996 9.05013165,28 11.5,28" id="Fill-3"></path>
            </g>
        </g>
    </g>
</svg>