<?xml version="1.0" encoding="UTF-8"?>
<svg width="24px" height="24px" viewBox="0 0 24 24" version="1.1" xmlns="http://www.w3.org/2000/svg" xmlns:xlink="http://www.w3.org/1999/xlink">
    <!-- Generator: sketchtool 48.1 (47250) - http://www.bohemiancoding.com/sketch -->
    <title>966CD101-1BA5-43F2-B271-70FF8ADDBF05</title>
    <desc>Created with sketchtool.</desc>
    <defs></defs>
    <g id="photos_inside-file" stroke="none" stroke-width="1" fill="none" fill-rule="evenodd" transform="translate(-1880.000000, -156.000000)">
        <g id="Group-27" transform="translate(1761.000000, 48.000000)">
            <g id="more-options-copy-2" transform="translate(0.000000, 96.000000)">
                <g id="icon/24/blue/information" transform="translate(119.000000, 12.000000)">
                    <circle id="Oval-9" stroke="#16254F" stroke-width="1" cx="12" cy="12" r="11.5"></circle>
                    <path d="M11,5.5 L11,5.5 C11,5.22385763 11.2238576,5 11.5,5 L11.5,5 C11.7761424,5 12,5.22385763 12,5.5 L12,5.5 C12,5.77614237 11.7761424,6 11.5,6 L11.5,6 C11.2238576,6 11,5.77614237 11,5.5 Z M11.032967,18.532967 L11.032967,8.53043354 C11.032967,8.27249836 11.2420648,8.06340058 11.5,8.06340058 L11.5,8.06340058 C11.7579352,8.06340058 11.967033,8.27249836 11.967033,8.53043354 L11.967033,18.532967 C11.967033,18.7909022 11.7579352,19 11.5,19 L11.5,19 C11.2420648,19 11.032967,18.7909022 11.032967,18.532967 Z" id="i" fill="#16254F" fill-rule="evenodd"></path>
                </g>
            </g>
        </g>
    </g>
</svg>