<?xml version="1.0" encoding="UTF-8"?>
<svg width="24px" height="24px" viewBox="0 0 24 24" version="1.1" xmlns="http://www.w3.org/2000/svg" xmlns:xlink="http://www.w3.org/1999/xlink">
    <!-- Generator: sketchtool 50.2 (55047) - http://www.bohemiancoding.com/sketch -->
    <title>E911D5C6-54F3-402A-AE05-042B780A25D7</title>
    <desc>Created with sketchtool.</desc>
    <defs></defs>
    <g id="Symbols" stroke="none" stroke-width="1" fill="none" fill-rule="evenodd">
        <g id="icon/24/folder/open-folder" stroke="#16254F">
            <g id="Group-3-Copy-4">
                <path d="M18.2280032,0.421841833 L21.4759084,0.421762808 C22.5804779,0.421746175 23.4759219,1.31716319 23.4759385,2.42173269 C23.4759385,2.42174273 23.4759385,2.42175277 23.4759385,2.42176281 L23.4759084,21.5102041 C23.4759084,22.6147736 22.5804779,23.5102041 21.4759084,23.5102041 L6.13467173,23.5102041 C5.03010223,23.5102041 4.13467173,22.6147736 4.13467173,21.5102041 L4.13467173,4.47949968 C4.13467173,3.37493018 5.03010223,2.47949968 6.13467173,2.47949968 L16.2280032,2.47949968 L16.2280333,2.42187195 C16.2280333,1.31731421 17.1234455,0.421888583 18.2280032,0.42187195 Z" id="Rectangle-4" fill="#E5E4E4"></path>
                <path d="M2.71258709,5.47461725 C2.62592591,5.47461725 2.53942775,5.48212738 2.45406338,5.49706336 C1.6380329,5.63984207 1.0922545,6.41711049 1.23503321,7.23314096 L3.8639849,22.2585237 C3.98957355,22.976307 4.61285141,23.5 5.34153879,23.5 L21.6777194,23.5 C21.7798336,23.5 21.8816809,23.4895728 21.9816766,23.4688805 C22.7929169,23.3010096 23.3144708,22.5072831 23.1465999,21.6960428 L20.6455036,9.60943553 C20.501373,8.91292119 19.8878936,8.41339276 19.1766231,8.41339276 L14.9616061,8.41339276 L14.7281143,6.76432898 C14.6233651,6.02452502 13.9901108,5.47461725 13.2429279,5.47461725 L2.71258709,5.47461725 Z" id="Rectangle-2-Copy-3" fill="#FFFFFF"></path>
            </g>
        </g>
    </g>
</svg>