<svg xmlns="http://www.w3.org/2000/svg" width="24" height="24" viewBox="0 0 24 24">
    <g fill="none" fill-rule="evenodd" stroke="#16254F">
        <path d="M14.5 11.986v-1.538V8.91l-.001-6.15v-.028-.11a1.61 1.61 0 0 0-.019-.26c-.074-.417-.3-.674-.708-.803-.386-.123-.706-.055-1.003.215L11.095 3.3l-.012.01a1569.438 1569.438 0 0 0-4.547 4.15c-.3.275-.639.403-1.046.4-1.138-.004-2.33-.004-3.716 0-.243.001-.359.009-.467.034-.517.124-.804.51-.805 1.113a2042.884 2042.884 0 0 0 0 5.901c0 .848.4 1.241 1.27 1.242h.54c1.618.003 2.337.002 3.235-.003.377-.002.69.119.968.374 1.928 1.766 3.95 3.609 6.277 5.723.293.266.62.324 1.016.182.483-.173.69-.495.691-1.1a9593.558 9593.558 0 0 0 0-9.34z"/>
        <path stroke-linecap="round" stroke-linejoin="round" d="M17 17c1.768-.854 3-2.771 3-5s-1.232-4.146-3-5"/>
        <path stroke-linecap="round" stroke-linejoin="round" d="M18 20c2.947-1.366 5-4.434 5-8s-2.053-6.634-5-8"/>
    </g>
</svg>
