<?xml version="1.0" encoding="UTF-8"?>
<svg width="24px" height="24px" viewBox="0 0 24 24" version="1.1" xmlns="http://www.w3.org/2000/svg" xmlns:xlink="http://www.w3.org/1999/xlink">
    <!-- Generator: sketchtool 50.2 (55047) - http://www.bohemiancoding.com/sketch -->
    <title>C3C3AF42-E207-4C9F-A52A-A9F9AA7B64B1</title>
    <desc>Created with sketchtool.</desc>
    <defs></defs>
    <g id="Symbols" stroke="none" stroke-width="1" fill="none" fill-rule="evenodd">
        <g id="-Create-Shared-Album-24x24-blue">
            <rect id="Rectangle-6-Copy" stroke="#16254F" x="2.5" y="8.5" width="19" height="14" rx="2"></rect>
            <path d="M4.5,6.5 L19.5,6.5" id="Line-2-Copy-3" stroke="#16254F" stroke-linecap="round" stroke-linejoin="round"></path>
            <path d="M5.5,4.5 L18.5,4.5" id="Line-2-Copy-4" stroke="#16254F" stroke-linecap="round" stroke-linejoin="round"></path>
            <path d="M6.5,2.5 L17.5,2.5" id="Line-2-Copy-5" stroke="#16254F" stroke-linecap="round" stroke-linejoin="round"></path>
            <path d="M10,15.4998 C8.897,15.4998 8,14.6028 8,13.4998 C8,12.3968 8.897,11.4998 10,11.4998 C11.103,11.4998 12,12.3968 12,13.4998 C12,14.6028 11.103,15.4998 10,15.4998 M10,10.4998 C8.343,10.4998 7,11.8428 7,13.4998 C7,15.1568 8.343,16.4998 10,16.4998 C11.657,16.4998 13,15.1568 13,13.4998 C13,11.8428 11.657,10.4998 10,10.4998" id="Fill-1" fill="#16254F"></path>
            <path d="M13.0874,17.4798 L6.9124,17.4798 C5.3074,17.4798 4.0004,18.8358 4.0004,20.5078 L4.0004,21.9648 C4.0004,22.2408 4.2234,22.4648 4.5004,22.4648 C4.7764,22.4648 5.0004,22.2408 5.0004,21.9648 L5.0004,20.5078 C5.0004,19.3898 5.8584,18.4798 6.9124,18.4798 L13.0874,18.4798 C14.1424,18.4798 15.0004,19.3908 15.0004,20.5098 L15.0004,21.9648 C15.0004,22.2408 15.2234,22.4648 15.5004,22.4648 C15.7764,22.4648 16.0004,22.2408 16.0004,21.9648 L16.0004,20.5098 C16.0004,20.1468 15.9284,19.8028 15.8154,19.4798 L17.0874,19.4798 C18.1424,19.4798 19.0004,20.3908 19.0004,21.5098 L19.0004,21.9648 C19.0004,22.2408 19.2234,22.4648 19.5004,22.4648 C19.7764,22.4648 20.0004,22.2408 20.0004,21.9648 L20.0004,21.5098 C20.0004,19.8398 18.6964,18.4798 17.0874,18.4798 L15.2354,18.4798 C14.7024,17.8698 13.9414,17.4798 13.0874,17.4798" id="Fill-3" fill="#16254F"></path>
            <path d="M16.2187,12.4798 C14.8377,12.4798 13.7187,13.5988 13.7187,14.9798 C13.7187,16.3608 14.8377,17.4798 16.2187,17.4798 C17.5997,17.4798 18.7187,16.3608 18.7187,14.9798 C18.7187,13.5988 17.5997,12.4798 16.2187,12.4798 M16.2187,13.4798 C17.0457,13.4798 17.7187,14.1528 17.7187,14.9798 C17.7187,15.8068 17.0457,16.4798 16.2187,16.4798 C15.3917,16.4798 14.7187,15.8068 14.7187,14.9798 C14.7187,14.1528 15.3917,13.4798 16.2187,13.4798" id="Fill-6" fill="#16254F"></path>
        </g>
    </g>
</svg>