<?xml version="1.0" encoding="UTF-8"?>
<svg width="32px" height="32px" viewBox="0 0 32 32" version="1.1" xmlns="http://www.w3.org/2000/svg" xmlns:xlink="http://www.w3.org/1999/xlink">
    <!-- Generator: sketchtool 48.1 (47250) - http://www.bohemiancoding.com/sketch -->
    <title>356C783D-AB61-487D-9D7F-AEAB7532F475</title>
    <desc>Created with sketchtool.</desc>
    <defs>
        <path d="M0.600746241,7.82755111 C0.268963254,6.20742992 1.34633451,4.8940622 3.00093925,4.8940622 L17.0440622,4.8940622 C18.7014352,4.8940622 20.2714756,6.2211305 20.5504221,7.8556708 L20.601807,8.15677033 L24.8334002,8.15677033 C26.4940539,8.15677033 28.1535077,9.45685836 28.5411869,11.0659652 L31.5938174,23.7362549 C31.9809177,25.3429588 30.95193,26.6454497 29.2888752,26.6454497 L7.46029415,26.6454497 C5.80020938,26.6454497 4.1858307,25.3337871 3.85369852,23.7119608 L0.600746241,7.82755111 Z" id="path-1"></path>
    </defs>
    <g id="Symbols" stroke="none" stroke-width="1" fill="none" fill-rule="evenodd">
        <g id="icon/32/cv">
            <g id="Group-3" transform="translate(-0.500000, 3.000000)">
                <path d="M21.7154182,2.50020215 C21.7154182,1.11937863 23.0670973,0 24.7224989,0 L28.7308383,0 C30.3916031,0 31.7379189,1.34837525 31.7379189,2.99419287 L31.7379189,23.1074722 C31.7379189,24.7611192 30.4023758,26.1016651 28.7318574,26.1016651 L8.53885106,26.1016651 C6.87864911,26.1016651 5.53278951,24.7651251 5.53278951,23.1005465 L5.53278951,5.50132072 C5.53278951,3.8438487 6.88467727,2.50020215 8.53869242,2.50020215 L21.7154182,2.50020215 L21.7154182,2.50020215 Z" id="Rectangle-4" stroke="#16254F"></path>
                <g id="Rectangle-2-Copy-3">
                    <use fill="#FFFFFF" fill-rule="evenodd" xlink:href="#path-1"></use>
                    <path stroke="#16254F" stroke-width="1" d="M1.09058027,7.72723849 L4.34353256,23.6116482 C4.62782796,24.999884 6.03672219,26.1454497 7.46029415,26.1454497 L29.2888752,26.1454497 C30.6279706,26.1454497 31.4191503,25.1459686 31.1077263,23.853368 L28.0550959,11.1830782 C27.7218328,9.79983187 26.2643194,8.65677033 24.8334002,8.65677033 L20.179907,8.65677033 L20.0575479,7.93978349 C19.8195088,6.54494812 18.4572337,5.3940622 17.0440622,5.3940622 L3.00093925,5.3940622 C1.66142234,5.3940622 0.822563075,6.41849043 1.09058027,7.72723849 Z"></path>
                </g>
            </g>
        </g>
    </g>
</svg>