<svg xmlns="http://www.w3.org/2000/svg" width="24" height="22" viewBox="0 0 24 22">
  <g fill="none" fill-rule="evenodd" stroke="#FFF">
    <path d="M14.5,10.986 L14.5,9.448 L14.5,7.91 L14.499,1.76 L14.499,1.732 L14.499,1.622 C14.4997052,1.53496222 14.493351,1.44801059 14.48,1.362 C14.406,0.945 14.18,0.688 13.772,0.559 C13.386,0.436 13.066,0.504 12.769,0.774 L11.095,2.3 L11.083,2.31 C9.56462173,3.6903594 8.04895215,5.0736954 6.536,6.46 C6.236,6.735 5.897,6.863 5.49,6.86 C4.352,6.856 3.16,6.856 1.774,6.86 C1.531,6.861 1.415,6.869 1.307,6.894 C0.79,7.018 0.503,7.404 0.502,8.007 C0.499159096,9.97399897 0.499159096,11.941001 0.502,13.908 C0.502,14.756 0.902,15.149 1.772,15.15 L2.312,15.15 C3.93,15.153 4.649,15.152 5.547,15.147 C5.924,15.145 6.237,15.266 6.515,15.521 C8.443,17.287 10.465,19.13 12.792,21.244 C13.085,21.51 13.412,21.568 13.808,21.426 C14.291,21.253 14.498,20.931 14.499,20.326 C14.5005155,17.2126669 14.5005155,14.0993331 14.499,10.986 L14.5,10.986 Z"/>
    <path stroke-linecap="round" stroke-linejoin="round" d="M17,16 C18.768,15.146 20,13.229 20,11 C20,8.771 18.768,6.854 17,6"/>
    <path stroke-linecap="round" stroke-linejoin="round" d="M18,19 C20.947,17.634 23,14.566 23,11 C23,7.434 20.947,4.366 18,3"/>
  </g>
</svg>
