<svg xmlns="http://www.w3.org/2000/svg" width="24" height="24" viewBox="0 0 24 24">
    <g fill="none" fill-rule="evenodd">
        <path stroke="#16254F" stroke-linecap="round" stroke-linejoin="round" d="M19.5 16.5v6M22.5 19.5h-6M7.5 7.5h5M15.5 7.5h1M15.5 10.5h1M15.5 13.5h1M15.5 16.5h1M7.5 10.5h5M7.5 13.5h5M7.5 16.5h5"/>
        <path fill="#16254F" fill-rule="nonzero" d="M20 6a2 2 0 0 0-2-2H6a2 2 0 0 0-2 2v12a2 2 0 0 0 2 2h7.885a.5.5 0 1 0 0-1H6a1 1 0 0 1-1-1V6a1 1 0 0 1 1-1h12a1 1 0 0 1 1 1v7.5a.5.5 0 1 0 1 0V6z"/>
    </g>
</svg>
