<svg xmlns="http://www.w3.org/2000/svg" width="24" height="24" viewBox="0 0 24 24">
    <g fill="#979797" fill-rule="nonzero">
        <path d="M19 16.5a.5.5 0 1 1 1 0v6a.5.5 0 1 1-1 0v-6z"/>
        <path d="M22.5 19a.5.5 0 1 1 0 1h-6a.5.5 0 1 1 0-1h6zM7.5 8a.5.5 0 0 1 0-1h5a.5.5 0 1 1 0 1h-5zM15.5 8a.5.5 0 1 1 0-1h1a.5.5 0 1 1 0 1h-1zM15.5 11a.5.5 0 1 1 0-1h1a.5.5 0 1 1 0 1h-1zM15.5 14a.5.5 0 1 1 0-1h1a.5.5 0 1 1 0 1h-1zM15.5 17a.5.5 0 1 1 0-1h1a.5.5 0 1 1 0 1h-1zM7.5 11a.5.5 0 1 1 0-1h5a.5.5 0 1 1 0 1h-5zM7.5 14a.5.5 0 1 1 0-1h5a.5.5 0 1 1 0 1h-5zM7.5 17a.5.5 0 1 1 0-1h5a.5.5 0 1 1 0 1h-5z"/>
        <path d="M20 6a2 2 0 0 0-2-2H6a2 2 0 0 0-2 2v12a2 2 0 0 0 2 2h7.885a.5.5 0 1 0 0-1H6a1 1 0 0 1-1-1V6a1 1 0 0 1 1-1h12a1 1 0 0 1 1 1v7.5a.5.5 0 1 0 1 0V6z"/>
    </g>
</svg>
