<svg xmlns="http://www.w3.org/2000/svg" width="82" height="66" viewBox="0 0 82 66">
    <g fill="none" fill-rule="evenodd">
        <path d="M-10-23h112V89H-10z"/>
        <path fill="#FFC304" fill-opacity=".5" d="M63.608 30.611c6.41-6.367 9.44-13.796 7.292-20.04C67.308.141 50.662-3.022 33.71 3.503a53.106 53.106 0 0 0-9.34 4.68c-.588.413-1.188.79-1.764 1.173-.439.305-.917.615-1.338.93-2.555 2.07-3.765 5.126.253 14.422 0 0 2.242 3.952 2.242 9.884 0 3.302-.671 6.429-1.878 9.245-.23.525-.476 1.037-.741 1.54-4.353 10.267-1.506 12.344 1.863 14.542 4.65 2.76 10.239 4.83 16.43 5.502 16.424 1.782 34.33-4.558 36.034-15.991 1.077-7.166-3.557-13.615-11.863-18.819z"/>
        <path stroke="#16254F" d="M58.768 48.125c-.485.139-.983.27-1.497.389 1.374 1.258 2.55 2.423 3.562 3.403l.262.252c.822.075 1.609.168 2.345.267l.444.065c-.749-.574-1.5-1.259-2.289-1.976-1.018-.916-2.164-1.905-2.827-2.4zM61.328 47.258c.232.218.456.436.663.653.263.266.515.525.762.781a16.35 16.35 0 0 0 1.584-.96c3.86-2.575 5.176-5.198 4.953-5.327-.306-.27-2.078 1.871-5.85 3.864-.64.354-1.35.683-2.112.989zM43.414 51.948c.978.295 3.408.349 4.415.369 4.079.08 5.191-.101 8.027-.258.787-.049 1.553-.06 2.3-.05-.895-.705-1.85-1.483-2.862-2.291-.28-.224-.564-.444-.852-.665-2.26.343-5.051.45-7.623.42M44.24 48.105c-2.783.092-5.233-.136-5.233-.136-1.254-.092-1.635-.059-3.868-.291-1.612-.168-3.857.695-5.32.782-2.312.1-4.245.713-5.31 1.576-1.071.873-1.21 1.675-1.097 1.717.177.112.596-.446 1.613-.926 1.018-.481 2.685-.776 4.826-.665.736.029 1.523.101 2.351.204-.858.557-1.512 1.169-1.892 1.765-.629.974-.521 1.663-.38 1.68.183.047.404-.476 1.11-1.071.724-.612 1.577-1.036 2.445-1.369.807-.31 1.857-.768 2.684-1.005.715.124 1.042.227 1.81.37.3.04 1.196.177 1.5.216M65.268 51.322c.11.11.218.219.325.323.482.502.94.923 1.359 1.28 2.293.291 3.653.38 3.684.16.032-.237-1.947-.904-5.368-1.763zM31.61 42.985c1.022.68 2.012 1.618 3.078 2.703.84.013 1.737.027 2.684.036-1.662-1.58-3.207-3.156-4.943-4.02-4.013-2.26-6.792-2.698-6.866-2.526-.174.36 2.491 1.358 6.046 3.807zM57.785 44.673a23.33 23.33 0 0 1 1.406.864c1.258-.703 2.347-1.498 3.313-2.099 3.306-2.059 5.314-2.702 4.271-2.784-.779-.062-3.464.533-6.671 2.346-.239.126-.896.762-2.319 1.673z"/>
        <path stroke="#16254F" d="M44.111 48.013c.176-.144.696-.41.88-.55 2.543-1.926 4.526-3.393 6.681-5.228-1.926-.478-5.016-.99-6.26-1.709-2.493-1.272-3.73-2.704-4.03-2.456-.227.138.516 2.02 3.143 3.908.5.383 1.066.715 1.683 1.014-3.176-.513-5.897-.589-7.871-1.333-2.88-.904-4.21-2.443-4.503-2.192-.253.113.682 2.245 3.867 3.768 2.434 1.265 4.833 1.525 8.268 2.269-1.046.224-2.283.318-2.97.347-9.25.287-15.01-.608-15.052.209-.022.328 1.858.798 4.946 1.282 2.927.437 6.675.82 11.218.67zM65.593 51.645c-1.033-1.012-2.188-2.308-3.602-3.734a17.579 17.579 0 0 0-4.206-3.238c2.384-1.527 3.333-3.286 3.128-3.455-.267-.273-1.75 1.187-4.496 2.289-.208.086-.428.17-.652.252-1.12-.42-1.204-.486-2.237-.767-1.5 1.725-3.17 3.092-4.82 4.788 1.117-.157 2.015-.382 3.029-.634.332.188.654.386.953.604a69.64 69.64 0 0 1 2.604 1.968c1.63 1.3 3.114 2.527 4.427 3.49 2.642 1.94 4.565 2.718 4.721 2.45.185-.303-1.34-1.544-3.609-3.741-1.14-1.102-2.484-2.44-4.088-3.88a41.604 41.604 0 0 0-2.136-1.783c.162-.061.32-.124.477-.188.127.05.254.098.38.15 3.908 1.589 6.412 4.951 9.006 6.713 2.475 1.923 4.62 2.19 4.656 1.853.076-.334-1.524-1.046-3.535-3.137z"/>
        <path stroke="#16254F" d="M31.87 52.153c1.627.196 3.279.094 4.876-.283 1.573-.372 3.084-1.002 4.503-1.8 1.265-.711 2.387-1.615 3.571-2.453a116.05 116.05 0 0 0 4.681-3.509c.862-.678 1.696-1.394 2.54-2.095.79-.654 1.643-1.557 2.673-1.73.592-.1-.083 1.074-.176 1.243-.837 1.505-2.15 2.64-3.332 3.834a93.34 93.34 0 0 1-3.316 3.177c-1.241 1.137-2.545 2.21-3.961 3.099-1.366.858-2.834 1.553-4.376 1.978-1.514.417-3.096.564-4.653.37a11.75 11.75 0 0 1-3.88-1.209M39.81 44.11c-.898-.255-2.378-.632-3.236-.664a31.48 31.48 0 0 0-1.765-.103M32.187 43.399c-1.94.136-2.868.47-2.87.59-.018.31 1.536.252 4.219.566"/>
        <path fill="#16254F" d="M39.953 30.783c.15.088.754.605.966.842.212.236.435.34.464.542.026.18.306.863.509 1.278.14-.05.098-.485.227-.554.66-.354.734-1.094.808-1.801a2.881 2.881 0 0 0-.751-.005c-.372.068-.794.032-.794.032s-.473-.274-.901-.458c-.428-.183-.768-.093-.768-.093-.086.036.09.13.24.217M53.61 32.33c-.434.207-1.217.923-.785 1.445.313.378 1.148.43 1.604.696.017-.042.035-.084.05-.13.168-.509.047-1.167.047-1.167s1.156-.871 1.329-.996c.172-.126.116-.175-.094-.184-.21-.008-1.43.403-1.43.403s-.125-.152-.373-.324a1.19 1.19 0 0 1-.349.256"/>
        <path fill="#16254F" d="M40.505 29.545c.126.121.6.77.756 1.051.155.281.348.435.333.64-.016.205.023.572.166 1.121.142.55.171 1.157.083 1.587-.09.43-.55 1.226-1.001 2.506-.453 1.28-.491 2.918.078 4.39.238.616.567 1.139.87 1.541l.474.088c1.207.153 2.53.294 3.944.523a9.742 9.742 0 0 1-1.683-1.014c-2.627-1.889-3.37-3.77-3.142-3.908.298-.248 1.536 1.184 4.029 2.456.653.378 1.43.596 2.297.843-.08-.14-.2-.297-.295-.452-1.084-1.765-2.118-5.097-2.149-5.952-.03-.855.308-1.51-.202-2.838-.51-1.329-2.084-1.73-2.461-1.753-.376-.024-.78-.16-.78-.16s-.4-.382-.777-.663c-.376-.282-.727-.275-.727-.275-.091.014.06.147.187.269"/>
        <path stroke="#16254F" stroke-width=".622" d="M40.505 29.545c.126.121.6.77.756 1.051.155.281.348.435.333.64-.016.205.023.572.166 1.121.142.55.171 1.157.083 1.587-.09.43-.55 1.226-1.001 2.506-.453 1.28-.491 2.918.078 4.39.238.616.567 1.139.87 1.541l.474.088c1.207.153 2.53.294 3.944.523a9.742 9.742 0 0 1-1.683-1.014c-2.627-1.889-3.37-3.77-3.142-3.908.298-.248 1.536 1.184 4.029 2.456.653.378 1.43.596 2.297.843-.08-.14-.2-.297-.295-.452-1.084-1.765-2.118-5.097-2.149-5.952-.03-.855.308-1.51-.202-2.838-.51-1.329-2.084-1.73-2.461-1.753-.376-.024-.78-.16-.78-.16s-.4-.382-.777-.663c-.376-.282-.727-.275-.727-.275-.091.014.06.147.187.269z"/>
        <path fill="#16254F" d="M54.645 34.444c-.304-.02-.238-.268-.238-.268s.274-.33.341-.862c.066-.533-.178-1.153-.178-1.153s.966-1.097 1.11-1.256c.146-.159.081-.196-.126-.16-.207.036-1.323.696-1.323.696s-.93-.76-2.425-.288c-1.854.586-1.779 2.506-1.646 2.977.133.471.31 1.384.281 1.763-.028.379-.75 1.57-.72 2.729.028 1.158.177 1.708.177 1.708s-.524.876-.674 1.457l2.086.563c.693-.587 1.537-1.137 2.248-1.7.468-.371.524-.375 1.156-.367.096 0 .307.243.248.367-.484 1.025-.836 1.444-1.542 2.308.609.187 1.146.358 1.525.48.155.05.894-1.593.976-1.771.748-1.618 1.234-3.607.47-5.317-.26-.58-1.015-1.86-1.746-1.906"/>
        <path stroke="#16254F" d="M54.645 34.444c-.304-.02-.238-.268-.238-.268s.274-.33.341-.862c.066-.533-.178-1.153-.178-1.153s.966-1.097 1.11-1.256c.146-.159.081-.196-.126-.16-.207.036-1.323.696-1.323.696s-.93-.76-2.425-.288c-1.854.586-1.779 2.506-1.646 2.977.133.471.31 1.384.281 1.763-.028.379-.75 1.57-.72 2.729.028 1.158.177 1.708.177 1.708s-.524.876-.674 1.457l2.086.563c.693-.587 1.537-1.137 2.248-1.7.468-.371.524-.375 1.156-.367.096 0 .307.243.248.367-.484 1.025-.836 1.444-1.542 2.308.609.187 1.146.358 1.525.48.155.05.894-1.593.976-1.771.748-1.618 1.234-3.607.47-5.317-.26-.58-1.015-1.86-1.746-1.906z"/>
        <path fill="#FFF" d="M14.19 14.785c-1.014-.397-2.008-.814-2.866-1.25-.727-.37-1.268-1.111-1.727-1.786-.582-.854-1.08-1.768-1.581-2.675-.438-.791-.834-1.638-1.468-2.282-.745-.758-1.729-.937-2.707-1.16-.612-.139-1.21-.32-1.834-.401-.242-.031-.575-.096-.81.006-.354.153-.036.522.134.704 1.208 1.3 2.61 2.402 3.876 3.641.892.873 1.77 1.774 2.51 2.794.369.507.703 1.044.977 1.615.302.63.423 1.273.53 1.969a20.722 20.722 0 0 0 1.566 5.313c.916 2.036 2.16 3.948 3.784 5.434.41.376.844.723 1.3 1.034 2.456 1.679 5.534 2.246 8.426 2.04 1.33-.095 2.663-.356 3.913-.851.925-.367 1.998-.835 2.604-1.728 1.092-1.606.27-3.798-.648-5.259-1.04-1.655-2.768-2.865-4.659-3.097-.485-.06-1.19-.252-1.979-.508"/>
        <path stroke="#16254F" d="M14.19 14.785c-1.014-.397-2.008-.814-2.866-1.25-.727-.37-1.268-1.111-1.727-1.786-.582-.854-1.08-1.768-1.581-2.675-.438-.791-.834-1.638-1.468-2.282-.745-.758-1.729-.937-2.707-1.16-.612-.139-1.21-.32-1.834-.401-.242-.031-.575-.096-.81.006-.354.153-.036.522.134.704 1.208 1.3 2.61 2.402 3.876 3.641.892.873 1.77 1.774 2.51 2.794.369.507.703 1.044.977 1.615.302.63.423 1.273.53 1.969a20.722 20.722 0 0 0 1.566 5.313c.916 2.036 2.16 3.948 3.784 5.434.41.376.844.723 1.3 1.034 2.456 1.679 5.534 2.246 8.426 2.04 1.33-.095 2.663-.356 3.913-.851.925-.367 1.998-.835 2.604-1.728 1.092-1.606.27-3.798-.648-5.259-1.04-1.655-2.768-2.865-4.659-3.097-.485-.06-1.19-.252-1.979-.508"/>
        <path fill="#16254F" d="M31.128 26.62l1.505 1.704-2.213-.563zM28.315 24.777a.695.695 0 0 0 .188.934.625.625 0 0 0 .89-.197.695.695 0 0 0-.188-.934.625.625 0 0 0-.89.197"/>
        <path fill="#FFF" d="M24.48 22.216c-1.113-3.355-2.55-9.899.406-15.627.896-1.736-1.194-1.617-2.795-.704-6.664 3.8-8.341 9.418-8.913 12.19-.128.624.078 1.271.541 1.684 2.773 2.471 6.022 4.078 9.185 4.492 1.084.142 1.935-.952 1.576-2.035z"/>
        <path stroke="#16254F" d="M22.904 24.25c1.084.143 1.935-.95 1.576-2.034-1.113-3.355-2.55-9.899.406-15.627.896-1.736-1.194-1.617-2.795-.704-6.664 3.8-8.341 9.418-8.913 12.19-.128.624.078 1.271.541 1.684 2.773 2.471 6.022 4.078 9.185 4.492z"/>
        <path fill="#FFF" d="M29.282 10.18c-.24-1.734-1.173-3.287-1.745-1.504-.966 3.012-2.631 5.274-4.36 6.975.06.936.174 1.834.321 2.676.803.262 1.52.459 2.012.519 1.076.132 2.1.584 2.976 1.256.816-2.575 1.35-5.919.796-9.922"/>
        <path stroke="#16254F" d="M29.282 10.18c-.24-1.734-1.173-3.287-1.745-1.504-.966 3.012-2.631 5.274-4.36 6.975.06.936.174 1.834.321 2.676.803.262 1.52.459 2.012.519 1.076.132 2.1.584 2.976 1.256.816-2.575 1.35-5.919.796-9.922z"/>
        <path fill="#16254F" d="M33.44 27.333c.014-.216-.052-.422-.164-.508-.113-.086-.265-.049-.377.094-.035.044-.07.1-.111.114-.067.022-.114-.076-.17-.12-.164-.132-.362.178-.542.34-.174.157-.404.177-.593.302-.22.145-.33.386-.425.631-.141.369-.343.57-.576.866-.125.159-.23.432-.173.64.068.252.258.638.464.757.145.083.384.153.544.084.026-.011.053-.028.064-.056.051-.126-.303-.26-.37-.35-.112-.147-.112-.346-.1-.526.038-.278.207-.36.377-.551.159-.179.16-.505.345-.655.335-.272.65-.421 1.057-.526.071-.018.154-.05.193-.154.142-.01.187.373.329.319.034-.013.065-.052.092-.094.101-.162.154-.4.135-.607M12.018 24.047c-.052-.03-.221.347-.23.38-.083.287.05.753.159 1.013.11.265.22.453.117.745a.388.388 0 0 1-.255.25c-.105.031-.218.016-.323.05-.141.047-.168.209-.065.316.11.115.296.112.438.079a.98.98 0 0 0 .264-.104c.016-.01.181-.114.168-.138 0 0 .244.424-.23.55-.185.048-.624.212-.38.475.17.182.426.133.624.034.287-.143.45-.467.488-.787.044-.372-.102-.72-.243-1.05-.089-.211-.183-.423-.239-.647-.098-.387-.2-.606.028-.841.16-.166-.321-.325-.321-.325M10.815 21.38c-.048-.052-.363.304-.384.337-.19.288-.2.855-.166 1.186.033.335.092.586-.121.872a.437.437 0 0 1-.368.182c-.128-.003-.248-.062-.376-.063-.173-.002-.258.169-.18.325.085.17.291.236.46.252.11.01.221.004.329-.018.021-.004.24-.059.233-.09 0 0 .13.562-.441.525-.222-.015-.766.004-.582.387.127.266.427.306.68.27.368-.052.66-.35.81-.693.174-.397.13-.838.085-1.258-.028-.267-.06-.539-.048-.808.023-.467-.016-.748.316-.925.234-.124-.246-.48-.247-.48"/>
        <path fill="#FFF" d="M69.989 22.345c-1.742.876-3.75 1.225-5.67 1.063-.998-.084-2.127-.234-3.002-.813-1.147-.76-1.188-2.15-.853-3.418.737-2.792 3.228-3.438 5.455-4.494 2.677-1.268 5.478-2.55 7.966-4.197 1.716-1.137 1.801-3.706 2.891-5.333.507-.757 1.882-1.075 2.7-1.35.272-.093 1.131-.317 1.297.074.23.545-.715 1.095-1.02 1.37-1.68 1.518-3.666 3.732-4.124 6.09.035 1.492-.261 3.497-.994 5.426"/>
        <path stroke="#16254F" d="M69.989 22.345c-1.742.876-3.75 1.225-5.67 1.063-.998-.084-2.127-.234-3.002-.813-1.147-.76-1.188-2.15-.853-3.418.737-2.792 3.228-3.438 5.455-4.494 2.677-1.268 5.478-2.55 7.966-4.197 1.716-1.137 1.801-3.706 2.891-5.333.507-.757 1.882-1.075 2.7-1.35.272-.093 1.131-.317 1.297.074.23.545-.715 1.095-1.02 1.37-1.68 1.518-3.666 3.732-4.124 6.09.035 1.492-.261 3.497-.994 5.426"/>
        <path fill="#16254F" d="M60.42 21.814l-.927 1.996 1.875-1.158zM62.389 20.134a.511.511 0 0 1-.064.696.456.456 0 0 1-.663-.067.511.511 0 0 1 .063-.696.456.456 0 0 1 .664.067"/>
        <path fill="#FFF" d="M72.655 15.115c-2.053 1.997-4.08 3.24-6.466 4.002-.542.173-.582.96-.06 1.191 2.443 1.083 6.924 3.223 8.718 7.527.544 1.307 1.426 0 1.652-1.366.952-5.76-1.672-9.663-2.97-11.291a.585.585 0 0 0-.874-.063"/>
        <path stroke="#16254F" d="M72.655 15.115c-2.053 1.997-4.08 3.24-6.466 4.002-.542.173-.582.96-.06 1.191 2.443 1.083 6.924 3.223 8.718 7.527.544 1.307 1.426 0 1.652-1.366.952-5.76-1.672-9.663-2.97-11.291a.585.585 0 0 0-.874-.063z"/>
        <path fill="#FFF" d="M65.446 23.441c1.51-.034 3.12-.383 4.537-1.095.172.112.344.23.515.35.286 1.925.868 3.976 2.024 5.768.716 1.11-.46 1.171-1.465.664-2.874-1.45-4.593-3.765-5.61-5.687"/>
        <path stroke="#16254F" d="M65.446 23.441c1.51-.034 3.12-.383 4.537-1.095.172.112.344.23.515.35.286 1.925.868 3.976 2.024 5.768.716 1.11-.46 1.171-1.465.664-2.874-1.45-4.593-3.765-5.61-5.687z"/>
        <path fill="#16254F" d="M60.007 22.99c.085.102.132.212.232.31.138.134.36.228.487.365.175.19.108.393.225.593.081.137.252.306.152.394-.034.03-.1.046-.094.093.003.028.035.058.06.087.075.09.082.194.015.254-.066.06-.202.076-.336.037a.67.67 0 0 1-.363-.17c-.023-.022-.044-.047-.048-.071-.018-.099.226-.076.235-.168-.06-.04-.07-.097-.074-.145l-.02-.287a.272.272 0 0 0-.04-.144c-.024-.035-.063-.07-.083-.105-.034-.061-.01-.117-.033-.178-.06-.16-.388-.268-.47-.428-.019-.037-.022-.075-.046-.112-.026-.04-.072-.075-.114-.11-.09-.075-.17-.159-.196-.242-.025-.084.022-.164.13-.17.137-.008.296.096.381.198M75.3 15.21c.02-.045.3.108.322.124.186.14.318.503.37.724.052.224.07.4.27.532a.292.292 0 0 0 .277.027c.082-.033.147-.1.229-.132.11-.043.203.046.187.166-.017.13-.135.223-.24.274a.763.763 0 0 1-.216.069c-.015.002-.168.02-.17-.002 0 0 .041.394.4.231.14-.063.494-.184.461.108-.024.201-.208.301-.38.34-.248.055-.501-.066-.674-.25-.2-.213-.268-.508-.333-.79-.04-.179-.08-.361-.148-.531-.117-.296-.155-.487-.408-.52-.178-.023.053-.369.053-.37"/>
    </g>
</svg>
