<svg xmlns="http://www.w3.org/2000/svg" width="40" height="40" viewBox="0 0 40 40">
    <g fill="none" fill-rule="evenodd">
        <rect width="40" height="40" fill="#16254F" rx="20"/>
        <g stroke="#FFF" transform="translate(12 11)">
            <path d="M10.108 8.453A3.846 3.846 0 0 0 12.84 9.5c2.07-.036 3.708-1.638 3.674-3.565-.032-1.832-1.566-3.318-3.496-3.428l-2.91 5.946z"/>
            <path stroke-width=".98" d="M13.143 12.49l3.308 4.513v-2.16c0-1.317-.842-2.353-1.823-2.353h-1.485z"/>
            <path d="M3.941 2.51C2.011 2.652.5 4.167.5 6c0 1.926 1.666 3.5 3.735 3.5 1.091 0 2.101-.44 2.802-1.185L3.94 2.511z"/>
            <path stroke-width=".98" d="M.49 17.003l3.308-4.513H2.313c-.98 0-1.823 1.034-1.823 2.351v2.162z"/>
            <ellipse cx="9" cy="4.5" rx="4.265" ry="4"/>
            <path stroke-width=".98" d="M3.666 17.373l9.609.13V14.5c0-1.68-1.074-3.01-2.337-3.01H6.003c-1.263 0-2.337 1.328-2.337 3.008v2.875z"/>
        </g>
    </g>
</svg>
