<svg xmlns="http://www.w3.org/2000/svg" width="158" height="158" viewBox="0 0 158 158">
    <g fill="none" fill-rule="evenodd">
        <rect width="158" height="158" fill="#F0F0F0" rx="3"/>
        <path fill="#666" d="M47.461 84V55.52h10.12c2.587 0 4.654.627 6.2 1.88 1.547 1.253 2.32 2.973 2.32 5.16 0 2.48-.946 4.44-2.84 5.88 1.387.587 2.474 1.48 3.26 2.68.787 1.2 1.18 2.613 1.18 4.24 0 2.56-.94 4.64-2.82 6.24-1.88 1.6-4.366 2.4-7.46 2.4h-9.96zm5.2-16.72h3.96c1.334 0 2.387-.353 3.16-1.06.774-.707 1.16-1.647 1.16-2.82 0-1.147-.373-2.047-1.12-2.7-.746-.653-1.773-.98-3.08-.98h-4.08v7.56zm0 12.48h5.04c1.44 0 2.587-.387 3.44-1.16.854-.773 1.28-1.8 1.28-3.08 0-1.227-.413-2.207-1.24-2.94-.826-.733-1.946-1.1-3.36-1.1h-5.16v8.28zM72.341 84V55.52h5.36V84h-5.36zm11.88 0V55.52h5.6l15.4 20.36V55.52h5.08V84h-5.64l-15.36-20.28V84h-5.08zM0 0h158v2H0z"/>
    </g>
</svg>
