<svg xmlns="http://www.w3.org/2000/svg" width="24" height="24" viewBox="0 0 24 24">
    <g fill="none" fill-rule="evenodd">
        <rect width="22" height="22" x="1" y="1" fill="#666" stroke="#666" stroke-width="2" rx="2"/>
        <path fill="#FFF" d="M3.387 17V8.38H4.74c.785 0 1.36.052 1.723.153.516.137.926.39 1.23.762.305.371.457.809.457 1.312 0 .329-.069.626-.208.894-.138.268-.364.519-.676.753.523.246.906.554 1.148.923.242.369.363.805.363 1.31 0 .484-.125.925-.375 1.324-.25.398-.572.696-.966.893-.395.197-.94.296-1.635.296H3.387zm1.64-7.055v1.817h.358c.398 0 .694-.084.887-.252.194-.168.29-.397.29-.686 0-.27-.091-.483-.275-.641-.183-.159-.463-.238-.838-.238h-.422zm0 3.282v2.209h.41c.68 0 1.138-.086 1.375-.258.236-.172.354-.422.354-.75 0-.371-.139-.664-.416-.88-.277-.214-.738-.321-1.383-.321h-.34zM10.23 8.38h1.63V17h-1.63V8.38zm3.48 0h1.571l3.698 5.672V8.38h1.64V17h-1.576l-3.691-5.654V17H13.71V8.38z"/>
    </g>
</svg>
