<?xml version="1.0" encoding="UTF-8"?>
<svg width="35px" height="38px" viewBox="0 0 35 38" version="1.1" xmlns="http://www.w3.org/2000/svg" xmlns:xlink="http://www.w3.org/1999/xlink">
    <!-- Generator: Sketch 46.2 (44496) - http://www.bohemiancoding.com/sketch -->
    <title>Cloud Logo</title>
    <desc>Created with Sketch.</desc>
    <defs>
        <polygon id="path-1" points="34.4029116 0.000226865672 0 0.000226865672 0 37.9701672 34.4029116 37.9701672 34.4029116 0.000226865672"></polygon>
    </defs>
    <g id="Symbols" stroke="none" stroke-width="1" fill="none" fill-rule="evenodd">
        <g id="Header---search---Hamburger---select---dokka-Copy-4" transform="translate(-143.000000, -13.000000)">
            <g id="Cloud-Logo" transform="translate(136.000000, 8.000000)">
                <g id="Page-1" transform="translate(7.000000, 5.000000)">
                    <mask id="mask-2" fill="white">
                        <use xlink:href="#path-1"></use>
                    </mask>
                    <g id="Clip-2"></g>
                    <path d="M20.064397,22.1673851 L19.1030537,22.1673851 L19.1030537,24.0719224 C19.1030537,26.2367881 21.8486955,26.1766687 21.8486955,29.141803 C21.8486955,30.7797731 20.1971134,32.1080716 18.4383373,32.1080716 C16.5627254,32.1080716 15.0376209,30.7797731 15.0376209,29.141803 C15.0376209,26.3451164 17.5711433,26.2679821 17.5711433,24.0792955 L17.5728448,22.1673851 L10.2337403,22.1673851 C7.89702388,22.1673851 6.00269552,20.2747582 6.00269552,17.9380418 C6.00269552,16.2172657 7.03606866,14.743206 8.50275522,14.0818925 C8.83851642,12.3940119 10.3239194,11.1207284 12.1110537,11.119594 C12.5381284,11.119594 12.9487552,11.195594 13.3338597,11.3305791 C14.2305463,10.1650567 15.6427851,9.41186269 17.2285761,9.41186269 C19.8205164,9.41186269 21.9388746,11.4139522 22.1254716,13.9554149 C23.494606,14.6898925 24.4332627,16.1367284 24.4332627,17.8013552 C24.4332627,20.2112358 22.4788149,22.1673851 20.064397,22.1673851 M27.1125463,17.6527582 C31.001591,13.9678925 32.839203,9.66878806 31.5364269,6.05538507 C29.3573821,0.0190567164 19.2584567,-1.81174925 8.97350149,1.96442985 C6.92377015,2.71705672 5.02320299,3.63699701 3.30809851,4.67320597 C2.95078507,4.91254925 2.5878,5.1303403 2.2378597,5.35153433 C1.9718597,5.52848955 1.68203881,5.7082806 1.42681493,5.8903403 C-0.12381194,7.08875821 -0.857722388,8.85660896 1.57938209,14.2367284 C1.57938209,14.2367284 2.94000896,16.5241015 2.94000896,19.9571463 C2.94000896,21.8679224 2.53278507,23.6771761 1.80057612,25.307206 C1.6616209,25.611206 1.51188955,25.9072657 1.35081493,26.1982209 C-1.28933433,32.1398328 0.437680597,33.3416537 2.48117313,34.6143701 C5.30281493,36.2109373 8.69275522,37.4093552 12.4479493,37.7984299 C22.4124567,38.8289672 33.2747851,35.1605493 34.3092925,28.5434448 C34.9632328,24.3969075 32.1518,20.6644 27.1125463,17.6527582" id="Fill-1" fill="#FFC304" mask="url(#mask-2)"></path>
                </g>
            </g>
        </g>
    </g>
</svg>