<svg xmlns="http://www.w3.org/2000/svg" width="24" height="24" viewBox="0 0 24 24">
    <g fill="none" fill-rule="evenodd">
        <path stroke="#16254F" stroke-linecap="round" stroke-linejoin="round" d="M7.5 7.5h5M15.5 7.5h1M15.5 10.5h1M15.5 13.5h1M15.5 16.5h1M7.5 10.5h5M7.5 13.5h5M7.5 16.5h5"/>
        <rect width="15" height="15" x="4.5" y="4.5" stroke="#16254F" rx="2"/>
        <path fill="#16254F" d="M23.57 22.431c-3.533-2.662-5.444-2.394-8.106 1.14 2.662-3.534 2.394-5.445-1.14-8.107 3.534 2.662 5.445 2.394 8.107-1.14-2.662 3.534-2.394 5.445 1.14 8.107z"/>
        <path fill="#FFF" d="M21.574 20.927c-2.007-1.513-3.093-1.36-4.606.647 1.513-2.007 1.36-3.093-.647-4.606 2.008 1.513 3.093 1.36 4.606-.647-1.513 2.008-1.36 3.093.647 4.606z"/>
    </g>
</svg>
