<svg xmlns="http://www.w3.org/2000/svg" width="24" height="24" viewBox="0 0 24 24">
    <g fill="none" fill-rule="evenodd">
        <rect width="19" height="14" x="2.5" y="8.5" stroke="#979797" rx="2"/>
        <path stroke="#979797" stroke-linecap="round" stroke-linejoin="round" d="M4.5 6.5h15M5.5 4.5h13M6.5 2.5h11"/>
        <path fill="#979797" d="M10 15.5c-1.103 0-2-.897-2-2s.897-2 2-2 2 .897 2 2-.897 2-2 2m0-5a3 3 0 1 0 0 6 3 3 0 0 0 0-6M13.087 17.48H6.912C5.307 17.48 4 18.836 4 20.508v1.457a.5.5 0 1 0 1 0v-1.457c0-1.118.858-2.028 1.912-2.028h6.175c1.055 0 1.913.91 1.913 2.03v1.455a.5.5 0 1 0 1 0V20.51c0-.363-.072-.707-.185-1.03h1.272c1.055 0 1.913.91 1.913 2.03v.455a.5.5 0 1 0 1 0v-.455c0-1.67-1.304-3.03-2.913-3.03h-1.852c-.533-.61-1.294-1-2.148-1M16.219 12.48a2.5 2.5 0 1 0-.001 5 2.5 2.5 0 0 0 0-5m0 1c.828 0 1.5.673 1.5 1.5s-.672 1.5-1.5 1.5c-.826 0-1.5-.673-1.5-1.5s.674-1.5 1.5-1.5"/>
    </g>
</svg>
