<svg xmlns="http://www.w3.org/2000/svg" width="24" height="24" viewBox="0 0 24 24">
    <g fill="none" fill-rule="evenodd" stroke="#16254F">
        <path d="M15 4.5H6A1.5 1.5 0 0 0 4.5 6v12A1.5 1.5 0 0 0 6 19.5h12a1.5 1.5 0 0 0 1.5-1.5V9a.5.5 0 0 0-.5-.5h-2A1.5 1.5 0 0 1 15.5 7V5a.5.5 0 0 0-.5-.5z"/>
        <path d="M6 4.5h8.996c.726 0 4.504 3.821 4.504 4.566V18a1.5 1.5 0 0 1-1.5 1.5H6A1.5 1.5 0 0 1 4.5 18V6A1.5 1.5 0 0 1 6 4.5z"/>
        <path stroke-linecap="round" d="M6.5 7.5h7M6.5 10.5h11M6.5 13.5h11M6.5 16.5h11"/>
    </g>
</svg>
