<svg xmlns="http://www.w3.org/2000/svg" width="24" height="24" viewBox="0 0 24 24">
    <path fill="none" fill-rule="evenodd" stroke="#FFC304" d="M19.3 9.494c-.386 0-.7.32-.7.716 0 .137.04.265.106.374l-4.057 2.557-2.256-5.232a.997.997 0 0 0 .582-.912A.986.986 0 0 0 12 6a.986.986 0 0 0-.975.997c0 .408.24.757.582.912L9.35 13.14l-4.057-2.557a.722.722 0 0 0 .106-.374.708.708 0 0 0-.7-.716c-.387 0-.7.32-.7.716 0 .395.313.716.7.716.096 0 .187-.02.27-.056L7.878 18S9.16 16.715 12 16.715c2.84 0 4.121 1.285 4.121 1.285l2.91-7.13a.683.683 0 0 0 .27.056c.385 0 .699-.32.699-.716a.708.708 0 0 0-.7-.716"/>
</svg>
