<svg xmlns="http://www.w3.org/2000/svg" width="24" height="24" viewBox="0 0 24 24">
    <path fill="#979797" fill-rule="nonzero" d="M5 17.5c0 .28.22.5.493.5h12.014c.274 0 .493-.22.493-.5s-.22-.5-.493-.5H5.493a.494.494 0 0 0-.493.5zm6-5.672V4.5a.5.5 0 1 1 1 0v7.328l1.414-1.414a.5.5 0 1 1 .707.707l-2.267 2.268a.5.5 0 0 1-.708 0L8.88 11.121a.5.5 0 1 1 .707-.707L11 11.828zM4 17.5c0-.828.664-1.5 1.493-1.5h12.014c.825 0 1.493.666 1.493 1.5 0 .828-.664 1.5-1.493 1.5H5.493A1.493 1.493 0 0 1 4 17.5z"/>
</svg>
