<?xml version="1.0" encoding="UTF-8"?>
<svg width="24px" height="24px" viewBox="0 0 24 24" version="1.1" xmlns="http://www.w3.org/2000/svg" xmlns:xlink="http://www.w3.org/1999/xlink">
    <!-- Generator: Sketch 48.2 (47327) - http://www.bohemiancoding.com/sketch -->
    <title>Download Yellow 24x24 Copy@1.5x</title>
    <desc>Created with Sketch.</desc>
    <defs></defs>
    <g id="Page-1" stroke="none" stroke-width="1" fill="none" fill-rule="evenodd">
        <g id="Download-Yellow-24x24-Copy" fill="#16254F" fill-rule="nonzero">
            <path d="M5,17.5 C5,17.7803593 5.21921286,18 5.49309635,18 L17.5069036,18 C17.7807273,18 18,17.779244 18,17.5 C18,17.2196407 17.7807871,17 17.5069036,17 L5.49309635,17 C5.21927274,17 5,17.220756 5,17.5 Z M4,17.5 C4,16.6715729 4.66388585,16 5.49309635,16 L17.5069036,16 C18.331518,16 19,16.6657972 19,17.5 C19,18.3284271 18.3361142,19 17.5069036,19 L5.49309635,19 C4.66848201,19 4,18.3342028 4,17.5 Z" id="Rectangle-8"></path>
            <path d="M11,4.5 C11,4.22385763 11.2238576,4 11.5,4 C11.7761424,4 12,4.22385763 12,4.5 L12,12.5 C12,12.7761424 11.7761424,13 11.5,13 C11.2238576,13 11,12.7761424 11,12.5 L11,4.5 Z" id="Line"></path>
            <path d="M10.3964466,12.3713203 C10.3964466,12.6474627 10.172589,12.8713203 9.89644661,12.8713203 C9.62030423,12.8713203 9.39644661,12.6474627 9.39644661,12.3713203 L9.39644661,9.16421356 C9.39644661,8.88807119 9.62030423,8.66421356 9.89644661,8.66421356 L13.1035534,8.66421356 C13.3796958,8.66421356 13.6035534,8.88807119 13.6035534,9.16421356 C13.6035534,9.44035594 13.3796958,9.66421356 13.1035534,9.66421356 L10.3964466,9.66421356 L10.3964466,12.3713203 Z" id="Rectangle-3" transform="translate(11.500000, 10.767767) rotate(-135.000000) translate(-11.500000, -10.767767) "></path>
        </g>
    </g>
</svg>