<svg xmlns="http://www.w3.org/2000/svg" width="24" height="24" viewBox="0 0 24 24">
    <g fill="none" fill-rule="evenodd" stroke="#16254F">
        <path fill="#FFC304" d="M15.5 18.383c0 .843-.675 1.532-1.5 1.532s-1.5-.69-1.5-1.532c0-.843.675-1.532 1.5-1.532s1.5.69 1.5 1.532zM20.5 18.383c0 .843-.675 1.532-1.5 1.532s-1.5-.69-1.5-1.532c0-.843.675-1.532 1.5-1.532s1.5.69 1.5 1.532z"/>
        <path d="M.5 14.5h23v-.815L20.19 2.102C19.909 1.077 19.117.5 18.11.5H5.89c-1.007 0-1.799.577-2.081 1.608L.5 13.663v.837z"/>
        <path d="M.5 14.287V20.5a2.5 2.5 0 0 0 2.5 2.5h18a2.5 2.5 0 0 0 2.5-2.5v-6.212H.5z"/>
    </g>
</svg>
