<svg xmlns="http://www.w3.org/2000/svg" width="24" height="24" viewBox="0 0 24 24">
    <path fill="#16254F" fill-rule="evenodd" d="M19.237 4.763a2.609 2.609 0 0 0-3.687 0L5.108 15.205l-.012.017-.017.021a.296.296 0 0 0-.035.07c-.003.008-.008.014-.01.022l-.003.009-1.024 4.3a.27.27 0 0 0-.006.058l-.001.01a.28.28 0 0 0 .018.097l.009.022c.014.03.032.06.058.084.027.029.06.05.095.064a.293.293 0 0 0 .176.014l4.3-1.024c.009-.001.014-.005.023-.008.01-.003.018-.007.028-.012a.307.307 0 0 0 .058-.035l.021-.016.007-.006L19.237 8.449a2.61 2.61 0 0 0 0-3.686zm-.41.408a2.03 2.03 0 0 1 .189 2.647L16.18 4.983a2.03 2.03 0 0 1 2.647.188zm-1.433 4.302l-2.867-2.868.41-.409 2.866 2.867-.409.41zm-11.957 9.09a.29.29 0 0 0-.41 0l-.22.22.74-3.107 1.28-.143-.163 1.483c-.002.012.003.022.003.033 0 .011-.005.021-.003.031 0 .01.005.019.007.027a.267.267 0 0 0 .016.048.257.257 0 0 0 .055.09c.014.015.03.026.046.039a.423.423 0 0 0 .04.024c.018.008.04.014.06.018.01.003.019.009.03.01l.033.003h.001l.031-.003 1.484-.164-.143 1.281-3.107.74.22-.22a.29.29 0 0 0 0-.41zm3.633-1.586l6.48-6.48a.29.29 0 0 0-.408-.41l-6.48 6.48-1.383.154.154-1.383 6.48-6.48a.289.289 0 1 0-.409-.41l-6.48 6.482-.923.101 8.017-8.016 2.866 2.866L8.97 17.9l.101-.922zm9.143-8.323l-2.868-2.868.41-.41 2.868 2.868-.41.41z"/>
</svg>
