<svg xmlns="http://www.w3.org/2000/svg" width="24" height="24" viewBox="0 0 24 24">
    <path fill="#16254F" fill-rule="evenodd" d="M14 12.502V7.253h5c.552 0 1 .471 1 1.05v4.2h-6zm6 8.398c0 .579-.448 1.05-1 1.05h-5v-5.249h6v4.2zm-6-5.249h6v-2.1h-6v2.1zm-3 6.3V7.252h.425c.006 0 .012.003.017.003l.015-.003h1.086l.015.003c.005 0 .011-.003.017-.003H13v14.698h-2zm-6 0c-.552 0-1-.472-1-1.05v-4.2h6v5.25H5zm-1-6.3h6v-2.1H4v2.1zm0-7.348c0-.579.448-1.05 1-1.05h5v5.25H4v-4.2zm3.36-5.74c.222-.487.448-.514.559-.514h.02c.928.016 2.482 1.933 3.461 3.556-.536-.234-1.043-.436-1.514-.624-2.4-.955-2.918-1.296-2.526-2.417zm8.701-.514h.021c.111 0 .336.025.54.472.41 1.164-.108 1.505-2.508 2.46-.471.188-.978.39-1.514.624.979-1.623 2.533-3.54 3.461-3.556zM19 6.203h-5.118c.194-.078.402-.167.587-.24 2.087-.832 3.887-1.549 3.073-3.85-.415-.916-1.024-1.114-1.473-1.114h-.025c-1.342.023-2.969 1.972-4.044 3.66C10.925 2.971 9.298 1.022 7.956 1h-.025c-.449 0-1.058.199-1.491 1.156-.796 2.26 1.004 2.976 3.091 3.808.185.073.393.162.587.24H5c-1.104 0-2 .94-2 2.1V20.9C3 22.058 3.896 23 5 23h14c1.104 0 2-.94 2-2.1V8.302c0-1.158-.896-2.099-2-2.099z"/>
</svg>
