<svg xmlns="http://www.w3.org/2000/svg" xmlns:xlink="http://www.w3.org/1999/xlink" width="24" height="24" viewBox="0 0 24 24">
    <defs>
        <path id="a" d="M2 3h20.005v18.5H2z"/>
    </defs>
    <g fill="none" fill-rule="evenodd">
        <mask id="b" fill="#fff">
            <use xlink:href="#a"/>
        </mask>
        <path fill="#16254F" d="M20.926 11.224l-.692.801a.376.376 0 0 1-.235.119c-.123 0-.201-.022-.268-.076L12.64 6.34a1.02 1.02 0 0 0-1.277 0l-7.09 5.727a.398.398 0 0 1-.23.078l-.037-.002a.37.37 0 0 1-.234-.119l-.693-.8a.346.346 0 0 1 .045-.487l8.03-6.481c.234-.189.54-.284.848-.284.307 0 .614.095.849.284l2.724 2.207v-2.11c0-.194.157-.346.358-.346h2.144c.202 0 .358.152.358.346V8.77l2.445 1.969a.345.345 0 0 1 .045.486M18 20.027h-3.478c-.012-1.565-.003-3.614.002-4.668l.002-.633c0-.244 0-.895-2.63-.895-.533 0-1.024.038-1.382.108-.647.124-.975.39-.975.787v5.3h-3.54c-.826 0-1.5-.653-1.5-1.459v-5.531c.124-.043.244-.098.356-.175l.059-.044 7.089-5.727 7.089 5.727c.124.1.26.173.408.223v5.527c0 .806-.673 1.46-1.5 1.46m3.526-10.033l-2.09-1.684V4.354c0-.728-.61-1.32-1.358-1.32h-2.144c-.748 0-1.358.592-1.358 1.32v.034l-1.085-.88A2.367 2.367 0 0 0 12.003 3c-.554 0-1.081.18-1.487.508l-8.03 6.48a1.32 1.32 0 0 0-.481.907c-.03.353.08.694.314.959l.688.798c.13.15.305.257.493.338v5.577C3.5 19.91 4.62 21 6 21h4.039c.277 0 .5-.217.5-.487v-5.586c.562-.174 2.377-.155 2.986.028l-.001.4c-.005 1.17-.015 3.56.002 5.164.003.267.225.48.5.48H18c1.379 0 2.5-1.09 2.5-2.432v-5.576c.192-.08.368-.188.5-.341l.69-.8c.23-.26.34-.602.31-.955a1.316 1.316 0 0 0-.474-.901" mask="url(#b)"/>
    </g>
</svg>
