<svg xmlns="http://www.w3.org/2000/svg" width="40" height="40" viewBox="0 0 40 40">
    <defs>
        <radialGradient id="a" cx="26.563%" cy="107.702%" r="49.991%" fx="26.563%" fy="107.702%" gradientTransform="matrix(1 0 0 .99264 0 .008)">
            <stop offset="0%" stop-color="#FD5"/>
            <stop offset="10%" stop-color="#FD5"/>
            <stop offset="50%" stop-color="#FF543E"/>
            <stop offset="100%" stop-color="#C837AB"/>
        </radialGradient>
        <radialGradient id="b" cx="-16.751%" cy="7.204%" r="49.991%" fx="-16.751%" fy="7.204%" gradientTransform="matrix(1 0 0 .99264 0 0)">
            <stop offset="0%" stop-color="#3771C8"/>
            <stop offset="12.8%" stop-color="#3771C8"/>
            <stop offset="100%" stop-color="#60F" stop-opacity="0"/>
        </radialGradient>
    </defs>
    <g fill="none" fill-rule="nonzero">
        <path fill="url(#a)" d="M19.858 0C11.57 0 9.146.009 8.675.048c-1.7.142-2.759.412-3.912.99-.888.445-1.59.96-2.28 1.683C1.222 4.04.458 5.66.182 7.586.049 8.522.009 8.713.002 13.49c-.004 1.593 0 3.69 0 6.5 0 8.345.009 10.785.048 11.259.138 1.668.397 2.717.947 3.865a8.377 8.377 0 0 0 5.42 4.461c.818.212 1.722.33 2.882.385.492.021 5.503.037 10.516.037 5.014 0 10.028-.007 10.507-.031 1.344-.064 2.124-.17 2.986-.394a8.326 8.326 0 0 0 5.42-4.47c.54-1.12.812-2.21.936-3.79.027-.345.038-5.84.038-11.327 0-5.488-.012-10.972-.039-11.317-.125-1.606-.398-2.686-.955-3.827a7.926 7.926 0 0 0-1.699-2.346C35.696 1.23 34.09.462 32.176.183 31.249.048 31.064.008 26.319 0h-6.461z"/>
        <path fill="url(#b)" d="M19.858 0C11.57 0 9.146.009 8.675.048c-1.7.142-2.759.412-3.912.99-.888.445-1.59.96-2.28 1.683C1.222 4.04.458 5.66.182 7.586.049 8.522.009 8.713.002 13.49c-.004 1.593 0 3.69 0 6.5 0 8.345.009 10.785.048 11.259.138 1.668.397 2.717.947 3.865a8.377 8.377 0 0 0 5.42 4.461c.818.212 1.722.33 2.882.385.492.021 5.503.037 10.516.037 5.014 0 10.028-.007 10.507-.031 1.344-.064 2.124-.17 2.986-.394a8.326 8.326 0 0 0 5.42-4.47c.54-1.12.812-2.21.936-3.79.027-.345.038-5.84.038-11.327 0-5.488-.012-10.972-.039-11.317-.125-1.606-.398-2.686-.955-3.827a7.926 7.926 0 0 0-1.699-2.346C35.696 1.23 34.09.462 32.176.183 31.249.048 31.064.008 26.319 0h-6.461z"/>
        <path fill="#FFF" d="M19.849 5.23c-3.98 0-4.48.018-6.044.09-1.56.072-2.625.32-3.557.686A7.171 7.171 0 0 0 7.652 7.71a7.256 7.256 0 0 0-1.692 2.616c-.363.94-.61 2.013-.68 3.585-.07 1.575-.09 2.079-.09 6.09 0 4.011.019 4.513.09 6.088.071 1.573.318 2.646.68 3.585a7.243 7.243 0 0 0 1.69 2.616 7.171 7.171 0 0 0 2.596 1.705c.933.365 1.998.614 3.558.686 1.563.072 2.063.09 6.043.09s4.478-.018 6.042-.09c1.56-.072 2.626-.32 3.559-.686a7.166 7.166 0 0 0 2.594-1.705 7.256 7.256 0 0 0 1.692-2.616c.36-.94.608-2.013.681-3.584.07-1.576.089-2.078.089-6.089 0-4.011-.019-4.514-.089-6.09-.073-1.572-.32-2.645-.681-3.584a7.255 7.255 0 0 0-1.692-2.617 7.158 7.158 0 0 0-2.595-1.703c-.934-.365-2-.614-3.56-.686-1.564-.072-2.061-.09-6.043-.09h.005zm-1.315 2.662h1.315c3.913 0 4.377.014 5.922.085 1.429.066 2.205.307 2.721.509a4.53 4.53 0 0 1 1.684 1.104c.513.517.831 1.01 1.097 1.699.2.52.44 1.301.505 2.741.07 1.557.086 2.025.086 5.967 0 3.941-.016 4.409-.086 5.966-.065 1.44-.304 2.221-.505 2.741a4.57 4.57 0 0 1-1.097 1.697 4.53 4.53 0 0 1-1.684 1.105c-.516.203-1.292.443-2.721.508-1.545.071-2.01.087-5.922.087-3.914 0-4.378-.016-5.923-.087-1.429-.066-2.204-.307-2.721-.509a4.536 4.536 0 0 1-1.686-1.104 4.581 4.581 0 0 1-1.097-1.698c-.2-.52-.44-1.301-.504-2.741-.07-1.557-.085-2.025-.085-5.97 0-3.943.014-4.408.085-5.965.065-1.44.304-2.222.504-2.742A4.58 4.58 0 0 1 9.52 9.586a4.545 4.545 0 0 1 1.686-1.105c.516-.203 1.292-.443 2.721-.51 1.352-.06 1.876-.08 4.608-.082v.003zm9.138 2.453c-.97 0-1.759.793-1.759 1.771 0 .979.788 1.773 1.76 1.773.97 0 1.758-.794 1.758-1.773 0-.978-.788-1.772-1.759-1.772zm-7.823 2.07c-4.157 0-7.527 3.396-7.527 7.585s3.37 7.583 7.527 7.583c4.156 0 7.525-3.394 7.525-7.583s-3.37-7.585-7.526-7.585zm0 2.662c2.698 0 4.885 2.204 4.885 4.923s-2.187 4.923-4.885 4.923c-2.699 0-4.886-2.204-4.886-4.923 0-2.72 2.187-4.923 4.886-4.923z"/>
    </g>
</svg>
