<?xml version="1.0" encoding="UTF-8"?>
<svg width="24px" height="24px" viewBox="0 0 24 24" version="1.1" xmlns="http://www.w3.org/2000/svg" xmlns:xlink="http://www.w3.org/1999/xlink">
    <!-- Generator: Sketch 48.2 (47327) - http://www.bohemiancoding.com/sketch -->
    <title>Folder 24x24 move</title>
    <desc>Created with Sketch.</desc>
    <defs></defs>
    <g id="Page-1" stroke="none" stroke-width="1" fill="none" fill-rule="evenodd">
        <g id="Folder-24x24-move">
            <g id="Folder" transform="translate(4.000000, 4.000000)">
                <path d="M2,1 C1.44771525,1 1,1.44771525 1,2 L1,14 C1,14.5522847 1.44771525,15 2,15 L14,15 C14.5522847,15 15,14.5522847 15,14 L15,3.92 C15,3.36771525 14.5522847,2.92 14,2.92 L8.28,2.92 L8.28,1.92 C8.28,1.41189803 7.86810197,1 7.36,1 L2,1 Z M2,0 L7.36,2.22044605e-16 C8.42038672,2.72547246e-17 9.28,0.85961328 9.28,1.92 L14,1.92 C15.1045695,1.92 16,2.8154305 16,3.92 L16,14 C16,15.1045695 15.1045695,16 14,16 L2,16 C0.8954305,16 1.3527075e-16,15.1045695 0,14 L0,2 C-1.3527075e-16,0.8954305 0.8954305,2.02906125e-16 2,0 Z" id="Rectangle-2-Copy-3" fill="#16254F" fill-rule="nonzero"></path>
                <path d="M10.5,1.76556783 L15.5,5.76249157 L15.5,1.26263467 C15.5,0.848054448 15.1314129,0.5 14.6628791,0.5 L11.3371209,0.5 C10.8685871,0.5 10.5,0.848054448 10.5,1.26263467 L10.5,1.76556783 Z" id="Rectangle-2-Copy-4" stroke="#16254F"></path>
            </g>
            <g id="Group" transform="translate(11.500000, 12.500000) rotate(90.000000) translate(-11.500000, -12.500000) translate(8.000000, 7.000000)" fill="#16254F" fill-rule="nonzero">
                <path d="M2.76776695,1.53553391 C2.76776695,1.25939153 2.99162458,1.03553391 3.26776695,1.03553391 C3.54390933,1.03553391 3.76776695,1.25939153 3.76776695,1.53553391 L3.76776695,9.53553391 C3.76776695,9.81167628 3.54390933,10.0355339 3.26776695,10.0355339 C2.99162458,10.0355339 2.76776695,9.81167628 2.76776695,9.53553391 L2.76776695,1.53553391 Z" id="Line"></path>
                <path d="M3.26776695,1.70710678 L1.35355339,3.62132034 C1.15829124,3.81658249 0.841708755,3.81658249 0.646446609,3.62132034 C0.451184464,3.4260582 0.451184464,3.10947571 0.646446609,2.91421356 L2.91421356,0.646446609 C3.10947571,0.451184464 3.4260582,0.451184464 3.62132034,0.646446609 L5.8890873,2.91421356 C6.08434944,3.10947571 6.08434944,3.4260582 5.8890873,3.62132034 C5.69382515,3.81658249 5.37724266,3.81658249 5.18198052,3.62132034 L3.26776695,1.70710678 Z" id="Rectangle-3"></path>
            </g>
        </g>
    </g>
</svg>