<svg xmlns="http://www.w3.org/2000/svg" width="18" height="20" viewBox="0 0 18 20">
    <g fill="#16254F" fill-rule="evenodd">
        <path d="M17 17H1v-.905a.277.277 0 0 1 .109-.147c1.113-.617 3.708-2.634 3.708-8.007 0-.084.01-.168.043-.31A4.28 4.28 0 0 1 6.23 5.08c.268-.3 1.147-1.357 1.188-2.36l-.004-.117C7.414 1.72 8.125 1 9 1c.862 0 1.572.708 1.595 1.644 0 1.074.98 2.217 1.214 2.472a4.292 4.292 0 0 1 1.341 2.568c.022.084.033.17.033.257 0 5.375 2.595 7.39 3.708 8.007a.285.285 0 0 1 .109.143V17zm.347-2.117c-.944-.519-3.135-2.237-3.135-6.98 0-.176-.024-.35-.056-.462a5.184 5.184 0 0 0-1.617-3.067c-.31-.342-.897-1.138-.907-1.781A2.643 2.643 0 0 0 9 0C7.548 0 6.367 1.182 6.37 2.705c-.021.547-.605 1.332-.872 1.633-.895.814-1.483 1.918-1.644 3.055-.043.168-.066.34-.066.51 0 4.742-2.191 6.461-3.135 6.98-.384.212-.653.649-.653 1.062v1.002a.95.95 0 0 0 .95.948h5.465a2.638 2.638 0 1 0 5.17 0h5.465a.95.95 0 0 0 .95-.948v-1.002c0-.413-.269-.85-.653-1.062z"/>
        <path d="M9 2a1 1 0 1 0 0 2 1 1 0 0 0 0-2"/>
    </g>
</svg>
