<?xml version="1.0" encoding="UTF-8"?>
<svg width="61px" height="36px" viewBox="0 0 61 36" version="1.1" xmlns="http://www.w3.org/2000/svg" xmlns:xlink="http://www.w3.org/1999/xlink">
    <!-- Generator: Sketch 48.2 (47327) - http://www.bohemiancoding.com/sketch -->
    <title>Tag</title>
    <desc>Created with Sketch.</desc>
    <defs>
        <path d="M5.88953488,0 L52.1104651,0 L52.1104651,23.8883363 C52.1104651,24.9929058 51.2150346,25.8883363 50.1104651,25.8883363 L2.88953488,25.8883363 C1.78496538,25.8883363 0.889534884,24.9929058 0.889534884,23.8883363 L0.889534884,5 C0.889534884,2.23857625 3.12811113,-3.80913106e-16 5.88953488,-8.8817842e-16 Z" id="path-1"></path>
        <filter x="-12.7%" y="-25.1%" width="133.2%" height="165.7%" filterUnits="objectBoundingBox" id="filter-2">
            <feOffset dx="2" dy="2" in="SourceAlpha" result="shadowOffsetOuter1"></feOffset>
            <feGaussianBlur stdDeviation="2.5" in="shadowOffsetOuter1" result="shadowBlurOuter1"></feGaussianBlur>
            <feColorMatrix values="0 0 0 0 0   0 0 0 0 0   0 0 0 0 0  0 0 0 0.2 0" type="matrix" in="shadowBlurOuter1"></feColorMatrix>
        </filter>
    </defs>
    <g id="Feed-box-" stroke="none" stroke-width="1" fill="none" fill-rule="evenodd" transform="translate(-37.000000, 1.000000)">
        <g id="Tag" transform="translate(40.000000, 1.000000)">
            <g id="Group-8" stroke-width="1" transform="translate(-1.000000, 1.000000)">
                <g id="Group-16">
                    <g id="Group-15">
                        <path d="M49.374823,0 C50.1979452,0.00553236639 52.4063375,0.00553236639 56,0 C55.7319599,2 54.6193459,3 52.662158,3 C49.9289702,3 49.3951131,2.29925543 49.374823,0 Z" id="Rectangle-3" fill="#775A00" transform="translate(52.687412, 1.500000) rotate(-180.000000) translate(-52.687412, -1.500000) "></path>
                        <g id="Rectangle-2">
                            <use fill="black" fill-opacity="1" filter="url(#filter-2)" xlink:href="#path-1"></use>
                            <use fill="#FFC304" fill-rule="evenodd" xlink:href="#path-1"></use>
                        </g>
                    </g>
                    <path d="M54.318927,0.936886949 C54.318927,1.15747324 54.318927,1.61815326 54.318927,2.318927 C54.318927,1.55564736 53.04577,0.936886949 51.4752513,0.936886949 C50.4282388,0.936886949 51.3761307,0.936886949 54.318927,0.936886949 Z" id="Oval-5" fill="#FFC304" transform="translate(52.691020, 1.627907) rotate(-90.000000) translate(-52.691020, -1.627907) "></path>
                </g>
            </g>
            <path d="M31.09,18 L31.09,10.482 L35.528,10.482 C36.6480056,10.482 37.4226645,10.9066624 37.852,11.756 C38.048001,12.1666687 38.146,12.7219965 38.146,13.422 L38.146,18 L36.27,18 L36.27,13.366 C36.27,12.4886623 35.8686707,12.05 35.066,12.05 L32.966,12.05 L32.966,18 L31.09,18 Z M26.092,18 L26.092,12.05 L22.606,12.05 L22.606,10.482 L29.606,10.482 L29.606,12.05 L27.968,12.05 L27.968,18 L26.092,18 Z M16.838,18.196 C15.5313268,18.196 14.4766707,17.8063372 13.674,17.027 C12.8713293,16.2476628 12.47,15.1906733 12.47,13.856 L12.47,10.482 L14.248,10.482 L14.248,13.604 C14.248,13.9400017 14.2713331,14.2106656 14.318,14.416 C14.9340031,14.3039994 15.3819986,14.0730017 15.662,13.723 C15.9420014,13.3729983 16.082,12.8620034 16.082,12.19 L16.082,10.482 L17.818,10.482 L17.818,12.274 C17.818,13.2353381 17.5800024,13.979664 17.104,14.507 C16.6279976,15.034336 15.8626719,15.4053323 14.808,15.62 C15.2653356,16.3106701 15.9559954,16.656 16.88,16.656 C17.7106708,16.656 18.3803308,16.3643363 18.889,15.781 C19.3976692,15.1976638 19.652,14.4253381 19.652,13.464 L19.652,10.482 L21.43,10.482 L21.43,13.632 C21.43,14.9946735 21.0076709,16.0959958 20.163,16.936 C19.3183291,17.7760042 18.2100069,18.196 16.838,18.196 Z" id="חדש-copy" fill="#16254F"></path>
        </g>
    </g>
</svg>