<svg xmlns="http://www.w3.org/2000/svg" width="24" height="24" viewBox="0 0 24 24">
    <g fill="none" fill-rule="evenodd">
        <path fill="#16254F" fill-rule="nonzero" d="M13 12h2.5a.5.5 0 1 1 0 1H13v2.5a.5.5 0 1 1-1 0V13H9.5a.5.5 0 1 1 0-1H12V9.5a.5.5 0 1 1 1 0V12z"/>
        <path fill="#032D57" d="M19 15.661v2.342c0 .551-.448 1-1 1H6c-.551 0-1-.449-1-1v-12c0-.552.449-1 1-1H11.563c.551 0 1 .448 1 1v.658h.001v1H18c.552 0 1 .449 1 1v7zM13.564 6c0-.551.449-1 1-1h.78v.003H18a1 1 0 0 1 1 1v.938a1.96 1.96 0 0 0-1-.28h-4.437v-.002h.001V6zM18 4.003h-1.779V4h-1.657c-.6 0-1.134.274-1.501.696a1.99 1.99 0 0 0-1.5-.693H6c-1.1 0-2 .9-2 2v12c0 1.099.9 2 2 2h12c1.1 0 2-.901 2-2v-12c0-1.1-.9-2-2-2z"/>
    </g>
</svg>
