<?xml version="1.0" encoding="UTF-8"?>
<svg width="24px" height="24px" viewBox="0 0 24 24" version="1.1" xmlns="http://www.w3.org/2000/svg" xmlns:xlink="http://www.w3.org/1999/xlink">
    <!-- Generator: Sketch 48.1 (47250) - http://www.bohemiancoding.com/sketch -->
    <title>no-available</title>
    <desc>Created with Sketch.</desc>
    <defs></defs>
    <g id="Page-1" stroke="none" stroke-width="1" fill="none" fill-rule="evenodd">
        <g id="no-available">
            <circle id="Oval" stroke="#4A4A4A" cx="12" cy="12" r="11.5"></circle>
            <path d="M3.11914062,17.6657719 L3.11914062,6.328125 L4.32628632,6.328125 L8.6919346,15.0841591 L8.6919346,6.328125 L9.74672211,6.328125 L9.74672211,17.6657719 L8.54543634,17.6657719 L4.17392813,8.90973784 L4.17392813,17.6657719 L3.11914062,17.6657719 Z M9.87908725,19.9333013 L13.0024302,6.328125 L13.9107195,6.328125 L10.7873765,19.9333013 L9.87908725,19.9333013 Z M18.4380326,13.329888 L16.9613301,8.44244294 L15.4787676,13.329888 L18.4380326,13.329888 Z M19.7389371,17.6657719 L18.7954883,14.5249373 L15.1213119,14.5249373 L14.1661432,17.6657719 L13.0234567,17.6657719 L16.463236,6.328125 L17.6821015,6.328125 L21.0691414,17.6657719 L19.7389371,17.6657719 Z" id="N/A" fill="#4A4A4A"></path>
        </g>
    </g>
</svg>