<svg xmlns="http://www.w3.org/2000/svg" width="300" height="300" viewBox="0 0 300 300">
  <g fill="none">
    <rect width="280.286" height="280.014" x="9.857" y="10.129" fill="#E7E7E7"/>
    <path fill="#D8D8D8" d="M0.210771704,0.210771704 L299.789711,0.210771704 L299.789711,299.789711 L0.210771704,299.789711 L0.210771704,0.210771704 Z M183.928939,125.429421 L179.98119,102.359807 L99.1784566,116.547106 L111.02074,184.026849 L119.040193,182.670096 L119.040193,188.468006 L201.075723,188.468006 L201.075723,125.429421 L183.928939,125.429421 Z M119.040675,175.883923 L116.450161,176.376367 L106.827974,121.974116 L174.55418,110.006913 L177.26865,125.428457 L119.040675,125.428457 L119.040675,175.883923 Z M194.414952,181.805305 L125.701447,181.805305 L125.701447,132.090675 L194.414952,132.090675 L194.414952,181.805305 Z M130.142122,136.53135 L130.142122,173.415916 L144.082476,164.16463 L152.717363,169.59164 L173.688424,146.52299 L176.403376,147.632797 L189.97283,163.300804 L189.97283,136.53135 L130.142122,136.53135 Z M143.465113,152.444373 C140.258682,152.444373 137.544212,149.730868 137.544212,146.52299 C137.544212,143.315595 140.258682,140.600643 143.465113,140.600643 C146.67299,140.600643 149.386013,143.314148 149.386013,146.52299 C149.386977,149.730868 146.67299,152.444373 143.465113,152.444373 Z"/>
  </g>
</svg>
