<svg xmlns="http://www.w3.org/2000/svg" xmlns:xlink="http://www.w3.org/1999/xlink" width="320" height="104" viewBox="0 0 320 104">
    <defs>
        <path id="a" d="M29.181.054h30.663s.141 12.55 1.792 13.777c1.65 1.228 8.067 4.56 8.067 4.56l.843-.322c.074.11.324.386.99 1.024 1.468 1.403 5.868 2.105 5.868 2.105l8.251 4.21s5.135 2.63 5.135 3.683v1.052H.21l8.435-6.84 6.418-1.404s2.2-2.455 3.3-2.104l1.1.35 7.884-5.047s2.2-2.32 2.018-5.827C29.18 5.763 29.18.054 29.18.054H90.79v30.09H.21V.053h28.971zm41.365 18.015l.074-.028s-.061-.04-.088-.04c-.017 0-.021.017.014.068z"/>
        <linearGradient id="c" x1="50%" x2="50%" y1="0%" y2="100%">
            <stop offset="0%" stop-color="#C0C0C0"/>
            <stop offset="100%" stop-color="#FFF"/>
        </linearGradient>
        <linearGradient id="d" x1="50%" x2="50%" y1="2.625%" y2="98.453%">
            <stop offset="0%" stop-color="#C0C0C0"/>
            <stop offset="100%" stop-color="#FFF"/>
        </linearGradient>
    </defs>
    <g fill="none" fill-rule="evenodd" opacity=".4">
        <path fill="#DBDBDB" d="M108 104h104V0H108z"/>
        <path fill="#EBEBEB" d="M173.698 72.583s.14 12.2 1.778 13.393c1.638 1.194 8.009 4.092 8.009 4.092l-.728.853s.182-2.217 1.638-.853c1.456 1.365 6.734 3.07 6.734 3.07l8.191 4.092s5.097 2.557 5.097 3.58v1.023H114.5l8.373-6.65 6.37-1.363s2.185-2.387 3.277-2.047l1.092.341 7.827-4.906s2.184-2.255 2.002-5.665c-.182-3.41-.182-8.96-.182-8.96h30.44z"/>
        <g transform="translate(114.5 72.583)">
            <mask id="b" fill="#fff">
                <use xlink:href="#a"/>
            </mask>
            <path d="M29.181.054s0 5.709.184 9.217c.183 3.508-2.018 5.827-2.018 5.827l-7.884 5.047-1.1-.35c-1.1-.351-3.3 2.104-3.3 2.104l-6.418 1.403L.21 30.143h90.58v-1.052c0-1.053-5.135-3.684-5.135-3.684l-8.25-4.21s-4.401-.7-5.868-2.104c-.667-.638-.917-.913-.991-1.024l-.843.322s-6.417-3.332-8.067-4.56C59.986 12.603 59.844.054 59.844.054H29.181zm41.365 18.015l.074-.028s-.061-.04-.088-.04c-.017 0-.021.017.014.068z" mask="url(#b)"/>
        </g>
        <path fill="#A8A8A8" d="M140.16 56.025s-2.943-7.642-3.679-8.858c-.735-1.215.552-5.384 0-6.252-.551-.869-.735-13.548 3.678-17.369 4.413-3.82 6.988-4.863 6.988-4.863s.184-1.563 4.23-1.563c4.045 0 .588-2.605 7.19-1.563 6.601 1.042 7.888 1.042 7.888 1.042l1.472-.174s5.332 2.084 4.965 4.342c-.368 2.258 5.333 0 5.333 0v1.563s4.78.174 4.78 12.158c0 11.538-.892 15.666-2.206 16.327-1.314.66-2.758 3.126-2.758 3.126s-.368-21.01-6.253-20.842c-5.884.167-10.197 3.139-24.457 0-3.126-.688-8.827 18.758-7.172 22.926"/>
        <path fill="#F4F4F4" d="M139.975 63.667s-.184 10.248 9.379 16.327c9.562 6.079 17.102 1.042 17.102 1.042s10.114-7.468 10.298-11.463c.183-3.995 1.655-5.906 1.655-5.906s1.103 0 1.838-.868c.736-.868.92-6.426 1.472-7.99.551-1.563.919-4.168-.92-3.994-1.839.173-2.758 3.126-2.758 3.126s.368-4.863-.736-7.99c-1.103-3.126.92-10.073-3.494-12.678-4.413-2.606-10.033-1.737-12.74-.869-2.707.869-8.407.347-11.901-.868-3.494-1.216-6.436 4.516-6.988 7.12-.552 2.606-2.391 13.2-2.207 15.285l.184 2.084s-1.287-5.558-2.39-5.905c-1.104-.347-3.127-.347-2.759 3.821.368 4.168.814.941 2.39 8.684.92 4.516 2.575 1.042 2.575 1.042"/>
        <path fill="#BABAB9" d="M142.55 87.675s5.7 8.124 16.802 8.124c15.562 0 18.899-7.365 18.899-7.365l.657-1.093s3.546 1.163 5.201 1.858c1.655.695 4.653 2.506 8.643 4.516 3.99 2.01 15.079 6.426 14.711 10.074l-93.968.106c-.736 1.216 8.99-8.512 11.371-8.328 1.77.137 3.372-.696 4.811-2.026 1.44-1.33 9.371-4.866 12.873-5.866"/>
        <g>
            <path fill="#DBDBDB" d="M0 103.768h103.941V0H0z"/>
            <path fill="#A8A8A8" d="M81.227 52.217c0-17.076-12.514-30.92-27.95-30.92s-27.95 13.844-27.95 30.92 12.514 30.92 27.95 30.92 27.95-13.844 27.95-30.92"/>
            <path fill="url(#c)" d="M41.686 69.775s1.554 12.577-1.547 17.521c-1.647 2.625-8.683 5.863-8.683 5.863l-1.65 1.558-.92-.318c-.92-.319-2.76 1.91-2.76 1.91l-5.365 1.273-7.052 6.208h75.727v-.955c0-.955-4.292-3.343-4.292-3.343l-6.898-3.82s-3.68-.637-4.906-1.91c-1.226-1.273-1.187.673-1.187.673l-.346-1.31s-4.61-1.567-5.931-2.764c-6.357-5.758-1.545-22.818-1.545-22.818l-22.645 2.232z"/>
            <path fill="#F4F4F4" d="M36.762 64.305s-2.405 4.13 7.818 13.623c.915.85 2.971 3.437 3.955 3.815 3.59 1.377 5.54.45 7.549-.146 1.607-.478 3.774-3 3.774-3s8.508-6.538 8.66-9.872c.154-3.333 1.202-4.42 1.202-4.42s.232-.441 1.089-.031c1.493.714 2.37-2.16 2.645-5.323.211-2.42-1.128-5.515-2.66-5.37-1.534.145-.914.392-.914.392-.02-.172.124-3.043-.45-5.283-.872-3.398-.783-7.573-4.462-9.746-3.679-2.174-.577.191-5.901-1.367-2.275-.667-10.138-6.262-13.05-7.277-2.914-1.014-7.68 9.672-8.663 11.665-1.206 2.447-.746 12.486-.592 14.225l.153 1.739S35.842 53.29 34.922 53c-.92-.29-2.605-.29-2.299 3.189.307 3.478-.59 1.206 1.993 7.246 1.512 3.535 2.146.87 2.146.87"/>
            <path fill="#A8A8A8" d="M30.374 27.259c0-.073-.102-.104-.112-.176-.157-1.105-1.88-7.526 4.343-9.222 6.496-1.77 14.823-6.597 26.98.156l.018.01c.465.32 20.677 14.258 19.023 25.672-.019.13.063.254.195.287.972.238 4.603 1.565 3.603 7.977a.21.21 0 0 1-.012.049c-.56 1.33-1.745 2.012-2.343 2.409-.144.095.618.685.704 1.36.437 3.423-1.247 5.883-1.685 7.153-.5 1.449-.166 8.692 2.5 8.21 2.665-.484.999-2.576.5-2.737 0 0 2.989 1.123.677 3.85a.194.194 0 0 0-.019.026c-.105.173-1.308 2.1-3.087 2.735a.255.255 0 0 0-.16.313c.845 2.844 3.263 1.916 3.092 2.145-2.932 3.937-5.124-.968-5.124-.968-.028.069 2.22 4.89-.212 6.064-2.665 1.288-3.332 10.142-12.495 4.186 0 0 7.689 4.178 9.716-2.488.056-.184-.108-.361-.303-.328-1.39.239-5.9.719-8.026-2.571a.268.268 0 0 1-.044-.176c.133-1.13-3.081-3.246-4.326-2.076-1.427 1.34-1.835.081-1.844-1.761-.014-3.184 1.065-6.282 2.996-8.861l4.821-6.443a.251.251 0 0 0-.038-.16L66.6 56.989a.288.288 0 0 0-.015-.02c-.22-.278-5.21-6.623-7.49-15.123-2.322-8.653-7.12-11.723-22.942-11.115a.268.268 0 0 0-.254.207c-.19.91-1.202 4.851-5.23 10.023a.253.253 0 0 0-.054.18c.108 1.104 1.008 11.205-1.51 17.285-2.665 6.44-4.331 12.878-1.499 19.156 2.44 5.409 9.008 7.586 15.884 5.955.337-.08-3.4.883-3.732.982-3.271.973-8.284 1.083-12.628-4.651-.014-.019-3.55-2.012-2.773-21.151.022-.542.562-.96.523-1.009-.746-.938-7.995-10.534.393-19.403 7.933-8.388 5.084-8.242 5.1-11.046"/>
            <path fill="#A8A8A8" d="M27.806 63.363s-2.273 5.484.705 12.392c2.978 6.908 8.85 3.076 8.85 3.076s-7.3 1.145-5.137-4.478c4.638-12.057-4.418-10.99-4.418-10.99"/>
        </g>
        <g>
            <path fill="#DBDBDB" d="M216 103.702h103.875V0H216z"/>
            <path fill="#A0A0A0" d="M296.454 62.312c0-16.35-13.253-29.603-29.602-29.603-16.35 0-29.603 13.254-29.603 29.603 0 16.349 13.254 29.602 29.603 29.602 16.349 0 29.602-13.253 29.602-29.602"/>
            <path fill="url(#d)" d="M40.728 69.795s1.553 12.569-1.546 17.51c-1.645 2.624-8.676 5.86-8.676 5.86l-1.65 1.556-.92-.318c-.919-.318-2.757 1.909-2.757 1.909l-5.362 1.272-7.047 6.204h75.678v-.954c0-.955-4.29-3.34-4.29-3.34l-6.893-3.818s-3.677-.637-4.902-1.91c-1.226-1.272-1.187.673-1.187.673l-.345-1.309s-4.608-1.566-5.928-2.762c-6.353-5.755-1.543-22.803-1.543-22.803l-22.632 2.23z" transform="translate(216)"/>
            <path fill="#F4F4F4" d="M251.808 64.329s-2.404 4.127 7.813 13.614c.914.849 2.97 3.435 3.952 3.812 3.587 1.377 5.537.45 7.544-.146 1.606-.477 3.772-2.998 3.772-2.998s8.502-6.534 8.655-9.865c.154-3.331 1.2-4.417 1.2-4.417s.233-.441 1.089-.032c1.492.714 2.368-2.157 2.644-5.32.21-2.417-1.128-5.51-2.66-5.366-1.532.145-.912.392-.912.392-.02-.172.123-3.04-.451-5.28-.87-3.395-.782-7.567-4.458-9.74-3.677-2.172-7.117-6.072-9.372-5.347-2.255.724-8.246 4.913-11.156 3.9-2.911-1.015-4.84 3.945-5.822 5.937-1.205 2.445-1.992 11.007-1.838 12.745l.153 1.738s-1.072-4.634-1.991-4.924c-.92-.29-2.605-.29-2.298 3.186.306 3.476-.59 1.207 1.991 7.242 1.51 3.533 2.145.869 2.145.869"/>
            <path fill="#A8A8A8" d="M282.275 63.449s.042.17.085.462c.126.855.26 2.748-.642 4.377-1.207 2.182-3.992 5.028-3.992 5.028s-3.993 10.816 0 13.662c3.992 2.846 10.956 5.123 10.956 5.123s-.279-5.123 1.578-7.02c1.857-1.898 4.364-3.511 4.364-3.511s3.435-3.605 1.671-4.364c-1.764-.76 1.022-1.803 1.022-1.803l-1.95-1.423s2.971-.664 1.95-2.087c-1.022-1.423 2.97-6.167 2.97-6.167s1.765-2.182-1.206-7.21c-2.971-5.03-1.857-9.583-1.857-9.583s-1.022-3.89-2.414-8.35c-1.393-4.458-4.55-9.581-7.335-11.764-2.786-2.181-5.339-7.115-9.796-7.684-1.566-.2-4.503.38-4.503.38s-7.715-3.727-12.487-1.946c-4.773 1.781-12.21 6.5-18.152 13.9s-2.135 10.151-2.135 10.151-1.393.474-1.95-2.277c0 0-1.45 2.848 0 5.123 0 0-7.52 8.254-5.386 12.524 2.136 4.27 1.95 1.518 1.95 1.518s-5.098 4.933-3.714 8.728c.419 1.148-.403 1.922-.08 2.578a4.554 4.554 0 0 0 2.773 2.356l1.345 3.873c1.426 4.107 4.41 7.454 8.278 9.288l10.06 4.77s-1.392-3.32.929-7.02c2.321-3.7 3.696-9.175 1.899-11.345-2.999-3.621-6.308-8.019-5.892-12.47.203-2.168-.865-3.045-.789-5.62.093-3.126 1.63.57 1.853-.499.416-2.002.591-5.714 1.629-6.688 3.435-3.226 2.028-.856 5.942-4.365 5.293-4.743 1.3-.664 5.293-4.743 3.767-3.85 7.706-5.693 7.706-5.693s1.85 3.8 7.614 5.503c3.414 1.009-2.016 14.143 2.6 14.42.201.013.365-.576.988-.83 2.443-.997 2.828 1.365 3.14 4.082a8.928 8.928 0 0 1-.939 5.129l-.033.064c-.668 1.276-3.442.611-3.343 1.423"/>
        </g>
    </g>
</svg>
