<?xml version="1.0" encoding="UTF-8"?>
<svg width="24px" height="24px" viewBox="0 0 24 24" version="1.1" xmlns="http://www.w3.org/2000/svg" xmlns:xlink="http://www.w3.org/1999/xlink">
    <!-- Generator: Sketch 48.2 (47327) - http://www.bohemiancoding.com/sketch -->
    <title>icon/24/folder/open folder</title>
    <desc>Created with Sketch.</desc>
    <defs>
        <path d="M2.71258709,4.97461725 L13.2429279,4.97461725 C14.2391717,4.97461725 15.0835109,5.70782762 15.2231765,6.69423289 L15.3957979,7.91339276 L19.1766231,7.91339276 C20.1249838,7.91339276 20.9429563,8.57943066 21.1351304,9.50811645 L23.6362267,21.5947237 C23.8600547,22.6763774 23.1646494,23.7346794 22.0829957,23.9585074 C21.9496681,23.986097 21.8138716,24 21.6777194,24 L5.34153879,24 C4.36995561,24 3.53891847,23.3017426 3.37146694,22.3446983 L0.742515244,7.31931554 C0.552143636,6.2312749 1.27984817,5.19491701 2.3678888,5.0045454 C2.48170797,4.98463076 2.59703886,4.97461725 2.71258709,4.97461725 Z" id="path-1"></path>
    </defs>
    <g id="Symbols" stroke="none" stroke-width="1" fill="none" fill-rule="evenodd">
        <g id="icon/24/folder/open-folder">
            <g id="Group-3-Copy-4">
                <path d="M18.2280032,0.421950975 L21.4759084,0.42187195 C22.5804779,0.421855317 23.4759219,1.31727233 23.4759385,2.42184183 C23.4759385,2.42185187 23.4759385,2.42186191 23.4759385,2.42187195 L23.4759084,21.5102041 C23.4759084,22.6147736 22.5804779,23.5102041 21.4759084,23.5102041 L6.13467173,23.5102041 C5.03010223,23.5102041 4.13467173,22.6147736 4.13467173,21.5102041 L4.13467173,4.47959909 C4.13467173,3.37502959 5.03010223,2.47959909 6.13467173,2.47959909 L16.2280032,2.47959909 L16.2280333,2.42198109 C16.2280333,1.31742335 17.1234455,0.421997725 18.2280032,0.421981092 Z" id="Rectangle-4" stroke="#16254F" fill="#E5E4E4"></path>
                <g id="Rectangle-2-Copy-3">
                    <use fill="#FFFFFF" fill-rule="evenodd" xlink:href="#path-1"></use>
                    <path stroke="#16254F" stroke-width="1" d="M2.71258709,5.47461725 C2.62592591,5.47461725 2.53942775,5.48212738 2.45406338,5.49706336 C1.6380329,5.63984207 1.0922545,6.41711049 1.23503321,7.23314096 L3.8639849,22.2585237 C3.98957355,22.976307 4.61285141,23.5 5.34153879,23.5 L21.6777194,23.5 C21.7798336,23.5 21.8816809,23.4895728 21.9816766,23.4688805 C22.7929169,23.3010096 23.3144708,22.5072831 23.1465999,21.6960428 L20.6455036,9.60943553 C20.501373,8.91292119 19.8878936,8.41339276 19.1766231,8.41339276 L14.9616061,8.41339276 L14.7281143,6.76432898 C14.6233651,6.02452502 13.9901108,5.47461725 13.2429279,5.47461725 L2.71258709,5.47461725 Z"></path>
                </g>
            </g>
        </g>
    </g>
</svg>