<svg xmlns="http://www.w3.org/2000/svg" width="158" height="158" viewBox="0 0 158 158">
    <g fill="none" fill-rule="evenodd">
        <rect width="158" height="158" fill="#F0F0F0" rx="3"/>
        <path fill="#CF4B39" d="M70.761 84V55.52h8.88c2.8 0 5.04.767 6.72 2.3 1.68 1.533 2.52 3.633 2.52 6.3 0 2.8-.946 5.067-2.84 6.8-1.893 1.733-4.36 2.6-7.4 2.6h-2.64V84h-5.24zm5.24-14.92h2.52c1.52 0 2.734-.44 3.64-1.32.907-.88 1.36-2.027 1.36-3.44 0-1.333-.426-2.393-1.28-3.18-.853-.787-2-1.18-3.44-1.18h-2.8v9.12zM0 0h158v2H0z"/>
    </g>
</svg>
