<svg xmlns="http://www.w3.org/2000/svg" width="24" height="24" viewBox="0 0 24 24">
    <g fill="none" fill-rule="evenodd">
        <rect width="22" height="22" x="1" y="1" fill="#CF4B39" stroke="#CF4B39" stroke-width="2" rx="2"/>
        <path fill="#FFF" d="M2.857 8.38h1.74c.942 0 1.62.088 2.036.262.416.173.745.455.985.843.24.389.36.855.36 1.398 0 .601-.157 1.101-.471 1.5-.315.398-.742.676-1.28.832-.317.09-.893.135-1.73.135V17h-1.64V8.38zm1.64 3.37h.522c.41 0 .696-.03.856-.088a.76.76 0 0 0 .378-.29.848.848 0 0 0 .137-.49c0-.331-.129-.573-.386-.726-.188-.113-.536-.17-1.043-.17h-.463v1.764zM9.39 8.38h1.945c1.254 0 2.185.156 2.795.467.61.31 1.111.815 1.506 1.514.394.7.591 1.516.591 2.45 0 .664-.11 1.274-.33 1.83a3.8 3.8 0 0 1-.915 1.386c-.388.368-.81.621-1.262.762-.454.14-1.239.211-2.356.211H9.39V8.38zm1.634 1.583v5.432h.762c.75 0 1.294-.086 1.632-.258.338-.172.614-.461.829-.867.215-.407.322-.907.322-1.5 0-.915-.256-1.624-.767-2.127-.461-.454-1.202-.68-2.221-.68h-.557zM17.61 8.38h4.278v1.6h-2.654v1.564h2.654v1.576h-2.654V17h-1.624V8.38z"/>
    </g>
</svg>
