<svg xmlns="http://www.w3.org/2000/svg" xmlns:xlink="http://www.w3.org/1999/xlink" width="164" height="167" viewBox="0 0 164 167">
  <defs>
    <path id="pic10-a" d="M148.511384,91.2897342 C127.392387,70.356565 119.534693,53.0053201 118.174997,45.8840429 C118.178012,45.7107878 118.176002,45.5474331 118.169972,45.3910085 C118.132789,44.581165 117.686592,43.8406234 116.979108,43.4228312 C116.276649,43.0070191 115.403348,42.9644479 114.658682,43.312938 C110.839876,45.1058802 103.188197,52.8449354 95.4088891,65.5955165 C87.6265663,78.3530277 84.2841069,88.6433872 84.4730372,92.8044782 C84.5082105,93.6163019 84.9534027,94.3528833 85.6608866,94.7726555 C86.1995391,95.0884747 86.8346667,95.1894576 87.4326112,95.065704 C87.8526797,95.1528266 88.2968671,95.134016 88.7360297,94.9874918 C106.453275,89.0393987 134.570735,98.8812751 144.442346,114.493039 C147.629039,119.531296 148.632982,124.242843 147.429054,128.496007 C146.163823,132.960047 142.719864,136.089528 140.373309,137.781487 L140.373309,153.078422 C150.392648,147.049147 157.373021,139.044764 160.541625,129.871157 C163.108264,122.440001 163.106254,114.376216 160.53861,107.750943 C157.8966,100.940535 152.945217,95.682492 148.511384,91.2897342 Z"/>
    <path id="pic10-b" d="M78,134 L138,134 C139.104569,134 140,134.895431 140,136 L140,158 L76,158 L76,136 C76,134.895431 76.8954305,134 78,134 Z"/>
    <path id="pic10-c" d="M87,129 L129,129 C130.104569,129 131,129.895431 131,131 L131,133 L85,133 L85,131 C85,129.895431 85.8954305,129 87,129 Z"/>
    <rect id="pic10-d" width="74" height="8" x="71" y="159" rx="2"/>
    <path id="pic10-e" d="M37.3945334,44.6642678 C38.8280621,42.8257457 42.4026884,43.2767803 43.9088131,44.1495221 C45.9734429,45.3438536 46.549371,47.4099156 47.6102403,49.498226 C49.803607,41.9530038 42.2749195,40.6019227 36.6405031,38.6410346 C35.0685581,38.0939276 34.4297134,37.5417642 33.8963749,37.1908472 C33.5285553,36.9471267 33.062973,36.9370138 32.684506,37.1594972 C32.0379177,37.5387303 31.8094824,38.3942803 32.1724623,39.0688096 L41.9835676,57.2972815 C40.3525778,57.0707529 38.4118451,57.4681892 36.5940417,58.537121 C33.1249216,60.5748669 31.4164961,64.2782048 32.7774288,66.8084481 C34.1402974,69.3376802 38.0566088,69.7361278 41.5247609,67.6983818 C44.993881,65.6596246 46.7013386,61.9572981 45.3404059,59.4270547 L37.3945334,44.6642678 Z"/>
    <path id="pic10-f" d="M64.4251969,2.70937634 C63.9385077,2.675005 63.4949926,2.98339226 63.3703766,3.44263149 L60.3315129,14.5951749 C59.6858647,13.7969961 58.6339881,13.1305742 57.3554477,12.8011822 C54.9141519,12.1710411 52.5690165,13.0045459 52.1176515,14.6620081 C51.6662866,16.3194702 53.2794257,18.1745676 55.7197403,18.8037539 C58.1600548,19.4338951 60.5051902,18.5994355 60.9565552,16.9419733 L63.591153,7.26835202 C64.7647019,7.13564048 72.831379,7.36096367 75.8820175,8.0054262 L73.6251926,16.2870084 C72.9795444,15.4888296 71.9276678,14.8233624 70.6491275,14.4930157 C68.2068504,13.8638293 65.8626963,14.6973342 65.4113313,16.3547963 C64.9599663,18.0132132 66.5721243,19.8673558 69.01342,20.4965422 C71.4537346,21.1266833 73.79887,20.2922237 74.2512162,18.6347615 L75.9320601,12.4641522 L76.8858139,8.96114027 L78.0073578,4.84230863 C78.1712229,4.24367454 77.7335951,3.64790474 77.0987405,3.60303105 C72.8755343,3.01489932 68.6542905,2.71796917 64.4251969,2.70937634 Z"/>
    <polygon id="pic10-g" points="0 16.609 0 .19 31.736 .19 31.736 16.609 31.736 33.028 0 33.028"/>
  </defs>
  <g fill="none" fill-rule="evenodd" transform="translate(0 -1)">
    <use fill="#FFC304" xlink:href="#pic10-a"/>
    <path stroke="#16254F" d="M148.86333,90.9345806 C155.208112,97.2205878 158.744995,101.745021 161.004822,107.570261 C163.616773,114.309859 163.618136,122.495333 161.014227,130.034396 C157.811045,139.308115 150.765024,147.408614 140.631112,153.506835 L139.873309,153.962854 L139.873309,137.525586 L140.080879,137.37592 C143.366044,135.007186 145.91972,131.987692 146.947957,128.359824 C148.109703,124.255678 147.135275,119.686009 144.019743,114.760259 C134.272709,99.3455114 106.396607,89.5858488 88.8942764,95.4617891 C88.4147851,95.6217688 87.9175605,95.6580655 87.4323703,95.5745088 C86.7400442,95.6927842 86.0199183,95.5627643 85.4057504,95.2026619 C84.5533481,94.6969051 84.0159997,93.8069109 83.9735518,92.8271569 C83.7483025,87.8661602 87.918061,76.9150673 94.9820589,65.3351014 C102.043335,53.7614022 109.89798,44.9957378 114.44675,42.8600749 C115.340162,42.441975 116.388178,42.492006 117.233353,42.992297 C118.084732,43.4950641 118.624451,44.388096 118.669601,45.3717493 C118.675519,45.5252731 118.677607,45.6806311 118.675695,45.8400941 C120.656709,56.0923638 131.2447,73.4709685 148.86333,90.9345806 Z M148.86333,90.9345806 C148.863343,90.9345944 148.863357,90.9346081 148.863371,90.9346219 L148.863288,90.9345393 C148.863302,90.9345531 148.863316,90.9345668 148.86333,90.9345806 Z"/>
    <path fill="#16254F" d="M107.34718,72.6603362 C111.364219,65.8723076 115.015614,58.7826801 117.046861,51.0960098 C117.63674,48.8586378 119.861919,44.0976826 117.144837,42.4358107 C116.4388,42.0039292 115.561051,41.9598178 114.812591,42.3219417 C110.974333,44.1787245 103.283677,52.1987951 95.4647425,65.4096507 C87.6437878,78.6287131 84.2832923,89.292391 84.472175,93.6040253 C84.5085374,94.4441938 84.9559974,95.2074239 85.6670851,95.6423829 C87.8235798,96.9482859 90.06189,95.0350816 91.5436594,93.6368523 C92.4688815,92.7648825 93.3920834,91.8949644 94.2728625,90.9768315 C94.7395139,90.4905801 95.1980846,89.9950961 95.6465547,89.493457 C100.20398,84.3991016 103.865476,78.5445936 107.34718,72.6603362 Z" transform="rotate(1 101.465 69.078)"/>
    <use fill="#FFF3CD" xlink:href="#pic10-b"/>
    <path stroke="#16254F" d="M78,133.5 L138,133.5 C139.380712,133.5 140.5,134.619288 140.5,136 L140.5,158.5 L75.5,158.5 L75.5,136 C75.5,134.619288 76.6192881,133.5 78,133.5 Z"/>
    <use fill="#FFC304" xlink:href="#pic10-c"/>
    <path stroke="#16254F" d="M87,128.5 L129,128.5 C130.380712,128.5 131.5,129.619288 131.5,131 L131.5,133.5 L84.5,133.5 L84.5,131 C84.5,129.619288 85.6192881,128.5 87,128.5 Z"/>
    <use fill="#FFC304" xlink:href="#pic10-d"/>
    <rect width="75" height="9" x="70.5" y="158.5" stroke="#16254F" rx="2"/>
    <path fill="#16254F" d="M109.369,149.138908 C109.369,149.896908 108.62,150.511908 107.806,150.511908 C106.937,150.511908 106.231,149.896908 106.231,149.138908 C106.231,147.843908 107.583,147.807908 107.583,146.793908 L107.584,145.285908 C107.573,144.287908 106.254,144.308908 106.254,142.937908 C106.254,142.179908 107.003,141.564908 107.816,141.564908 C108.686,141.564908 109.391,142.179908 109.391,142.937908 C109.391,144.232908 108.017,144.280908 108.017,145.294908 L108.017,146.790908 C108.023,147.792908 109.369,147.765908 109.369,149.138908 M112.278,145.915908 C113.933,144.067908 114.588,142.720908 114.216,141.125908 C112.89,135.456908 101,138.608908 101,141.875908 C101,143.398908 102.167,144.386908 102.167,146.471908 C102.167,149.360908 101.081,150.415908 101.081,151.678908 C101.081,152.443908 101.575,152.810908 102.12,153.149908 C107.426,156.189908 114.683,153.962908 115.348,150.560908 C115.691,148.803908 114.428,147.200908 112.278,145.915908"/>
    <g>
      <use fill="#FFC304" xlink:href="#pic10-e"/>
      <path stroke="#16254F" d="M38.0027335,44.7392824 L45.7807508,59.190208 C47.2884825,61.9933798 45.4547745,65.9687152 41.7780546,68.1294762 C38.0919537,70.29528 33.8561126,69.8643315 32.3370839,67.0452948 C30.8293448,64.2421093 32.6640291,60.2657153 36.3405958,58.1061161 C37.8854246,57.197703 39.561469,56.7273186 41.1135389,56.7358003 L31.7321646,39.305744 C31.2426904,38.3961492 31.5510945,37.2446042 32.431118,36.7284583 C32.9751022,36.408675 33.646178,36.4252624 34.1712031,36.7731517 C34.2684639,36.8371458 34.6959519,37.1341031 34.6022648,37.069578 C34.7852078,37.1955917 34.9371035,37.2946658 35.1046924,37.3948709 C35.5527145,37.6627532 36.0569018,37.9012962 36.6952979,38.1301228 C36.749514,38.1494616 36.749514,38.1494616 36.804845,38.1688146 C37.2454443,38.3221518 37.7024379,38.4739252 38.3469285,38.6828389 C38.2665205,38.6567744 39.3538813,39.0081347 39.6530198,39.1059263 C43.0963758,40.2315972 44.9793454,41.0804109 46.4439128,42.4114052 C48.3847431,44.1752258 48.9957492,46.5232593 48.0903654,49.6377965 L47.7373077,50.8523215 L47.164463,49.7246825 C47.0433872,49.4863461 46.9234891,49.2388368 46.7849112,48.9435631 C46.7038883,48.7709244 46.4255643,48.1694302 46.433384,48.1862541 C45.4974009,46.1724948 44.8689364,45.282558 43.6581283,44.5821387 C42.0428147,43.6461261 39.2210048,43.6069116 38.0027335,44.7392824 Z"/>
    </g>
    <path fill="#16254F" d="M82.9057243,57.1362837 C81.5682428,55.5770959 79.7842576,53.1475922 79.4443059,52.6780932 C78.7055453,51.6550364 78.460983,51.440789 78.2468642,51.0461228 C77.997228,50.5868748 78.9957727,50.4853892 79.2860001,49.9420825 C79.4859119,49.5648431 79.4412616,49.0420385 79.504178,48.8513686 C79.592464,48.586891 80.0572337,48.4987318 80.1779927,48.2445052 C80.4255993,47.7288764 79.7812133,47.2306744 79.9303861,46.8185814 C80.1089876,46.3234547 81.0243201,46.3716347 80.8304969,45.7196666 C80.7706248,45.5187456 80.5199739,45.4223856 80.5220035,45.1835356 C80.5250478,44.8575516 80.9928619,44.6884089 80.8355708,44.3111696 C80.7391666,44.0794954 80.3890671,44.1102486 80.3839932,43.8508965 C80.6813241,43.7032811 81.2069807,43.4644311 81.3267249,43.1107692 C81.4657499,42.7048268 81.1531973,42.5941153 80.9147238,42.390119 C81.0781035,42.1666456 81.5276516,42.0221055 81.608834,41.6889458 C81.7123417,41.2635263 81.2871484,41.0441534 81.0334532,40.8278558 C81.5733167,40.8114541 81.7072678,40.0395485 81.6697209,39.6233551 C81.3023701,39.6028529 80.9776402,39.7350918 80.6204372,39.7422675 C80.9674924,39.4050073 81.5428733,39.0216173 81.5144594,38.4690846 C81.493149,38.04264 81.3551388,38.0467405 81.0243201,38.1400252 C80.9756106,38.1533516 80.2561308,38.4096284 80.2672934,38.3901513 C80.6011564,37.7894386 81.9061649,37.0062568 81.7498886,36.2487027 C81.0547636,36.1861712 80.7909205,36.7438294 80.1840814,36.9498759 C80.4255993,36.3706905 81.0598375,35.9483464 81.3794935,35.3814622 C81.6727653,34.8617329 81.762066,34.4475897 81.7123417,33.8643038 C81.4474839,33.8837808 79.3083252,36.3132845 78.9470632,36.4537241 C79.4463355,35.7474254 81.3033849,33.6059768 80.7706248,32.6311 C80.009539,33.061645 78.1849626,36.8842691 76.0346414,38.4332058 C75.3334276,38.9375585 73.5271172,40.4567671 73.0329188,41.1886935 C72.1287488,42.5264582 71.7542946,43.5003099 70.7922821,44.8124469 C70.4685669,45.2532429 70.0210484,45.8324284 69.4801701,45.9738932 C69.077302,46.0815294 67.3115829,45.9000855 66.8711678,45.8826586 C64.5229643,45.7934743 63.2270888,46.9620963 62.9673049,47.6591691 C62.7684078,48.0087306 62.8465459,48.5161586 62.5806733,48.8667452 C62.3797466,49.1476245 61.682592,49.784216 61.5527,50.1317273 C61.8987404,50.3326483 62.7105653,49.832396 63.1225664,49.8939025 C64.0500763,50.0087145 64.8872708,51.1353071 65.7630269,51.9143884 C66.4317676,52.5089505 69.0113412,54.2424065 69.7551758,54.6462987 C71.3128648,55.4950873 73.0765544,55.8764271 74.8128449,56.1439801 C75.5891524,56.2628925 77.7678875,56.1931852 78.4650421,56.5704246 C79.0678221,56.8964086 81.3500649,60.7866898 81.6626174,61.4212311 C81.8391894,61.7779683 82.5809944,63.3023025 83.0711336,62.2884716 C83.2882968,61.8425501 82.6347778,61.3904779 82.8397635,60.9742844 C83.115784,61.1229249 83.3055481,61.7420896 83.6434702,61.7595164 C84.1884077,61.7871943 84.0696783,60.9425061 84.0859148,60.6134467 C84.3802013,60.683154 84.6207044,60.8892005 84.9312274,60.8451209 C84.8957101,60.4504547 84.5385071,60.0455374 84.1884077,59.7164781 C84.5811279,60.0496379 84.9687743,60.2751614 85.5482144,60.07014 C85.6212786,59.6436955 84.8043798,59.3505149 82.9057243,57.1362837"/>
    <g>
      <use fill="#FFC304" xlink:href="#pic10-f"/>
      <path stroke="#16254F" d="M64.4417057,2.20941013 C68.6923322,2.21875076 72.9310644,2.51780877 77.1339942,3.10427542 C78.0798327,3.17113051 78.7377312,4.06790252 78.4897924,4.97367393 L77.3682522,9.09249219 L76.4144827,12.5955617 L74.7335751,18.7664045 C74.1963282,20.7349554 71.5629697,21.6712908 68.8886345,20.9807204 C66.2086874,20.2900273 64.3909846,18.1998417 64.9288999,16.2234192 C65.4649803,14.2548725 68.0970326,13.3192119 70.7742087,14.0089138 C71.7757735,14.2676961 72.6742488,14.7260851 73.3710536,15.3178959 L75.2566366,8.39861251 C72.4795916,7.94667129 66.0054455,7.63426759 63.9810323,7.73955847 L61.4389866,17.0733504 C60.9028599,19.0420673 58.2694472,19.9785431 55.5949077,19.2879201 C52.915886,18.5971878 51.0972764,16.50602 51.6352201,14.5306309 C52.1713278,12.5619842 54.8045453,11.626362 57.48019,12.3169928 C58.4814343,12.5749446 59.3801882,13.0335463 60.0773867,13.6259241 L62.8878268,3.31169009 C63.0739567,2.62575746 63.7261662,2.16753508 64.4417057,2.20941013 Z"/>
    </g>
    <g>
      <g transform="translate(0 .781)">
        <mask id="pic10-h" fill="#fff">
          <use xlink:href="#pic10-g"/>
        </mask>
        <path fill="#16254F" d="M30.0218182,14.66012 C29.6775758,13.6993771 28.2152727,12.7736057 27.2135758,12.7386343 C24.8058182,12.6560629 24.0630303,13.2078343 23.0574545,13.5070343 C22.4494545,13.6867486 22.1692121,11.9478914 22.048,11.14452 C21.9229091,10.3158914 21.5175758,9.22206286 20.9648485,8.57800571 C20.4305455,7.95823429 19.830303,7.41812 19.2281212,6.88286286 C17.1238788,5.01383429 14.8848485,3.54406286 12.4877576,2.00920571 C11.4705455,1.35737714 10.6472727,1.02417714 9.49721212,0.18972 C8.28218182,0.827948571 11.1738182,2.76109143 11.2465455,2.84269143 C10.56,2.72320571 9.71830303,2.29480571 9.02981818,2.51143429 C8.88145455,4.06474857 10.2167273,4.94389143 11.3047273,5.60446286 C11.1476364,5.50926286 9.83078788,5.14012 9.54181818,5.10126286 C9.15587879,5.04783429 8.51781818,4.89046286 8.29963636,5.33634857 C7.94860606,6.05034857 9.10933333,6.92269143 9.65624242,7.08103429 C9.02593939,7.18012 8.66618182,7.50263429 8.74957576,8.09617714 C8.82618182,8.64212 9.312,8.68000571 9.38763636,9.17640571 C9.4390303,9.51640571 8.35684848,9.52709143 9.33527273,10.66852 C9.64848485,11.0337771 8.36266667,11.7516629 9.72218182,12.1956057 C9.39927273,12.6366343 9.53890909,13.3185771 9.94521212,13.59932 C10.5066667,13.9878914 10.294303,13.9179486 10.5124848,14.17052 C9.2489697,13.6488629 7.89333333,13.3690914 6.55709091,13.4914914 C4.37721212,13.6925771 0.00678787879,13.4118343 0,13.3865771 C0.359757576,14.7640629 2.528,14.91172 3.69454545,15.16332 C3.232,15.48292 1.57478788,15.4945771 1.76387879,16.2367486 C1.73963636,17.1615486 3.89915152,16.6437771 5.01042424,16.7428629 C4.78351515,16.9973771 3.49187879,17.5102914 3.67709091,17.8910914 C3.90787879,18.3670914 5.36533333,17.9600629 5.71927273,17.8706914 C5.42351515,17.9464629 5.14521212,18.2893771 5.05406061,18.5526343 C5.70278788,18.7857771 5.70278788,18.7857771 7.03515152,18.6284057 C5.89672727,19.1112057 6.92751515,19.8611486 7.80606061,19.7358343 C7.65478788,19.7766343 8.2889697,20.5168629 8.42181818,20.56252 C8.63515152,20.6363486 8.85042424,20.4867486 9.05793939,20.5372629 C9.32848485,20.6023486 9.26157576,20.7092057 9.43806061,20.8860057 C9.73090909,21.1784057 10.1653333,21.2434914 10.5677576,21.2230914 C10.9410909,21.2046343 10.8732121,21.2609771 11.190303,21.4105771 C11.3512727,21.4853771 11.7992727,21.4727486 11.9728485,21.4105771 C10.953697,23.0668629 10.1255758,24.4773771 8.80193939,26.17252 C7.60145455,27.70932 6.1769697,29.33452 4.65454545,30.5730914 C4.36072727,30.8140057 2.91684848,32.6092057 2.94787879,33.0278914 C4.80581818,31.68732 7.55490909,29.1557771 7.90593939,28.9702343 C8.57890909,28.6166343 9.28969697,28.4194343 10.0237576,28.2066914 C10.646303,28.0269771 11.1088485,27.8288057 11.5180606,27.6529771 C11.5500606,27.8054914 11.6625455,27.9444057 11.7769697,28.0405771 C11.8700606,28.1202343 11.9767273,28.1872629 12.0882424,28.2377771 C12.1095758,28.24652 12.3442424,28.3407486 12.3568485,28.3086914 C12.3568485,28.3086914 12.1299394,28.8837771 11.6295758,28.4825771 C11.4366061,28.3271486 10.9275152,27.9929771 10.8596364,28.4446914 C10.8130909,28.7594343 11.0632727,28.9886914 11.3173333,29.1208057 C11.6858182,29.3121771 12.1357576,29.2402914 12.4838788,29.0382343 C12.8853333,28.8031486 13.1161212,28.38932 13.334303,27.9939486 C13.4729697,27.7423486 13.6087273,27.4839486 13.7871515,27.2576057 C13.8181818,27.2168057 13.8424242,27.1847486 13.8715152,27.1468629 C14.4378182,27.12452 15.0021818,27.0827486 15.5655758,27.01572 C15.5287273,27.1274343 15.497697,27.2342914 15.4802424,27.3246343 C15.4181818,27.6267486 15.4046061,27.8628057 15.1311515,28.0502914 C15.0147879,28.1299486 14.8761212,28.1503486 14.7432727,28.1046914 C14.6278788,28.0648629 14.5338182,27.9774343 14.4174545,27.94052 C14.2593939,27.8890343 14.1352727,28.0133771 14.1633939,28.1726914 C14.1944242,28.3456057 14.3650909,28.4621771 14.5163636,28.52532 C14.6123636,28.5651486 14.7170909,28.5923486 14.8208485,28.6040057 C14.8421818,28.6059486 15.0574545,28.6224629 15.0593939,28.5923486 C15.0593939,28.5923486 15.0225455,29.1208057 14.5115152,28.9245771 C14.3127273,28.8478343 13.8094545,28.7069771 13.8724848,29.0945771 C13.9161212,29.3626914 14.1808485,29.4850914 14.4213333,29.5268629 C14.7713939,29.58612 15.1204848,29.4102914 15.3512727,29.1538343 C15.6198788,28.8575486 15.6993939,28.4602343 15.7750303,28.0794343 C15.8225455,27.83852 15.8671515,27.5927486 15.9524848,27.3605771 C16.0145455,27.1934914 16.0601212,27.0584629 16.1153939,26.9448057 C16.3403636,26.91372 16.5672727,26.8904057 16.790303,26.8583486 C18.6482424,26.58052 19.5966061,26.34932 21.5747879,25.1224057 C24.3646061,23.3223486 25.8201212,21.8166343 27.5966061,18.93052 C28.0067879,18.2650914 29.1529697,16.7418914 30.0043636,16.3484629 C30.6104242,16.1094914 31.1544242,16.1192057 31.7362424,16.1434914 C31.542303,15.3274914 30.6821818,15.4508629 30.0218182,14.66012" mask="url(#pic10-h)"/>
      </g>
      <path fill="#16254F" d="M12.6278788,28.5138571 C12.4717576,28.5604857 12.3098182,28.5332857 12.1789091,28.4351714 C12.1052121,28.3798 12.0450909,28.3098571 11.984,28.2428286 C12.3670303,28.0912857 12.7432727,27.9863714 13.1990303,27.9659714 C13.0632727,28.2156286 12.9420606,28.4176857 12.6278788,28.5138571"/>
    </g>
  </g>
</svg>
