<?xml version="1.0" encoding="UTF-8"?>
<svg width="154px" height="150px" viewBox="0 0 154 150" version="1.1" xmlns="http://www.w3.org/2000/svg" xmlns:xlink="http://www.w3.org/1999/xlink">
    <!-- Generator: Sketch 46.2 (44496) - http://www.bohemiancoding.com/sketch -->
    <title>Bnest</title>
    <desc>Created with Sketch.</desc>
    <defs>
        <polygon id="path-1" points="0.889281227 0.889298246 132.451894 0.889298246 132.451894 147.999514 0.889281227 147.999514"></polygon>
        <path d="M5.90367347,0.518375 C5.39428571,0.67925 4.87706122,1.034 4.57665306,1.425875 C4.49959184,1.527625 4.43167347,1.63625 4.43036735,1.728375 C4.42514286,2.1065 5.37338776,1.832875 5.47004082,2.167 C5.25453061,2.360875 5.25191837,2.580875 5.27020408,2.761 C5.36946939,3.799125 5.28195918,4.664 4.92146939,5.702125 C4.72163265,6.271375 3.94579592,6.595875 3.65453061,7.1335 C3.34497959,7.712375 3.29404082,8.18125 2.6644898,8.540125 C2.24653061,8.746375 1.77371429,8.941625 1.32571429,8.83025 C1.05534694,8.76425 0.432326531,8.085 0.177632653,8.327 C0.12277551,8.37925 0.103183673,8.45625 0.100571429,8.529125 C0.0718367347,8.96225 0.441469388,9.44075 0.761469388,9.691 C1.22253061,10.047125 2.30530612,10.10075 2.96097959,10.011375 C3.50563265,9.934375 4.06726531,9.42425 4.33893878,8.982875 C4.84571429,8.157875 5.15134694,7.4965 5.90889796,6.81175 C6.4117551,6.353875 6.88979592,5.863 7.04914286,5.215375 C7.18497959,4.662625 7.03477551,4.115375 7.26073469,3.562625 C7.49322449,2.98925 8.06138776,2.233 7.60946939,1.9855 C7.45273469,1.90025 7.18236735,1.890625 7.17583673,1.714625 C7.17191837,1.606 7.27771429,1.472625 7.35477551,1.348875 C7.59771429,0.952875 7.55722449,0.565125 7.25420408,0.391875 C7.13534694,0.3245 6.97861224,0.2915 6.80097959,0.2915 C6.52930612,0.2915 6.208,0.3685 5.90367347,0.518375 Z" id="path-3"></path>
        <polygon id="path-5" points="0 61.2589708 0 0.0003875 59.6760776 0.0003875 59.6760776 61.2589708"></polygon>
        <path d="M4.14975,0.5484 C3.64375,0.5988 3.238125,0.8664 2.70325,0.8472 C2.149125,0.8292 1.329625,0.606 1.277375,1.02 C1.258125,1.1616 1.342,1.3728 1.197625,1.4244 C1.106875,1.4592 0.961125,1.416 0.83325,1.392 C0.422125,1.3164 0.114125,1.4556 0.072875,1.734 C0.03025,2.0112 0.257125,2.4144 0.631125,2.7288 C0.935,3.0732 1.403875,3.372 1.830125,3.4896 C1.9415,3.522 2.052875,3.5412 2.129875,3.516 C2.4475,3.4176 1.898875,2.7684 2.146375,2.6016 C2.380125,2.712 2.561625,2.6532 2.704625,2.5896 C3.535125,2.226 4.283125,2.0508 5.26625,2.0376 C5.806625,2.0304 6.337375,2.5332 6.881875,2.6052 C7.46625,2.682 7.871875,2.5884 8.382,2.97 C8.694125,3.2316 9.0145,3.5364 9.073625,3.9108 C9.109375,4.1352 8.754625,4.7988 9.03925,4.9272 C9.1025,4.9548 9.174,4.9464 9.2345,4.9308 C9.603,4.8312 9.878,4.416 9.977,4.1004 C10.118625,3.6504 9.801,2.8092 9.504,2.3328 C9.2565,1.9392 8.647375,1.6524 8.188125,1.5684 C7.332875,1.41 6.681125,1.362 5.8575,0.9756 C5.366625,0.7452 4.862,0.5388 4.338125,0.54 C4.27625,0.54 4.213,0.5424 4.14975,0.5484 Z" id="path-7"></path>
    </defs>
    <g id="Page-1" stroke="none" stroke-width="1" fill="none" fill-rule="evenodd">
        <g id="Bnest">
            <g id="Page-1" transform="translate(1.000000, 1.000000)">
                <g id="Group-64" transform="translate(17.000000, 0.000000)">
                    <g id="Group-3">
                        <mask id="mask-2" fill="white">
                            <use xlink:href="#path-1"></use>
                        </mask>
                        <g id="Clip-2"></g>
                        <path d="M132.094438,111.478014 C128.139302,137.11447 86.5981078,151.327663 48.4942534,147.332961 C34.1328359,145.826996 21.1685641,141.18447 10.3787777,134.997032 C2.5614767,130.066295 -4.04203786,125.410786 6.0569233,102.391593 C6.67156408,101.262119 7.24488447,100.115768 7.77688447,98.9369614 C10.5750495,92.623593 12.1323117,85.6130667 12.1323117,78.2091719 C12.1323117,64.9086456 6.9298165,56.0468211 6.9298165,56.0468211 C-2.38922233,35.2021895 0.415399029,28.3526456 6.34487476,23.7114175 C7.32106893,23.0051719 8.42897184,22.3067158 9.44906893,21.6238386 C10.7855252,20.7656982 12.1762146,19.9218386 13.5397874,18.9948912 C20.099399,14.9794175 27.3679136,11.4157333 35.207166,8.50117193 C74.5377194,-6.13005614 113.155496,0.963557895 121.489302,24.3501544 C126.472283,38.3491368 119.443943,55.0069263 104.573768,69.2824351 C123.841982,80.9497684 134.59303,95.4109263 132.094438,111.478014" id="Fill-1" fill="#FFC304" mask="url(#mask-2)"></path>
                    </g>
                    <path d="M53.1660398,85.9454175 C54.0725058,85.8519439 56.9365252,88.8405053 62.3572437,91.5148912 C62.6439039,91.6745754 62.9486417,91.8121895 63.2546709,91.9485053 C64.570467,92.5379088 66.0541272,92.9546456 67.6862825,93.4038386 C67.5636126,93.1948211 67.4009136,92.9663298 67.2382146,92.7365404 C67.1594476,92.6222947 67.0755155,92.5067509 67.0032049,92.391207 C65.2729136,89.6700842 63.5994379,85.287207 62.6981369,82.1921895 C62.2888068,80.7848912 62.0395932,79.6437333 62.0163505,79.0452421 C61.9466223,77.1264351 62.7317097,75.6607158 61.5476223,72.6812421 C61.3255252,72.1242947 61.0169136,71.6374526 60.6566515,71.2168211 C59.4531951,69.8147158 57.6699621,69.1357333 56.5878845,68.8773825 C56.4794184,68.8514175 56.3787,68.8293474 56.2857291,68.8124702 C56.0997874,68.7761193 55.9474184,68.7566456 55.8376612,68.7501544 C55.5109718,68.7293825 55.1752437,68.6748561 54.8821272,68.6125404 C54.3953214,68.5099789 54.0298942,68.3918386 54.0298942,68.3918386 C54.0298942,68.3918386 53.1001854,67.5362947 52.2272922,66.9053474 C51.3556903,66.2744 50.5409039,66.2873825 50.5409039,66.2873825 C50.4350204,66.3042596 50.4685932,66.3873474 50.5667291,66.4989965 C50.664865,66.6119439 50.8262728,66.7560491 50.9734767,66.8910667 C51.1929913,67.0961895 51.8670301,67.9647158 52.3422146,68.6540842 C52.4997485,68.8825754 52.6366223,69.091593 52.7270107,69.2499789 C52.9955932,69.7212421 53.3158262,70.0341193 53.4449524,70.3534877 C53.4552825,70.3807509 53.4501175,70.4093123 53.457865,70.4365754 C53.1905738,70.4313825 53.0085058,70.4171018 53.0085058,70.4171018 C53.0085058,70.4171018 51.9096417,69.8004351 50.9179524,69.3901895 C49.9249718,68.9786456 49.1360107,69.1811719 49.1360107,69.1811719 C48.935865,69.2629614 49.3451951,69.4719789 49.6938359,69.6693123 C50.0411854,69.8653474 51.4409136,71.0259789 51.9341757,71.5556632 C52.4274379,72.0840491 52.9426515,72.3164351 53.0097971,72.7721193 C53.0704864,73.1732772 53.7109524,74.6818386 54.1796806,75.6139789 C54.1745155,76.0242246 54.1486903,76.4188912 54.0763796,76.7564351 C53.9330495,77.4289263 53.3648942,78.5142596 52.6805252,80.0799439 C52.3861175,80.7550316 52.0697583,81.5093123 51.7546903,82.3739439 C51.0987291,84.1681193 50.8185252,86.2751719 51.0212534,88.4094877 C51.1026029,89.2637333 51.2614282,90.1218737 51.506768,90.9657333 C51.6281466,91.3876632 51.7714767,91.8069965 51.9367583,92.2198386 C52.2130883,92.9079088 52.5410689,93.5466456 52.8884184,94.1256632 C53.0627388,94.4138737 53.2422243,94.6878035 53.4204184,94.9474526 C53.5999039,95.2058035 53.7793893,95.4472772 53.955001,95.6731719 L54.2287485,95.7225053 L55.053865,95.8705053 C57.8546126,96.2132421 60.9239427,96.530014 64.2024573,97.0415228 C63.4883893,96.7065754 62.8027291,96.3547509 62.1493505,95.9769614 C61.4972631,95.6004702 60.8800398,95.1993123 60.2989718,94.769593 C54.2055058,90.5347158 52.4816709,86.3167158 53.0110883,86.0064351 C53.0537,85.9726807 53.1053505,85.9519088 53.1660398,85.9454175" id="Fill-4" fill="#16254F"></path>
                    <path d="M83.7779913,77.8757825 C83.0729621,77.8316421 83.2240398,77.275993 83.2240398,77.275993 C83.2240398,77.275993 83.8619233,76.5385895 84.0168748,75.3429053 C84.170535,74.1472211 83.6036709,72.7593965 83.6036709,72.7593965 C83.6036709,72.7593965 85.8440107,70.2979228 86.1797388,69.9422035 C86.5167583,69.585186 86.3669718,69.5033965 85.8866223,69.5825895 C85.4075641,69.6643789 82.8172922,71.1430807 82.8172922,71.1430807 C82.8172922,71.1430807 80.6621757,69.4384842 77.1925544,70.4965544 C72.8900689,71.8116772 73.0656806,76.1166596 73.373001,77.1721333 C73.6829039,78.2289053 74.0909427,80.2749404 74.0250883,81.1252912 C73.959234,81.9743439 72.2857583,84.6474316 72.3516126,87.2439228 C72.4187583,89.8417123 72.7661078,91.0750456 72.7661078,91.0750456 C72.7661078,91.0750456 71.5484476,93.0392912 71.2010981,94.3414316 L76.0394573,95.6020281 C77.6483699,94.2869053 79.6085058,93.0548702 81.2561563,91.7903789 C82.3408165,90.9582035 82.471234,90.950414 83.9381078,90.9685895 C84.1614961,90.971186 84.6495932,91.5125544 84.5127194,91.7903789 C83.3906126,94.0882737 82.5732437,95.0295018 80.9359233,96.9664842 C82.3485641,97.3845193 83.5933408,97.7688 84.4739816,98.0427298 C84.8316612,98.1543789 86.5477485,94.4712561 86.7388553,94.0713965 C88.4743117,90.4440982 89.6028748,85.9846246 87.8286806,82.149607 C87.2269524,80.8500632 85.4721272,77.9796421 83.7779913,77.8757825" id="Fill-6" fill="#16254F"></path>
                    <polygon id="Fill-8" fill="#FFFFFF" points="84.8713029 100.614035 97.7839243 109.701754 91.3276136 113.596491 68.0848951 114.894737 57.7547981 113.596491 43.5509146 112.298246 38.385866 103.210526 35.8033417 99.3157895 42.2596524 98.0175439 53.8810117 99.3157895"></polygon>
                    <polygon id="Stroke-10" stroke="#16254F" stroke-width="0.75" points="84.8713029 100.614035 97.7839243 109.701754 91.3276136 113.596491 68.0848951 114.894737 57.7547981 113.596491 43.5509146 112.298246 38.385866 103.210526 35.8033417 99.3157895 42.2596524 98.0175439 53.8810117 99.3157895"></polygon>
                    <path d="M93.3426282,108.553067 C92.2179388,108.862049 91.0622592,109.155453 89.8704243,109.424189 C93.0572592,112.243979 95.7844049,114.857347 98.1345019,117.055277 C98.3423951,117.247418 98.5412495,117.433067 98.7426864,117.618716 C100.649881,117.787488 102.473143,117.996505 104.182774,118.217207 C104.530123,118.26654 104.873599,118.315874 105.21191,118.363909 C103.475162,117.076049 101.731958,115.541523 99.9022398,113.932996 C97.5405214,111.88047 94.8805214,109.661768 93.3426282,108.553067" id="Fill-12" fill="#FFFFFF"></path>
                    <path d="M93.3426282,108.553067 C92.2179388,108.862049 91.0622592,109.155453 89.8704243,109.424189 C93.0572592,112.243979 95.7844049,114.857347 98.1345019,117.055277 C98.3423951,117.247418 98.5412495,117.433067 98.7426864,117.618716 C100.649881,117.787488 102.473143,117.996505 104.182774,118.217207 C104.530123,118.26654 104.873599,118.315874 105.21191,118.363909 C103.475162,117.076049 101.731958,115.541523 99.9022398,113.932996 C97.5405214,111.88047 94.8805214,109.661768 93.3426282,108.553067 Z" id="Stroke-14" stroke="#16254F" stroke-width="1.045"></path>
                    <path d="M99.2832087,106.606996 C99.821665,107.096435 100.339461,107.585874 100.818519,108.071418 C101.431869,108.667312 102.015519,109.250225 102.58884,109.824049 C103.903345,109.14247 105.1365,108.425839 106.263772,107.67026 C115.219966,101.896961 118.271218,96.017207 117.754714,95.7251018 C117.043228,95.1214175 112.93185,99.9236281 104.183549,104.390891 C102.696015,105.184119 101.049655,105.922821 99.2832087,106.606996" id="Fill-16" fill="#FFFFFF"></path>
                    <path d="M99.2832087,106.606996 C99.821665,107.096435 100.339461,107.585874 100.818519,108.071418 C101.431869,108.667312 102.015519,109.250225 102.58884,109.824049 C103.903345,109.14247 105.1365,108.425839 106.263772,107.67026 C115.219966,101.896961 118.271218,96.017207 117.754714,95.7251018 C117.043228,95.1214175 112.93185,99.9236281 104.183549,104.390891 C102.696015,105.184119 101.049655,105.922821 99.2832087,106.606996 Z" id="Stroke-18" stroke="#16254F" stroke-width="1.045"></path>
                    <g id="Group-23" transform="translate(56.815534, 110.350877)">
                        <path d="M0.907757282,6.77398596 C3.17521359,7.43479298 8.81415534,7.55682807 11.1487573,7.60096842 C20.6124175,7.78142456 23.1936505,7.37377544 29.7726311,7.02065263 C31.5984757,6.91289825 33.3752524,6.88693333 35.1055437,6.91030175 C33.033068,5.33033684 30.8146796,3.58419649 28.4684563,1.77184561 C27.8189515,1.27072281 27.1591165,0.777389474 26.491534,0.282757895 C21.2464272,1.05261754 14.7733301,1.29149474 8.80640777,1.22268772" id="Fill-20" fill="#FFFFFF"></path>
                        <path d="M0.907757282,6.77398596 C3.17521359,7.43479298 8.81415534,7.55682807 11.1487573,7.60096842 C20.6124175,7.78142456 23.1936505,7.37377544 29.7726311,7.02065263 C31.5984757,6.91289825 33.3752524,6.88693333 35.1055437,6.91030175 C33.033068,5.33033684 30.8146796,3.58419649 28.4684563,1.77184561 C27.8189515,1.27072281 27.1591165,0.777389474 26.491534,0.282757895 C21.2464272,1.05261754 14.7733301,1.29149474 8.80640777,1.22268772" id="Stroke-22" stroke="#16254F" stroke-width="1.045"></path>
                    </g>
                    <g id="Group-27" transform="translate(10.330097, 107.456140)">
                        <path d="M49.3086524,1.05135789 C42.8523417,1.2564807 37.1682058,0.747568421 37.1682058,0.747568421 C34.2589922,0.538550877 33.3744777,0.613849123 28.193934,0.0932526316 C24.4544388,-0.281940351 19.2454874,1.65114737 15.8520505,1.84588421 C10.4894388,2.07307719 6.00488544,3.44532281 3.53211845,5.37970877 C1.0477301,7.33746316 0.726205825,9.13812982 0.987040777,9.23160351 C1.39766214,9.48216491 2.36869126,8.22935789 4.73040971,7.15570877 C7.09341942,6.07556842 10.9594583,5.41346316 15.9256524,5.66402456 C17.6352835,5.72893684 19.4598369,5.89121754 21.381235,6.11970877 C19.3888175,7.36862105 17.8715845,8.74216491 16.992235,10.0780596 C15.5318175,12.263007 15.7823223,13.8079193 16.1103029,13.8442702 C16.5325456,13.9507263 17.046468,12.7771123 18.6837883,11.4425158 C20.3650117,10.0715684 22.341934,9.12255088 24.3575942,8.3747614 C26.2299243,7.67890175 28.6665359,6.65198947 30.5840602,6.12100702 C32.2420408,6.39753333 33.0013029,6.63121754 34.7819534,6.94798947 C35.4779437,7.04016491 37.5568757,7.34914737 38.2606136,7.43483158" id="Fill-24" fill="#FFFFFF"></path>
                        <path d="M49.3086524,1.05135789 C42.8523417,1.2564807 37.1682058,0.747568421 37.1682058,0.747568421 C34.2589922,0.538550877 33.3744777,0.613849123 28.193934,0.0932526316 C24.4544388,-0.281940351 19.2454874,1.65114737 15.8520505,1.84588421 C10.4894388,2.07307719 6.00488544,3.44532281 3.53211845,5.37970877 C1.0477301,7.33746316 0.726205825,9.13812982 0.987040777,9.23160351 C1.39766214,9.48216491 2.36869126,8.22935789 4.73040971,7.15570877 C7.09341942,6.07556842 10.9594583,5.41346316 15.9256524,5.66402456 C17.6352835,5.72893684 19.4598369,5.89121754 21.381235,6.11970877 C19.3888175,7.36862105 17.8715845,8.74216491 16.992235,10.0780596 C15.5318175,12.263007 15.7823223,13.8079193 16.1103029,13.8442702 C16.5325456,13.9507263 17.046468,12.7771123 18.6837883,11.4425158 C20.3650117,10.0715684 22.341934,9.12255088 24.3575942,8.3747614 C26.2299243,7.67890175 28.6665359,6.65198947 30.5840602,6.12100702 C32.2420408,6.39753333 33.0013029,6.63121754 34.7819534,6.94798947 C35.4779437,7.04016491 37.5568757,7.34914737 38.2606136,7.43483158" id="Stroke-26" stroke="#16254F" stroke-width="1.045"></path>
                    </g>
                    <path d="M108.424183,115.720032 C108.67727,115.9654 108.929066,116.210768 109.175697,116.444453 C110.295221,117.57133 111.35793,118.513856 112.328959,119.314874 C117.65025,119.966593 120.804804,120.167821 120.877115,119.673189 C120.952008,119.142207 116.36028,117.646628 108.424183,115.720032" id="Fill-28" fill="#FFFFFF"></path>
                    <path d="M108.424183,115.720032 C108.67727,115.9654 108.929066,116.210768 109.175697,116.444453 C110.295221,117.57133 111.35793,118.513856 112.328959,119.314874 C117.65025,119.966593 120.804804,120.167821 120.877115,119.673189 C120.952008,119.142207 116.36028,117.646628 108.424183,115.720032 Z" id="Stroke-30" stroke="#16254F" stroke-width="1.045"></path>
                    <path d="M30.3356214,97.0273719 C32.7089612,98.5528105 35.0048252,100.655968 37.4788835,103.088881 C39.4248155,103.117442 41.5076214,103.147302 43.7053495,103.169372 C39.8483495,99.6251614 36.2650971,96.0926351 32.2363592,94.1530561 C22.9263592,89.0873018 16.4803786,88.1058281 16.309932,88.491407 C15.9031845,89.300214 22.0883301,91.535793 30.3356214,97.0273719" id="Fill-32" fill="#FFFFFF"></path>
                    <path d="M30.3356214,97.0273719 C32.7089612,98.5528105 35.0048252,100.655968 37.4788835,103.088881 C39.4248155,103.117442 41.5076214,103.147302 43.7053495,103.169372 C39.8483495,99.6251614 36.2650971,96.0926351 32.2363592,94.1530561 C22.9263592,89.0873018 16.4803786,88.1058281 16.309932,88.491407 C15.9031845,89.300214 22.0883301,91.535793 30.3356214,97.0273719 Z" id="Stroke-34" stroke="#16254F" stroke-width="1.045"></path>
                    <path d="M91.0627757,100.811758 C92.0105621,101.312881 93.4425718,102.185302 94.3245039,102.74874 C97.2427563,101.171372 99.7697563,99.3901789 102.010096,98.0426 C109.680193,93.4273368 114.339067,91.984986 111.919242,91.8006351 C110.112766,91.6617228 103.882426,92.9963193 96.4421738,97.0598281 C95.8882223,97.3428456 94.364533,98.7696175 91.0627757,100.811758" id="Fill-36" fill="#FFFFFF"></path>
                    <path d="M91.0627757,100.811758 C92.0105621,101.312881 93.4425718,102.185302 94.3245039,102.74874 C97.2427563,101.171372 99.7697563,99.3901789 102.010096,98.0426 C109.680193,93.4273368 114.339067,91.984986 111.919242,91.8006351 C110.112766,91.6617228 103.882426,92.9963193 96.4421738,97.0598281 C95.8882223,97.3428456 94.364533,98.7696175 91.0627757,100.811758 Z" id="Stroke-38" stroke="#16254F" stroke-width="1.045"></path>
                    <path d="M59.3398223,108.300818 C59.7478612,107.977554 60.9551913,107.38166 61.3800165,107.068782 C67.2797932,102.749519 71.8818515,99.4584667 76.8803272,95.3456246 C72.4125602,94.2732737 65.2434728,93.1269228 62.3575019,91.5145018 C56.5739388,88.6622561 53.7021718,85.4503965 53.0100553,86.0060456 C52.4806379,86.3163263 54.2044728,90.5343263 60.2992301,94.7692035 C61.4587835,95.6273439 62.7732883,96.3725368 64.2040068,97.0411333 C56.836065,95.892186 50.5230845,95.723414 45.9429777,94.0525719 C39.2606961,92.0273088 36.1758709,88.5778702 35.4953757,89.1387123 C34.910434,89.3931684 37.0784631,94.1733088 44.467065,97.588993 C50.1137544,100.424361 55.6803854,101.007274 63.6513466,102.674221 C61.2237738,103.17794 58.3545893,103.388256 56.7611718,103.453168 C35.3003951,104.098396 21.9345408,102.090011 21.8389874,103.921835 C21.7886282,104.656642 26.1505117,105.712116 33.314434,106.797449 C40.1051816,107.776326 48.8005408,108.634467 59.3398223,108.300818" id="Fill-40" fill="#FFFFFF"></path>
                    <path d="M59.3398223,108.300818 C59.7478612,107.977554 60.9551913,107.38166 61.3800165,107.068782 C67.2797932,102.749519 71.8818515,99.4584667 76.8803272,95.3456246 C72.4125602,94.2732737 65.2434728,93.1269228 62.3575019,91.5145018 C56.5739388,88.6622561 53.7021718,85.4503965 53.0100553,86.0060456 C52.4806379,86.3163263 54.2044728,90.5343263 60.2992301,94.7692035 C61.4587835,95.6273439 62.7732883,96.3725368 64.2040068,97.0411333 C56.836065,95.892186 50.5230845,95.723414 45.9429777,94.0525719 C39.2606961,92.0273088 36.1758709,88.5778702 35.4953757,89.1387123 C34.910434,89.3931684 37.0784631,94.1733088 44.467065,97.588993 C50.1137544,100.424361 55.6803854,101.007274 63.6513466,102.674221 C61.2237738,103.17794 58.3545893,103.388256 56.7611718,103.453168 C35.3003951,104.098396 21.9345408,102.090011 21.8389874,103.921835 C21.7886282,104.656642 26.1505117,105.712116 33.314434,106.797449 C40.1051816,107.776326 48.8005408,108.634467 59.3398223,108.300818 Z" id="Stroke-42" stroke="#16254F" stroke-width="1.045"></path>
                    <path d="M109.175826,116.445232 C106.780535,114.175898 104.099875,111.269126 100.820069,108.071547 C98.2969427,105.512705 94.9254573,102.851302 91.0632922,100.813056 C96.5924767,97.3882842 98.7953699,93.4429158 98.3188942,93.0638281 C97.6990883,92.4549509 94.259166,95.7265298 87.8906612,98.1970912 C87.4051466,98.3905298 86.8963893,98.5761789 86.3773019,98.7618281 C83.7767,97.8218982 83.5830107,97.6738982 81.1877194,97.0416526 C77.7090592,100.910425 73.831399,103.975582 70.0053893,107.779442 C72.5956612,107.426319 74.678467,106.9226 77.0311466,106.356565 C77.8020301,106.779793 78.5483796,107.222495 79.2417874,107.710635 C81.4175641,109.23867 83.3777,110.647267 85.2836029,112.123372 C89.0644184,115.04053 92.5095058,117.788916 95.5530107,119.949196 C101.682632,124.299618 106.145234,126.043161 106.508079,125.443372 C106.938069,124.764389 103.394846,121.980951 98.1342437,117.054109 C95.4884476,114.582249 92.3713408,111.583302 88.6499233,108.354565 C87.1339816,107.031653 85.4282243,105.674986 83.6953505,104.357267 C84.0698165,104.219653 84.4378262,104.078144 84.8006709,103.934039 C85.0950786,104.046986 85.3907777,104.15474 85.6826029,104.272881 C94.7485544,107.833968 100.557943,115.374179 106.575224,119.32474 C112.317467,123.636214 117.2927,124.232109 117.379215,123.477828 C117.553535,122.72874 113.841156,121.131898 109.175826,116.445232" id="Fill-44" fill="#FFFFFF"></path>
                    <path d="M109.175826,116.445232 C106.780535,114.175898 104.099875,111.269126 100.820069,108.071547 C98.2969427,105.512705 94.9254573,102.851302 91.0632922,100.813056 C96.5924767,97.3882842 98.7953699,93.4429158 98.3188942,93.0638281 C97.6990883,92.4549509 94.259166,95.7265298 87.8906612,98.1970912 C87.4051466,98.3905298 86.8963893,98.5761789 86.3773019,98.7618281 C83.7767,97.8218982 83.5830107,97.6738982 81.1877194,97.0416526 C77.7090592,100.910425 73.831399,103.975582 70.0053893,107.779442 C72.5956612,107.426319 74.678467,106.9226 77.0311466,106.356565 C77.8020301,106.779793 78.5483796,107.222495 79.2417874,107.710635 C81.4175641,109.23867 83.3777,110.647267 85.2836029,112.123372 C89.0644184,115.04053 92.5095058,117.788916 95.5530107,119.949196 C101.682632,124.299618 106.145234,126.043161 106.508079,125.443372 C106.938069,124.764389 103.394846,121.980951 98.1342437,117.054109 C95.4884476,114.582249 92.3713408,111.583302 88.6499233,108.354565 C87.1339816,107.031653 85.4282243,105.674986 83.6953505,104.357267 C84.0698165,104.219653 84.4378262,104.078144 84.8006709,103.934039 C85.0950786,104.046986 85.3907777,104.15474 85.6826029,104.272881 C94.7485544,107.833968 100.557943,115.374179 106.575224,119.32474 C112.317467,123.636214 117.2927,124.232109 117.379215,123.477828 C117.553535,122.72874 113.841156,121.131898 109.175826,116.445232 Z" id="Stroke-46" stroke="#16254F" stroke-width="1.045"></path>
                    <g id="Group-51" transform="translate(28.407767, 90.877193)">
                        <path d="M2.5319068,26.7066 C6.30755728,27.1467053 10.1400233,26.9169158 13.8446544,26.0717579 C17.4950524,25.236986 20.9995379,23.825793 24.2922563,22.0368105 C27.2272951,20.4412667 29.8291883,18.4147053 32.5769942,16.5361439 C36.2661301,14.0123544 39.876499,11.3730211 43.4378,8.66747719 C45.437965,7.14852982 47.3696932,5.54130175 49.3298291,3.97042456 C51.1608388,2.50470526 53.1403437,0.479442105 55.5304699,0.0912666667 C56.9030816,-0.132031579 55.3380718,2.49951228 55.1211398,2.8786 C53.1816641,6.25274035 50.1329942,8.79600351 47.3916447,11.4742842 C44.8904699,13.9162842 42.3169845,16.282986 39.6995961,18.5990561 C36.8187903,21.1488105 33.7946544,23.5518632 30.5083922,25.5459684 C27.339635,27.4712667 23.9345767,29.0291614 20.3564893,29.9820737 C16.8442563,30.9181088 13.1744893,31.2465649 9.56282913,30.8129509 C6.43539223,30.4377579 3.39188738,29.4965298 0.562732039,28.1009158" id="Fill-48" fill="#FFFFFF"></path>
                        <path d="M2.5319068,26.7066 C6.30755728,27.1467053 10.1400233,26.9169158 13.8446544,26.0717579 C17.4950524,25.236986 20.9995379,23.825793 24.2922563,22.0368105 C27.2272951,20.4412667 29.8291883,18.4147053 32.5769942,16.5361439 C36.2661301,14.0123544 39.876499,11.3730211 43.4378,8.66747719 C45.437965,7.14852982 47.3696932,5.54130175 49.3298291,3.97042456 C51.1608388,2.50470526 53.1403437,0.479442105 55.5304699,0.0912666667 C56.9030816,-0.132031579 55.3380718,2.49951228 55.1211398,2.8786 C53.1816641,6.25274035 50.1329942,8.79600351 47.3916447,11.4742842 C44.8904699,13.9162842 42.3169845,16.282986 39.6995961,18.5990561 C36.8187903,21.1488105 33.7946544,23.5518632 30.5083922,25.5459684 C27.339635,27.4712667 23.9345767,29.0291614 20.3564893,29.9820737 C16.8442563,30.9181088 13.1744893,31.2465649 9.56282913,30.8129509 C6.43539223,30.4377579 3.39188738,29.4965298 0.562732039,28.1009158" id="Stroke-50" stroke="#16254F" stroke-width="1.045"></path>
                    </g>
                    <g id="Group-55" transform="translate(37.446602, 97.368421)">
                        <path d="M0.312485437,0.462694737 C1.55467961,0.499045614 3.0112233,0.573045614 4.40707767,0.693782456 C6.39820388,0.762589474 9.8316699,1.61034386 11.9131845,2.18027368" id="Fill-52" fill="#FFFFFF"></path>
                        <path d="M0.312485437,0.462694737 C1.55467961,0.499045614 3.0112233,0.573045614 4.40707767,0.693782456 C6.39820388,0.762589474 9.8316699,1.61034386 11.9131845,2.18027368" id="Stroke-54" stroke="#16254F" stroke-width="1.045"></path>
                    </g>
                    <g id="Group-59" transform="translate(24.533981, 97.368421)">
                        <path d="M7.1421,0.585768421 C2.64334272,0.892154386 0.486934951,1.63994386 0.484352427,1.9086807 C0.441740777,2.6058386 4.04823592,2.47471579 10.2708282,3.17836491" id="Fill-56" fill="#FFFFFF"></path>
                        <path d="M7.1421,0.585768421 C2.64334272,0.892154386 0.486934951,1.63994386 0.484352427,1.9086807 C0.441740777,2.6058386 4.04823592,2.47471579 10.2708282,3.17836491" id="Stroke-58" stroke="#16254F" stroke-width="1.045"></path>
                    </g>
                    <path d="M17.9841825,65.6907088 C17.9286583,65.6011298 17.3669592,66.0126737 17.3256388,66.0529193 C16.9679592,66.4060421 16.7962214,67.2031649 16.754901,67.6796211 C16.7122893,68.1612702 16.7290757,68.5325684 16.3378233,68.874007 C16.1725417,69.0181123 15.9581922,69.0739368 15.745134,69.0246035 C15.557901,68.9830596 15.3964932,68.8649193 15.2092602,68.8272702 C14.9535903,68.7753404 14.7831437,68.9908491 14.8541631,69.2336211 C14.9329301,69.4984632 15.218299,69.6516561 15.4636388,69.7217614 C15.6211728,69.7697965 15.7877456,69.7931649 15.9517359,69.7931649 C15.9840175,69.7931649 16.3223282,69.7788842 16.3197456,69.7321474 C16.3197456,69.7321474 16.3546097,70.5643228 15.5256194,70.3462175 C15.2028039,70.2618316 14.3970563,70.1307088 14.5623379,70.724007 C14.6746777,71.1342526 15.1072505,71.2809544 15.4894641,71.3017263 C16.0459981,71.3354807 16.5586291,70.9992351 16.8736971,70.5591298 C17.2391243,70.0489193 17.2933573,69.4140772 17.3450078,68.8064982 C17.3759981,68.4222175 17.4044058,68.0314456 17.4960854,67.6549544 C17.6574932,67.0019368 17.6781534,66.5929895 18.2166097,66.4397965 C18.5949495,66.3320421 17.9841825,65.6907088 17.9841825,65.6907088" id="Fill-60" fill="#16254F"></path>
                    <path d="M15.3436806,65.8618175 C15.3139816,65.7423789 14.5443893,65.9994316 14.4837,66.0292912 C13.9620301,66.2941333 13.4894282,67.1198175 13.2737874,67.6339228 C13.0568553,68.1558175 12.9470981,68.5738526 12.3892728,68.8140281 C12.1542631,68.9165895 11.8973019,68.9010105 11.6777874,68.7698877 C11.4853893,68.6569404 11.345933,68.4686947 11.1509524,68.3583439 C10.887535,68.2103439 10.6202437,68.3882035 10.6137874,68.6842035 C10.6073311,69.0061684 10.8707485,69.2788 11.1186709,69.4449754 C11.2787874,69.5527298 11.4531078,69.638414 11.636467,69.6968351 C11.6713311,69.7085193 12.0522534,69.8149754 12.0677485,69.7617474 C12.0677485,69.7617474 11.8133699,70.6990807 10.9663019,70.161607 C10.6383214,69.9512912 9.78867087,69.5163789 9.76284563,70.235607 C9.74476796,70.7341333 10.173467,71.049607 10.5905447,71.2105895 C11.1961466,71.4468702 11.8843893,71.2534316 12.3905641,70.8769404 C12.9767971,70.4407298 13.262166,69.7552561 13.5333311,69.0983439 C13.7037777,68.681607 13.8716417,68.2570807 14.109234,67.8715018 C14.5172728,67.2029053 14.6851369,66.7550105 15.3372243,66.7770807 C15.7969136,66.7926596 15.3436806,65.8618175 15.3436806,65.8618175" id="Fill-62" fill="#16254F"></path>
                </g>
                <g id="Group-67" transform="translate(53.000000, 47.000000)">
                    <mask id="mask-4" fill="white">
                        <use xlink:href="#path-3"></use>
                    </mask>
                    <g id="Clip-66"></g>
                    <polygon id="Fill-65" fill="#16254F" mask="url(#mask-4)" points="-3.79611429 20.5068875 -11.4395429 0.0152625 11.9243755 -9.6427375 19.5678041 10.8516375"></polygon>
                </g>
                <g id="Group-75" transform="translate(0.000000, 19.000000)">
                    <g id="Group-70">
                        <mask id="mask-6" fill="white">
                            <use xlink:href="#path-5"></use>
                        </mask>
                        <g id="Clip-69"></g>
                        <path d="M56.4634888,27.1641375 C55.8204514,25.3674292 53.0781243,23.6301375 51.1944794,23.5578042 C46.6646383,23.3847208 45.2655449,24.4115958 43.3728065,24.9605542 C42.2270308,25.2938042 41.7113019,22.0439708 41.4891617,20.5430542 C41.2605262,18.9982208 40.5057692,16.9496375 39.469115,15.7445125 C38.4701336,14.5820125 37.345143,13.5693458 36.2162551,12.5657208 C32.2722925,9.06142917 28.071115,6.30242917 23.5737505,3.41555417 C21.6641243,2.19234583 20.1169374,1.5658875 17.9604888,0.0003875 C15.6728346,1.1822625 21.0964327,4.81055417 21.2328346,4.9642625 C19.9428626,4.73692917 18.3606009,3.93222083 17.0641336,4.3287625 C16.7744421,7.22855417 19.2816383,8.88059583 21.3224701,10.1231792 C21.0262832,9.94105417 18.5528626,9.24355417 18.0085542,9.1686375 C17.2836757,9.0678875 16.0846383,8.7695125 15.6702364,9.59747083 C15.006414,10.9304708 17.1836477,12.5657208 18.2086103,12.8666792 C17.0251617,13.0449292 16.3444514,13.6468458 16.4964421,14.7563875 C16.6367411,15.7742208 17.5499841,15.8478458 17.6889841,16.7765542 C17.785115,17.4107625 15.7455822,17.4223875 17.5798626,19.5600958 C18.1670402,20.2446792 15.741685,21.5776792 18.2969467,22.4146792 C17.686386,23.2361792 17.9449,24.5123458 18.7061523,25.0380542 C19.7583953,25.7665542 19.3595822,25.6360958 19.7674888,26.1101375 C17.3966944,25.1258875 14.847928,24.5924292 12.3316383,24.8120125 C8.23048879,25.1723875 0.0126009346,24.6130958 -0.000389719626,24.5678875 C0.667329907,27.1434708 4.7437972,27.4328042 6.93532056,27.9107208 C6.06364766,28.5048875 2.94718972,28.5152208 3.29663832,29.9024708 C3.2446757,31.6294292 7.3094514,30.6774708 9.39964766,30.8699292 C8.97095607,31.3439708 6.53650748,32.2907625 6.88205888,33.0037625 C7.3133486,33.8963042 10.0582738,33.1471375 10.7246944,32.9818042 C10.1686944,33.1187208 9.63997477,33.7580958 9.46849813,34.2489292 C10.6870215,34.6880958 10.6870215,34.6880958 13.1942178,34.4052208 C11.0481617,35.2990542 12.981171,36.7082625 14.6374794,36.4770542 C14.351685,36.5532625 15.5390308,37.9405125 15.7884514,38.0283458 C16.1898626,38.1678458 16.5964701,37.8901375 16.9835916,37.9844292 C17.4954234,38.1084292 17.3668159,38.3060542 17.6993766,38.6393042 C18.2475822,39.1869708 19.0659935,39.3096792 19.8194514,39.2760958 C20.5235449,39.2450958 20.3949374,39.3484292 20.9912084,39.6287208 C21.2912925,39.7720958 22.135685,39.7501375 22.4617505,39.6351792 C20.5326383,42.7196792 18.9646664,45.3495125 16.4626664,48.5037625 C14.1944981,51.3609292 11.5015355,54.3860125 8.62930187,56.6890542 C8.0759,57.1359708 5.34396542,60.4762208 5.4011243,61.2589708 C8.9060028,58.7699292 14.0957692,54.0618042 14.7569935,53.7208042 C16.0235822,53.0646375 17.3629187,52.7016792 18.7477224,52.3103042 C21.6836103,51.4797625 22.7683299,50.4038042 24.9988252,50.4076792 C27.1682645,50.4115542 29.3403019,50.1480542 31.4837598,49.8406375 C34.982143,49.3381792 36.7657598,48.9132208 40.4979748,46.6360125 C45.7578907,43.2957625 48.5067131,40.4941375 51.8686944,35.1208042 C52.6442364,33.8808042 54.8123766,31.0430125 56.4193206,30.3170958 C57.5599,29.8766375 58.5822645,29.8960125 59.6760776,29.9476792 C59.3188346,28.4248042 57.6976009,28.6456792 56.4634888,27.1641375" id="Fill-68" fill="#16254F" mask="url(#mask-6)"></path>
                    </g>
                    <path d="M131.402026,32.7318667 C131.391634,32.6543667 131.908662,32.6233667 131.950232,32.6272417 C132.321764,32.6582417 132.795923,33.0302417 133.045344,33.280825 C133.297363,33.5339917 133.461045,33.753575 133.848166,33.7626167 C134.01055,33.7664917 134.158643,33.6967417 134.258671,33.5688667 C134.347007,33.4577833 134.383381,33.3144083 134.473017,33.203325 C134.59383,33.0547833 134.793886,33.0961167 134.867933,33.2679083 C134.947176,33.4552 134.854942,33.6747833 134.748419,33.8323667 C134.679568,33.9331167 134.596428,34.024825 134.501596,34.102325 C134.483409,34.1165333 134.283353,34.2676583 134.261269,34.241825 C134.261269,34.241825 134.632802,34.730075 135.006933,34.2147 C135.152428,34.0144917 135.55254,33.5611167 135.738307,33.9757417 C135.866914,34.2637833 135.687643,34.54795 135.478493,34.7417 C135.174512,35.0207 134.722437,35.0723667 134.334017,34.970325 C133.88454,34.854075 133.553279,34.5195333 133.237606,34.1992 C133.038849,33.9964083 132.837493,33.7858667 132.607559,33.6166583 C132.207447,33.3221583 132.003493,33.0987 131.622867,33.2666167 C131.353961,33.3841583 131.402026,32.7318667 131.402026,32.7318667" id="Fill-71" fill="#16254F"></path>
                    <path d="M132.997928,31.5852542 C132.958956,31.5038792 133.521451,31.2868792 133.569517,31.2752542 C133.994311,31.1796708 134.654236,31.4250875 135.020573,31.6149625 C135.390807,31.8087125 135.651919,31.9934208 136.084507,31.8681292 C136.267676,31.8151708 136.406676,31.6847125 136.472928,31.5077542 C136.530087,31.3527542 136.519694,31.1809625 136.58075,31.0259625 C136.661293,30.8167125 136.899021,30.7934625 137.041919,30.9587958 C137.197807,31.1370458 137.174423,31.4160458 137.110769,31.6265875 C137.070498,31.7635042 137.009442,31.8952542 136.932797,32.0140875 C136.918507,32.0386292 136.749629,32.2775875 136.715853,32.2543375 C136.715853,32.2543375 137.303031,32.6663792 137.534264,31.9624208 C137.625199,31.6885875 137.907096,31.0414625 138.261741,31.4380042 C138.507264,31.7118375 138.409835,32.0928792 138.246152,32.3809208 C138.008423,32.7994208 137.523872,33.0138375 137.056208,33.0396708 C136.514498,33.0680875 136.027349,32.8136292 135.563582,32.5682125 C135.267395,32.4132125 134.971208,32.2504625 134.652937,32.1432542 C134.104732,31.9572542 133.796853,31.7815875 133.433115,32.1006292 C133.177199,32.3266708 132.997928,31.5852542 132.997928,31.5852542" id="Fill-73" fill="#16254F"></path>
                </g>
                <g id="Group-78" transform="translate(106.000000, 54.000000)">
                    <mask id="mask-8" fill="white">
                        <use xlink:href="#path-7"></use>
                    </mask>
                    <g id="Clip-77"></g>
                    <polygon id="Fill-76" fill="#16254F" mask="url(#mask-8)" points="20.4931375 4.56912 6.0336375 16.10592 -9.8324875 0.96192 4.6256375 -10.57488"></polygon>
                </g>
                <path d="M146.31609,43.7001899 C142.854485,42.9763467 137.874788,41.5299551 136.920125,41.2450794 C134.841136,40.6222376 134.281506,40.5898653 133.575004,40.2726174 C132.755817,39.9035739 134.01815,38.6850829 133.847222,37.6206837 C133.729472,36.8800069 133.121729,36.2040746 133.009043,35.8699931 C132.853309,35.4077175 133.399012,34.7848757 133.300253,34.300587 C133.100205,33.3203557 131.696064,33.3229454 131.470693,32.590038 C131.201007,31.710808 132.505122,30.7914365 131.560588,30.0960808 C131.268112,29.8811291 130.824965,30.0183874 130.576804,29.6843059 C130.241279,29.2272099 130.707215,28.4904178 130.095673,28.1356181 C129.722165,27.9180767 129.272688,28.3389157 128.995405,27.984116 C129.249897,27.4596858 129.722165,26.5610325 129.517051,25.9407804 C129.284083,25.2272963 128.739646,25.4111706 128.20154,25.3839779 C128.192677,24.8983943 128.654815,24.2133978 128.418049,23.6630698 C128.116709,22.9599448 127.306385,23.1166264 126.732827,23.0894337 C127.454522,22.4847203 126.834118,21.2688191 126.347923,20.7314399 C125.821212,21.0978936 125.516074,21.6339779 125.032412,22.0289192 C125.156493,21.1859461 125.546461,20.0347894 124.929855,19.2967023 C124.456322,18.7295407 124.271467,18.8836326 123.915684,19.3692162 C123.862506,19.44173 123.143343,20.5721685 123.138279,20.530732 C122.971149,19.3394337 123.93974,16.8467714 122.936964,15.9623619 C121.916461,16.6266402 122.138034,17.6845649 121.521428,18.6233598 C121.247944,17.5602555 121.677162,16.2899689 121.52396,15.1595304 C121.38342,14.121029 121.073217,13.4515711 120.395837,12.6953557 C120.055247,13.0087189 119.656416,18.6842196 119.308229,19.2695097 C119.255052,17.7493094 119.56652,12.7769337 117.819258,12 C117.224176,13.4166091 118.713147,20.6887086 117.381177,25.1560773 C116.94816,26.6115331 116.056803,30.6671271 116.1429,32.2158149 C116.301166,35.0451485 116.802554,36.7997238 116.8532,39.6575449 C116.870925,40.6196478 116.85953,41.9041782 116.268247,42.6862914 C115.827633,43.2676968 113.218135,44.9186809 112.59773,45.3705974 C109.284263,47.777797 108.729697,50.7961844 109.099408,52.043163 C109.193101,52.7424033 109.829966,53.3626554 109.829966,54.1369993 C109.848958,54.7404178 109.556481,56.3771581 109.741337,57 C110.425048,56.9054731 111.015065,55.336067 111.643067,54.9760877 C113.035812,54.1357044 115.36043,54.797393 117.37358,54.9346512 C118.909398,55.0395373 124.252475,54.6627244 125.694599,54.421875 C128.716856,53.9207528 131.531467,52.546875 134.189078,51.047393 C135.377976,50.3753453 138.290079,47.9305939 139.641042,47.7013985 C140.805883,47.5045753 147.991182,50.4413847 149.08512,50.9839434 C149.697928,51.2895373 152.303627,52.6064399 151.919989,50.6705801 C151.751594,49.8172479 150.385438,49.8949413 150.229703,49.0959945 C150.764011,49.0053522 151.669295,49.6605663 152.149159,49.3200104 C152.926564,48.7696823 151.883272,47.7247065 151.561674,47.2507769 C152.039006,47.0306457 152.583443,47.0578384 152.962016,46.6616022 C152.501144,46.1540055 151.590795,45.9766057 150.765277,45.8963225 C151.651569,45.9364641 152.418845,45.8302831 153,44.9212707 C152.654346,44.2518128 151.228681,44.7244475 146.31609,43.7001899" id="Fill-79" fill="#16254F"></path>
            </g>
        </g>
    </g>
</svg>