<svg xmlns="http://www.w3.org/2000/svg" width="97" height="122" viewBox="0 0 97 122">
  <g fill="none" fill-rule="evenodd" transform="translate(1)">
    <polygon fill="#16254F" points="47.75 74 11 62 47.75 50 84.5 62"/>
    <path fill="#FFF" stroke="#16254F" stroke-linecap="round" stroke-linejoin="round" d="M44.3302797,24.9800476 L76.0401,15.7997121 L76.0401,87.152 L20.0401,87.152 L20.0401,19.5355211 L44.3302797,24.9800476 Z"/>
    <path fill="#FFF" stroke="#16254F" stroke-linecap="round" stroke-linejoin="round" d="M51.7319409,11.0725295 L77.7752097,15.3231346 L44.4440801,25.217912 L18.3810634,19.1724006 L51.5328342,11.0802612 L51.7319409,11.0725295 Z"/>
    <path fill="#FFF" d="M55.376,35.1891 C61.79,33.4991 68.357,31.0371 75.376,29.1891"/>
    <path stroke="#16254F" stroke-linecap="round" stroke-linejoin="round" d="M55.376,35.1891 C61.79,33.4991 68.357,31.0371 75.376,29.1891"/>
    <path fill="#FFF" d="M50.3428,46.5504 L62.8558,42.7964 C58.7398,43.7404 54.5478,45.1974 50.3428,46.5504"/>
    <path stroke="#16254F" stroke-linecap="round" stroke-linejoin="round" d="M50.3428,46.5504 L62.8558,42.7964 C58.7398,43.7404 54.5478,45.1974 50.3428,46.5504 Z"/>
    <path fill="#FFF" d="M67.7589,49.9449 L75.3759,47.6599"/>
    <path stroke="#16254F" stroke-linecap="round" stroke-linejoin="round" d="M67.7589,49.9449 L75.3759,47.6599"/>
    <path fill="#FFF" d="M44.5928,60.9986 C47.8388,60.0246 51.0858,59.0516 54.3328,58.0766"/>
    <path stroke="#16254F" stroke-linecap="round" stroke-linejoin="round" d="M44.5928,60.9986 C47.8388,60.0246 51.0858,59.0516 54.3328,58.0766"/>
    <path fill="#FFF" d="M69.4962,21.5133 C71.4562,20.9253 73.4162,20.3363 75.3762,19.7483"/>
    <path stroke="#16254F" stroke-linecap="round" stroke-linejoin="round" d="M69.4962,21.5133 C71.4562,20.9253 73.4162,20.3363 75.3762,19.7483"/>
    <path fill="#FFF" d="M44.5928,28.984 C48.2448,28.163 52.3498,26.521 55.9058,25.59"/>
    <path stroke="#16254F" stroke-linecap="round" stroke-linejoin="round" d="M44.5928,28.984 C48.2448,28.163 52.3498,26.521 55.9058,25.59"/>
    <path fill="#FFF" d="M20.7862,25.9059 C23.7652,26.6109 26.7442,27.3169 29.7232,28.0219"/>
    <path stroke="#16254F" stroke-linecap="round" stroke-linejoin="round" d="M20.7862,25.9059 C23.7652,26.6109 26.7442,27.3169 29.7232,28.0219"/>
    <path fill="#FFF" d="M30.1309,38.3805 C34.6999,39.6555 39.6259,40.0665 44.1829,41.7075"/>
    <path stroke="#16254F" stroke-linecap="round" stroke-linejoin="round" d="M30.1309,38.3805 C34.6999,39.6555 39.6259,40.0665 44.1829,41.7075"/>
    <path fill="#FFF" d="M39.2315,49.9977 L32.4165,48.3837 C34.6685,48.9527 36.9205,49.5387 39.1775,50.0927 C39.1935,50.0597 39.2135,50.0287 39.2315,49.9977"/>
    <path stroke="#16254F" stroke-linecap="round" stroke-linejoin="round" d="M39.2315,49.9977 L32.4165,48.3837 C34.6685,48.9527 36.9205,49.5387 39.1775,50.0927 C39.1935,50.0597 39.2135,50.0287 39.2315,49.9977 Z"/>
    <path fill="#FFF" d="M26.6339,46.9635 C26.6319,46.9725 26.6299,46.9815 26.6269,46.9905 L30.7749,47.9725 C29.3939,47.6235 28.0139,47.2825 26.6339,46.9635"/>
    <path stroke="#16254F" stroke-linecap="round" stroke-linejoin="round" d="M25.6339,46.9635 C25.6319,46.9725 25.6299,46.9815 25.6269,46.9905 L29.7749,47.9725 C28.3939,47.6235 27.0139,47.2825 25.6339,46.9635 Z"/>
    <path fill="#FFF" d="M21.461,53.9625 C21.46,53.9665 21.457,53.9705 21.456,53.9745 L32.453,56.5795 C28.795,55.6955 25.228,54.7735 21.461,53.9625"/>
    <path stroke="#16254F" stroke-linecap="round" stroke-linejoin="round" d="M21.461,53.9625 C21.46,53.9665 21.457,53.9705 21.456,53.9745 L32.453,56.5795 C28.795,55.6955 25.228,54.7735 21.461,53.9625 Z"/>
    <path fill="#FFF" d="M32.4532,56.5797 C33.2882,56.7807 34.1262,56.9807 34.9742,57.1767 L32.4532,56.5797 Z"/>
    <path stroke="#16254F" stroke-linecap="round" stroke-linejoin="round" d="M32.4532,56.5797 C33.2882,56.7807 34.1262,56.9807 34.9742,57.1767 L32.4532,56.5797 Z"/>
    <path fill="#FFF" d="M37.3614,62.2565 C39.6344,62.7955 41.9084,63.3335 44.1824,63.8715"/>
    <path stroke="#16254F" stroke-linecap="round" stroke-linejoin="round" d="M37.3614,62.2565 C39.6344,62.7955 41.9084,63.3335 44.1824,63.8715"/>
    <path fill="#FFF" d="M44.3458,25.9059 L44.3458,86.6519"/>
    <path stroke="#16254F" stroke-linecap="round" stroke-linejoin="round" d="M44.3458,25.9059 L44.3458,86.6519"/>
    <path fill="#16254F" d="M55.8961207,2.68164408 L54.3071207,2.03564408 L53.3411207,1.64164408 C53.2021207,1.10064408 52.8751207,0.636644075 52.2411207,0.347644075 C50.4961207,-0.446355925 48.1091207,0.212644075 46.6751207,1.38664408 C45.5101207,2.34064408 44.8761207,3.75764408 44.3281207,5.12264408 C43.9211207,6.13264408 43.4681207,7.13064408 42.8901207,8.05564408 C42.3901207,8.85564408 41.8491207,9.61264408 41.4371207,10.4616441 C40.9981207,11.3676441 40.5821207,12.2836441 40.1781207,13.2046441 C39.3941207,14.9946441 38.6421207,16.8336441 37.8631207,18.6036441 C36.8671207,20.8666441 36.2931207,22.4026441 36.1541207,22.9336441 C36.0741207,23.2406441 36.1281207,23.5726441 36.1891207,23.7976441 C36.2401207,23.9846441 36.2021207,24.1816441 36.0911207,24.3396441 C35.3981207,25.3306441 33.0161207,28.7406441 32.4601207,29.5706441 C31.8071207,30.5436441 30.8191207,31.7656441 31.4291207,32.2596441 C32.0411207,32.7536441 33.0061207,33.0626441 33.4591207,32.4306441 C33.9121207,31.7986441 37.7031207,26.2036441 38.1971207,25.4896441 C38.6911207,24.7746441 39.3821207,24.3416441 40.1561207,23.8476441 C40.7421207,23.4736441 41.1621207,23.0746441 41.3311207,22.9026441 C41.3911207,22.8416441 41.4581207,22.7966441 41.5371207,22.7626441 C41.7301207,22.6796441 42.1071207,22.5216441 42.3331207,22.4476441 C43.7081207,21.9926441 45.1631207,22.0726441 46.5561207,21.7436441 C47.1891207,21.5936441 47.8471207,21.6126441 48.4641207,21.3726441 C48.9921207,21.1696441 49.4901207,20.7866441 49.9561207,20.4626441 C50.9691207,19.7596441 51.9311207,18.9626441 52.7421207,18.0296441 C53.4251207,17.2426441 53.9491207,16.3166441 54.2791207,15.3276441 C54.8671207,13.5616441 54.6681207,11.7496441 54.3591207,9.94764408 C54.1641207,8.81564408 53.9211207,7.36164408 53.2051207,6.41364408 C52.7941207,5.87164408 52.8791207,4.93564408 53.0071207,4.52964408 C53.0931207,4.25664408 53.1771207,3.95464408 53.2501207,3.64864408 L54.2181207,3.39464408 L55.8781207,2.96064408 C56.0421207,2.91764408 56.0541207,2.74564408 55.8961207,2.68164408"/>
    <g transform="translate(0 62)">
      <polygon fill="#FFF3CD" points="48.209 10.737 12.281 .942 12.281 49.276 47.69 58.942 84.281 49.276 83.157 .942"/>
      <path stroke="#16254F" stroke-linecap="round" stroke-linejoin="round" d="M48.2057311,59.489898 L48.2057311,10.700102"/>
      <polyline stroke="#16254F" stroke-linecap="round" stroke-linejoin="round" points="84.039 20.731 84.039 49.342 48.206 59.489 12.373 49.342 12.373 20.731"/>
      <path fill="#16254F" d="M69.2154,40.8399 C69.2004,41.6379 68.5344,42.4189 67.8164,42.6049 C67.0484,42.8009 66.4164,42.3199 66.4314,41.4919 C66.4574,40.0789 67.6734,39.7649 67.6874,38.6299 C67.6944,37.9539 67.6984,37.6119 67.7064,36.9289 C67.7094,35.7999 66.5144,36.0319 66.5404,34.4799 C66.5554,33.6219 67.2534,32.8269 67.9704,32.7079 C68.7364,32.5809 69.3374,33.1519 69.3274,33.9949 C69.3124,35.4369 68.1034,35.7199 68.0904,36.8659 C68.0834,37.5419 68.0794,37.8789 68.0714,38.5469 C68.0634,39.6639 69.2434,39.3959 69.2154,40.8399 M71.8624,36.8229 C73.4144,34.5059 74.1124,32.8839 73.7244,31.2449 C72.3424,25.4259 61.3344,30.4539 61.1694,34.1659 C61.0914,35.8959 62.4234,36.8469 62.3964,39.2849 C62.3574,42.6669 61.0544,44.1049 60.9724,45.4949 C60.9214,46.3389 61.4914,46.5899 62.0894,46.7829 C67.9184,48.3909 73.9964,44.3649 74.7624,41.0319 C75.1574,39.3119 73.8174,37.8509 71.8624,36.8229"/>
      <path fill="#FFC304" stroke="#16254F" stroke-linecap="round" stroke-linejoin="round" d="M37.4781224,28.1486311 L0.149326154,17.9295597 L11.1050729,0.115157636 L48.4338822,10.3352603 L37.4781224,28.1486311 Z"/>
      <path fill="#FFC304" stroke="#16254F" stroke-linecap="round" stroke-linejoin="round" d="M47.9323558,10.3362588 L84.6863572,0.112964349 L95.4706362,17.9283612 L58.7166474,28.1506241 L47.9323558,10.3362588 Z"/>
    </g>
  </g>
</svg>
