<svg xmlns="http://www.w3.org/2000/svg" xmlns:xlink="http://www.w3.org/1999/xlink" width="122" height="96" viewBox="0 0 122 96">
  <defs>
    <polygon id="pic12-a" points="0 40.136 0 .437 42.731 .437 42.731 40.136"/>
    <path id="pic12-c" d="M51.4052,38.7497 L52.7552,37.4137 C52.9082,37.2617 53.1692,37.3517 53.1962,37.5647 L53.4362,39.4497 C53.4472,39.5347 53.4992,39.6087 53.5752,39.6477 L55.2622,40.5197 C55.4552,40.6177 55.4502,40.8947 55.2552,40.9857 L53.5372,41.7967 C53.4592,41.8327 53.4042,41.9047 53.3902,41.9897 L53.0842,43.8637 C53.0502,44.0767 52.7852,44.1577 52.6372,44.0007 L51.3362,42.6167 C51.2772,42.5547 51.1922,42.5247 51.1072,42.5377 L49.2292,42.8257 C49.0162,42.8577 48.8582,42.6327 48.9622,42.4427 L49.8762,40.7777 C49.9172,40.7027 49.9192,40.6117 49.8802,40.5357 L49.0262,38.8387 C48.9292,38.6457 49.0952,38.4257 49.3072,38.4667 L51.1742,38.8207 C51.2582,38.8367 51.3442,38.8107 51.4052,38.7497 Z"/>
    <path id="pic12-d" d="M41.9091,4.0534 L44.3771,3.4744 C44.6571,3.4084 44.8901,3.6934 44.7721,3.9554 L43.7311,6.2654 C43.6841,6.3694 43.6911,6.4904 43.7511,6.5884 L45.0631,8.7554 C45.2131,9.0014 45.0141,9.3124 44.7281,9.2814 L42.2091,9.0044 C42.0961,8.9914 41.9831,9.0354 41.9081,9.1224 L40.2531,11.0404 C40.0641,11.2584 39.7081,11.1664 39.6491,10.8844 L39.1351,8.4034 C39.1111,8.2914 39.0341,8.1984 38.9291,8.1544 L36.5931,7.1714 C36.3271,7.0604 36.3051,6.6934 36.5551,6.5494 L38.7561,5.2924 C38.8551,5.2364 38.9201,5.1344 38.9301,5.0204 L39.1411,2.4954 C39.1661,2.2084 39.5091,2.0744 39.7211,2.2674 L41.5971,3.9724 C41.6811,4.0484 41.7991,4.0784 41.9091,4.0534 Z"/>
    <path id="pic12-e" d="M35.3076,24.1237 C35.7486,23.2477 36.2796,22.4597 37.0246,21.8237 C39.6126,19.6127 43.8016,19.9937 45.5886,23.3727 C46.4966,25.0897 46.4516,26.8857 45.9536,28.7057 C45.3736,30.8327 44.3276,32.7507 43.2816,34.6677 C42.3876,36.3077 41.4876,37.9437 40.5896,39.5817 C40.5536,39.6477 40.5106,39.7127 40.3866,39.9177 C39.6936,39.5277 39.0256,39.1057 38.3186,38.7647 C36.0456,37.6667 33.7326,36.6477 31.4856,35.5007 C29.8816,34.6817 28.4886,33.5657 27.4676,32.0317 C25.4146,28.9497 26.7036,24.8747 30.1596,23.6417 C31.8046,23.0537 33.4186,23.2167 34.9756,23.9947 C35.0456,24.0297 35.1156,24.0667 35.1876,24.1007 C35.2096,24.1107 35.2376,24.1107 35.3076,24.1237 Z"/>
  </defs>
  <g fill="none" fill-rule="evenodd">
    <path fill="#16254F" stroke="#16254F" d="M119.0429,86.0066 L92.8719,83.6216 C92.3009,83.5686 91.9029,83.1496 91.9809,82.6796 L97.9159,46.9556 C97.9889,46.5186 98.4529,46.1866 98.9909,46.1866 L115.3369,46.1866 C115.9569,46.1866 116.4249,46.6226 116.3449,47.1266 L120.2349,85.2356 C120.1599,85.7126 119.6239,86.0596 119.0429,86.0066 Z"/>
    <path fill="#FFC304" stroke="#16254F" d="M108.6816,94.8601 L63.7856,90.2981 C62.8056,90.1981 62.1226,89.3931 62.2566,88.4961 L72.4386,20.1511 C72.5636,19.3131 73.3596,18.6771 74.2836,18.6771 L119.3246,18.6771 C120.3886,18.6771 121.1906,19.5131 121.0536,20.4781 L110.7266,93.3861 C110.5976,94.2981 109.6766,94.9621 108.6816,94.8601 Z"/>
    <path fill="#FFF3CD" stroke="#16254F" d="M101.3984,85.8298 L71.4234,83.0718 C70.7694,82.9938 70.3264,82.3628 70.4304,81.6588 L78.3984,28.0448 C78.4964,27.3888 79.0394,26.8898 79.6574,26.8898 L109.8064,26.8898 C110.5184,26.8898 111.0424,27.5448 110.9344,28.3018 L102.7924,84.6738 C102.6904,85.3898 102.0634,85.9088 101.3984,85.8298 Z"/>
    <path fill="#16254F" d="M91.2021,60.3044 C91.0691,61.3614 90.0571,62.0654 89.0731,61.9024 C88.0241,61.7304 87.2661,60.7604 87.3861,59.7344 C87.5921,57.9794 89.2521,58.1514 89.4221,56.7564 L89.6771,54.6774 C89.8331,53.2974 88.1881,53.1724 88.4121,51.2984 C88.5371,50.2604 89.5821,49.4784 90.6051,49.5444 C91.6981,49.6174 92.4721,50.5464 92.3341,51.6164 C92.1001,53.4384 90.3861,53.3404 90.2111,54.7474 L89.9551,56.8184 C89.7931,58.2024 91.4431,58.3874 91.2021,60.3044 M95.3511,56.2254 C97.7611,53.7724 98.8531,51.8704 98.7221,49.4774 C98.2231,41.0524 82.4201,45.1674 81.9701,49.4354 C81.7631,51.4164 83.0871,52.8234 82.7961,55.5524 C82.4001,59.3194 80.9381,60.4904 80.7761,62.1104 C80.6801,63.0894 81.2271,63.6644 81.8371,64.2204 C87.7031,69.5454 96.6671,68.3534 98.1491,63.5434 C98.9301,61.0264 97.7261,58.4354 95.3511,56.2254"/>
    <g transform="translate(0 53.37)">
      <mask id="pic12-b" fill="#fff">
        <use xlink:href="#pic12-a"/>
      </mask>
      <path fill="#16254F" d="M33.1679,37.8352 C33.4269,38.2232 33.0709,38.6102 32.7789,38.6762 C32.4889,38.7402 31.5829,38.5142 31.3899,38.3192 C31.1959,38.1262 30.9369,38.1262 30.9369,38.1262 C30.9369,38.1262 30.3549,37.5442 29.6099,37.8032 C29.2019,37.9452 28.9829,38.3182 28.8639,38.6292 C28.6199,38.5502 28.4139,38.5252 28.4139,38.5252 C28.4139,38.5252 27.6059,39.0972 27.0239,39.2582 C26.4419,39.4202 25.6659,38.8812 25.6659,38.8812 C25.6659,38.8812 24.4369,38.5902 24.2429,38.2992 C24.0489,38.0082 23.4009,38.4172 23.1439,37.7702 C22.8849,37.1232 21.3329,32.2732 21.3329,32.2732 L21.4619,31.9502 C21.5909,31.6262 21.6549,30.6232 21.8169,29.6212 C21.8539,29.4002 21.9069,29.2192 21.9659,29.0522 C22.6589,29.1262 23.3529,29.1882 24.0519,29.1782 C24.9619,29.1642 25.8579,29.3902 26.7739,29.2502 C26.9869,29.2182 27.1999,29.1642 27.4129,29.1022 C27.3789,29.1312 27.3509,29.1652 27.3149,29.1922 C27.2419,29.5142 27.1859,29.8132 27.1859,29.9772 C27.1859,30.4622 28.0909,31.1092 29.0929,32.0792 C30.0959,33.0492 32.9089,37.4472 33.1679,37.8352 M42.6159,5.9192 L40.6379,4.5512 L39.4349,3.7202 C39.4069,2.9382 39.0999,2.2022 38.3189,1.6152 C36.1719,-0.0018 32.7039,0.1782 30.3879,1.3502 C28.5029,2.3032 27.2059,4.0492 26.0399,5.7522 C25.1779,7.0112 24.2549,8.2392 23.1839,9.3302 C22.2569,10.2722 21.2859,11.1452 20.4639,12.1832 C19.5889,13.2892 18.7419,14.4182 17.9099,15.5572 C16.2939,17.7692 14.7059,20.0572 13.1039,22.2422 C11.0539,25.0382 9.8029,26.9682 9.4499,27.6512 C9.2469,28.0472 9.2219,28.5202 9.2369,28.8472 C9.2489,29.1172 9.1379,29.3752 8.9389,29.5592 C7.6889,30.7052 3.3959,34.6482 2.3819,35.6152 C1.1929,36.7522 -0.5301,38.1242 0.1559,38.9852 C0.8419,39.8472 2.0709,40.5632 2.8819,39.8352 C3.6919,39.1072 10.5789,32.5982 11.4729,31.7702 C12.3659,30.9412 13.4419,30.5592 14.6519,30.1172 C15.5679,29.7832 16.2629,29.3632 16.5459,29.1802 C16.6469,29.1142 16.7519,29.0722 16.8699,29.0512 C17.1609,28.9962 17.7259,28.8932 18.0559,28.8612 C18.7689,28.7882 19.4749,28.8132 20.1769,28.8692 C20.0859,29.1232 19.9779,29.3712 19.8659,29.6172 C19.6289,30.1502 19.4429,30.7042 19.6209,31.2852 C19.7039,31.5532 19.8469,31.7772 20.0339,31.9832 C20.2299,32.2012 20.3719,32.4192 20.5019,32.6832 C21.0359,33.7732 21.3489,34.9492 21.7889,36.0752 C22.0059,36.6262 22.2759,37.1492 22.5989,37.6462 C22.7229,37.8382 22.8969,38.1112 22.7599,38.3442 C22.6489,38.5292 22.3859,38.4362 22.2329,38.3572 C22.1249,38.3042 22.0229,38.1852 21.9089,38.1482 C21.7859,38.1082 21.7219,38.2572 21.6769,38.3482 C21.6239,38.4592 21.5819,38.5772 21.5499,38.6942 C21.5259,38.7772 21.5129,38.9392 21.4349,38.9862 C21.3939,38.9252 21.4109,38.8362 21.4079,38.7672 C21.4019,38.6862 21.3879,38.6062 21.3709,38.5272 C21.3399,38.3832 21.2969,38.2372 21.2229,38.1082 C21.1029,37.9002 20.9009,37.7532 20.6529,37.7682 C20.3849,37.7832 20.1449,37.9602 19.9829,38.1662 C19.8959,38.2762 19.8329,38.4022 19.7719,38.5282 C19.7349,38.6102 19.6309,38.7912 19.6959,38.8792 C19.7649,38.8672 19.8039,38.7722 19.8399,38.7222 C19.8969,38.6432 19.9689,38.5742 20.0369,38.5042 C20.1519,38.3872 20.2969,38.2052 20.4779,38.3092 C20.6279,38.3962 20.7069,38.6062 20.7759,38.7542 C20.8159,38.8392 20.8559,38.9272 20.8819,39.0162 C20.9029,39.0922 20.9109,39.1892 20.9679,39.2482 C21.0069,39.1812 20.9699,39.0252 20.9699,38.9452 C20.9699,38.8792 20.9829,38.6472 21.0559,38.8222 C21.0829,38.8902 21.0849,38.9482 21.1469,38.9952 C21.2099,39.0402 21.2879,39.0492 21.3609,39.0492 C21.5769,39.0492 21.7819,38.9482 21.9989,38.9882 C22.1779,39.0222 22.3149,39.1392 22.4749,39.2192 C22.6729,39.3162 22.8799,39.3362 23.0949,39.3732 C23.2939,39.4082 23.4749,39.4752 23.6579,39.5592 C23.8489,39.6462 24.0659,39.7452 24.2819,39.7212 C24.4419,39.7032 24.5259,39.6642 24.5559,39.8542 C24.5599,39.8892 24.5559,39.9732 24.6049,39.9822 C24.6639,39.9942 24.7219,39.8222 24.7339,39.7892 C24.7569,39.7312 24.7749,39.6522 24.8229,39.6082 C24.8899,39.5512 24.9389,39.5852 25.0129,39.6072 C25.2209,39.6722 25.4529,39.6812 25.6699,39.6872 C26.1119,39.7012 26.5329,39.6312 26.9379,39.4512 C27.1309,39.3652 27.3189,39.2892 27.5359,39.2912 C27.7489,39.2952 27.9539,39.3542 28.1659,39.3672 C28.3379,39.3792 28.6159,39.3642 28.6689,39.1582 C28.6759,39.1342 28.6669,39.1002 28.6759,39.0772 C28.7019,39.0072 28.7019,39.0572 28.7499,39.0512 C28.7959,39.0452 28.8129,39.0222 28.8539,39.0032 C28.9049,38.9792 28.9529,38.9832 29.0099,38.9922 C29.2119,39.0232 29.3769,39.1472 29.5129,39.2942 C29.5829,39.3692 29.6459,39.4492 29.6969,39.5392 C29.7329,39.6012 29.7779,39.7312 29.8559,39.7462 C29.9139,39.6472 29.7719,39.4602 29.7279,39.3762 C29.6509,39.2322 29.5809,39.0832 29.4659,38.9672 C29.3639,38.8652 29.2299,38.8312 29.1219,38.7432 C29.0049,38.6472 29.1609,38.5332 29.2409,38.4692 C29.4829,38.2722 29.7619,38.2522 30.0599,38.3022 C30.1599,38.3192 30.2999,38.3302 30.3799,38.4032 C30.4699,38.4862 30.4709,38.6722 30.5149,38.7812 C30.5639,38.9032 30.6279,39.0312 30.7489,39.0982 C30.8909,39.1742 31.0619,39.1472 31.2149,39.1262 C31.3879,39.1022 31.5579,39.0822 31.7309,39.1212 C31.8969,39.1582 32.0519,39.2292 32.2179,39.2702 C32.5689,39.3562 32.9339,39.3652 33.2939,39.3752 C33.6299,39.3852 33.9669,39.3372 34.2839,39.4732 C34.4599,39.5472 34.6269,39.6112 34.8209,39.6042 C35.0109,39.5962 35.1859,39.5182 35.3679,39.4782 C35.4789,39.4532 35.5889,39.4522 35.6999,39.4452 C35.7639,39.4392 35.8389,39.4202 35.8959,39.4572 C35.9929,39.5232 35.8929,39.7312 35.9859,39.7712 C36.1339,39.7012 36.0329,39.4392 36.2449,39.4392 C36.3959,39.4392 36.5619,39.5042 36.7079,39.5282 C36.8699,39.5552 37.0319,39.5722 37.1959,39.5662 C37.4739,39.5572 37.7549,39.4822 38.0079,39.3682 C38.2609,39.2542 38.5319,39.0572 38.8229,39.0862 C39.0389,39.1062 39.2579,39.3482 39.4709,39.1822 C39.5659,39.1062 39.5519,39.0232 39.5489,38.9202 C39.5449,38.8312 39.5929,38.8262 39.6659,38.8472 C39.8059,38.8882 39.9499,38.9972 40.0569,39.0972 C40.1559,39.1892 40.2419,39.3052 40.3139,39.4202 C40.3589,39.4962 40.4049,39.6452 40.4959,39.6752 C40.5529,39.6172 40.4779,39.4662 40.4549,39.4042 C40.3989,39.2542 40.3349,39.1092 40.2439,38.9772 C40.0799,38.7322 39.8579,38.5782 39.6229,38.4132 C39.5699,38.3752 39.5459,38.3462 39.5319,38.2812 C39.5219,38.2302 39.5349,38.1872 39.4929,38.1462 C39.4189,38.0752 39.2689,38.1002 39.1759,38.1002 C38.8439,38.1042 38.5159,38.1662 38.2079,38.2942 C37.9109,38.4182 37.6329,38.5942 37.3169,38.6712 C37.1709,38.7072 37.0219,38.7242 36.8729,38.7382 C36.7229,38.7522 36.5659,38.7782 36.4159,38.7802 C36.3039,38.7812 36.2429,38.7622 36.2069,38.6542 C36.1629,38.5282 36.1199,38.4072 36.0039,38.3302 C35.9069,38.2662 35.7939,38.2602 35.6889,38.3102 C35.5729,38.3652 35.5009,38.4672 35.3589,38.4342 C35.0929,38.3742 34.8309,38.1302 34.6399,37.9452 C34.4059,37.7212 34.1909,37.4752 33.9779,37.2312 C33.5319,36.7232 33.1119,36.1942 32.6969,35.6622 C31.8429,34.5662 31.0239,33.4462 30.1959,32.3322 C30.0049,32.0742 29.8129,31.8172 29.6199,31.5612 C29.4369,31.3142 29.2489,31.0632 29.1579,30.7652 C29.0709,30.4732 29.0739,30.1602 29.1549,29.8672 C29.2389,29.5682 29.4039,29.3032 29.5559,29.0332 C29.7119,28.7572 29.8539,28.4652 29.9559,28.1632 C29.9679,28.1312 29.9779,28.0982 29.9869,28.0652 C31.2709,27.4862 32.5139,26.8092 33.6449,25.9712 C34.8179,25.1002 35.8149,23.9912 36.5659,22.7382 C37.9079,20.4982 38.1869,17.9582 38.3079,15.3982 C38.3849,13.7892 38.4939,11.7252 37.7999,10.2102 C37.4019,9.3442 37.8039,8.0882 38.1009,7.5722 C38.3029,7.2232 38.5139,6.8392 38.7079,6.4382 L40.1029,6.3862 L42.5069,6.2952 C42.7449,6.2852 42.8129,6.0552 42.6159,5.9192" mask="url(#pic12-b)"/>
    </g>
    <use fill="#FFC304" xlink:href="#pic12-c"/>
    <path stroke="#16254F" d="M51.1428773,38.3058526 L52.4028077,37.0589893 C52.849883,36.6148361 53.6130049,36.8768195 53.692196,37.5015493 L53.9162265,39.2611302 L55.4885744,40.073881 C56.0528568,40.3604078 56.0397597,41.171337 55.4686434,41.4378525 L53.8631832,42.1957077 L53.5779492,43.9425144 C53.4784584,44.565795 52.7057795,44.8023737 52.2728914,44.3431606 L51.0582795,43.0510473 L49.3034837,43.3201511 C48.6813891,43.4136114 48.2211474,42.755195 48.5238977,42.2020944 L49.3769927,40.6480443 L48.5794503,39.0632322 C48.2962043,38.4996602 48.7822742,37.8559166 49.4003449,37.9754526 L51.1428773,38.3058526 Z"/>
    <use fill="#FFC304" xlink:href="#pic12-d"/>
    <path stroke="#16254F" d="M41.8736907,3.5481318 L44.2623866,2.98773704 C44.9464671,2.8264895 45.5160247,3.52120472 45.2279499,4.16082847 L44.2200061,6.39747538 L45.4899981,8.49509629 C45.8561553,9.09559407 45.3722057,9.85414426 44.6734473,9.77840411 L42.2339371,9.51013903 L40.6308874,11.3679312 C40.1712062,11.8981455 39.3034698,11.6739803 39.1594968,10.9858333 L38.6620074,8.58447189 L36.400546,7.63283575 C35.7516104,7.36203933 35.6972799,6.46649138 36.3071368,6.11521774 L38.4385906,4.89794054 L38.6429862,2.4520103 C38.703853,1.75325994 39.5391987,1.4256379 40.0573873,1.89738534 L41.8736907,3.5481318 Z"/>
    <use fill="#FFC304" xlink:href="#pic12-e"/>
    <path stroke="#16254F" d="M35.0780623,23.488174 C35.5397773,22.6572802 36.0578163,21.9916177 36.6998217,21.4435434 C39.6502216,18.9229351 44.162042,19.6057402 46.0306004,23.1389572 C46.9355736,24.8502338 47.0189126,26.7068701 46.4359871,28.8372395 C45.9388944,30.6601985 45.3063237,32.0008808 43.7206092,34.9070135 C43.2131651,35.8378953 42.7466018,36.6897749 41.9263143,38.1846743 C41.8140016,38.3893498 41.8140016,38.3893498 41.7016902,38.5940179 C41.3647737,39.2080108 41.21937,39.4730585 41.0285478,39.8211261 C41.028015,39.8221023 41.028015,39.8221023 41.0274818,39.8230776 C40.9972521,39.8783345 40.8215112,40.1647624 40.814423,40.1764807 L40.5636439,40.5910752 L40.1413798,40.3534374 C39.9713396,40.2577437 39.8167327,40.1684726 39.5504457,40.0131083 C39.4401902,39.9487569 39.4401902,39.9487569 39.3305601,39.884864 C38.7892605,39.5697363 38.4566561,39.386407 38.1011147,39.2149223 C37.38727,38.8700911 36.8004555,38.5937932 35.5225453,37.9973923 C35.5078424,37.9905304 35.5078424,37.9905304 35.493139,37.9836684 C33.3693517,36.9924992 32.4235572,36.5408631 31.2582255,35.9460098 C29.4857485,35.0409857 28.073316,33.8441639 27.051471,32.3088943 C24.8154322,28.9521131 26.2336511,24.5114956 29.9913049,23.1708744 C31.6890715,22.5640131 33.4008545,22.6839023 35.0780623,23.488174 Z"/>
    <path fill="#16254F" d="M55.833,15.5437 C56.375,15.3607 56.919,15.2527 57.488,15.2947 C59.47,15.4397 61.05,17.3177 60.403,19.4537 C60.075,20.5377 59.318,21.2637 58.365,21.8147 C57.252,22.4577 56.03,22.8227 54.809,23.1887 C53.766,23.5007 52.721,23.8107 51.676,24.1197 C51.633,24.1327 51.59,24.1427 51.453,24.1757 C51.326,23.7307 51.223,23.2807 51.069,22.8497 C50.578,21.4607 50.037,20.0887 49.577,18.6897 C49.249,17.6917 49.129,16.6577 49.336,15.6027 C49.75,13.4817 51.958,12.3217 53.896,13.2297 C54.82,13.6607 55.422,14.3917 55.748,15.3537 C55.763,15.3977 55.776,15.4407 55.792,15.4837 C55.798,15.4977 55.809,15.5087 55.833,15.5437"/>
    <path stroke="#16254F" stroke-linecap="round" stroke-linejoin="round" d="M52.3183 6.4655C53.9993 4.4775 55.6783 2.4885 57.3593.4995M31.6718 16.0183C26.9618 14.1433 22.2528 12.2693 17.5428 10.3943M32.122 11.0818C30.617 10.2578 29.112 9.4328 27.607 8.6078"/>
  </g>
</svg>
