<svg xmlns="http://www.w3.org/2000/svg" xmlns:xlink="http://www.w3.org/1999/xlink" width="115" height="130" viewBox="0 0 115 130">
  <defs>
    <path id="pic11-a" d="M57.985653,70.049259 C56.6592695,70.7689864 55.4910967,71.7262443 54.0671997,70.4499005 C53.3826146,69.8361952 52.5059876,69.5007982 51.5975194,69.504876 C50.6900462,69.5089537 49.8154092,69.8514869 49.1377894,70.4692699 C48.1735991,71.3480306 46.7686078,71.3531278 45.7974522,70.4835421 C45.1138622,69.8698369 44.2372352,69.5344398 43.329762,69.5385176 C42.4212938,69.5425954 41.5476518,69.8851285 40.868042,70.5029116 C39.9038517,71.3816722 38.4988603,71.3877889 37.5286999,70.5171838 C36.8441148,69.904498 35.9674878,69.5691009 35.0600146,69.5721593 C33.759502,69.5782759 32.5734186,70.2602839 31.8898286,71.3969639 C31.3087274,72.3623773 30.1952817,72.8221465 29.1186523,72.5417994 C28.8131761,72.4633022 28.4977496,72.4235439 28.179338,72.4245633 C26.5773294,72.4316995 25.1584075,73.4837656 24.6509389,75.0424953 C24.2668549,76.2240308 23.1086325,76.9356027 21.9056335,76.7378306 C21.7036411,76.7041889 21.4936885,76.692975 21.2926911,76.6899167 C19.6419257,76.7031695 18.1672818,77.8908217 17.70658,79.5790208 C17.6150366,79.9144178 17.571255,80.2589899 17.5792153,80.601523 C17.5921508,81.17547 17.3473718,81.7147558 16.9105509,82.0786973 C16.4627845,82.4528332 15.8548172,82.5965748 15.2846614,82.4630276 C14.9662498,82.3875888 14.6388828,82.355986 14.3065406,82.3692388 C12.3552743,82.4456971 10.7423203,84.1359351 10.7104791,86.1350646 C10.7045089,86.4745395 10.7423203,86.8129948 10.8229182,87.1381975 C11.0955582,88.2534691 10.6418216,89.4237907 9.69355193,90.0517682 C8.7273716,90.691979 8.11243911,91.7307923 8,92.8848028 L94,93 C93.8437793,91.5595257 92.8945146,89.837685 91.5412651,89.3432547 C90.3591619,88.909991 89.6536811,87.7050083 89.8258224,86.4143923 C89.8586586,86.1727841 89.8676139,85.9250592 89.8536834,85.6793732 C89.7412443,83.7342742 88.1044094,82.1153973 86.2028949,82.0715612 C85.8805031,82.0644251 85.5551262,82.0990862 85.2436798,82.1775833 C84.6784991,82.3172472 84.0954078,82.1867583 83.6446563,81.820778 C83.1958949,81.4568365 82.9411656,80.9073562 82.9461408,80.3140399 C82.9381805,78.1558771 81.2525888,76.4432113 79.1858983,76.4513668 C78.2933506,76.4544252 77.5062768,75.8600894 77.265478,75.0037565 C76.9619919,73.9251848 76.1838735,73.020938 75.1828669,72.5662661 C73.9858381,72.021883 72.7828391,72.4276217 71.6763586,71.585561 C71.0136644,71.0809363 70.3440049,70.3765005 69.5081743,70.2164478 C68.1847759,69.9626063 66.8942137,70.6527698 65.5678302,70.5722337 C64.2911986,70.494756 63.3807403,69.4253593 62.1359497,69.1144289 C60.5379213,68.7820902 59.2354187,69.3713288 57.985653,70.049259 Z"/>
  </defs>
  <g fill="none" fill-rule="evenodd">
    <path fill="#16254F" d="M32.875,77.0673 C33.134,77.4553 32.778,77.8423 32.487,77.9083 C32.197,77.9723 31.291,77.7463 31.098,77.5513 C30.903,77.3583 30.645,77.3583 30.645,77.3583 C30.645,77.3583 30.062,76.7763 29.317,77.0353 C28.91,77.1763 28.691,77.5503 28.572,77.8613 C28.328,77.7823 28.122,77.7573 28.122,77.7573 C28.122,77.7573 27.314,78.3293 26.731,78.4903 C26.15,78.6523 25.373,78.1133 25.373,78.1133 C25.373,78.1133 24.145,77.8223 23.95,77.5313 C23.757,77.2413 23.109,77.6493 22.851,77.0023 C22.592,76.3563 21.04,71.5053 21.04,71.5053 L21.169,71.1823 C21.298,70.8583 21.363,69.8553 21.525,68.8533 C21.687,67.8513 22.172,67.3343 22.172,67.3343 C22.172,67.3343 23.109,67.4953 24.306,67.4953 C25.503,67.4953 27.378,67.0753 27.378,67.0753 C27.378,67.0753 26.893,68.7243 26.893,69.2103 C26.893,69.6943 27.799,70.3413 28.801,71.3113 C29.803,72.2813 32.616,76.6783 32.875,77.0673 M49.305,46.3913 C48.836,45.2713 48.06,44.2163 46.959,43.6993 C45.94,43.2203 45.56,43.0003 43.462,43.0003 C42.101,43.0003 41.101,43.4983 39.839,44.0863 C38.699,44.6173 37.679,45.3803 36.519,45.8693 C36.232,45.9903 35.937,46.0893 35.633,46.1603 C35.587,46.1703 35.542,46.1723 35.496,46.1813 C33.725,45.5423 29.585,46.2703 25.114,48.1383 C20.532,50.0533 17.053,52.5593 16.379,54.2743 C16.159,54.4093 15.944,54.5553 15.742,54.7133 C15.631,54.8003 15.522,54.8903 15.417,54.9833 C15.309,55.0783 15.21,55.1953 15.09,55.2753 C14.88,55.4193 14.595,55.3713 14.355,55.3793 C13.713,55.4003 13.071,55.4373 12.43,55.4693 C12.188,55.4823 11.924,55.5053 11.707,55.6193 C11.498,55.7283 11.546,55.9163 11.725,56.0283 C11.911,56.1463 12.127,56.1623 12.327,56.2463 C12.413,56.2803 12.521,56.3613 12.476,56.4683 C12.427,56.5873 12.258,56.5913 12.152,56.5923 C11.522,56.5953 10.893,56.5343 10.264,56.5363 C8.946,56.5423 7.637,56.7073 6.331,56.8523 C5.062,56.9953 3.786,57.1493 2.552,57.4893 C1.963,57.6513 1.366,57.8543 0.84,58.1703 C0.607,58.3093 0.382,58.4813 0.203,58.6863 C0.082,58.8253 -0.094,59.0783 0.061,59.2523 C0.207,59.4183 0.513,59.3843 0.701,59.3443 C0.995,59.2863 1.273,59.1583 1.559,59.0663 C2.168,58.8703 2.781,58.7603 3.422,58.7783 C4.07,58.7943 4.714,58.8793 5.36,58.9163 C6.01,58.9533 6.658,58.9593 7.307,58.9663 C8.635,58.9833 9.961,59.0323 11.286,59.1113 C11.926,59.1493 12.564,59.1743 13.203,59.2173 C13.306,59.2243 13.437,59.2133 13.53,59.2593 C13.649,59.3183 13.7,59.4833 13.757,59.5943 C13.9,59.8803 14.046,60.1633 14.203,60.4433 C14.8,61.5103 15.472,62.5353 16.292,63.4463 C17.122,64.3683 18.056,65.1853 18.992,65.9963 C19.212,66.1863 19.438,66.3673 19.663,66.5523 C19.869,66.7213 20.047,66.9163 20.07,67.1933 C20.093,67.4643 20.01,67.7493 19.926,68.0043 C19.829,68.2943 19.7,68.5713 19.574,68.8493 C19.337,69.3813 19.151,69.9363 19.329,70.5173 C19.411,70.7863 19.555,71.0093 19.741,71.2153 C19.937,71.4333 20.079,71.6513 20.209,71.9153 C20.743,73.0053 21.056,74.1803 21.497,75.3073 C21.714,75.8583 21.983,76.3813 22.306,76.8783 C22.431,77.0703 22.605,77.3443 22.468,77.5763 C22.356,77.7613 22.094,77.6683 21.94,77.5903 C21.832,77.5363 21.731,77.4173 21.617,77.3803 C21.494,77.3403 21.429,77.4893 21.384,77.5813 C21.331,77.6913 21.29,77.8093 21.257,77.9263 C21.233,78.0093 21.221,78.1713 21.142,78.2183 C21.102,78.1573 21.119,78.0683 21.115,77.9993 C21.11,77.9183 21.095,77.8383 21.079,77.7593 C21.047,77.6153 21.005,77.4693 20.931,77.3403 C20.811,77.1323 20.608,76.9853 20.36,77.0003 C20.093,77.0163 19.852,77.1923 19.69,77.3983 C19.603,77.5083 19.54,77.6343 19.48,77.7603 C19.442,77.8423 19.339,78.0233 19.403,78.1103 C19.473,78.1003 19.511,78.0043 19.547,77.9543 C19.605,77.8743 19.677,77.8063 19.745,77.7363 C19.859,77.6193 20.005,77.4373 20.185,77.5413 C20.336,77.6283 20.414,77.8373 20.484,77.9863 C20.524,78.0713 20.563,78.1593 20.59,78.2483 C20.611,78.3243 20.618,78.4213 20.676,78.4803 C20.714,78.4133 20.677,78.2573 20.677,78.1773 C20.677,78.1103 20.69,77.8793 20.764,78.0543 C20.79,78.1223 20.793,78.1803 20.855,78.2273 C20.917,78.2723 20.996,78.2803 21.068,78.2803 C21.285,78.2803 21.489,78.1803 21.706,78.2213 C21.885,78.2543 22.022,78.3723 22.183,78.4503 C22.38,78.5483 22.588,78.5683 22.803,78.6053 C23.002,78.6403 23.183,78.7073 23.365,78.7903 C23.556,78.8783 23.773,78.9773 23.989,78.9533 C24.15,78.9353 24.234,78.8963 24.263,79.0863 C24.267,79.1213 24.264,79.2053 24.312,79.2133 C24.372,79.2263 24.429,79.0533 24.441,79.0213 C24.465,78.9633 24.483,78.8833 24.531,78.8403 C24.597,78.7833 24.646,78.8173 24.72,78.8393 C24.929,78.9043 25.161,78.9133 25.378,78.9193 C25.819,78.9333 26.24,78.8633 26.645,78.6833 C26.839,78.5973 27.027,78.5213 27.243,78.5243 C27.456,78.5273 27.662,78.5863 27.873,78.5993 C28.046,78.6113 28.323,78.5963 28.377,78.3903 C28.383,78.3663 28.375,78.3323 28.383,78.3093 C28.409,78.2393 28.41,78.2893 28.457,78.2833 C28.504,78.2783 28.521,78.2543 28.561,78.2353 C28.612,78.2123 28.661,78.2153 28.718,78.2233 C28.92,78.2553 29.085,78.3793 29.221,78.5263 C29.29,78.6003 29.354,78.6813 29.405,78.7713 C29.44,78.8333 29.486,78.9633 29.563,78.9783 C29.622,78.8793 29.48,78.6923 29.436,78.6083 C29.358,78.4643 29.289,78.3153 29.173,78.1993 C29.072,78.0983 28.937,78.0633 28.829,77.9753 C28.713,77.8793 28.868,77.7653 28.948,77.7013 C29.19,77.5043 29.47,77.4843 29.767,77.5343 C29.868,77.5513 30.008,77.5623 30.088,77.6353 C30.177,77.7183 30.179,77.9033 30.222,78.0143 C30.271,78.1353 30.336,78.2633 30.456,78.3303 C30.598,78.4063 30.77,78.3793 30.923,78.3583 C31.096,78.3353 31.266,78.3143 31.438,78.3533 C31.604,78.3913 31.76,78.4603 31.926,78.5023 C32.276,78.5883 32.641,78.5983 33.002,78.6083 C33.338,78.6183 33.675,78.5693 33.992,78.7053 C34.167,78.7793 34.335,78.8443 34.529,78.8363 C34.719,78.8283 34.893,78.7503 35.075,78.7103 C35.186,78.6853 35.296,78.6843 35.408,78.6763 C35.471,78.6713 35.546,78.6523 35.603,78.6893 C35.7,78.7553 35.6,78.9633 35.693,79.0033 C35.841,78.9333 35.74,78.6713 35.953,78.6713 C36.103,78.6713 36.27,78.7363 36.416,78.7603 C36.577,78.7873 36.74,78.8043 36.903,78.7983 C37.181,78.7893 37.462,78.7133 37.716,78.6003 C37.968,78.4863 38.24,78.2893 38.531,78.3173 C38.747,78.3383 38.965,78.5813 39.179,78.4133 C39.274,78.3383 39.26,78.2553 39.256,78.1523 C39.253,78.0633 39.3,78.0583 39.373,78.0793 C39.514,78.1203 39.658,78.2293 39.765,78.3293 C39.863,78.4213 39.95,78.5373 40.021,78.6523 C40.066,78.7283 40.112,78.8773 40.204,78.9073 C40.261,78.8493 40.185,78.6983 40.162,78.6363 C40.106,78.4863 40.042,78.3413 39.952,78.2093 C39.787,77.9643 39.565,77.8093 39.331,77.6453 C39.277,77.6083 39.253,77.5783 39.24,77.5143 C39.229,77.4623 39.243,77.4193 39.2,77.3783 C39.127,77.3073 38.976,77.3323 38.883,77.3323 C38.551,77.3373 38.223,77.3983 37.916,77.5263 C37.619,77.6503 37.341,77.8263 37.025,77.9033 C36.879,77.9393 36.73,77.9563 36.58,77.9693 C36.43,77.9843 36.274,78.0103 36.124,78.0123 C36.011,78.0133 35.95,77.9953 35.915,77.8863 C35.871,77.7603 35.828,77.6393 35.712,77.5623 C35.614,77.4983 35.501,77.4923 35.397,77.5423 C35.28,77.5973 35.209,77.6993 35.067,77.6673 C34.801,77.6063 34.538,77.3623 34.347,77.1773 C34.113,76.9533 33.899,76.7063 33.685,76.4633 C33.24,75.9553 32.82,75.4263 32.404,74.8953 C31.551,73.7983 30.731,72.6783 29.903,71.5643 C29.713,71.3063 29.52,71.0493 29.328,70.7943 C29.145,70.5463 28.956,70.2953 28.866,69.9973 C28.778,69.7053 28.782,69.3913 28.863,69.0993 C28.946,68.8003 29.112,68.5343 29.263,68.2653 C29.419,67.9893 29.561,67.6973 29.664,67.3953 C29.701,67.2883 29.725,67.1673 29.796,67.0753 C29.873,66.9743 30.002,66.9423 30.114,66.8993 C30.712,66.6713 31.288,66.3503 31.853,66.0493 C32.979,65.4503 34.061,64.7573 34.99,63.8793 C36.432,62.5153 37.35,60.8823 38.395,59.2283 C38.558,58.9703 38.738,58.7233 38.903,58.4653 C39.156,58.0723 39.24,57.6203 39.445,57.2073 C39.642,56.8073 39.928,56.4613 40.169,56.0883 C40.516,55.5533 40.871,55.0253 41.188,54.4713 C41.46,53.9973 41.78,53.5273 42.352,53.4023 C42.645,53.3383 42.973,53.3743 43.244,53.5023 C43.381,53.5663 43.505,53.6353 43.658,53.6533 C43.838,53.6733 43.994,53.7023 44.163,53.7723 C44.462,53.8973 44.751,54.0383 45.063,54.1313 C45.212,54.1763 45.361,54.2083 45.516,54.2333 C45.639,54.2533 45.765,54.2543 45.85,54.3533 C46.055,54.5993 46.239,54.8713 46.435,55.1253 C46.644,55.4003 46.848,55.6783 47.053,55.9553 C47.149,56.0843 47.249,56.2123 47.343,56.3423 C47.416,56.4443 47.479,56.5843 47.587,56.6533 C47.757,56.7633 47.855,56.6003 47.895,56.4513 C47.939,56.2743 47.944,56.0843 47.977,55.9033 C48.035,55.5553 48.103,55.2093 48.166,54.8613 C48.223,54.5473 48.287,54.2343 48.331,53.9183 C48.371,53.6343 48.419,53.4153 48.619,53.2013 C49.036,52.7583 49.349,52.2153 49.513,51.6303 C49.672,51.0613 49.756,50.5743 49.756,49.9933 C49.756,48.5943 49.79,49.1963 49.756,48.5943 C49.723,48.0143 49.528,46.9273 49.305,46.3913"/>
    <use fill="#FFC304" xlink:href="#pic11-a"/>
    <path stroke="#16254F" d="M57.7471862,69.6097893 L57.7472467,69.6097565 C59.5198304,68.6482259 60.7272157,68.3107592 62.2571195,68.6293332 C62.7699955,68.7574421 63.1444681,68.9417099 63.8764084,69.372547 C63.9480553,69.4147375 63.9480553,69.4147375 64.0188195,69.4562959 C64.7422597,69.880406 65.1336349,70.0449628 65.5981337,70.0731529 C66.0368322,70.09979 66.4031196,70.0498089 67.2412528,69.8794553 C67.3835622,69.8505268 67.4479971,69.8375378 67.5280193,69.8218167 C68.4066857,69.6491939 68.9786572,69.6057662 69.6022105,69.7253702 C70.2268228,69.8449769 70.6909104,70.1343909 71.4558354,70.7643208 C71.9234063,71.1493741 71.8477512,71.087613 71.979159,71.1876767 C72.4107484,71.5161276 72.7793632,71.6154769 73.691571,71.7185403 C74.4019608,71.7988018 74.7242889,71.8556467 75.1464926,72.0111985 C75.2289975,72.0415957 75.3100368,72.0748226 75.3896436,72.1110261 C76.52834,72.6282389 77.4044415,73.6516495 77.7468101,74.868407 C77.9269027,75.5088556 78.5166818,75.953657 79.1839252,75.9513707 C81.5366803,75.9420863 83.4371951,77.8877962 83.4461232,80.3182324 C83.4424144,80.7605284 83.6299761,81.1651127 83.9598202,81.4326134 C84.2890258,81.6999065 84.7110784,81.7941563 85.121481,81.6927458 C85.4736101,81.6039949 85.8435193,81.563484 86.2144184,81.571694 C88.378437,81.6215816 90.225493,83.4473523 90.3528816,85.6510684 C90.3687037,85.9301162 90.3582266,86.2097838 90.3214333,86.4804965 C90.179887,87.5417294 90.7540934,88.5222149 91.7128535,88.8736193 C93.1734106,89.407256 94.3073866,91.196924 94.4970853,92.9460907 L94.5572382,93.5007469 L7.44898749,93.3840652 L7.50235655,92.8363158 C7.62976342,91.5286848 8.32876827,90.3562963 9.41748213,89.6348923 C10.1894037,89.1236988 10.5599159,88.1678975 10.3376012,87.258478 C10.2465816,86.8912252 10.2038186,86.509394 10.2105425,86.1271019 C10.2465776,83.8646596 12.0682802,81.9565589 14.286618,81.8696359 C14.6637174,81.8545983 15.0365906,81.8904126 15.3986898,81.9762037 C15.815944,82.0739368 16.2629039,81.9682779 16.5904981,81.6945538 C16.9104483,81.4279843 17.0888394,81.0341793 17.0793503,80.6131396 C17.070305,80.2239195 17.1194784,79.8311346 17.2242187,79.4473866 C17.7426925,77.5474872 19.4091862,76.2050219 21.3002981,76.1899746 C21.5583795,76.1939015 21.7779561,76.2096788 21.9867444,76.2444534 C22.9464249,76.4022242 23.8678673,75.8340647 24.175501,74.8877092 C24.7491372,73.1257403 26.3574437,71.932674 28.1777371,71.9245659 C28.5375759,71.9234138 28.8953864,71.9681834 29.2446475,72.0579345 C30.1060211,72.2822305 30.9942131,71.9153487 31.4613455,71.1392776 C32.2341872,69.8541892 33.5810991,69.0791095 35.0583295,69.0721621 C36.0899933,69.0686852 37.0858663,69.4498566 37.8626437,70.1450528 C38.6416039,70.8440781 39.7566926,70.8392859 40.5317187,70.1329296 C41.3026854,69.4321008 42.2952979,69.0431559 43.3275152,69.0385227 C44.3597474,69.0338843 45.3560566,69.4153361 46.1309896,70.1110467 C46.911434,70.8098671 48.026802,70.8053144 48.8009264,70.0997793 C49.569575,69.3990057 50.5632752,69.0095183 51.5952751,69.004881 C52.6281479,69.0002448 53.6244009,69.3814482 54.4009354,70.0775828 C55.0359307,70.6467758 55.5657592,70.7004463 56.3147254,70.3807802 C56.5835407,70.2660472 56.7286276,70.1872644 57.3591621,69.8270461 C57.5178714,69.7363769 57.6316761,69.6724679 57.7471862,69.6097893 Z"/>
    <path fill="#FFF3CD" stroke="#16254F" d="M94.8261676 97.9913295C91.8856212 109.472062 83.8403106 119.302505 72.7331523 125L29.1809212 124.94605C18.0889256 119.219653 10.069897 109.369942 7.16068677 97.8815029L6.0002374 93.2938343C5.99619402 93.1974952 6.04471455 93.1310212 6.07605073 93.0982659 6.09930015 93.0732177 6.14478815 93.0366089 6.20847135 93.0163776L6.27316539 93.0096339 6.3530221 93 95.6479841 93.1127168C95.6752769 93.1156069 95.700548 93.1184971 95.7278408 93.1213873L95.7925348 93.128131C95.8572288 93.1493256 95.9006952 93.1859345 95.9249554 93.2109827 95.9562916 93.243738 96.0038013 93.3111753 95.9997579 93.4065511L94.8261676 97.9913295zM72.4969258 127.621215C72.4959011 128.383074 71.9497173 129.000952 71.2795407 128.999999L30.2122629 128.95137C29.5420862 128.950416 28.9989767 128.329677 29.0000014 127.567818L29.0030757 125 72.5 125.053397 72.4969258 127.621215z"/>
    <path stroke="#16254F" stroke-linecap="round" stroke-linejoin="round" d="M44,81.3405461 C46.2691541,79.2177054 49.7352355,76.1114059 53.9200624,77.6162767 C54.5465099,77.8415782 54.9618506,78.3930305 55.7080891,78.4380908 C56.5682271,78.4903035 56.5947382,77.9917792 57.0483727,77.6191377 C58.4514974,76.4675968 60.7157421,75.8195868 62.8444855,76.044173 C65.7911456,76.3553037 66.4902533,78.064734 67.9424726,79.6518578 C68.1879458,79.9200739 68.6838017,80.2998678 69.1236896,80.3792598 C69.8404713,80.509434 70.2744679,79.9837305 70.9097525,79.8564173 C71.765963,79.6854742 72.6751957,79.6640169 73.5363156,79.8299533 C75.2281168,80.1553888 76.7431773,81.1767555 78,82"/>
    <path fill="#16254F" d="M52.326561 113.408292C52.2931856 114.251576 51.4332139 114.902395 50.5287416 114.867907 49.5641938 114.828969 48.8043481 114.115849 48.8377235 113.272565 48.8933491 111.832975 50.3985777 111.853 50.4430782 110.724913L50.5087164 109.048357C50.5409793 107.93807 49.071351 107.904695 49.1314266 106.380554 49.1636895 105.537269 50.0247737 104.88645 50.9281334 104.92205 51.8949063 104.958763 52.6536395 105.674108 52.6202641 106.51628 52.5646385 107.955871 51.0338221 107.950308 50.9904341 109.077283L50.9247959 110.7416C50.8891955 111.855225 52.3866366 111.881925 52.326561 113.408292M55.6996973 109.952829C57.6198929 107.969221 58.4064389 106.500705 58.0604477 104.711786 56.8344595 98.3526672 43.4798658 101.338649 43.3374643 104.971001 43.2707136 106.664244 44.5256271 107.814581 44.4355136 110.130831 44.3097997 113.342653 43.0559988 114.468516 43.0014857 115.872506 42.9681103 116.722465 43.5021161 117.151894 44.0939724 117.553511 49.8590094 121.1625 58.0237348 119.002002 58.9104068 115.249499 59.3687617 113.310391 58.0337474 111.473633 55.6996973 109.952829M94.973 33.274C92.253 31.795 88.447 29.333 87.718 28.854 86.133 27.81 85.673 27.639 85.16 27.198 84.566 26.686 85.93 26.012 86.054 25.096 86.14 24.461 85.801 23.751 85.79 23.448 85.777 23.029 86.39 22.66 86.428 22.238 86.506 21.383 85.33 21.026 85.326 20.367 85.32 19.578 86.643 19.159 86.025 18.347 85.834 18.096 85.428 18.094 85.306 17.757 85.138 17.297 85.713 16.813 85.291 16.366 85.032 16.091 84.55 16.321 84.407 15.96 84.751 15.594 85.371 14.98 85.357 14.42 85.339 13.776 84.838 13.787 84.394 13.627 84.508 13.226 85.067 12.784 85.008 12.272 84.931 11.62 84.213 11.539 83.74 11.37 84.495 11.06 84.282 9.905 84.008 9.339 83.476 9.505 83.085 9.866 82.581 10.065 82.897 9.407 83.511 8.563 83.181 7.801 82.926 7.214 82.733 7.294 82.313 7.6 82.249 7.645 81.365 8.387 81.37 8.353 81.529 7.334 82.967 5.54 82.348 4.559 81.327 4.84 81.247 5.765 80.494 6.375 80.533 5.434 81.21 4.503 81.366 3.539 81.508 2.653 81.417 2.024 81.039 1.231 80.674 1.4 78.917 5.946 78.479 6.337 78.816 5.079 80.324 1.086 79.056 0 78.202 1.008 77.624 7.346 75.388 10.663 74.661 11.744 72.896 14.837 72.579 16.128 72.002 18.486 71.983 20.051 71.309 22.405 71.081 23.197 70.749 24.247 70.058 24.735 69.543 25.098 66.944 25.782 66.31 25.992 62.931 27.115 61.709 29.444 61.706 30.56 61.609 31.157 61.987 31.827 61.792 32.462 61.657 32.962 61.002 34.226 61 34.785 61.597 34.882 62.485 33.749 63.102 33.615 64.479 33.284 66.259 34.422 67.911 35.05 69.171 35.53 73.742 36.592 75.009 36.766 77.666 37.13 80.369 36.727 82.971 36.18 84.136 35.935 87.189 34.68 88.376 34.839 89.403 34.976 94.685 39.226 95.464 39.951 95.902 40.358 97.754 42.105 97.917 40.42 97.991 39.678 96.827 39.392 96.897 38.698 97.367 38.759 97.961 39.529 98.45 39.374 99.238 39.123 98.626 38 98.476 37.529 98.93 37.47 99.38 37.632 99.796 37.406 99.538 36.871 98.82 36.492 98.148 36.215 98.881 36.474 99.55 36.585 100.265 35.99 100.143 35.352 98.83 35.374 94.973 33.274M92.8568483 78.1846182C93.0188483 79.1866182 93.0838483 80.1896182 93.2128483 80.5136182L93.3418483 80.8366182C93.3418483 80.8366182 91.7908483 85.6866182 91.5318483 86.3326182 91.2728483 86.9806182 90.6268483 86.5716182 90.4318483 86.8626182 90.2378483 87.1536182 89.0088483 87.4446182 89.0088483 87.4446182 89.0088483 87.4446182 88.2318483 87.9836182 87.6508483 87.8216182 87.0678483 87.6606182 86.2608483 87.0886182 86.2608483 87.0886182 86.2608483 87.0886182 86.0538483 87.1136182 85.8098483 87.1926182 85.6908483 86.8816182 85.4718483 86.5086182 85.0648483 86.3666182 84.3198483 86.1076182 83.7378483 86.6896182 83.7378483 86.6896182 83.7378483 86.6896182 83.4778483 86.6896182 83.2848483 86.8826182 83.0908483 87.0776182 82.1848483 87.3036182 81.8948483 87.2396182 81.6028483 87.1736182 81.2488483 86.7866182 81.5068483 86.3986182 81.7658483 86.0106182 84.5798483 81.6126182 85.5818483 80.6426182 86.5838483 79.6726182 87.4898483 79.0256182 87.4898483 78.5396182 87.4898483 78.3626182 87.4228483 78.0266182 87.3398483 77.6726182 87.5448483 77.7326182 87.7518483 77.7826182 87.9568483 77.8136182 88.8728483 77.9536182 89.7688483 77.7276182 90.6788483 77.7416182 91.3608483 77.7506182 92.0368483 77.6926182 92.7118483 77.6206182 92.7688483 77.7896182 92.8218483 77.9706182 92.8568483 78.1846182M112.348848 84.1786182C111.335848 83.2116182 107.042848 79.2686182 105.792848 78.1226182 105.592848 77.9386182 105.481848 77.6806182 105.493848 77.4106182 105.508848 77.0826182 105.483848 76.6106182 105.280848 76.2146182 104.927848 75.5316182 103.676848 73.6016182 101.627848 70.8056182 100.024848 68.6206182 98.4368483 66.3316182 96.8208483 64.1206182 95.9888483 62.9816182 95.1418483 61.8526182 94.2668483 60.7466182 93.4448483 59.7076182 92.4738483 58.8356182 91.5468483 57.8936182 90.4758483 56.8026182 89.5528483 55.5746182 88.6908483 54.3156182 87.5248483 52.6126182 86.2278483 50.8666182 84.3428483 49.9136182 82.0268483 48.7416182 78.5598483 48.5616182 76.4118483 50.1786182 75.6308483 50.7656182 75.3238483 51.5006182 75.2958483 52.2836182L74.0928483 53.1146182 72.1148483 54.4826182C71.9188483 54.6186182 71.9858483 54.8486182 72.2238483 54.8586182L74.6278483 54.9496182 76.0228483 55.0006182C76.2168483 55.4026182 76.4278483 55.7866182 76.6298483 56.1356182 76.9268483 56.6516182 77.3288483 57.9076182 76.9308483 58.7736182 76.2368483 60.2886182 76.3458483 62.3526182 76.4228483 63.9616182 76.5448483 66.5216182 76.8228483 69.0616182 78.1648483 71.3016182 78.9158483 72.5546182 79.9118483 73.6636182 81.0858483 74.5346182 82.1988483 75.3576182 83.4178483 76.0286182 84.6778483 76.6006182 84.6908483 76.6426182 84.7048483 76.6856182 84.7178483 76.7266182 84.8218483 77.0286182 84.9628483 77.3206182 85.1188483 77.5966182 85.2708483 77.8666182 85.4358483 78.1316182 85.5188483 78.4306182 85.6008483 78.7236182 85.6038483 79.0366182 85.5168483 79.3286182 85.4258483 79.6256182 85.2378483 79.8776182 85.0538483 80.1236182 84.8628483 80.3806182 84.6688483 80.6376182 84.4778483 80.8956182 83.6508483 82.0096182 82.8318483 83.1296182 81.9778483 84.2256182 81.5618483 84.7576182 81.1418483 85.2866182 80.6968483 85.7936182 80.4838483 86.0386182 80.2688483 86.2846182 80.0358483 86.5086182 79.8438483 86.6936182 79.5818483 86.9376182 79.3158483 86.9976182 79.1728483 87.0306182 79.1018483 86.9286182 78.9858483 86.8726182 78.8808483 86.8236182 78.7668483 86.8296182 78.6698483 86.8936182 78.5538483 86.9706182 78.5108483 87.0916182 78.4678483 87.2176182 78.4318483 87.3256182 78.3708483 87.3446182 78.2588483 87.3436182 78.1088483 87.3416182 77.9528483 87.3156182 77.8018483 87.3016182 77.6518483 87.2876182 77.5028483 87.2706182 77.3568483 87.2346182 77.0428483 87.1576182 76.7628483 86.9816182 76.4658483 86.8576182 76.1598483 86.7296182 75.8318483 86.6666182 75.4998483 86.6636182 75.4068483 86.6636182 75.2548483 86.6386182 75.1818483 86.7086182 75.1398483 86.7496182 75.1538483 86.7926182 75.1418483 86.8446182 75.1278483 86.9096182 75.1048483 86.9386182 75.0508483 86.9766182 74.8158483 87.1416182 74.5948483 87.2956182 74.4298483 87.5396182 74.3398483 87.6726182 74.2758483 87.8176182 74.2198483 87.9676182 74.1978483 88.0296182 74.1228483 88.1806182 74.1788483 88.2386182 74.2688483 88.2076182 74.3158483 88.0596182 74.3608483 87.9836182 74.4328483 87.8686182 74.5188483 87.7526182 74.6178483 87.6606182 74.7238483 87.5606182 74.8688483 87.4516182 75.0088483 87.4106182 75.0818483 87.3896182 75.1298483 87.3946182 75.1268483 87.4836182 75.1228483 87.5866182 75.1078483 87.6686182 75.2048483 87.7456182 75.4178483 87.9116182 75.6348483 87.6696182 75.8508483 87.6496182 76.1418483 87.6206182 76.4148483 87.8176182 76.6678483 87.9316182 76.9188483 88.0456182 77.2008483 88.1206182 77.4788483 88.1296182 77.6418483 88.1356182 77.8038483 88.1186182 77.9658483 88.0916182 78.1128483 88.0676182 78.2798483 88.0026182 78.4288483 88.0026182 78.6418483 88.0026182 78.5408483 88.2646182 78.6888483 88.3336182 78.7828483 88.2946182 78.6808483 88.0866182 78.7798483 88.0206182 78.8358483 87.9836182 78.9118483 88.0026182 78.9738483 88.0086182 79.0858483 88.0156182 79.1968483 88.0166182 79.3068483 88.0406182 79.4898483 88.0806182 79.6638483 88.1596182 79.8528483 88.1666182 80.0468483 88.1746182 80.2148483 88.1106182 80.3898483 88.0366182 80.7078483 87.9006182 81.0438483 87.9486182 81.3798483 87.9386182 81.7418483 87.9286182 82.1058483 87.9186182 82.4568483 87.8326182 82.6228483 87.7916182 82.7778483 87.7216182 82.9448483 87.6846182 83.1168483 87.6456182 83.2868483 87.6646182 83.4598483 87.6896182 83.6128483 87.7096182 83.7848483 87.7376182 83.9258483 87.6616182 84.0458483 87.5946182 84.1108483 87.4666182 84.1608483 87.3446182 84.2038483 87.2356182 84.2048483 87.0496182 84.2938483 86.9666182 84.3748483 86.8936182 84.5138483 86.8826182 84.6158483 86.8656182 84.9138483 86.8156182 85.1918483 86.8356182 85.4338483 87.0326182 85.5128483 87.0966182 85.6698483 87.2096182 85.5518483 87.3066182 85.4458483 87.3946182 85.3098483 87.4286182 85.2098483 87.5306182 85.0928483 87.6466182 85.0228483 87.7956182 84.9468483 87.9396182 84.9018483 88.0236182 84.7598483 88.2106182 84.8178483 88.3096182 84.8958483 88.2936182 84.9408483 88.1636182 84.9768483 88.1026182 85.0288483 88.0126182 85.0908483 87.9326182 85.1618483 87.8576182 85.2968483 87.7096182 85.4618483 87.5866182 85.6648483 87.5556182 85.7208483 87.5466182 85.7688483 87.5416182 85.8218483 87.5666182 85.8618483 87.5846182 85.8778483 87.6086182 85.9248483 87.6146182 85.9718483 87.6206182 85.9728483 87.5706182 85.9998483 87.6406182 86.0068483 87.6636182 85.9998483 87.6976182 86.0048483 87.7216182 86.0588483 87.9276182 86.3368483 87.9426182 86.5088483 87.9306182 86.7198483 87.9166182 86.9258483 87.8586182 87.1388483 87.8546182 87.3548483 87.8526182 87.5448483 87.9286182 87.7378483 88.0146182 88.1418483 88.1946182 88.5628483 88.2646182 89.0048483 88.2496182 89.2218483 88.2446182 89.4538483 88.2356182 89.6618483 88.1706182 89.7358483 88.1486182 89.7848483 88.1146182 89.8508483 88.1716182 89.8998483 88.2156182 89.9178483 88.2936182 89.9408483 88.3526182 89.9528483 88.3856182 90.0098483 88.5576182 90.0708483 88.5456182 90.1188483 88.5366182 90.1148483 88.4526182 90.1198483 88.4166182 90.1478483 88.2276182 90.2318483 88.2666182 90.3928483 88.2846182 90.6088483 88.3086182 90.8268483 88.2086182 91.0168483 88.1226182 91.2008483 88.0386182 91.3798483 87.9716182 91.5798483 87.9366182 91.7948483 87.8996182 92.0028483 87.8796182 92.2008483 87.7826182 92.3588483 87.7026182 92.4978483 87.5846182 92.6758483 87.5516182 92.8928483 87.5116182 93.0968483 87.6126182 93.3138483 87.6126182 93.3858483 87.6126182 93.4648483 87.6036182 93.5268483 87.5586182 93.5888483 87.5116182 93.5908483 87.4536182 93.6188483 87.3856182 93.6918483 87.2096182 93.7048483 87.4426182 93.7048483 87.5086182 93.7048483 87.5886182 93.6678483 87.7446182 93.7068483 87.8116182 93.7628483 87.7526182 93.7708483 87.6556182 93.7928483 87.5796182 93.8178483 87.4906182 93.8588483 87.4026182 93.8978483 87.3176182 93.9678483 87.1686182 94.0458483 86.9586182 94.1968483 86.8726182 94.3778483 86.7686182 94.5228483 86.9506182 94.6368483 87.0676182 94.7068483 87.1376182 94.7768483 87.2056182 94.8358483 87.2856182 94.8718483 87.3346182 94.9098483 87.4306182 94.9778483 87.4426182 95.0438483 87.3546182 94.9388483 87.1736182 94.9018483 87.0916182 94.8418483 86.9656182 94.7788483 86.8396182 94.6918483 86.7296182 94.5308483 86.5236182 94.2898483 86.3466182 94.0218483 86.3306182 93.7738483 86.3166182 93.5718483 86.4636182 93.4528483 86.6716182 93.3778483 86.8006182 93.3358483 86.9466182 93.3038483 87.0906182 93.2878483 87.1696182 93.2718483 87.2486182 93.2668483 87.3306182 93.2628483 87.3996182 93.2808483 87.4886182 93.2408483 87.5496182 93.1618483 87.5026182 93.1478483 87.3406182 93.1258483 87.2576182 93.0918483 87.1406182 93.0508483 87.0226182 92.9978483 86.9116182 92.9528483 86.8206182 92.8878483 86.6716182 92.7648483 86.7116182 92.6518483 86.7476182 92.5498483 86.8676182 92.4408483 86.9206182 92.2888483 86.9986182 92.0258483 87.0926182 91.9148483 86.9076182 91.7768483 86.6746182 91.9518483 86.4016182 92.0758483 86.2086182 92.3988483 85.7126182 92.6688483 85.1896182 92.8848483 84.6386182 93.3268483 83.5126182 93.6378483 82.3356182 94.1728483 81.2466182 94.3028483 80.9826182 94.4448483 80.7646182 94.6408483 80.5466182 94.8278483 80.3406182 94.9708483 80.1166182 95.0528483 79.8486182 95.2308483 79.2676182 95.0458483 78.7136182 94.8078483 78.1806182 94.6968483 77.9356182 94.5898483 77.6886182 94.4998483 77.4366182 95.2198483 77.3756182 95.9438483 77.3506182 96.6748483 77.4246182 97.0048483 77.4556182 97.5698483 77.5596182 97.8608483 77.6146182 97.9778483 77.6356182 98.0838483 77.6776182 98.1848483 77.7436182 98.4678483 77.9266182 99.1638483 78.3466182 100.078848 78.6806182 101.288848 79.1216182 102.364848 79.5046182 103.258848 80.3326182 104.151848 81.1616182 111.038848 87.6706182 111.848848 88.3986182 112.659848 89.1256182 113.888848 88.4106182 114.574848 87.5486182 115.260848 86.6876182 113.537848 85.3156182 112.348848 84.1786182"/>
  </g>
</svg>
