<svg xmlns="http://www.w3.org/2000/svg" xmlns:xlink="http://www.w3.org/1999/xlink" width="149" height="109" viewBox="0 0 149 109">
  <defs>
    <path id="pic14-a" d="M0.693,9.867 L26.429,65.837 C26.429,65.837 23.38,70.102 22.974,70.102 L23.016,70.278 L81.328,56.395 L81.558,56.458 L81.677,56.046 L55.102,0.797 L0.693,9.867 Z"/>
    <path id="pic14-c" d="M34.031,4.993 C34.051,5.127 34.066,5.259 34.066,5.398 C34.066,6.945 32.66,8.196 30.918,8.196 C29.429,8.196 28.177,7.273 27.855,6.036 L2.595,10.294 L0.497,16.588 L2.595,10.994 L4.833,15.867 L59.241,6.797 L60.64,0.503 L34.031,4.993 Z"/>
    <path id="pic14-e" d="M0.497,6.588 C0.497,6.588 27.072,65.333 27.072,66.032 C27.072,66.083 27.085,66.102 27.113,66.102 C27.519,66.102 30.569,61.837 30.569,61.837 L4.833,5.867 L2.595,0.994 L0.497,6.588 Z"/>
    <path id="pic14-g" d="M38.0089578,35.5925664 C37.7341063,32.5082286 43.8408434,29 48.5229979,29 C50.3066297,29 51.8841228,29.5100239 52.8219086,30.7468559 C53.9513162,32.2372482 53.7548554,34.2773436 52.6138343,36.9426295 C55.6091357,37.7923466 57.7692367,40.1305205 57.9831177,42.5925711 C58.3944272,47.3598908 51.2211886,50.3319653 43.9995605,49.1067467 C43.2466221,48.9489974 42.5401375,48.7438265 42.2207677,47.8021696 C41.6942914,46.2469355 42.4685212,44.3655572 41.2423348,40.6231242 C40.3568095,37.9220301 38.1212211,36.8506897 38.0089578,35.5925664 Z M47.0113143,42.7667728 C47.2803591,43.534228 48.108785,43.943602 48.9643088,43.943602 C49.1007668,43.943602 49.2372248,43.9329564 49.372715,43.9126328 C50.2979196,43.7694003 50.9056899,42.9632336 50.6018048,42.0060921 C50.0530694,40.2727852 48.5084811,40.5689281 48.0894292,39.4066157 C47.8445791,38.7117445 47.7226379,38.3807613 47.4777877,37.6926646 C47.062607,36.5216421 48.6120343,35.935163 48.0807191,34.4534808 C47.7700594,33.5873113 46.7151714,33.1779373 45.7183506,33.4450466 C44.7854037,33.6957035 44.17473,34.5773576 44.4853897,35.4590117 C45.0476741,37.0500539 46.5554865,36.6745524 46.9784095,37.8320259 C47.2251952,38.5327038 47.3481042,38.882075 47.5958577,39.5740429 C48.0110384,40.7402264 46.4780635,41.2492825 47.0113143,42.7667728 Z"/>
  </defs>
  <g fill="none" fill-rule="evenodd" transform="translate(1)">
    <polygon fill="#FFC304" points="129.086 85.62 129.079 85.62 85.117 96.607 85.117 108.496 146.661 91.013 146.661 81.222"/>
    <polygon fill="#FFF3CD" points="85.117 72.13 129.078 85.62 129.086 85.62 146.661 81.222 85.348 63.801 85.117 63.738"/>
    <polygon fill="#FFF3CD" points="44.555 83.39 85.677 96.607 129.638 85.62 85.677 72.13"/>
    <polygon fill="#FFF3CD" points="59.241 7.79 85.816 63.039 90.013 58.842 60.64 1.496"/>
    <g transform="translate(4 6.993)">
      <mask id="pic14-b" fill="#fff">
        <use xlink:href="#pic14-a"/>
      </mask>
      <polygon fill="#FFF3CD" points="-2.804 73.774 85.175 73.774 85.175 -2.699 -2.804 -2.699" mask="url(#pic14-b)"/>
    </g>
    <polygon fill="#FFC304" points="26.372 88.215 85.117 108.496 85.117 96.608 43.996 83.39 26.372 77.725"/>
    <polygon fill="#FFF3CD" points="26.806 77.62 26.372 77.724 43.996 83.39 85.117 72.13 85.117 63.738"/>
    <g transform="translate(0 .993)">
      <mask id="pic14-d" fill="#fff">
        <use xlink:href="#pic14-c"/>
      </mask>
      <polygon fill="#FFF3CD" points="-3 20.085 64.137 20.085 64.137 -2.994 -3 -2.994" mask="url(#pic14-d)"/>
    </g>
    <g transform="translate(0 10.993)">
      <mask id="pic14-f" fill="#fff">
        <use xlink:href="#pic14-e"/>
      </mask>
      <polygon fill="#FFC304" points="-3 69.599 34.065 69.599 34.065 -2.504 -3 -2.504" mask="url(#pic14-f)"/>
    </g>
    <polyline stroke="#16254F" stroke-linecap="round" stroke-linejoin="round" points="26.372 77.725 26.806 77.621 85.118 63.739"/>
    <path stroke="#16254F" stroke-linecap="round" stroke-linejoin="round" d="M85.6772,72.1301 L44.5552,83.3901"/>
    <polyline stroke="#16254F" stroke-linecap="round" stroke-linejoin="round" points="85.118 108.496 26.373 88.215 26.373 77.725 43.997 83.39 85.118 96.607"/>
    <polyline stroke="#16254F" stroke-linecap="round" stroke-linejoin="round" points="146.661 81.222 146.661 91.013 85.118 108.496 85.118 96.608 129.079 85.62"/>
    <polygon stroke="#16254F" stroke-linecap="round" stroke-linejoin="round" points="146.661 81.222 129.086 85.62 129.079 85.62 85.118 72.13 85.118 63.739 85.348 63.801"/>
    <polyline stroke="#16254F" stroke-linecap="round" stroke-linejoin="round" points="59.242 7.79 85.817 63.039 90.013 58.843 60.64 1.496"/>
    <g stroke="#16254F" stroke-linecap="round" stroke-linejoin="round" transform="translate(0 .993)">
      <path d="M4.8324 15.889L30.5684 71.858C30.5684 71.858 27.5194 76.123 27.1124 76.123 27.0854 76.123 27.0714 76.103 27.0714 76.054 27.0714 75.354.4964 16.61.4964 16.61M60.6401.5033L59.2421 6.7973 4.8321 15.8673 2.5951 10.9933.4961 16.5883 2.5951 10.2943 27.8551 6.0353C28.1771 7.2733 29.4291 8.1953 30.9181 8.1953 32.6601 8.1953 34.0661 6.9443 34.0661 5.3993 34.0661 5.2593 34.0511 5.1263 34.0311 4.9933L60.6401.5033z"/>
    </g>
    <path fill="#16254F" d="M92.8748223,83.067 C93.1338223,83.455 92.7778223,83.842 92.4868223,83.908 C92.1968223,83.972 91.2908223,83.746 91.0978223,83.551 C90.9038223,83.357 90.6448223,83.357 90.6448223,83.357 C90.6448223,83.357 90.0618223,82.776 89.3168223,83.035 C88.9098223,83.176 88.6908223,83.549 88.5718223,83.86 C88.3278223,83.781 88.1218223,83.757 88.1218223,83.757 C88.1218223,83.757 87.3138223,84.328 86.7308223,84.49 C86.1498223,84.652 85.3728223,84.113 85.3728223,84.113 C85.3728223,84.113 84.1448223,83.822 83.9498223,83.531 C83.7568223,83.24 83.1088223,83.648 82.8508223,83.002 C82.5918223,82.355 81.0398223,77.505 81.0398223,77.505 L81.1688223,77.181 C81.2978223,76.858 81.3628223,75.855 81.5248223,74.853 C81.6868223,73.85 82.1718223,73.333 82.1718223,73.333 C82.1718223,73.333 83.1088223,73.495 84.3068223,73.495 C85.5028223,73.495 87.3788223,73.074 87.3788223,73.074 C87.3788223,73.074 86.8938223,74.723 86.8938223,75.209 C86.8938223,75.693 87.7988223,76.341 88.8008223,77.311 C89.8028223,78.28 92.6158223,82.678 92.8748223,83.067 M109.304822,52.391 C108.836822,51.271 108.059822,50.216 106.958822,49.699 C105.939822,49.22 105.559822,49 103.461822,49 C102.101822,49 101.100822,49.498 99.8398223,50.086 C98.6988223,50.617 97.6788223,51.379 96.5188223,51.868 C96.2318223,51.989 95.9368223,52.089 95.6328223,52.159 C95.5868223,52.169 95.5418223,52.172 95.4958223,52.18 C93.7248223,51.542 89.5848223,52.27 85.1138223,54.138 C80.5318223,56.053 77.0538223,58.558 76.3788223,60.273 C76.1588223,60.409 75.9448223,60.555 75.7418223,60.713 C75.6308223,60.8 75.5218223,60.889 75.4168223,60.983 C75.3088223,61.078 75.2098223,61.195 75.0898223,61.275 C74.8808223,61.419 74.5948223,61.371 74.3548223,61.379 C73.7128223,61.399 73.0708223,61.437 72.4298223,61.468 C72.1878223,61.481 71.9238223,61.504 71.7068223,61.619 C71.4978223,61.728 71.5458223,61.916 71.7248223,62.027 C71.9118223,62.146 72.1268223,62.162 72.3268223,62.245 C72.4128223,62.279 72.5208223,62.36 72.4758223,62.468 C72.4268223,62.587 72.2578223,62.591 72.1518223,62.591 C71.5218223,62.594 70.8928223,62.533 70.2638223,62.536 C68.9458223,62.541 67.6368223,62.706 66.3308223,62.852 C65.0618223,62.995 63.7858223,63.148 62.5518223,63.488 C61.9628223,63.651 61.3658223,63.853 60.8408223,64.17 C60.6068223,64.308 60.3818223,64.481 60.2028223,64.685 C60.0818223,64.824 59.9058223,65.078 60.0608223,65.251 C60.2068223,65.418 60.5128223,65.383 60.7008223,65.344 C60.9948223,65.285 61.2738223,65.158 61.5588223,65.065 C62.1678223,64.869 62.7808223,64.759 63.4218223,64.777 C64.0698223,64.794 64.7138223,64.878 65.3608223,64.915 C66.0098223,64.952 66.6578223,64.959 67.3078223,64.966 C68.6358223,64.982 69.9608223,65.032 71.2858223,65.11 C71.9258223,65.149 72.5638223,65.174 73.2028223,65.217 C73.3058223,65.223 73.4368223,65.212 73.5298223,65.259 C73.6488223,65.318 73.6998223,65.483 73.7568223,65.594 C73.8998223,65.879 74.0458223,66.163 74.2028223,66.442 C74.7998223,67.51 75.4718223,68.534 76.2918223,69.445 C77.1218223,70.368 78.0558223,71.184 78.9918223,71.995 C79.2118223,72.185 79.4378223,72.367 79.6628223,72.552 C79.8688223,72.721 80.0468223,72.915 80.0698223,73.193 C80.0928223,73.464 80.0098223,73.748 79.9258223,74.003 C79.8288223,74.294 79.6998223,74.57 79.5738223,74.848 C79.3368223,75.381 79.1508223,75.936 79.3288223,76.517 C79.4108223,76.785 79.5548223,77.008 79.7408223,77.215 C79.9378223,77.432 80.0788223,77.651 80.2088223,77.915 C80.7438223,79.005 81.0558223,80.18 81.4968223,81.307 C81.7138223,81.857 81.9828223,82.381 82.3058223,82.877 C82.4308223,83.069 82.6048223,83.343 82.4678223,83.575 C82.3558223,83.761 82.0938223,83.668 81.9408223,83.589 C81.8328223,83.535 81.7308223,83.417 81.6168223,83.379 C81.4938223,83.34 81.4288223,83.488 81.3848223,83.58 C81.3308223,83.691 81.2898223,83.808 81.2568223,83.926 C81.2338223,84.009 81.2208223,84.171 81.1418223,84.218 C81.1018223,84.156 81.1188223,84.068 81.1158223,83.998 C81.1098223,83.918 81.0948223,83.838 81.0788223,83.759 C81.0468223,83.614 81.0048223,83.468 80.9308223,83.34 C80.8108223,83.131 80.6078223,82.985 80.3598223,83 C80.0928223,83.015 79.8528223,83.192 79.6898223,83.397 C79.6038223,83.507 79.5398223,83.633 79.4798223,83.76 C79.4428223,83.842 79.3388223,84.023 79.4028223,84.11 C79.4728223,84.099 79.5108223,84.003 79.5468223,83.954 C79.6048223,83.874 79.6768223,83.806 79.7448223,83.736 C79.8588223,83.619 80.0048223,83.436 80.1848223,83.541 C80.3358223,83.628 80.4138223,83.837 80.4838223,83.986 C80.5238223,84.071 80.5638223,84.158 80.5898223,84.247 C80.6108223,84.323 80.6178223,84.421 80.6758223,84.48 C80.7148223,84.412 80.6778223,84.256 80.6778223,84.177 C80.6778223,84.11 80.6898223,83.878 80.7638223,84.054 C80.7908223,84.121 80.7928223,84.18 80.8548223,84.227 C80.9168223,84.271 80.9958223,84.28 81.0688223,84.28 C81.2848223,84.28 81.4888223,84.18 81.7058223,84.22 C81.8848223,84.254 82.0218223,84.371 82.1828223,84.45 C82.3798223,84.547 82.5878223,84.567 82.8028223,84.605 C83.0018223,84.64 83.1828223,84.706 83.3648223,84.79 C83.5558223,84.878 83.7738223,84.976 83.9888223,84.953 C84.1498223,84.934 84.2338223,84.895 84.2628223,85.086 C84.2668223,85.12 84.2638223,85.205 84.3118223,85.213 C84.3718223,85.225 84.4298223,85.053 84.4408223,85.02 C84.4648223,84.963 84.4828223,84.883 84.5308223,84.84 C84.5968223,84.782 84.6458223,84.816 84.7208223,84.839 C84.9288223,84.904 85.1608223,84.912 85.3778223,84.919 C85.8188223,84.932 86.2398223,84.863 86.6448223,84.683 C86.8388223,84.596 87.0268223,84.52 87.2428223,84.523 C87.4558223,84.527 87.6618223,84.585 87.8738223,84.599 C88.0458223,84.611 88.3228223,84.596 88.3768223,84.389 C88.3838223,84.365 88.3748223,84.331 88.3838223,84.308 C88.4088223,84.239 88.4098223,84.289 88.4578223,84.283 C88.5038223,84.277 88.5208223,84.253 88.5618223,84.234 C88.6118223,84.211 88.6608223,84.214 88.7178223,84.223 C88.9198223,84.254 89.0848223,84.378 89.2208223,84.525 C89.2898223,84.6 89.3538223,84.681 89.4048223,84.771 C89.4398223,84.833 89.4858223,84.963 89.5628223,84.978 C89.6218223,84.879 89.4798223,84.692 89.4358223,84.608 C89.3588223,84.464 89.2888223,84.315 89.1728223,84.198 C89.0718223,84.097 88.9368223,84.062 88.8288223,83.975 C88.7128223,83.879 88.8688223,83.765 88.9478223,83.701 C89.1898223,83.504 89.4698223,83.483 89.7668223,83.534 C89.8678223,83.551 90.0078223,83.562 90.0878223,83.635 C90.1768223,83.718 90.1788223,83.903 90.2218223,84.013 C90.2708223,84.135 90.3358223,84.263 90.4558223,84.329 C90.5988223,84.406 90.7698223,84.378 90.9228223,84.358 C91.0958223,84.334 91.2658223,84.313 91.4378223,84.353 C91.6038223,84.39 91.7598223,84.46 91.9258223,84.501 C92.2758223,84.588 92.6408223,84.597 93.0018223,84.607 C93.3378223,84.617 93.6748223,84.569 93.9918223,84.705 C94.1668223,84.779 94.3348223,84.843 94.5288223,84.836 C94.7188223,84.828 94.8928223,84.75 95.0748223,84.71 C95.1858223,84.685 95.2968223,84.684 95.4078223,84.676 C95.4718223,84.671 95.5458223,84.651 95.6028223,84.689 C95.6998223,84.755 95.5998223,84.963 95.6928223,85.003 C95.8408223,84.932 95.7398223,84.671 95.9528223,84.671 C96.1028223,84.671 96.2698223,84.736 96.4158223,84.759 C96.5778223,84.787 96.7398223,84.803 96.9028223,84.798 C97.1818223,84.789 97.4618223,84.713 97.7158223,84.599 C97.9678223,84.486 98.2398223,84.289 98.5308223,84.317 C98.7468223,84.338 98.9648223,84.58 99.1788223,84.413 C99.2738223,84.338 99.2598223,84.255 99.2558223,84.151 C99.2528223,84.062 99.2998223,84.057 99.3738223,84.079 C99.5138223,84.119 99.6578223,84.229 99.7648223,84.328 C99.8638223,84.421 99.9498223,84.536 100.020822,84.651 C100.065822,84.727 100.112822,84.876 100.203822,84.907 C100.260822,84.848 100.184822,84.698 100.161822,84.636 C100.105822,84.486 100.041822,84.34 99.9518223,84.208 C99.7878223,83.964 99.5658223,83.809 99.3308223,83.645 C99.2768223,83.607 99.2528223,83.577 99.2398223,83.513 C99.2288223,83.461 99.2428223,83.419 99.1998223,83.378 C99.1268223,83.307 98.9758223,83.331 98.8838223,83.332 C98.5508223,83.336 98.2238223,83.397 97.9158223,83.525 C97.6188223,83.65 97.3408223,83.826 97.0248223,83.902 C96.8788223,83.939 96.7298223,83.956 96.5798223,83.969 C96.4298223,83.983 96.2738223,84.01 96.1238223,84.012 C96.0108223,84.012 95.9498223,83.994 95.9148223,83.886 C95.8708223,83.76 95.8278223,83.638 95.7118223,83.562 C95.6138223,83.498 95.5008223,83.492 95.3968223,83.542 C95.2798223,83.597 95.2088223,83.699 95.0668223,83.666 C94.8008223,83.606 94.5378223,83.362 94.3468223,83.177 C94.1138223,82.953 93.8988223,82.706 93.6858223,82.463 C93.2398223,81.955 92.8198223,81.426 92.4038223,80.894 C91.5508223,79.798 90.7308223,78.678 89.9028223,77.563 C89.7128223,77.306 89.5198223,77.049 89.3278223,76.793 C89.1448223,76.546 88.9558223,76.295 88.8658223,75.996 C88.7778223,75.705 88.7818223,75.391 88.8628223,75.099 C88.9458223,74.799 89.1118223,74.534 89.2628223,74.264 C89.4188223,73.988 89.5618223,73.696 89.6638223,73.394 C89.7008223,73.287 89.7248223,73.166 89.7958223,73.074 C89.8728223,72.973 90.0018223,72.941 90.1138223,72.899 C90.7118223,72.671 91.2878223,72.35 91.8528223,72.049 C92.9788223,71.45 94.0608223,70.757 94.9898223,69.879 C96.4318223,68.514 97.3498223,66.881 98.3948223,65.227 C98.5588223,64.969 98.7378223,64.722 98.9028223,64.465 C99.1558223,64.072 99.2408223,63.619 99.4448223,63.206 C99.6418223,62.806 99.9278223,62.461 100.169822,62.088 C100.515822,61.553 100.870822,61.025 101.187822,60.471 C101.459822,59.997 101.780822,59.527 102.351822,59.401 C102.644822,59.337 102.972822,59.374 103.243822,59.502 C103.380822,59.566 103.504822,59.635 103.657822,59.653 C103.837822,59.672 103.993822,59.702 104.162822,59.771 C104.461822,59.896 104.750822,60.037 105.062822,60.131 C105.211822,60.176 105.360822,60.208 105.515822,60.233 C105.638822,60.252 105.764822,60.254 105.849822,60.353 C106.055822,60.598 106.239822,60.871 106.434822,61.125 C106.643822,61.399 106.847822,61.677 107.052822,61.955 C107.148822,62.084 107.248822,62.212 107.342822,62.342 C107.415822,62.444 107.478822,62.584 107.586822,62.653 C107.757822,62.763 107.855822,62.6 107.894822,62.451 C107.938822,62.274 107.943822,62.084 107.976822,61.902 C108.035822,61.554 108.102822,61.209 108.165822,60.861 C108.222822,60.546 108.286822,60.234 108.331822,59.917 C108.370822,59.633 108.418822,59.414 108.619822,59.201 C109.035822,58.758 109.348822,58.215 109.512822,57.629 C109.671822,57.061 109.755822,56.573 109.755822,55.993 C109.755822,54.594 109.789822,55.196 109.755822,54.594 C109.722822,54.013 109.528822,52.926 109.304822,52.391"/>
    <use fill="#16254F" xlink:href="#pic14-g"/>
  </g>
</svg>
