<?xml version="1.0" encoding="UTF-8"?>
<svg width="245px" height="241px" viewBox="0 0 245 241" version="1.1" xmlns="http://www.w3.org/2000/svg" xmlns:xlink="http://www.w3.org/1999/xlink">
    <!-- Generator: Sketch 46.2 (44496) - http://www.bohemiancoding.com/sketch -->
    <title>Bottle</title>
    <desc>Created with Sketch.</desc>
    <defs>
        <polygon id="path-1" points="0.601098893 0.0431762066 48.4138555 0.0431762066 48.4138555 66.7881131 0.601098893 66.7881131 0.601098893 0.0431762066"></polygon>
    </defs>
    <g id="Page-1" stroke="none" stroke-width="1" fill="none" fill-rule="evenodd">
        <g id="Bottle">
            <g id="Page-1">
                <polygon id="Fill-1" fill="#16254F" points="150.116 116.198 150.118 116.198 150 116"></polygon>
                <g id="Group-23">
                    <path d="M151.138254,119.20116 C147.479587,121.308226 144.233337,123.763417 141.752712,126.298005 C140.000962,128.061019 137.173254,131.599262 137.687754,133.716508 C138.012379,134.87285 139.412962,135.459164 141.842546,135.44695 C144.437504,135.451021 148.026754,134.665197 151.952879,133.229949 L152.024337,133.205519 L148.935296,127.902226 C148.469796,127.104187 148.853629,126.247109 149.486546,125.880663 C149.768296,125.719834 150.086796,125.660795 150.409379,125.705583 C152.052921,125.96006 155.631962,124.767073 158.923129,122.871731 C161.009712,121.666529 162.906421,120.235353 164.402962,118.724779 C166.277212,116.896619 167.163296,115.054208 167.079587,114.423106 C167.063254,114.284671 166.999962,114.237847 166.971379,114.22156 C165.262504,113.238263 158.343296,115.048101 151.138254,119.20116 L151.138254,119.20116 Z M154.843879,132.087858 C156.589504,131.338678 158.331046,130.497887 160.021546,129.585843 C160.715712,129.215325 161.413962,128.828521 162.095879,128.435609 C165.501379,126.471049 168.653712,124.288657 171.467129,121.9434 L171.505921,121.912863 L169.013046,117.633583 L168.959962,117.721123 C167.351129,120.396182 164.196754,123.217819 160.305337,125.461285 C157.671587,126.977966 154.994962,128.044732 152.763421,128.46411 L152.679712,128.480397 L154.794879,132.108216 L154.843879,132.087858 Z M224.783212,190.747781 L181.212004,115.850211 L181.158921,115.931643 C177.686046,121.045606 171.267046,126.530087 163.555671,130.974268 C154.764254,136.041407 145.893212,138.852865 140.397046,138.311339 L140.282712,138.30116 L184.288796,214.088381 L181.736712,215.558238 L135.317379,135.615922 C134.596671,134.39647 134.443546,132.973436 134.864129,131.39161 C136.029921,126.982038 141.973212,121.14129 150.001046,116.51185 L150.090879,116.656393 L150.005129,116.509814 C159.437629,111.072157 167.475671,109.51476 169.547962,112.721166 C169.623504,112.829064 169.899129,113.301373 171.056754,115.288326 L173.753796,119.921838 L173.808921,119.870942 C176.669296,117.18774 178.778337,114.567649 179.913504,112.291609 C180.038046,112.037133 180.238129,111.823372 180.485171,111.682901 C181.109921,111.322562 182.038879,111.43046 182.510504,112.232571 L227.335296,189.275888 L224.783212,190.747781 Z" id="Fill-2" fill="#16254F"></path>
                    <path d="M160.778187,96.6321336 C164.438896,96.4977699 167.619812,96.5018416 170.786437,96.6423127 C177.975146,96.9537921 184.728979,101.07835 188.410104,107.401586 C189.951562,110.046107 196.717646,121.662458 204.363687,134.793454 L233.651396,185.163546 L236.381104,183.591898 C225.329562,164.616082 194.006312,110.748463 191.135729,105.823831 C186.858437,98.4765804 179.304271,93.8736066 170.927312,93.5030886 C167.725979,93.35651 164.471562,93.3524384 160.680187,93.4908737 C156.882687,93.6028435 152.685021,91.1334019 151.466146,88.8532911 L138.146312,65.9788931 L138.021771,65.7671685 L138.127937,65.543229 C138.564854,64.6250772 138.505646,63.5583111 137.960521,62.6136937 L133.003354,54.1039942 C132.017229,52.4346273 130.185854,52.1496135 128.987396,52.8397542 L128.948604,52.8621481 L111.845562,62.7643439 C111.220812,63.1287545 110.769604,63.7252478 110.579729,64.4459257 C110.365354,65.2561794 110.493979,66.1234358 110.941104,66.8868658 L115.896229,75.3904579 C116.441354,76.3208245 117.343771,76.9051029 118.364604,76.9865355 L118.609604,77.0048578 L118.732104,77.2165824 L132.064187,100.109303 C133.587271,102.684606 133.336146,107.480983 131.523146,110.373873 C126.708896,118.107928 123.760729,123.213748 123.779104,130.396097 C123.791354,134.76088 124.963271,139.072733 127.168271,142.861382 C128.154396,144.551107 131.027021,149.483882 134.832687,156.020879 L172.280937,220.539873 L175.008604,218.968225 C167.062437,205.324205 131.576229,144.170409 129.895937,141.28159 C127.966562,137.971358 126.941646,134.205103 126.931437,130.387954 C126.915104,124.036216 129.548854,119.498388 134.203854,112.026954 C136.666104,108.028616 136.917229,102.224513 134.787771,98.5315474 L121.743562,76.1335297 L121.508771,75.7284029 L121.915062,75.4922485 L123.513687,74.5679893 C124.262979,74.1323253 124.520229,73.1673498 124.085354,72.4161347 C123.648437,71.671027 122.686812,71.4145145 121.937521,71.8461069 L119.005687,73.5419394 L118.599396,73.7760579 L118.364604,73.3729669 L113.919896,65.7407029 L113.683062,65.3355761 L114.089354,65.1014576 L129.891854,55.9545485 L130.298146,55.7183942 L130.534979,56.123521 L134.975604,63.7537492 L135.212437,64.158876 L134.804104,64.3929945 L131.880437,66.0867912 C131.514979,66.2985158 131.255687,66.6364608 131.145437,67.0415876 C131.039271,67.4487503 131.096437,67.8721994 131.306729,68.23661 C131.741604,68.9837535 132.709354,69.2382301 133.458646,68.8066377 L135.063396,67.8762711 L135.469687,67.6421525 L135.704479,68.0472794 L148.750729,90.4473329 C151.335479,94.6838603 156.878604,96.7970345 160.778187,96.6321336" id="Fill-4" fill="#16254F"></path>
                    <path d="M139.741467,116.32028 C139.96605,116.192024 140.1498,116.012872 140.290675,115.786897 C142.287425,112.533668 145.492842,109.526771 149.314842,107.324021 C153.09805,105.143665 157.269175,103.879425 161.058508,103.761348 C161.3178,103.753205 161.564842,103.681951 161.789425,103.553695 C162.295758,103.262574 162.595883,102.719012 162.577508,102.136769 C162.544842,101.269513 161.811883,100.589551 160.944175,100.620088 C156.493342,100.803311 151.92205,102.177485 147.728467,104.593996 C143.498133,107.0329 139.998717,110.332953 137.609967,114.133817 C137.389467,114.490084 137.318008,114.911497 137.413967,115.31866 C137.509925,115.727859 137.76105,116.073947 138.120383,116.29585 C138.614467,116.601222 139.237175,116.611402 139.741467,116.32028" id="Fill-6" fill="#16254F"></path>
                    <path d="M107.038867,55.621693 L110.303492,61.226287 L113.031158,59.6485317 L110.0197,54.4755302 L109.784908,54.0704033 L110.189158,53.834249 L122.01245,46.9918805 L122.418742,46.757762 L122.653533,47.160853 L125.66295,52.3318188 C126.561283,51.8106506 127.767908,51.1103308 128.388575,50.7520277 L125.121908,45.1433621 C124.5237,44.1274913 123.5437,43.5371054 122.42895,43.5269263 L122.312575,43.5269263 C121.830742,43.5228547 121.702117,43.5208189 118.784575,45.2024007 C117.886242,45.7194972 116.736783,46.3913156 115.244325,47.2606079 C113.392533,48.3375531 111.016033,49.723942 107.947408,51.501207 C107.322658,51.8615459 106.87145,52.4580392 106.679533,53.1807529 C106.465158,53.9889708 106.591742,54.858263 107.038867,55.621693" id="Fill-8" fill="#16254F"></path>
                    <path d="M74.3523958,154.185593 C75.2078542,158.869999 71.2592708,163.509618 66.2163542,164.425734 C60.8386042,165.402924 55.7671042,162.398064 54.9136875,157.713657 C53.4518542,149.716983 61.7879792,147.976362 60.6446458,141.716237 L58.9480208,132.398319 C57.7556875,126.244056 49.6033125,127.858456 48.0557292,119.389472 C47.2002708,114.707102 51.1488542,110.065448 56.1897292,109.151367 C61.5756458,108.172141 66.6410208,111.177002 67.4964792,115.859372 C68.9562708,123.858082 60.4976458,125.702529 61.6409792,131.968763 L63.3314792,141.209319 C64.5013542,147.390048 72.8048125,145.704395 74.3523958,154.185593 M88.7379792,131.007859 C96.9026042,117.730285 99.4403958,108.677023 95.3305208,99.2430641 C80.7305625,65.7172911 10.6299375,98.5590309 14.3151458,118.740048 C16.0342292,128.147541 24.3785208,132.93781 26.7305208,145.812293 C29.9890208,163.658232 24.4479375,171.396358 25.8730208,179.195559 C26.7346042,183.922717 30.2136042,185.634836 33.9723125,187.116908 C70.2629375,199.922174 112.711229,178.006644 112.990937,156.247872 C113.135896,145.006111 103.499229,136.524913 88.7379792,131.007859" id="Fill-10" fill="#FFC304"></path>
                    <path d="M74.3523958,154.185593 C75.2078542,158.869999 71.2592708,163.509618 66.2163542,164.425734 C60.8386042,165.402924 55.7671042,162.398064 54.9136875,157.713657 C53.4518542,149.716983 61.7879792,147.976362 60.6446458,141.716237 L58.9480208,132.398319 C57.7556875,126.244056 49.6033125,127.858456 48.0557292,119.389472 C47.2002708,114.707102 51.1488542,110.065448 56.1897292,109.151367 C61.5756458,108.172141 66.6410208,111.177002 67.4964792,115.859372 C68.9562708,123.858082 60.4976458,125.702529 61.6409792,131.968763 L63.3314792,141.209319 C64.5013542,147.390048 72.8048125,145.704395 74.3523958,154.185593 Z M88.7379792,131.007859 C96.9026042,117.730285 99.4403958,108.677023 95.3305208,99.2430641 C80.7305625,65.7172911 10.6299375,98.5590309 14.3151458,118.740048 C16.0342292,128.147541 24.3785208,132.93781 26.7305208,145.812293 C29.9890208,163.658232 24.4479375,171.396358 25.8730208,179.195559 C26.7346042,183.922717 30.2136042,185.634836 33.9723125,187.116908 C70.2629375,199.922174 112.711229,178.006644 112.990937,156.247872 C113.135896,145.006111 103.499229,136.524913 88.7379792,131.007859 Z" id="Stroke-12" stroke="#16254F" stroke-width="3"></path>
                    <path d="M0.664970833,166.755926 C0.334220833,165.978245 0.154554167,165.082487 0.932429167,164.754721 C4.6237625,163.195288 8.4151375,161.615497 12.0370542,160.141568 C14.9423458,158.958761 17.9374708,158.164794 20.9387208,157.780025 C26.3001375,157.100063 31.5370125,157.688413 36.5207208,159.549147 C39.9466375,160.827637 43.3909292,162.209955 47.0373458,163.671668 L51.0308458,165.269782 C52.7928042,165.970102 54.6303042,166.519771 56.4882208,166.90454 C62.7336792,168.203389 68.8954292,167.433851 74.8101375,164.61425 C77.4112208,163.37444 80.0388458,162.100021 82.6828042,160.801172 C92.3766375,156.086228 103.230137,156.045512 113.254721,160.666808 C116.264137,162.047089 119.293971,163.455872 122.305429,164.870762 C125.719096,166.483127 129.218512,167.450138 132.709762,167.747367 C136.201012,168.04256 139.677971,167.676113 143.063054,166.658207 C145.688637,165.862204 148.301971,164.730291 150.823429,163.299115 L153.663387,161.682679 C159.404554,158.400948 165.329471,156.739724 171.305429,156.821157 C176.530054,156.85373 181.740387,158.211617 186.793512,160.854103 C188.555471,161.78447 190.333762,162.73723 192.140637,163.702206 L192.865429,164.091046 C197.346887,166.505521 201.773221,167.784011 206.399637,168.003879 C212.498096,168.278714 218.559804,166.519771 224.484721,162.747409 C230.591346,158.85697 236.589762,156.884267 242.814804,156.715294 C243.696804,156.770261 244.362387,157.356576 244.388929,158.199402 C244.411387,159.042229 241.581637,241 241.581637,241 C204.831637,241 3.3252625,239.916947 0.664970833,241 C0.664970833,241 0.993679167,167.53157 0.664970833,166.755926 Z" id="Fill-14" fill="#FFFFFF"></path>
                    <path d="M1.53022917,172.23167 C5.2154375,170.674272 8.99864583,169.098553 12.6164792,167.62666 C15.4094792,166.490676 18.2453542,165.737425 21.1343125,165.366907 C26.3160625,164.703232 31.2426042,165.281403 35.9833542,167.050525 C40.6383542,168.789109 45.4076875,170.747562 50.4628542,172.758945 C52.3289375,173.499981 54.2297292,174.067973 56.1774792,174.4731 C62.7332708,175.837095 69.2421042,175.028877 75.4712292,172.062697 C78.0763958,170.822887 80.7081042,169.544396 83.3581875,168.243511 C92.6865625,163.707719 103.076604,163.724006 112.611188,168.123398 C115.620604,169.50368 118.646354,170.912463 121.651688,172.325317 C125.134771,173.970254 128.779146,175.016662 132.580729,175.338321 C136.249604,175.653872 139.887854,175.281318 143.505688,174.192158 C146.276229,173.351367 148.999813,172.162452 151.580479,170.696666 C152.538021,170.153104 153.485354,169.613614 154.422479,169.080231 C159.855354,165.977651 165.461771,164.367323 171.290729,164.420254 C176.443896,164.452827 181.345938,165.800535 186.082604,168.27812 C188.071188,169.326564 190.086313,170.407581 192.140229,171.508956 C196.664563,173.945824 201.354271,175.364786 206.327771,175.598905 C212.777396,175.904277 219.180063,174.008935 225.307104,170.106281 C230.670563,166.690186 236.423979,164.487436 242.857271,164.312356" id="Stroke-16" stroke="#16254F" stroke-width="3" stroke-linecap="round"></path>
                    <g id="Group-20" transform="translate(105.387887, 0.000000)">
                        <mask id="mask-2" fill="white">
                            <use xlink:href="#path-1"></use>
                        </mask>
                        <g id="Clip-19"></g>
                        <path d="M45.9198259,60.240139 C44.7846592,58.5524498 39.9214092,51.6123624 38.5065342,49.5948714 C38.2819509,49.2711771 38.2043676,48.8721577 38.3064509,48.4914606 C38.4309926,48.0313668 38.5432842,47.3554768 38.3799509,46.7284463 C38.0941176,45.6494653 36.9242426,42.5224561 34.8907426,37.9133748 C33.2982426,34.3120211 31.7608676,30.5701963 30.1602009,26.9260905 C29.3374092,25.0511065 28.4901176,23.1842657 27.5917842,21.3418547 C26.7506176,19.6114134 25.6440342,18.068267 24.6232009,16.4416522 C23.4431176,14.5605607 22.5202842,12.5267832 21.6913676,10.4726476 C20.5704926,7.69172669 19.2740342,4.80697928 16.8954926,2.86481341 C13.9718259,0.476804435 9.09836757,-0.866832329 5.53565924,0.749603414 C2.0832009,2.31717964 3.07136757,6.43155827 3.9697009,9.26541036 C4.23103424,10.0878789 4.4045759,11.9974718 3.56749257,13.1008826 C2.10361757,15.0287977 1.60749257,17.9888703 1.21140924,20.2954467 C0.576450902,23.9619464 0.172200902,27.6508401 1.37474257,31.2481221 C2.04849257,33.2595057 3.11424257,35.1446687 4.51074257,36.7468538 C6.16449257,38.6503392 8.13061757,40.2688108 10.2008676,41.7020233 C11.1522842,42.3616268 12.1690342,43.1413433 13.2449926,43.5566492 C14.5026592,44.0411728 15.8481176,44.0024923 17.1384509,44.3078643 C19.9865759,44.9796827 22.9531176,44.8147818 25.7624509,45.7431127 C26.2238676,45.891727 26.9935759,46.2133855 27.3896592,46.382358 C27.5509509,46.4536115 27.6857009,46.5431873 27.8102426,46.6673719 C28.1552842,47.0175318 29.0107426,47.8298213 30.2071592,48.5912155 C31.7874092,49.5969072 33.1982009,50.4784144 34.2088259,51.9340209 C35.2174092,53.3896273 42.9573676,64.7779668 43.8802009,66.0646008 C44.8030342,67.3512348 46.7773259,66.7242043 48.0227426,65.7164767 C49.2702009,64.710785 47.2509926,62.225057 45.9198259,60.240139" id="Fill-18" fill="#16254F" mask="url(#mask-2)"></path>
                    </g>
                    <path d="M110.964787,5.29699953 L111.115871,7.58728947 C111.132204,7.81122893 110.832079,7.98223725 110.552371,7.90894797 L106.885537,6.95211573 L103.496371,6.07060858 C103.159496,5.98306861 103.137037,5.63290872 103.457579,5.50261667 L106.701787,4.18544548 L110.213454,2.76037619 C110.480912,2.65044227 110.799412,2.78073432 110.815746,3.00467378 L110.964787,5.29699953 Z" id="Fill-21" fill="#16254F"></path>
                </g>
            </g>
        </g>
    </g>
</svg>