<?xml version="1.0" encoding="UTF-8"?>
<svg width="184px" height="242px" viewBox="0 0 184 242" version="1.1" xmlns="http://www.w3.org/2000/svg" xmlns:xlink="http://www.w3.org/1999/xlink">
    <!-- Generator: Sketch 46.2 (44496) - http://www.bohemiancoding.com/sketch -->
    <title>Box</title>
    <desc>Created with Sketch.</desc>
    <defs>
        <polygon id="path-1" points="0.757924761 0.116282377 45.0046044 0.116282377 45.0046044 70.9653554 0.757924761 70.9653554 0.757924761 0.116282377"></polygon>
    </defs>
    <g id="Page-1" stroke="none" stroke-width="1" fill="none" fill-rule="evenodd">
        <g id="Box">
            <g id="Page-1" transform="translate(2.000000, 0.000000)">
                <polygon id="Fill-1" fill="#16254F" points="93.0207073 151.888934 26.379 133.652347 93.0207073 115.417954 159.66022 133.652347"></polygon>
                <polygon id="Stroke-2" stroke="#16254F" stroke-width="3" stroke-linecap="round" stroke-linejoin="round" points="93.0217065 151.888934 26.3799992 133.652347 93.0217065 115.417954 159.661219 133.652347"></polygon>
                <g id="Group-9" transform="translate(26.341463, 133.524144)" stroke="#16254F" stroke-width="3" stroke-linecap="round" stroke-linejoin="round">
                    <path d="M66,106.043677 L66,18.3645708" id="Stroke-3"></path>
                    <polyline id="Stroke-5" points="133.319634 36.3925079 133.319634 87.8090645 66.680122 106.043458 0.0362195122 87.8090645 0.0362195122 36.3925079"></polyline>
                    <polygon id="Stroke-7" points="85.7770244 49.4023118 152.418732 31.1657247 133.318976 0.129300152 66.6794634 18.3658873"></polygon>
                </g>
                <polygon id="Stroke-10" stroke="#16254F" stroke-width="3" stroke-linecap="round" stroke-linejoin="round" points="73.8410488 182.926456 7.20153659 164.689869 26.2990976 133.653444 92.9408049 151.890031"></polygon>
                <g id="Group-30">
                    <path d="M106.675411,61.7492331 C106.675411,61.7492331 89.1477672,98.1675571 59.8369818,113.479533 L83.897157,134.283108 C83.897157,134.283108 115.30204,120.864561 134.634032,74.676323 L106.675411,61.7492331 Z" id="Fill-11" fill="#FFC304"></path>
                    <path d="M106.678429,61.7492331 C106.678429,61.7492331 89.1507856,98.1675571 59.8400002,113.479533 L83.9001753,134.283108 C83.9001753,134.283108 115.305059,120.864561 134.637051,74.676323 L106.678429,61.7492331 Z" id="Stroke-13" stroke="#16254F" stroke-width="3"></path>
                    <path d="M115.972415,93.0695622 C115.972415,93.0695622 91.1176241,125.696642 59.8224943,134.670131 L65.0687144,142.173635 L90.1671583,150.28488 L107.479685,145.890283 C107.479685,145.890283 128.833337,127.796307 139.622112,112.043336 L115.972415,93.0695622 Z" id="Fill-15" fill="#FFC304"></path>
                    <path d="M115.96992,93.0695622 C115.96992,93.0695622 91.1151295,125.696642 59.8199997,134.670131 L65.0662198,142.173635 L90.1646637,150.28488 L107.47719,145.890283 C107.47719,145.890283 128.830842,127.796307 139.619617,112.043336 L115.96992,93.0695622 Z" id="Stroke-17" stroke="#16254F" stroke-width="3"></path>
                    <g id="Group-21" transform="translate(35.121139, 0.000000)">
                        <mask id="mask-2" fill="white">
                            <use xlink:href="#path-1"></use>
                        </mask>
                        <g id="Clip-20"></g>
                        <path d="M5.95720367,39.4535135 C7.50253378,42.8388664 2.92142023,47.957485 1.91607763,51.1102732 C-0.180215344,57.6835185 -0.072656856,67.8593235 7.73521132,70.6259665 C8.74494407,70.9813956 9.84028458,70.9792016 10.9114793,70.9572616 C16.0084346,70.8563372 21.0944145,70.4153418 26.1408832,69.6847374 C30.700046,69.0265353 35.7860259,68.5021676 39.8161766,66.0997298 C42.3383134,64.5924469 44.4411916,62.148323 44.9043516,59.2456516 C45.4640947,55.7396282 43.530237,52.7755246 42.8014734,49.48232 C42.419531,47.7622184 43.0582967,46.0640569 43.2295123,44.3483433 C43.5434075,41.1867791 43.7607195,37.8782164 42.4634324,34.8921727 C41.464675,32.6016293 40.2025091,30.4844124 38.9293678,28.3803596 C35.2570138,22.3161239 30.8822369,16.6994657 26.3384396,11.2714921 C24.7009165,9.31663179 23.0151018,7.40345759 21.3314822,5.48589538 C20.5017453,4.53808431 19.6720084,3.59027324 18.8510518,2.63807415 C18.4405735,2.16197461 18.0322902,1.68368106 17.624007,1.2031935 C17.3057217,0.825824276 16.9984117,0.248800406 16.48257,0.132518029 C15.8877057,-0.00570441849 15.3608886,0.755616049 15.2599153,1.24707364 C14.9569955,2.74119248 16.0742867,4.51614424 16.7942701,5.73162417 C17.2991364,6.58289893 17.8544895,7.4056516 18.4317932,8.21085221 C18.6205693,8.47632707 18.9761708,9.23106552 19.2747005,9.38245201 C18.1903353,8.82736821 17.2266991,8.07043575 16.1774551,7.45391976 C15.4816175,7.04364043 13.7145852,5.76234027 12.9946019,6.58948095 C12.4085179,7.26304114 12.4414439,8.62332555 12.5182714,9.4416902 C12.6192447,10.4816496 12.9133842,11.5150269 13.3523985,12.460644 C14.2216467,14.3409081 15.5869809,15.9425333 16.9501201,17.4805322 C16.574763,17.0592829 13.0648441,14.7928735 12.2548629,14.4155043 C11.1770829,13.9152707 9.45614713,12.8775053 8.41568339,13.9767029 C6.74523422,15.7384906 9.3441985,19.3300802 10.7973356,20.2888614 C8.86786805,20.0058344 7.52667956,20.6201564 7.23034495,22.4236303 C6.96254627,24.0844937 8.34763618,24.6329954 8.11715371,26.1512483 C7.96349873,27.1846257 4.79162087,26.2368146 6.61792009,30.4493083 C7.20180903,31.7964286 2.79630117,32.7244937 6.36768198,35.2476018 C4.61162504,36.548648 5.27014639,37.9506186 5.95720367,39.4535135" id="Fill-19" fill="#16254F" mask="url(#mask-2)"></path>
                    </g>
                    <path d="M99.9552002,77.252965 C100.683964,74.2274292 98.5020631,69.4137776 96.001877,67.6454078 C74.4945696,52.4321625 48.2678592,63.6347628 26.4466566,70.9868807 C20.8031286,72.8868908 14.4396172,74.6420965 8.47341376,75.2432544 C7.32100139,75.3639248 0.623839229,77.5140518 0.000439014236,78.6373834 C5.71859943,78.3938487 11.3774929,77.4657836 17.0583371,76.8207456 C32.937482,75.0128837 45.0608602,89.603031 60.8390318,89.7456414 C67.075229,89.8048796 73.5243481,88.8548746 79.5564037,86.9087902 C84.8860365,85.1886887 91.2429627,80.6427059 97.0796569,81.5312788 C99.0288801,81.9393641 100.402995,82.8740112 101.845156,83.9139705 C102.72099,81.5115328 100.315192,80.3794251 99.9552002,77.252965" id="Fill-22" fill="#16254F"></path>
                    <path d="M53.0634312,87.8052616 C53.0766016,87.625353 51.8780927,87.620965 51.7793145,87.636323 C50.9254318,87.7591874 49.8783829,88.6850584 49.3362003,89.3037684 C48.7874325,89.9268664 48.4384162,90.4578162 47.5450222,90.5302184 C47.16747,90.5609345 46.8162586,90.418324 46.5682155,90.1352971 C46.3509035,89.8851803 46.2477351,89.5582732 46.0238379,89.3125444 C45.7231131,88.9834434 45.2643433,89.1063078 45.1194686,89.5143931 C44.9592284,89.9597765 45.2006862,90.4643982 45.4706799,90.8110513 C45.6418955,91.037034 45.8504273,91.2388827 46.0765196,91.4078212 C46.1226161,91.4385373 46.6077268,91.7654444 46.6516282,91.6974302 C46.6516282,91.6974302 45.8570125,92.882194 44.9241072,91.7369223 C44.5619205,91.2915389 43.5741385,90.2888776 43.2009763,91.2761808 C42.944153,91.962905 43.3985328,92.6035551 43.9055942,93.0248045 C44.6453332,93.6347384 45.6989674,93.6917826 46.583581,93.4043677 C47.6086793,93.0708786 48.3286626,92.25032 49.0135248,91.4626714 C49.450344,90.9624378 49.882773,90.4490401 50.3942246,90.0234027 C51.2810334,89.2862164 51.7222427,88.7421026 52.6244169,89.0777857 C53.2609876,89.3125444 53.0634312,87.8074556 53.0634312,87.8052616" id="Fill-24" fill="#16254F"></path>
                    <path d="M48.480342,83.2415074 C48.5154632,83.0089426 46.9657429,82.8948542 46.8362337,82.9036303 C45.7189425,82.9848085 44.2789758,84.0883941 43.5194812,84.8365505 C42.7534013,85.591289 42.248535,86.2472971 41.0895374,86.2582671 C40.5978414,86.2648492 40.1544371,86.0476425 39.8602975,85.6593032 C39.6034742,85.3148441 39.4959157,84.8826247 39.2325072,84.5447476 C38.8725155,84.0883941 38.271066,84.2046765 38.0405835,84.7224622 C37.7925405,85.284128 38.0625342,85.9554942 38.3764294,86.4315937 C38.578376,86.7409487 38.8286141,87.0217816 39.1073881,87.2587344 C39.16446,87.3048085 39.7593242,87.769938 39.8251764,87.6865658 C39.8251764,87.6865658 38.6859344,89.1477745 37.5840087,87.5812534 C37.1559698,86.9691254 35.9728265,85.5803189 35.3977178,86.826515 C34.9982149,87.6887598 35.5294221,88.5597806 36.1484322,89.1499685 C37.0484113,90.0100193 38.4049653,90.1789578 39.5771333,89.8893489 C40.9336873,89.5536658 41.941225,88.5575866 42.9026662,87.6009995 C43.5107009,86.9954535 44.1231258,86.3701615 44.8233535,85.8655399 C46.0372278,84.992325 46.660628,84.3275409 47.7954798,84.8453266 C48.5988759,85.2117257 48.480342,83.2415074 48.480342,83.2415074" id="Fill-26" fill="#16254F"></path>
                    <path d="M132.486814,205.197587 C132.458278,206.660989 131.237818,208.093676 129.916385,208.433747 C128.509345,208.795758 127.352542,207.911573 127.378883,206.395514 C127.424979,203.802198 129.657367,203.229562 129.683708,201.145255 C129.696878,199.905641 129.703463,199.280349 129.718829,198.025377 C129.723219,195.956429 127.532538,196.382066 127.580829,193.536439 C127.604975,191.963336 128.886897,190.504321 130.201744,190.287114 C131.60659,190.05455 132.710711,191.098897 132.69315,192.645672 C132.662419,195.28945 130.445397,195.811624 130.423447,197.911289 C130.410276,199.148709 130.401496,199.767419 130.388326,200.993869 C130.37296,203.043072 132.5373,202.54942 132.486814,205.197587 M137.342311,197.834499 C140.189318,193.584707 141.47124,190.609633 140.760037,187.603844 C138.222535,176.932193 118.02788,186.153605 117.722765,192.959415 C117.58228,196.131949 120.025394,197.873991 119.974908,202.347571 C119.906861,208.547835 117.514233,211.185032 117.362773,213.736662 C117.27058,215.281243 118.317629,215.744179 119.41297,216.097414 C130.107356,219.046159 141.260513,211.661132 142.663164,205.550822 C143.387537,202.39584 140.931252,199.716957 137.342311,197.834499" id="Fill-28" fill="#16254F"></path>
                </g>
            </g>
        </g>
    </g>
</svg>