<?xml version="1.0" encoding="UTF-8"?>
<svg width="220px" height="270px" viewBox="0 0 220 270" version="1.1" xmlns="http://www.w3.org/2000/svg" xmlns:xlink="http://www.w3.org/1999/xlink">
    <!-- Generator: Sketch 46.2 (44496) - http://www.bohemiancoding.com/sketch -->
    <title>Music</title>
    <desc>Created with Sketch.</desc>
    <defs>
        <polygon id="path-1" points="4.0066882e-15 98.9550701 4.0066882e-15 0.634312403 94.5082627 0.634312403 94.5082627 98.9550701"></polygon>
    </defs>
    <g id="Page-1" stroke="none" stroke-width="1" fill="none" fill-rule="evenodd">
        <g id="Music">
            <g id="Page-1" transform="translate(2.000000, 5.000000)">
                <path d="M109.186831,233.775717 L85.8460306,191.797416 C90.0586165,186.567695 100.55745,187.849573 104.982666,190.330283 C111.047863,193.72875 112.738371,199.603668 115.854127,205.542467 C122.300373,184.084856 100.182718,180.243481 83.6313177,174.666674 C79.0124203,173.112238 77.1366511,171.540766 75.5703523,170.542094 C74.4924692,169.850051 73.124063,169.820239 72.0103908,170.45479 C70.111464,171.534378 69.4398923,173.963984 70.5072492,175.884671 L99.3258847,227.717674 C94.5343576,227.074605 88.8333666,228.207428 83.4944771,231.246031 C73.3051136,237.040034 68.2862206,247.571873 72.2882825,254.764868 C76.286134,261.959992 87.7891674,263.094944 97.9806361,257.296683 C108.169999,251.500551 113.186787,240.970841 109.186831,233.775717" id="Fill-1" fill="#FFFFFF"></path>
                <path d="M109.186831,233.775717 L85.8460306,191.797416 C90.0586165,186.567695 100.55745,187.849573 104.982666,190.330283 C111.047863,193.72875 112.738371,199.603668 115.854127,205.542467 C122.300373,184.084856 100.182718,180.243481 83.6313177,174.666674 C79.0124203,173.112238 77.1366511,171.540766 75.5703523,170.542094 C74.4924692,169.850051 73.124063,169.820239 72.0103908,170.45479 C70.111464,171.534378 69.4398923,173.963984 70.5072492,175.884671 L99.3258847,227.717674 C94.5343576,227.074605 88.8333666,228.207428 83.4944771,231.246031 C73.3051136,237.040034 68.2862206,247.571873 72.2882825,254.764868 C76.286134,261.959992 87.7891674,263.094944 97.9806361,257.296683 C108.169999,251.500551 113.186787,240.970841 109.186831,233.775717 Z" id="Stroke-3" stroke="#16254F" stroke-width="2"></path>
                <path d="M91.4990273,55.4407849 C99.7452608,59.7278941 108.841533,58.5039277 111.814534,52.7046069 L129.152769,18.8680652 C134.419594,19.4101382 138.16361,26.9819517 138.466891,31.013082 C138.885503,36.5413663 135.771541,40.2240211 133.236374,44.8875698 C150.119688,39.8669412 142.984058,23.4219087 139.419447,9.94537132 C138.424175,6.18312648 138.631346,4.24715143 138.605716,2.76720606 C138.58863,1.74544146 138.009835,0.818324516 137.108537,0.351539421 C135.572913,-0.446512515 133.684887,0.160093 132.892514,1.70672195 L111.481353,43.4829124 C109.811176,40.0024595 106.581882,36.68764 102.25907,34.4419089 C94.0107005,30.1547997 84.9165637,31.3787662 81.9435627,37.178087 C78.9726974,42.9752567 83.250658,51.1536757 91.4990273,55.4407849" id="Fill-5" fill="#FFFFFF"></path>
                <path d="M91.4990273,55.4407849 C99.7452608,59.7278941 108.841533,58.5039277 111.814534,52.7046069 L129.152769,18.8680652 C134.419594,19.4101382 138.16361,26.9819517 138.466891,31.013082 C138.885503,36.5413663 135.771541,40.2240211 133.236374,44.8875698 C150.119688,39.8669412 142.984058,23.4219087 139.419447,9.94537132 C138.424175,6.18312648 138.631346,4.24715143 138.605716,2.76720606 C138.58863,1.74544146 138.009835,0.818324516 137.108537,0.351539421 C135.572913,-0.446512515 133.684887,0.160093 132.892514,1.70672195 L111.481353,43.4829124 C109.811176,40.0024595 106.581882,36.68764 102.25907,34.4419089 C94.0107005,30.1547997 84.9165637,31.3787662 81.9435627,37.178087 C78.9726974,42.9752567 83.250658,51.1536757 91.4990273,55.4407849 Z" id="Stroke-7" stroke="#16254F" stroke-width="2"></path>
                <path d="M167.828961,123.242855 C167.893409,126.527931 164.707525,129.257601 161.186511,129.328641 C157.431336,129.403987 154.324938,126.801328 154.258342,123.516252 C154.144483,117.90622 159.989925,117.634975 159.899698,113.241239 L159.770802,106.705531 C159.637609,102.382835 153.931805,102.587345 153.81365,96.6457915 C153.744905,93.3607152 156.932937,90.6310449 160.449655,90.5578519 C164.209127,90.4825061 167.317673,93.0851649 167.382121,96.3702412 C167.495979,101.982426 161.556014,102.309642 161.646241,106.707683 L161.777285,113.189574 C161.891144,117.531644 167.70651,117.29269 167.828961,123.242855 M180.127804,109.024028 C187.118274,100.867308 189.833687,94.9774205 188.082847,88.0972738 C181.85931,63.6464893 130.717603,78.3475288 131.001175,92.503926 C131.134368,99.1042169 136.268732,103.284832 136.451335,112.315563 C136.702682,124.83588 132.096792,129.50086 132.206354,134.973117 C132.27295,138.288332 134.444851,139.838302 136.82943,141.259109 C160.037187,153.964561 191.227914,143.680938 193.805837,128.880872 C195.135616,121.236504 189.532929,114.401565 180.127804,109.024028" id="Fill-9" fill="#FFC304"></path>
                <path d="M167.828961,123.242855 C167.893409,126.527931 164.707525,129.257601 161.186511,129.328641 C157.431336,129.403987 154.324938,126.801328 154.258342,123.516252 C154.144483,117.90622 159.989925,117.634975 159.899698,113.241239 L159.770802,106.705531 C159.637609,102.382835 153.931805,102.587345 153.81365,96.6457915 C153.744905,93.3607152 156.932937,90.6310449 160.449655,90.5578519 C164.209127,90.4825061 167.317673,93.0851649 167.382121,96.3702412 C167.495979,101.982426 161.556014,102.309642 161.646241,106.707683 L161.777285,113.189574 C161.891144,117.531644 167.70651,117.29269 167.828961,123.242855 Z M180.127804,109.024028 C187.118274,100.867308 189.833687,94.9774205 188.082847,88.0972738 C181.85931,63.6464893 130.717603,78.3475288 131.001175,92.503926 C131.134368,99.1042169 136.268732,103.284832 136.451335,112.315563 C136.702682,124.83588 132.096792,129.50086 132.206354,134.973117 C132.27295,138.288332 134.444851,139.838302 136.82943,141.259109 C160.037187,153.964561 191.227914,143.680938 193.805837,128.880872 C195.135616,121.236504 189.532929,114.401565 180.127804,109.024028 Z" id="Stroke-11" stroke="#16254F" stroke-width="2"></path>
                <g id="Group-15" transform="translate(0.000000, 58.000000)">
                    <mask id="mask-2" fill="white">
                        <use xlink:href="#path-1"></use>
                    </mask>
                    <g id="Clip-14"></g>
                    <path d="M89.4022969,43.9562636 C88.3759721,41.0811988 84.0226444,38.309507 81.0420262,38.2039803 C73.8684436,37.9563155 71.6597071,39.6081318 68.6662598,40.5018786 C66.8552242,41.0445874 66.017059,35.835013 65.6578453,33.4294344 C65.2858026,30.9527867 64.0777328,27.6749974 62.4313368,25.7475195 C60.8405333,23.8911105 59.0551558,22.2737519 57.2612256,20.669315 C50.9942299,15.0763985 44.325257,10.6744266 37.1858852,6.07862999 C34.1582271,4.12746238 31.7057385,3.1303425 28.2803795,0.634312403 C24.6647228,2.54456149 33.2751601,8.33130254 33.491116,8.57466009 C31.4470191,8.21716139 28.9389379,6.93791905 26.8884265,7.58184743 C26.4501003,12.2336378 30.4249707,14.8653451 33.6664464,16.8445096 C33.1960476,16.5580799 29.2767698,15.4554333 28.4150846,15.336985 C27.2647456,15.1819253 25.3639066,14.7059782 24.7139009,16.0412143 C23.6726088,18.1775921 27.1257641,20.789917 28.7529165,21.265864 C26.8798738,21.5630618 25.8065091,22.5278775 26.0523994,24.304603 C26.2811843,25.9391905 27.7287299,26.051178 27.9553766,27.5393202 C28.1093254,28.5558225 24.8828168,28.5881266 27.7992897,32.0059004 C28.7336729,33.0977789 24.9020604,35.249232 28.9539051,36.5780073 C27.9917256,37.8981681 28.4065319,39.9419408 29.6146017,40.7796938 C31.2866558,41.9426414 30.6537556,41.7380488 31.3037613,42.4939647 C27.5427085,40.9325999 23.5058311,40.0905397 19.5245462,40.4588064 C13.0330419,41.0618163 0.0179606838,40.2197561 -0.00128290598,40.1465335 C1.06994359,44.2706902 7.52937521,44.7100259 11.0017741,45.4616347 C9.62265014,46.4221432 4.68987664,46.4566009 5.25221709,48.679123 C5.17738091,51.4486611 11.6068781,49.8980643 14.9189137,50.1931085 C14.245388,50.9554852 10.3966701,52.4888531 10.9504578,53.6324183 C11.6368125,55.0559523 15.9773111,53.8391645 17.0271558,53.5699637 C16.1505034,53.7960924 15.3187527,54.8255163 15.0493425,55.6115828 C16.980116,56.3093513 16.980116,56.3093513 20.9485718,55.8377115 C17.5574236,57.2849351 20.6278453,59.5311469 23.2449735,59.1521121 C22.7959564,59.2748677 24.6839664,61.4930825 25.0795291,61.6309133 C25.7145675,61.8548884 26.3560205,61.4069382 26.9718154,61.5533835 C27.7821843,61.7515153 27.5790575,62.0680955 28.1071872,62.5978827 C28.9774251,63.4744006 30.2752983,63.6682252 31.4662627,63.6079242 C32.5823909,63.5540841 32.3792641,63.7220654 33.3222,64.1700156 C33.8032897,64.3939907 35.137512,64.3552257 35.6506744,64.167862 C32.6187399,69.1276181 30.1534222,73.3508407 26.2106245,78.4268915 C22.6355932,83.0269953 18.3934507,87.8941463 13.8605162,91.6048106 C12.9881402,92.3241152 8.68612877,97.6952102 8.78020855,98.9550701 C14.3116715,94.9385937 22.4966117,87.3557447 23.5421801,86.8044214 C25.5456516,85.7448469 27.6624464,85.1547587 29.8498011,84.5194447 C34.4939208,83.1669798 36.2023239,81.43548 39.7367299,81.4290192 C43.1727798,81.4204048 46.6088296,80.9832226 49.9999778,80.4771251 C55.5357171,79.6501401 58.3559721,78.9566788 64.2487869,75.2826258 C72.5556031,69.894302 76.8896872,65.3846497 82.1816744,56.7443799 C83.400435,54.7501401 86.812965,50.1888012 89.355257,49.0150856 C91.1556017,48.3000882 92.7763396,48.3237779 94.5082627,48.3991541 C93.9330932,45.9591178 91.3694194,46.3252309 89.4022969,43.9562636" id="Fill-13" fill="#16254F" mask="url(#mask-2)"></path>
                </g>
                <path d="M48.4551492,136.030803 C48.3706304,135.852841 47.2359651,136.501131 47.1514462,136.568926 C46.4076805,137.149421 45.9238102,138.600659 45.7463206,139.479876 C45.5646051,140.369685 45.5202327,141.064585 44.7173038,141.619656 C44.3771155,141.852702 43.9693121,141.909904 43.5784125,141.776432 C43.2403372,141.657791 42.961425,141.40356 42.6191238,141.293393 C42.1563832,141.142973 41.7887262,141.50949 41.8732451,141.979818 C41.9641028,142.48828 42.4648769,142.831493 42.9086008,143.015811 C43.1959648,143.13657 43.4981196,143.214958 43.8066134,143.248856 C43.8657766,143.255212 44.5017808,143.301821 44.5081197,143.214958 C44.5081197,143.214958 44.4003582,144.770007 42.8959229,144.191631 C42.31063,143.96706 40.8336634,143.551815 41.0153789,144.693738 C41.1442701,145.483974 41.9218434,145.844135 42.6318016,145.964895 C43.6608184,146.142857 44.6898352,145.623801 45.3680988,144.869581 C46.1583499,143.99672 46.3907767,142.825137 46.6126387,141.7044 C46.7520947,140.994671 46.8852119,140.270112 47.1366554,139.587924 C47.5740404,138.405748 47.6965927,137.647291 48.7340614,137.475685 C49.4651493,137.352806 48.4572622,136.030803 48.4551492,136.030803" id="Fill-16" fill="#16254F"></path>
                <path d="M44.7533275,136.087452 C44.7205159,135.843634 43.1761818,136.182269 43.0558725,136.227421 C41.9862134,136.63604 40.8968673,138.171186 40.3696938,139.144197 C39.8381454,140.133012 39.5319035,140.936705 38.4053709,141.291143 C37.9285085,141.440143 37.4341466,141.352098 37.0382196,141.045069 C36.6882289,140.776418 36.4629224,140.370056 36.1085568,140.108178 C35.6273195,139.755998 35.0738967,140.051739 34.9973362,140.638707 C34.9142134,141.27534 35.3670139,141.873596 35.8110647,142.25964 C36.0954321,142.51023 36.4169861,142.720183 36.758227,142.878213 C36.8238503,142.907561 37.5391438,143.201045 37.5785178,143.099454 C37.5785178,143.099454 36.8829112,144.90325 35.3648265,143.648043 C34.7742172,143.160409 33.2233208,142.108383 33.0177012,143.528392 C32.8733301,144.512691 33.6367473,145.23737 34.4089143,145.648248 C35.5310721,146.251018 36.9025982,146.023004 37.9635076,145.388627 C39.1906625,144.652661 39.8884565,143.35456 40.5534389,142.11064 C40.9756152,141.320492 41.3934166,140.51454 41.9337148,139.803407 C42.86994,138.56626 43.2877414,137.715157 44.5433331,137.904793 C45.4292471,138.035732 44.7533275,136.089709 44.7533275,136.087452" id="Fill-18" fill="#16254F"></path>
                <path d="M209.498678,224.431776 C205.707266,220.010164 200.653468,213.130429 199.693375,211.801365 C197.598625,208.90237 196.906761,208.295904 196.30005,207.175447 C195.593285,205.876491 198.422475,205.586162 199.242067,204.04634 C199.808331,202.979647 199.682731,201.500042 199.86368,200.958093 C200.112751,200.205387 201.428356,199.958069 201.773223,199.237622 C202.469344,197.777372 200.644953,196.364435 201.068587,195.194514 C201.575244,193.79448 204.168135,193.929968 203.618902,192.084762 C203.450726,191.514856 202.739703,191.241731 202.74609,190.566446 C202.754605,189.639542 204.078725,189.164262 203.633804,188.095419 C203.359187,187.437338 202.365032,187.523362 202.35226,186.787861 C203.19314,186.370646 204.683308,185.693211 205.026046,184.691036 C205.417747,183.540471 204.534291,183.230786 203.859458,182.652277 C204.32141,182.017853 205.59231,181.607091 205.822221,180.660832 C206.118126,179.456502 204.915348,178.837132 204.19581,178.224214 C205.722167,178.176901 206.103224,175.991902 205.996784,174.811229 C204.955795,174.748862 204.036149,175.129516 203.022835,175.146721 C204.006346,174.191859 205.637015,173.105811 205.55612,171.540182 C205.496513,170.333702 205.106941,170.344455 204.168135,170.608977 C204.027634,170.645537 201.992491,171.372436 202.024423,171.316521 C202.971744,169.617556 206.665231,167.395997 206.224567,165.249709 C204.251159,165.07121 203.506075,166.654043 201.788125,167.234703 C202.469344,165.595954 204.268189,164.398075 205.175063,162.793736 C206.005299,161.318431 206.258628,160.14636 206.118126,158.492557 C205.368785,158.550623 199.305931,165.430358 198.279844,165.830368 C199.697632,163.826019 204.957924,157.761357 203.448597,155 C201.292112,156.217234 196.123359,167.049752 190.028573,171.436954 C188.044521,172.867096 182.92686,177.170425 181.523973,179.245744 C178.965143,183.037233 177.904995,185.794288 175.180117,189.512657 C174.260471,190.7643 172.991699,192.400899 171.461084,192.80736 C170.320041,193.108442 165.317336,192.594452 164.069853,192.547139 C157.41519,192.293369 153.747248,195.605277 153.008551,197.579518 C152.446545,198.570939 152.667941,200.007533 151.912213,200.998955 C151.34595,201.796823 149.368284,203.599017 149,204.583987 C149.981382,205.153893 152.280498,203.736655 153.447086,203.908702 C156.078296,204.233441 158.449792,207.431367 160.931985,209.637872 C162.822369,211.319633 170.132706,216.231579 172.2381,217.377843 C176.653254,219.782202 181.651702,220.861797 186.569255,221.618805 C188.770446,221.958598 194.941869,221.760744 196.917405,222.829587 C198.62684,223.75219 205.08991,234.771809 205.979753,236.571852 C206.477895,237.582629 208.576903,241.901013 209.969145,239.029976 C210.584371,237.763279 208.732306,236.485829 209.311343,235.305155 C210.092616,235.72452 210.629077,237.479401 211.584913,237.528865 C213.132558,237.608436 212.798335,235.216981 212.84304,234.281475 C213.677534,234.48148 214.358753,235.064289 215.235823,234.939555 C215.13364,233.821249 214.126713,232.674985 213.130429,231.739478 C214.243797,232.685737 215.344393,233.324463 216.987835,232.743803 C217.190072,231.537323 214.878183,230.705045 209.498678,224.431776" id="Fill-20" fill="#16254F"></path>
            </g>
        </g>
    </g>
</svg>