<?xml version="1.0" encoding="UTF-8"?>
<svg width="300px" height="104px" viewBox="0 0 300 104" version="1.1" xmlns="http://www.w3.org/2000/svg" xmlns:xlink="http://www.w3.org/1999/xlink">
    <!-- Generator: Sketch 46.2 (44496) - http://www.bohemiancoding.com/sketch -->
    <title>Nest</title>
    <desc>Created with Sketch.</desc>
    <defs></defs>
    <g id="Page-1" stroke="none" stroke-width="1" fill="none" fill-rule="evenodd">
        <g id="Nest">
            <g id="Page-1" transform="translate(2.000000, 2.000000)">
                <path d="M71.2689951,6.4939558 C70.922254,5.90655302 70.4510418,5.37061454 69.8464676,4.91098517 C68.333254,3.76102445 66.2528076,3.05649604 64.3537335,3.00325712 C61.0303537,2.91452558 57.628735,4.64479056 55.8452412,7.4522564 C54.4636114,9.6279537 53.677665,12.1479294 52.9984081,14.6111168 C52.9095001,14.9340996 52.8490427,15.2854765 52.7121245,15.5924876 C52.4471787,16.1976367 50.2138106,19.3245361 49.9293051,19.8125596 C49.6447996,20.2988084 48.2845078,21.3600376 46.5845875,22.7974885 C44.882889,24.2331648 43.0851699,26.3290037 40.8855869,30.1746285 C38.6860038,34.0202533 39.3403664,36.8472401 39.3492572,37.6493732 C39.3563699,38.4515063 38.888714,38.8064325 38.6451061,39.2873574 C38.4014983,39.7682823 38.744683,39.913802 38.8424818,40.0202799 C38.9385024,40.1232085 38.721567,40.5207258 38.5864269,41.1844377 C38.4530649,41.8481496 38.9473932,41.9297826 38.9473932,41.9297826 L38.8620416,42.1445129 C38.7766899,42.3592432 37.3399372,43.191545 36.5184276,43.8446091 C35.696918,44.4976733 35.4266378,45.0620058 34.96076,45.4187066 C34.4931041,45.7754074 33.6395877,46.4728373 32.6100334,47.3211108 C31.578701,48.1676097 28.8385575,50.4125175 28.8385575,50.4125175 C28.8385575,50.4125175 27.8676825,51.1294684 28.0152698,51.5482812 C28.162857,51.9670941 29.3008789,51.544732 31.2799703,50.8260065 C33.2572834,50.1090557 34.1499194,49.4045273 34.3472951,49.1312341 C34.5464489,48.8597156 35.2914977,48.9803905 35.7538191,48.8668142 C36.2196968,48.7514632 36.1467923,48.8047021 36.7335849,48.9519964 C37.3203774,49.0992908 40.5584055,48.4604237 41.5275024,47.9848227 C42.4983774,47.507447 43.4336892,46.3131205 43.4336892,46.3131205 C43.4336892,46.3131205 44.1894069,47.5180948 44.7406363,48.1942291 C45.2936438,48.8685888 45.16206,49.8126924 44.8953361,50.6591912 C44.6286122,51.5056901 45.0624831,52.1995707 45.3078691,52.481737 C45.5550332,52.7621287 44.559264,56.336235 43.9529117,58.3202722 C43.343003,60.306084 42.5695037,62.7586237 41.9755985,63.8180782 C41.3799152,64.8757581 41.4012531,65.7577496 41.2678911,66.1801117 C41.1345292,66.6024739 40.5263987,66.5794037 40.5263987,66.5794037 C40.5263987,66.5794037 40.3859241,66.2014073 40.0267359,66.217379 C39.6675477,66.2351253 39.603534,66.8473729 39.603534,66.8473729 C39.603534,66.8473729 39.4932881,66.9059357 39.1340999,66.923682 C38.7749118,66.9414283 38.3108122,66.8136549 37.8876103,66.6805576 C37.4626302,66.5474603 37.1212236,66.923682 37.1212236,66.923682 C37.1212236,66.923682 36.8064894,66.9733717 36.2481474,67.5039863 C35.6898053,68.0363755 35.6844709,68.7586502 35.6844709,68.7586502 C35.6844709,68.7586502 35.8427271,68.4942302 36.1396797,68.0842905 C36.4366323,67.6761255 37.0661007,67.5749715 37.0661007,67.5749715 C37.0661007,67.5749715 37.1087765,67.8482646 37.3630533,67.928123 C37.61733,68.0079814 37.7684736,67.7027449 38.0832078,67.6530553 C38.397942,67.6033656 38.4992971,67.7471107 38.799806,67.8589124 C39.1003149,67.9724888 39.603534,67.8518139 39.603534,67.8518139 C39.603534,67.8518139 39.6230938,67.9707142 39.6995546,68.1978669 C39.7777936,68.4250196 39.9893946,69 39.9893946,69 C39.9893946,69 39.9733911,68.3948509 39.9093774,68.0026575 C39.8471418,67.6104641 40.1031968,67.6920971 40.1031968,67.6920971 C40.1031968,67.6920971 40.4463815,68.0789666 40.8766961,68.009756 C41.3087888,67.9405454 41.7302125,67.5519013 41.9275882,67.2803828 C42.1249639,67.0070897 42.3312304,66.5332633 42.3312304,66.5332633 C42.3312304,66.5332633 42.7348725,66.5492349 42.9820367,66.8296266 C43.2274227,67.1117929 43.3323341,67.255538 43.7502015,67.1082436 C44.1698471,66.9609493 43.8586692,66.529714 43.8586692,66.529714 L44.0542668,66.4995453 C44.2516424,66.4658273 44.3369941,66.2528716 44.3369941,66.2528716 C44.3369941,66.2528716 44.7210765,66.3912928 44.9629062,66.6344172 C45.2029577,66.875767 45.4750161,67.3141008 45.4750161,67.3141008 C45.4750161,67.3141008 45.4554563,67.1987498 45.4110023,66.9254567 C45.3683265,66.6486143 45.0251417,66.0221696 45.0251417,66.0221696 C45.0251417,66.0221696 45.117606,65.8464812 45.3274288,65.6512718 C45.5390298,65.457837 45.9800133,65.70806 46.211174,65.3904011 C46.4423347,65.0727422 46.289413,64.3735376 46.289413,64.3735376 C46.289413,64.3735376 46.7624034,64.2972285 47.3918718,64.7213653 C48.0231183,65.1419528 48.0586815,65.6175538 48.0586815,65.6175538 L48.0231183,65.1419528 C47.9875552,64.6645771 47.8204082,64.1304132 47.1553766,63.7541915 C46.4921232,63.3779698 45.7577434,63.8163036 45.7577434,63.8163036 L45.5354735,63.9316546 C45.3114254,64.0487802 45.1602819,64.3540167 44.9966912,64.5793948 C44.8313224,64.8065475 44.168069,65.1951917 44.168069,65.1951917 C44.168069,65.1951917 43.9475772,65.0691929 43.7982118,64.8917298 C43.6488464,64.7160414 43.5528258,64.3682137 43.4905903,63.977795 C43.4283547,63.5856016 43.4781431,62.8952702 43.9529117,61.3335952 C44.4241239,59.7701455 46.0635868,53.9280611 46.3018601,53.4080942 C46.5419116,52.8881274 47.1393732,52.3504143 47.4185442,51.5819992 C47.6977152,50.8153587 47.5928038,47.8996404 47.5928038,47.8996404 C47.5928038,47.8996404 49.6732502,48.329101 51.3873958,47.9759495 C53.0997632,47.622798 55.799009,46.6272302 57.6536292,46.8951994 C59.5064712,47.1596194 61.2241731,46.3237683 61.2597363,46.801144 C61.2970776,47.276745 61.3201937,48.4373535 61.4393304,49.4222736 C61.5566889,50.4071937 61.9567747,50.3841235 62.3586387,50.6414449 C62.7622809,50.8969917 63.8594052,51.9670941 64.6684677,53.0034784 C65.4793083,54.0380882 68.2976908,57.8056292 68.8080226,58.4870874 C69.3201324,59.1685457 69.4570507,60.0292416 69.4872794,60.4675754 C69.5192863,60.9041345 69.2881256,61.2217934 69.2881256,61.2217934 L69.1316476,61.0070631 C68.9769477,60.7905582 68.5537458,60.6574609 68.5537458,60.6574609 L68.4363873,60.435632 C68.3208069,60.2120285 67.7998062,59.974228 67.5668674,60.5332367 C67.3339285,61.0922454 67.6931167,62.3202899 67.6931167,62.3202899 C67.6931167,62.3202899 67.7624649,61.7470841 67.8247005,61.3761863 C67.8851579,61.0052885 68.1785542,61.0780483 68.1785542,61.0780483 C68.1785542,61.0780483 68.2070047,61.5146075 68.3172506,61.9405189 C68.4239402,62.362881 68.9591661,62.4391901 68.9591661,62.4391901 L68.991173,62.6361741 C69.0214017,62.8313835 69.1832142,63.3265055 69.1832142,63.3265055 L69.1974395,62.9236643 C69.2134429,62.5190485 69.3059072,62.3451347 69.3059072,62.3451347 C69.3059072,62.3451347 69.7077712,62.8420313 70.1007444,62.7799192 C70.4919394,62.7160325 70.7960047,62.3469093 70.9471482,62.0416728 C71.1000699,61.7364363 71.3739065,61.9334204 71.4841523,62.1162073 C71.5943982,62.2989943 71.6637464,62.7302296 72.3021056,62.708934 C72.942243,62.6858638 73.4739126,62.2404315 73.4739126,62.2404315 L73.7104078,62.2031642 C73.946903,62.1641224 74.1425005,62.1339536 74.1425005,62.1339536 L74.1620603,62.2510793 C74.1798418,62.3682049 74.5301392,62.7958909 74.5301392,62.7958909 L74.4910197,62.559865 C74.4554565,62.3238391 74.4110026,62.050546 74.4110026,62.050546 C74.4110026,62.050546 74.6012656,61.9813354 74.9017745,61.8517873 C75.2040616,61.7222393 75.0333583,61.670775 75.2698535,61.392158 C75.5081269,61.1117663 75.8993219,61.291004 76.2336159,61.1170902 C76.5661316,60.9431764 76.4950053,60.7532909 76.4950053,60.7532909 C76.4950053,60.7532909 76.8097395,60.7036013 77.2027127,60.8810643 C77.5939077,61.060302 77.9993281,61.5980152 77.9993281,61.5980152 C77.9993281,61.5980152 78.0348912,61.3122996 77.5885733,60.7799104 C77.1404771,60.2492958 76.0949194,60.2546197 76.0949194,60.2546197 C76.0949194,60.2546197 75.6521578,60.0043967 75.141826,60.3273795 C74.6297162,60.6503623 74.8751021,60.9325286 74.5408082,61.1046678 C74.2065142,61.2803562 74.0909339,61.0567528 74.0909339,61.0567528 C74.0909339,61.0567528 73.970019,60.5545323 73.5379263,60.6237429 C73.1058336,60.6929535 73.1022773,61.1738784 72.7946557,61.2643846 C72.4888123,61.3531161 71.9802588,60.9520496 71.9802588,60.9520496 C71.9802588,60.9520496 71.8735692,60.5279128 71.6317396,60.286563 C71.391688,60.0434386 71.0147183,59.6991603 71.0147183,59.6991603 L70.9435919,59.5110494 C70.8742437,59.3229385 70.2501098,58.9396183 69.6846551,58.4285246 C69.1192004,57.9156563 65.1770212,52.1587542 64.828502,51.7328428 C64.4782046,51.3069314 64.4159691,50.914738 64.4444196,50.3486308 C64.4746483,49.7825236 64.4515322,49.3832317 64.348399,48.9981368 C64.2470439,48.6112673 63.9180845,47.8215567 63.9500913,47.012325 C63.98032,46.204868 64.8942939,44.3716745 65.9576332,42.715944 C67.0191943,41.0619881 67.607765,36.9501687 67.7731338,36.4816662 C67.942059,36.0131637 69.0996407,35.4665774 69.617085,32.4106632 C70.1327513,29.3565237 69.0800809,25.5481661 67.9153866,23.5659036 C66.7524704,21.583641 66.7755865,20.2136261 67.0245288,19.0086518 C67.5064099,16.6838856 69.3699209,15.0529999 70.7017622,13.2002854 C72.1723,11.1523615 72.4710307,8.52590801 71.2689951,6.4939558" id="Fill-1" fill="#16254F"></path>
                <path d="M71.1314206,9.48489329 L71.2605771,8.16384428 C71.2736378,8.03468073 71.4361718,7.9605076 71.5696819,8.02189226 L73.2951541,8.84546976 L74.8929212,9.60766261 C75.0496503,9.68183574 75.0307848,9.88389357 74.8595436,9.93376861 L73.138425,10.4414709 L71.2779914,10.9900963 C71.134323,11.0322982 70.9877522,10.933827 71.0008129,10.8046635 L71.1314206,9.48489329 Z" id="Fill-3" fill="#16254F"></path>
                <path d="M204,68.7205464 C204,68.7205464 204,68.4102825 203.691633,67.7359516 C203.381484,67.0634141 202.456384,66.5469054 202.456384,66.5469054 L202.456384,66.3388671 C202.456384,66.1326223 202.301309,66.1326223 201.374426,66.1846319 C200.449326,66.234848 199.41906,66.9611884 199.007311,67.0634141 C198.595561,67.1692267 197.205237,67.2194428 197.205237,67.2194428 C197.205237,67.2194428 197.103636,66.5971215 196.743578,66.4428862 C196.38352,66.288651 196.021679,66.7011406 196.021679,66.7011406 L195.868387,66.7011406 C195.868387,66.7011406 195.404945,66.4948958 195.096579,66.288651 C194.788212,66.0806127 193.654563,64.785754 192.729463,63.69714 C191.80258,62.6121129 186.964965,56.0858095 186.19494,55.0007825 C185.421349,53.9121685 185.988173,52.5653002 186.399923,51.9447723 C186.809891,51.3242444 187.428407,49.6653187 187.428407,49.6653187 C187.428407,49.6653187 191.082463,48.113999 193.913021,46.0927998 C196.743578,44.0751874 199.72921,40.0345824 201.322735,36.6701018 C202.919825,33.3038276 201.734485,30.1976013 200.501018,27.7119029 C199.652564,26.006348 199.732775,23.9833553 199.814768,22.1289454 C199.925281,19.6737353 199.891414,17.0302148 198.725681,14.8063577 C197.198107,11.897409 194.335465,9.93718652 191.164457,9.27540967 C188.289338,8.67460955 184.69945,8.99204723 182.321639,10.8733587 C180.004432,12.7044539 179.303923,16.1496391 181.109562,18.5905017 C181.535571,19.1661938 182.056052,19.6629747 182.603269,20.1220936 C182.961545,20.421597 183.585408,20.7784902 183.674532,21.2914121 C183.831389,22.1827484 182.594357,22.9252297 181.918802,23.2050053 C180.92062,23.6210818 179.861835,23.911618 178.835134,24.2416097 C176.10796,25.1221854 173.327312,27.1415912 173.327312,27.1415912 C173.327312,27.1415912 169.621564,27.8679316 167.717889,28.4364499 C165.812432,29.0049683 163.91054,30.9221484 163.91054,30.9221484 C163.91054,30.9221484 163.550482,30.9723645 163.136949,30.9723645 C162.726982,30.9723645 160.819743,31.1283932 160.101409,31.1283932 C159.381292,31.1283932 158.454409,31.2324123 158.402718,31.6466954 C158.352809,32.0609784 159.74135,32.4232519 159.74135,32.4232519 C160.409775,33.1998085 158.402718,32.837535 156.960702,32.837535 C155.522251,32.837535 152.433237,32.9917703 147.699005,33.6661011 C142.964773,34.3386386 141.009407,35.375243 140.237599,36.4100539 C139.464008,37.4466583 140.752732,37.548884 141.626141,37.1866105 C142.499549,36.824337 144.09664,36.4100539 145.023522,36.4100539 C145.950405,36.4100539 148.625888,36.7741209 151.249679,36.7203179 C153.875252,36.6701018 161.593333,37.1866105 161.593333,37.1866105 C161.593333,37.1866105 163.497008,41.1214029 165.557539,43.5030822 C167.614506,45.8865549 171.011888,48.6305077 171.680313,49.2528291 C172.348738,49.8733569 171.578712,51.6865179 170.908505,53.1356119 C170.24008,54.584706 170.908505,55.9315743 171.525238,56.448083 C172.143754,56.9663852 173.430695,60.5927072 174.150812,62.7143386 C174.870928,64.8377635 175.694428,67.3234619 175.797811,67.7879611 C175.901194,68.2542538 175.694428,68.5143016 175.489444,68.5143016 C175.28446,68.5143016 174.665944,68.3080568 174.407487,67.9977928 C174.150812,67.6857355 173.637461,67.6337259 173.637461,67.6337259 C173.637461,67.6337259 173.58577,67.1692267 172.297046,67.4256876 C171.011888,67.6857355 170.856813,69.2388486 170.856813,69.2388486 C170.856813,69.2388486 171.270345,68.6703303 171.783696,68.2542538 C172.298829,67.8417641 172.915562,68.048009 172.915562,68.048009 C172.915562,68.048009 172.915562,68.5143016 173.018945,69.0828199 C173.122328,69.6549251 173.739062,69.3948773 174.304104,69.3428677 C174.870928,69.2908582 174.870928,69.6011221 175.437753,69.8073669 C176.002795,70.0171986 176.468018,69.8611699 177.186352,70.2736596 C177.908252,70.6897361 178.524985,70.4816978 178.524985,70.4816978 L178.68006,71 L179.090027,70.2736596 C179.090027,70.2736596 179.451868,70.4296882 180.482134,70.4816978 C181.510617,70.5337074 182.075659,70.2736596 182.694175,69.9633956 C183.312691,69.6531317 184.031025,70.0171986 184.649541,69.9633956 C185.266274,69.911386 185.164674,69.4450934 185.164674,69.4450934 C185.164674,69.4450934 185.471258,69.2388486 185.988173,69.4450934 C186.503306,69.6531317 187.068348,70.6359331 187.068348,70.6359331 C187.068348,70.6359331 187.068348,70.3274626 186.604907,69.5491125 C186.141466,68.772556 184.752924,68.6165273 184.752924,68.6165273 C184.752924,68.6165273 183.465983,67.7359516 182.5391,67.9977928 C181.612217,68.2542538 180.37875,69.186839 180.37875,69.186839 C180.37875,69.186839 178.421602,68.7205464 178.115018,68.2542538 C177.804868,67.7879611 176.776385,66.6509245 176.362853,65.6143201 C175.952885,64.5777157 173.482387,56.8103565 173.482387,56.8103565 L173.68737,56.2938478 C173.892354,55.7755456 173.995737,54.1722163 174.254195,52.5653002 C174.51087,50.9619709 175.28446,50.1334048 175.28446,50.1334048 C175.28446,50.1334048 176.776385,50.3898657 178.68006,50.3898657 C180.583734,50.3898657 183.569366,49.7173283 183.569366,49.7173283 C183.569366,49.7173283 182.795775,52.3590554 182.795775,53.1356119 C182.795775,53.9121685 184.237791,54.9469795 185.833099,56.501886 C187.428407,58.0549992 191.905963,65.0960179 192.31593,65.7165458 C192.729463,66.3388671 192.162638,66.9611884 191.700979,67.0634141 C191.237538,67.1692267 189.795522,66.8051598 189.487156,66.4948958 C189.178789,66.1846319 188.767039,66.1846319 188.767039,66.1846319 C188.767039,66.1846319 187.840156,65.2502532 186.656598,65.6663297 C185.471258,66.0806127 185.266274,67.7359516 185.266274,67.7359516 C185.266274,67.7359516 185.524732,67.3234619 186.089774,66.7011406 C186.656598,66.0806127 187.943539,66.6509245 187.943539,66.6509245 C187.943539,66.6509245 187.943539,66.8571693 188.200215,67.4794906 C188.45689,68.1000185 189.280389,67.6857355 189.795522,67.7359516 C190.308873,67.7879611 190.414038,67.9977928 191.339139,68.1000185 C192.266021,68.2040376 193.757946,68.2040376 193.757946,68.2040376 C193.757946,68.2040376 194.478063,68.6165273 194.993195,68.5663112 C195.506546,68.5143016 195.66162,68.3080568 195.97177,68.3080568 L196.691886,68.3080568 L196.795269,68.8765751 L197.053727,68.2542538 C197.053727,68.2542538 198.390577,68.5143016 198.698944,68.5143016 C199.520661,68.516095 200.449326,67.9439898 201.014368,67.7359516 C201.581193,67.5297068 201.734485,68.1000185 202.197926,67.9439898 C202.661367,67.7879611 202.456384,67.3234619 202.456384,67.3234619 C202.456384,67.3234619 203.021426,67.4256876 203.329792,67.7879611 C203.638159,68.1520281 204,68.7205464 204,68.7205464" id="Fill-5" fill="#16254F"></path>
                <path d="M180.614857,16.4504822 L180.993394,17.7651944 C181.029711,17.8953509 180.910982,18.0176192 180.76711,17.9978985 L178.898171,17.7402149 L177.167516,17.5035667 C176.997104,17.4799019 176.939835,17.2800656 177.075326,17.1788328 L178.440015,16.1520425 L179.916449,15.0424254 C180.029591,14.9569691 180.198606,15.0069282 180.23632,15.13577 L180.614857,16.4504822 Z" id="Fill-7" fill="#16254F"></path>
                <path d="M247.665067,43.922911 C247.232492,46.8365225 246.374492,49.68055 245.042805,52.3497251 C241.16393,60.123519 233.141632,64.3092708 224.472258,62.6338996 C213.886684,60.5891973 208.547423,53.5201655 209.030048,42.4580763 C209.50731,31.4388081 214.835847,19.1206365 224.475833,13.0543296 C229.643495,9.80350272 234.310656,10.406565 238.450506,14.893848 C245.393155,22.4232054 249.191592,33.6155418 247.665067,43.922911" id="Fill-9" fill="#FFFFFF"></path>
                <path d="M247.665067,43.922911 C247.232492,46.8365225 246.374492,49.68055 245.042805,52.3497251 C241.16393,60.123519 233.141632,64.3092708 224.472258,62.6338996 C213.886684,60.5891973 208.547423,53.5201655 209.030048,42.4580763 C209.50731,31.4388081 214.835847,19.1206365 224.475833,13.0543296 C229.643495,9.80350272 234.310656,10.406565 238.450506,14.893848 C245.393155,22.4232054 249.191592,33.6155418 247.665067,43.922911 Z" id="Stroke-11" stroke="#16254F" stroke-width="2"></path>
                <path d="M117.001614,36.008351 C117.424069,38.4440481 115.361704,40.8352006 112.744977,41.291337 C109.958913,41.7742001 107.345751,40.1955406 106.923296,37.7598435 C106.197814,33.6029442 110.522186,32.7352159 109.95713,29.4816805 L109.115785,24.637013 C108.525774,21.4387129 104.297657,22.2422969 103.531177,17.8412934 C103.108722,15.4055963 105.171087,13.0162255 107.786031,12.5618709 C110.577444,12.0754442 113.18704,13.6558855 113.611278,16.0880191 C114.334977,20.2467002 109.948217,21.1678819 110.513273,24.4267627 L111.349271,29.2286673 C111.928587,32.4412218 116.235134,31.6002203 117.001614,36.008351 M124.545201,24.0401158 C128.828576,17.1838155 130.179719,12.4941631 128.092399,7.58178792 C120.673587,-9.87968367 84.2426238,6.87263836 86.0661327,17.3637756 C86.9163905,22.2529876 91.21759,24.7742103 92.3797873,31.4648048 C93.9947424,40.7407661 91.0928142,44.7337414 91.7969061,48.7890791 C92.2247088,51.2461576 94.0179151,52.1495215 95.9572872,52.9335059 C114.693262,59.7292256 136.760751,48.5307206 136.997825,37.2395629 C137.119035,31.4060059 132.165437,26.9640214 124.545201,24.0401158" id="Fill-13" fill="#FFC304"></path>
                <path d="M117.001614,36.008351 C117.424069,38.4440481 115.361704,40.8352006 112.744977,41.291337 C109.958913,41.7742001 107.345751,40.1955406 106.923296,37.7598435 C106.197814,33.6029442 110.522186,32.7352159 109.95713,29.4816805 L109.115785,24.637013 C108.525774,21.4387129 104.297657,22.2422969 103.531177,17.8412934 C103.108722,15.4055963 105.171087,13.0162255 107.786031,12.5618709 C110.577444,12.0754442 113.18704,13.6558855 113.611278,16.0880191 C114.334977,20.2467002 109.948217,21.1678819 110.513273,24.4267627 L111.349271,29.2286673 C111.928587,32.4412218 116.235134,31.6002203 117.001614,36.008351 Z M124.545201,24.0401158 C128.828576,17.1838155 130.179719,12.4941631 128.092399,7.58178792 C120.673587,-9.87968367 84.2426238,6.87263836 86.0661327,17.3637756 C86.9163905,22.2529876 91.21759,24.7742103 92.3797873,31.4648048 C93.9947424,40.7407661 91.0928142,44.7337414 91.7969061,48.7890791 C92.2247088,51.2461576 94.0179151,52.1495215 95.9572872,52.9335059 C114.693262,59.7292256 136.760751,48.5307206 136.997825,37.2395629 C137.119035,31.4060059 132.165437,26.9640214 124.545201,24.0401158 Z" id="Stroke-15" stroke="#16254F" stroke-width="2"></path>
                <path d="M57.4029237,83.4071982 C55.4162297,84.1045537 53.4330833,84.6936683 51.4588061,85.1638952 C46.8202303,86.2693722 42.1319871,86.7608925 37.4685776,86.6420049 C38.1976233,86.320831 38.9585981,86.0049805 39.7710141,85.6944532 C40.6171329,85.3715049 41.5359789,85.0077444 42.4867539,84.6297884 C44.792738,83.715951 47.3949525,82.6832261 49.5519346,82.0444272 C50.8273212,82.2449391 51.7727747,82.4312554 52.7714432,82.6282184 C53.7452781,82.8216326 54.761685,83.0221444 56.203812,83.2563707 C56.4840778,83.2918595 56.9133456,83.3450928 57.4029237,83.4071982 L57.4029237,83.4071982 Z M296.897118,84.2252157 C296.544125,82.3496311 292.673619,81.3293273 271.004463,77.3953907 C270.261227,77.2605331 269.514443,77.1256756 268.767658,76.9890436 C268.173424,76.4088012 267.580964,75.8267845 266.981408,75.2376699 C266.067883,74.3380281 265.131299,73.417093 264.162785,72.4713157 C265.851475,71.5361851 267.419545,70.5797612 268.824421,69.6268861 C282.477621,60.7032202 288.029722,51.5240347 287.937482,49.3769606 C287.91797,48.9138314 287.712205,48.5234542 287.369855,48.2856791 C286.19203,47.3860373 284.911321,48.3921456 281.578287,50.9970256 C278.15124,53.6764321 272.416435,58.1586712 264.200036,62.4315261 C262.073209,63.5831386 259.651926,64.7045856 257.014235,65.7727993 C255.055922,64.0995011 252.966345,62.5184738 250.80759,61.0616574 C253.27854,59.6296831 255.59162,58.133829 257.668779,56.7852535 C259.064787,55.8767395 260.395162,55.0125865 261.665227,54.2353812 C266.631962,51.2046352 270.777412,49.0238467 273.803573,47.4339472 C278.449244,44.9905414 279.554343,44.4085246 279.275851,43.1060846 C279.036383,41.9935098 277.737937,41.910111 277.182727,41.8763967 C274.012886,41.6670126 264.980523,43.8673199 254.678095,49.0735311 C255.639513,47.6628501 256.162794,46.4828466 256.198271,45.7198368 C256.233748,44.9816692 255.870112,44.5859687 255.648382,44.4173968 C254.211577,43.3119198 251.845282,44.8379394 249.127769,46.7827272 C248.797836,47.0187279 248.538856,47.2085931 248.38808,47.2990897 C244.906044,49.4000283 241.058598,51.075101 237.223569,52.5620829 C238.626672,50.8320025 239.92157,49.02917 241.008931,47.10745 C242.635536,44.2488248 243.015137,42.6748953 242.312699,41.6758848 C242.078553,41.3405153 241.507378,40.8064085 240.391636,41.0033715 C236.868802,41.6102304 233.945524,44.1441328 231.369917,46.379929 C230.656836,46.9956602 229.957945,47.6025191 229.269697,48.1490471 C228.47502,48.7771994 227.664378,49.4177727 226.84664,50.0565716 L226.023581,49.9607518 C219.373478,49.1835464 217.493214,48.9670646 208.350873,49.3609906 C204.382807,46.379929 200.879485,42.7973318 197.090575,38.4464014 C196.978824,38.3168672 196.859977,38.1678141 196.735809,38.0116632 C196.279933,37.4367442 195.71408,36.7198699 194.92295,36.3099739 C194.692352,36.1680186 193.984592,35.7386038 193.207653,36.2035074 C191.941135,36.957645 192.356212,38.9006584 192.604549,40.0593686 L192.643574,40.2474594 C193.069294,42.4335713 193.929603,44.7226007 195.126941,46.8643515 C196.045787,48.5128076 197.033813,50.0388272 198.121173,51.4832225 C194.944236,52.2249391 191.210316,53.1795885 186.977948,54.2619978 L183.673295,55.1084064 C183.201455,54.9682255 182.718972,54.8244957 182.220525,54.6718938 C185.510987,49.817022 186.642693,45.5903026 186.708325,43.594056 C186.718968,43.2338443 186.749123,42.3146837 186.091031,41.8568778 C185.005444,41.033537 183.792142,41.9526976 179.934053,44.8769771 C177.670641,46.592862 174.745589,48.8091393 171.220981,51.1407553 C167.664444,49.893323 165.314114,49.2971107 163.362896,48.9493202 C171.476413,44.1246139 173.127852,42.8487906 172.769538,41.3476131 C172.647143,40.836574 172.228518,40.2084217 170.930072,40.1267974 C168.702136,40.0008121 161.372654,41.9615698 161.299927,41.9810887 C158.589509,42.7352263 156.095498,43.6756803 153.65825,44.7137285 C142.034316,38.6061011 129.172246,37.6443539 127.882669,39.9209622 C127.236993,41.3777786 128.654287,42.0077053 132.441422,43.6898758 C135.16071,44.9000448 138.926559,46.5751176 141.796623,48.5873341 C133.95805,49.4248705 125.942095,49.8879997 118.807734,49.9270374 C119.084452,49.4940737 119.361171,49.0575611 119.616603,48.6050785 C121.244982,45.744679 121.624583,44.1725239 120.923918,43.1735133 C120.689772,42.8381439 120.127467,42.3022626 119.001082,42.4992256 C115.501308,43.1043101 112.599315,45.5832048 110.037899,47.7675422 C109.49688,48.2306714 108.966504,48.683154 108.443222,49.1072455 C108.221493,49.2864641 108.001538,49.4674571 107.781582,49.6484501 C105.881806,49.226133 103.730146,48.8055904 101.450769,48.3602056 C95.0880265,47.1198711 87.8773914,45.712739 84.49469,43.9045832 C79.6006821,41.5978094 75.9146551,39.0656814 73.4738595,37.3888343 C70.6179868,35.429851 69.1669907,34.4308404 67.9838434,35.33758 C67.7301851,35.5167986 67.3913829,35.8858824 67.3736445,36.5814634 C67.3186557,38.6717554 70.990492,45.0952334 80.0565574,51.1478531 C80.413098,51.4015982 80.7802817,51.6517945 81.1581083,51.8966674 C79.3292855,51.6908322 77.5465823,51.5062903 75.7904867,51.3270717 C68.6738648,50.5924529 62.5310778,49.9572029 57.6015932,48.2555136 C51.1945048,46.42429 46.7599199,43.7182669 44.1115858,42.0999763 C41.844626,40.7141375 40.5692393,39.9369322 39.5173558,40.7070398 C39.109374,40.9643338 38.8699064,41.4292374 38.8699064,41.986412 C38.8681326,44.2647948 42.9710105,50.3901666 52.3368539,55.0977597 C49.4472784,54.7339992 46.6534899,54.5086452 44.1364195,54.4607353 C42.5080399,53.2239496 40.947066,52.1113748 39.4393071,51.135432 C34.1798894,47.7338278 27.998078,44.8450372 20.5373323,42.3093604 L20.2322328,42.2028939 C9.80031525,38.5475445 8.41140325,39.3087799 7.82603803,40.4958812 C7.01007441,42.1478862 8.70231202,43.0120392 14.311175,45.8742132 C18.0238095,47.7675422 23.4943135,50.5676108 29.6885418,54.4216975 C22.3714766,53.9461472 18.5825672,54.3897576 17.0109503,55.8377018 C16.4131683,56.3895531 16.1027474,57.104653 16.1133904,57.8303995 C16.0406632,59.283667 17.3515265,59.3777124 21.2433182,59.649202 C25.8960847,59.9774736 33.9758985,60.5523927 38.9887533,63.40392 C37.9457389,63.3826267 36.9275582,63.3631079 35.9554972,63.343589 C21.5093933,63.057904 17.1439879,62.9691819 17.0340102,65.6574606 C16.9666045,66.8463364 16.8885558,68.4681759 35.8260073,71.113868 C34.8415294,71.3232521 33.8570516,71.5450573 32.8778952,71.7668625 C30.0752376,72.4056614 27.4269034,73.0089715 25.3000765,73.1544757 C16.5213722,73.6282515 8.98789929,75.8817921 4.62958922,79.3366296 C0.861965856,82.3407589 -0.188143856,85.2561662 0.0264900548,86.4823052 C0.108086418,86.9454344 0.377709182,87.3145182 0.755535818,87.5008346 C1.69921549,87.9994526 2.59145398,87.3624282 3.71251705,86.5586062 C4.65619672,85.8843185 5.94754786,84.9616089 7.81007353,84.0974559 C11.8278075,82.2271947 18.2845631,81.3062596 25.5324488,81.5777491 C27.2761275,81.6185613 29.1705822,81.7268022 31.2690278,81.9024719 C29.1688084,83.5207625 27.5209166,85.2171285 26.4335564,86.8904267 C24.4220287,89.9406916 24.1293461,92.5757371 24.7306758,93.8391394 C24.9648219,94.3253363 25.358613,94.6447358 25.8198099,94.7210368 C25.9262399,94.7423301 26.0273484,94.7529767 26.1249093,94.7529767 C26.9586113,94.7529767 27.570584,94.0378768 28.2606054,93.2251826 C28.7448621,92.6609103 29.3834423,91.9245171 30.252621,91.1295673 C34.9390903,93.2571226 39.7976216,94.6074725 44.7164632,95.1273838 C46.2987231,95.2959558 47.8969475,95.3793545 49.5040411,95.3793545 C53.8588035,95.3793545 58.2880669,94.7636234 62.7261995,93.5392588 C67.5120036,92.2190743 72.3457011,90.1731434 77.1261837,87.4617969 C80.8459135,88.3259499 88.2906947,88.4767774 93.6707332,88.5122662 C94.655211,88.519364 95.5580925,88.5229129 96.3900206,88.5229129 C103.10753,88.5229129 105.223714,88.3188521 108.25697,88.0242948 C108.821049,87.9692871 109.422379,87.9107306 110.08934,87.852174 C109.0481,89.9779548 108.604641,91.8908027 109.097767,93.1453328 C109.362068,93.8249438 110.044995,94.7920144 111.770935,94.7920144 C112.237453,94.7920144 112.778473,94.7228112 113.404636,94.5577881 L113.681354,94.4477728 C115.552749,93.3831079 118.351859,91.3194325 121.315936,89.1333207 C123.419703,87.5842333 125.557173,86.0120782 127.371805,84.7877137 C131.54741,88.8636056 135.511929,91.7683662 137.562481,93.1666261 C145.397506,98.5130181 152.792619,100 156.430753,100 C157.10481,100 157.652925,99.9467668 158.046716,99.8598191 C158.286183,99.8083603 159.013455,99.6468862 159.373544,99.0453505 C159.671548,98.544958 159.737179,97.9771368 159.563344,97.4004433 C158.947823,95.3598357 155.075544,93.3706868 150.45648,91.1703795 C149.445395,90.6895058 148.400607,90.1908878 148.118567,89.9921504 C147.52788,89.5769311 146.977992,89.1847795 146.444068,88.8015002 C147.91635,88.9682977 149.518122,89.0996063 151.166014,89.2326894 C152.805036,89.3639981 154.488405,89.504179 155.967782,89.6780742 C163.882629,94.8470221 172.609893,97.9966556 182.562875,99.2387646 C182.727842,99.2600579 183.001012,99.2937723 183.311433,99.2937723 C184.001454,99.2937723 184.879502,99.1252004 185.223626,98.2787918 C185.699014,97.1005627 184.748239,95.8424837 181.518087,93.4168223 C179.882612,92.18536 178.060884,91.4223501 176.299467,90.6824081 C175.423193,90.3150987 174.518538,89.9353682 173.668872,89.5077278 C173.64049,89.4953068 173.615656,89.4793368 173.587275,89.4651413 C173.814326,89.4686901 174.053793,89.4846601 174.277297,89.4846601 C180.870637,89.4846601 186.186818,88.1023702 190.644463,86.6562005 C191.201447,86.4752075 191.730049,86.2675978 192.272842,86.0777326 C197.420508,86.8159002 202.573496,87.080292 207.698102,87.080292 C213.96151,87.080292 220.18412,86.6916893 226.289656,86.30841 C232.297632,85.9322284 238.518468,85.5826634 244.639969,85.5418513 C246.617794,86.9897955 248.524665,88.3543409 250.33575,89.5875777 C258.082083,94.8736387 265.601365,98.5946424 268.434178,98.5946424 C268.615109,98.5946424 268.780075,98.5786724 268.921982,98.544958 C269.487835,98.4207471 269.784065,98.0977988 269.918877,97.8724447 C270.928188,96.2559286 268.964554,94.5435926 262.456357,88.8778011 C261.314008,87.8823395 260.051038,86.7804114 258.706472,85.5950845 C260.835073,85.7547842 262.981412,85.9162584 265.14549,86.0670859 L265.086953,86.1451613 C266.456353,87.1920818 266.990277,87.5363234 268.274533,88.3419198 C275.447917,93.5250632 282.112211,95.4645277 285.315756,95.4645277 C285.975622,95.4645277 286.490034,95.3829034 286.832384,95.228527 C287.350343,94.9960752 287.687372,94.5808559 287.767194,94.0804634 C288.010209,92.8277078 286.819967,92.0398558 284.004892,90.1784667 C282.688708,89.307216 281.044363,88.2159345 279.252791,86.8762312 C280.959219,86.9507578 282.674517,87.0057654 284.389814,87.0057654 C286.353448,87.0057654 288.318857,86.9383367 290.261205,86.762667 C290.488255,86.7395992 290.789807,86.7271781 291.135705,86.7129826 C293.471844,86.6118394 295.651886,86.4201998 296.600887,85.275685 L297,84.7859392 L296.897118,84.2252157 Z" id="Fill-17" fill="#FFFFFF"></path>
                <path d="M57.4029237,83.4071982 C55.4162297,84.1045537 53.4330833,84.6936683 51.4588061,85.1638952 C46.8202303,86.2693722 42.1319871,86.7608925 37.4685776,86.6420049 C38.1976233,86.320831 38.9585981,86.0049805 39.7710141,85.6944532 C40.6171329,85.3715049 41.5359789,85.0077444 42.4867539,84.6297884 C44.792738,83.715951 47.3949525,82.6832261 49.5519346,82.0444272 C50.8273212,82.2449391 51.7727747,82.4312554 52.7714432,82.6282184 C53.7452781,82.8216326 54.761685,83.0221444 56.203812,83.2563707 C56.4840778,83.2918595 56.9133456,83.3450928 57.4029237,83.4071982 Z M296.897118,84.2252157 C296.544125,82.3496311 292.673619,81.3293273 271.004463,77.3953907 C270.261227,77.2605331 269.514443,77.1256756 268.767658,76.9890436 C268.173424,76.4088012 267.580964,75.8267845 266.981408,75.2376699 C266.067883,74.3380281 265.131299,73.417093 264.162785,72.4713157 C265.851475,71.5361851 267.419545,70.5797612 268.824421,69.6268861 C282.477621,60.7032202 288.029722,51.5240347 287.937482,49.3769606 C287.91797,48.9138314 287.712205,48.5234542 287.369855,48.2856791 C286.19203,47.3860373 284.911321,48.3921456 281.578287,50.9970256 C278.15124,53.6764321 272.416435,58.1586712 264.200036,62.4315261 C262.073209,63.5831386 259.651926,64.7045856 257.014235,65.7727993 C255.055922,64.0995011 252.966345,62.5184738 250.80759,61.0616574 C253.27854,59.6296831 255.59162,58.133829 257.668779,56.7852535 C259.064787,55.8767395 260.395162,55.0125865 261.665227,54.2353812 C266.631962,51.2046352 270.777412,49.0238467 273.803573,47.4339472 C278.449244,44.9905414 279.554343,44.4085246 279.275851,43.1060846 C279.036383,41.9935098 277.737937,41.910111 277.182727,41.8763967 C274.012886,41.6670126 264.980523,43.8673199 254.678095,49.0735311 C255.639513,47.6628501 256.162794,46.4828466 256.198271,45.7198368 C256.233748,44.9816692 255.870112,44.5859687 255.648382,44.4173968 C254.211577,43.3119198 251.845282,44.8379394 249.127769,46.7827272 C248.797836,47.0187279 248.538856,47.2085931 248.38808,47.2990897 C244.906044,49.4000283 241.058598,51.075101 237.223569,52.5620829 C238.626672,50.8320025 239.92157,49.02917 241.008931,47.10745 C242.635536,44.2488248 243.015137,42.6748953 242.312699,41.6758848 C242.078553,41.3405153 241.507378,40.8064085 240.391636,41.0033715 C236.868802,41.6102304 233.945524,44.1441328 231.369917,46.379929 C230.656836,46.9956602 229.957945,47.6025191 229.269697,48.1490471 C228.47502,48.7771994 227.664378,49.4177727 226.84664,50.0565716 L226.023581,49.9607518 C219.373478,49.1835464 217.493214,48.9670646 208.350873,49.3609906 C204.382807,46.379929 200.879485,42.7973318 197.090575,38.4464014 C196.978824,38.3168672 196.859977,38.1678141 196.735809,38.0116632 C196.279933,37.4367442 195.71408,36.7198699 194.92295,36.3099739 C194.692352,36.1680186 193.984592,35.7386038 193.207653,36.2035074 C191.941135,36.957645 192.356212,38.9006584 192.604549,40.0593686 L192.643574,40.2474594 C193.069294,42.4335713 193.929603,44.7226007 195.126941,46.8643515 C196.045787,48.5128076 197.033813,50.0388272 198.121173,51.4832225 C194.944236,52.2249391 191.210316,53.1795885 186.977948,54.2619978 L183.673295,55.1084064 C183.201455,54.9682255 182.718972,54.8244957 182.220525,54.6718938 C185.510987,49.817022 186.642693,45.5903026 186.708325,43.594056 C186.718968,43.2338443 186.749123,42.3146837 186.091031,41.8568778 C185.005444,41.033537 183.792142,41.9526976 179.934053,44.8769771 C177.670641,46.592862 174.745589,48.8091393 171.220981,51.1407553 C167.664444,49.893323 165.314114,49.2971107 163.362896,48.9493202 C171.476413,44.1246139 173.127852,42.8487906 172.769538,41.3476131 C172.647143,40.836574 172.228518,40.2084217 170.930072,40.1267974 C168.702136,40.0008121 161.372654,41.9615698 161.299927,41.9810887 C158.589509,42.7352263 156.095498,43.6756803 153.65825,44.7137285 C142.034316,38.6061011 129.172246,37.6443539 127.882669,39.9209622 C127.236993,41.3777786 128.654287,42.0077053 132.441422,43.6898758 C135.16071,44.9000448 138.926559,46.5751176 141.796623,48.5873341 C133.95805,49.4248705 125.942095,49.8879997 118.807734,49.9270374 C119.084452,49.4940737 119.361171,49.0575611 119.616603,48.6050785 C121.244982,45.744679 121.624583,44.1725239 120.923918,43.1735133 C120.689772,42.8381439 120.127467,42.3022626 119.001082,42.4992256 C115.501308,43.1043101 112.599315,45.5832048 110.037899,47.7675422 C109.49688,48.2306714 108.966504,48.683154 108.443222,49.1072455 C108.221493,49.2864641 108.001538,49.4674571 107.781582,49.6484501 C105.881806,49.226133 103.730146,48.8055904 101.450769,48.3602056 C95.0880265,47.1198711 87.8773914,45.712739 84.49469,43.9045832 C79.6006821,41.5978094 75.9146551,39.0656814 73.4738595,37.3888343 C70.6179868,35.429851 69.1669907,34.4308404 67.9838434,35.33758 C67.7301851,35.5167986 67.3913829,35.8858824 67.3736445,36.5814634 C67.3186557,38.6717554 70.990492,45.0952334 80.0565574,51.1478531 C80.413098,51.4015982 80.7802817,51.6517945 81.1581083,51.8966674 C79.3292855,51.6908322 77.5465823,51.5062903 75.7904867,51.3270717 C68.6738648,50.5924529 62.5310778,49.9572029 57.6015932,48.2555136 C51.1945048,46.42429 46.7599199,43.7182669 44.1115858,42.0999763 C41.844626,40.7141375 40.5692393,39.9369322 39.5173558,40.7070398 C39.109374,40.9643338 38.8699064,41.4292374 38.8699064,41.986412 C38.8681326,44.2647948 42.9710105,50.3901666 52.3368539,55.0977597 C49.4472784,54.7339992 46.6534899,54.5086452 44.1364195,54.4607353 C42.5080399,53.2239496 40.947066,52.1113748 39.4393071,51.135432 C34.1798894,47.7338278 27.998078,44.8450372 20.5373323,42.3093604 L20.2322328,42.2028939 C9.80031525,38.5475445 8.41140325,39.3087799 7.82603803,40.4958812 C7.01007441,42.1478862 8.70231202,43.0120392 14.311175,45.8742132 C18.0238095,47.7675422 23.4943135,50.5676108 29.6885418,54.4216975 C22.3714766,53.9461472 18.5825672,54.3897576 17.0109503,55.8377018 C16.4131683,56.3895531 16.1027474,57.104653 16.1133904,57.8303995 C16.0406632,59.283667 17.3515265,59.3777124 21.2433182,59.649202 C25.8960847,59.9774736 33.9758985,60.5523927 38.9887533,63.40392 C37.9457389,63.3826267 36.9275582,63.3631079 35.9554972,63.343589 C21.5093933,63.057904 17.1439879,62.9691819 17.0340102,65.6574606 C16.9666045,66.8463364 16.8885558,68.4681759 35.8260073,71.113868 C34.8415294,71.3232521 33.8570516,71.5450573 32.8778952,71.7668625 C30.0752376,72.4056614 27.4269034,73.0089715 25.3000765,73.1544757 C16.5213722,73.6282515 8.98789929,75.8817921 4.62958922,79.3366296 C0.861965856,82.3407589 -0.188143856,85.2561662 0.0264900548,86.4823052 C0.108086418,86.9454344 0.377709182,87.3145182 0.755535818,87.5008346 C1.69921549,87.9994526 2.59145398,87.3624282 3.71251705,86.5586062 C4.65619672,85.8843185 5.94754786,84.9616089 7.81007353,84.0974559 C11.8278075,82.2271947 18.2845631,81.3062596 25.5324488,81.5777491 C27.2761275,81.6185613 29.1705822,81.7268022 31.2690278,81.9024719 C29.1688084,83.5207625 27.5209166,85.2171285 26.4335564,86.8904267 C24.4220287,89.9406916 24.1293461,92.5757371 24.7306758,93.8391394 C24.9648219,94.3253363 25.358613,94.6447358 25.8198099,94.7210368 C25.9262399,94.7423301 26.0273484,94.7529767 26.1249093,94.7529767 C26.9586113,94.7529767 27.570584,94.0378768 28.2606054,93.2251826 C28.7448621,92.6609103 29.3834423,91.9245171 30.252621,91.1295673 C34.9390903,93.2571226 39.7976216,94.6074725 44.7164632,95.1273838 C46.2987231,95.2959558 47.8969475,95.3793545 49.5040411,95.3793545 C53.8588035,95.3793545 58.2880669,94.7636234 62.7261995,93.5392588 C67.5120036,92.2190743 72.3457011,90.1731434 77.1261837,87.4617969 C80.8459135,88.3259499 88.2906947,88.4767774 93.6707332,88.5122662 C94.655211,88.519364 95.5580925,88.5229129 96.3900206,88.5229129 C103.10753,88.5229129 105.223714,88.3188521 108.25697,88.0242948 C108.821049,87.9692871 109.422379,87.9107306 110.08934,87.852174 C109.0481,89.9779548 108.604641,91.8908027 109.097767,93.1453328 C109.362068,93.8249438 110.044995,94.7920144 111.770935,94.7920144 C112.237453,94.7920144 112.778473,94.7228112 113.404636,94.5577881 L113.681354,94.4477728 C115.552749,93.3831079 118.351859,91.3194325 121.315936,89.1333207 C123.419703,87.5842333 125.557173,86.0120782 127.371805,84.7877137 C131.54741,88.8636056 135.511929,91.7683662 137.562481,93.1666261 C145.397506,98.5130181 152.792619,100 156.430753,100 C157.10481,100 157.652925,99.9467668 158.046716,99.8598191 C158.286183,99.8083603 159.013455,99.6468862 159.373544,99.0453505 C159.671548,98.544958 159.737179,97.9771368 159.563344,97.4004433 C158.947823,95.3598357 155.075544,93.3706868 150.45648,91.1703795 C149.445395,90.6895058 148.400607,90.1908878 148.118567,89.9921504 C147.52788,89.5769311 146.977992,89.1847795 146.444068,88.8015002 C147.91635,88.9682977 149.518122,89.0996063 151.166014,89.2326894 C152.805036,89.3639981 154.488405,89.504179 155.967782,89.6780742 C163.882629,94.8470221 172.609893,97.9966556 182.562875,99.2387646 C182.727842,99.2600579 183.001012,99.2937723 183.311433,99.2937723 C184.001454,99.2937723 184.879502,99.1252004 185.223626,98.2787918 C185.699014,97.1005627 184.748239,95.8424837 181.518087,93.4168223 C179.882612,92.18536 178.060884,91.4223501 176.299467,90.6824081 C175.423193,90.3150987 174.518538,89.9353682 173.668872,89.5077278 C173.64049,89.4953068 173.615656,89.4793368 173.587275,89.4651413 C173.814326,89.4686901 174.053793,89.4846601 174.277297,89.4846601 C180.870637,89.4846601 186.186818,88.1023702 190.644463,86.6562005 C191.201447,86.4752075 191.730049,86.2675978 192.272842,86.0777326 C197.420508,86.8159002 202.573496,87.080292 207.698102,87.080292 C213.96151,87.080292 220.18412,86.6916893 226.289656,86.30841 C232.297632,85.9322284 238.518468,85.5826634 244.639969,85.5418513 C246.617794,86.9897955 248.524665,88.3543409 250.33575,89.5875777 C258.082083,94.8736387 265.601365,98.5946424 268.434178,98.5946424 C268.615109,98.5946424 268.780075,98.5786724 268.921982,98.544958 C269.487835,98.4207471 269.784065,98.0977988 269.918877,97.8724447 C270.928188,96.2559286 268.964554,94.5435926 262.456357,88.8778011 C261.314008,87.8823395 260.051038,86.7804114 258.706472,85.5950845 C260.835073,85.7547842 262.981412,85.9162584 265.14549,86.0670859 L265.086953,86.1451613 C266.456353,87.1920818 266.990277,87.5363234 268.274533,88.3419198 C275.447917,93.5250632 282.112211,95.4645277 285.315756,95.4645277 C285.975622,95.4645277 286.490034,95.3829034 286.832384,95.228527 C287.350343,94.9960752 287.687372,94.5808559 287.767194,94.0804634 C288.010209,92.8277078 286.819967,92.0398558 284.004892,90.1784667 C282.688708,89.307216 281.044363,88.2159345 279.252791,86.8762312 C280.959219,86.9507578 282.674517,87.0057654 284.389814,87.0057654 C286.353448,87.0057654 288.318857,86.9383367 290.261205,86.762667 C290.488255,86.7395992 290.789807,86.7271781 291.135705,86.7129826 C293.471844,86.6118394 295.651886,86.4201998 296.600887,85.275685 L297,84.7859392 L296.897118,84.2252157 Z" id="Stroke-19" stroke="#16254F" stroke-width="0.5"></path>
                <path d="M291.03637,84.4341749 C290.647901,84.4519198 290.312646,84.4661157 290.05544,84.4874096 C285.189813,84.9328065 280.111327,84.6595351 275.19958,84.3915871 L273.351245,84.2922157 C268.191162,84.0242677 262.944162,83.6285565 257.869223,83.2452667 L255.941065,83.101533 L255.939291,83.1299248 C255.923327,83.1157289 255.907362,83.1033075 255.893172,83.0873371 C255.038184,82.3207574 254.154814,81.518688 253.237742,80.6900013 C250.431537,78.1489318 247.346839,75.3558847 243.921566,72.3978101 C244.909592,72.1458325 245.910034,71.8796591 246.926441,71.5957407 C249.195174,73.1874581 251.295394,74.8359592 253.228873,76.4152552 L253.317565,76.3052368 C257.120665,77.1640899 262.348153,78.1400593 267.669655,79.1107053 C267.705132,79.1444206 267.737061,79.1763614 267.772538,79.2118512 L267.839943,79.1426461 C268.758789,79.3076737 269.679409,79.4762502 270.596481,79.6430522 C278.566317,81.087487 288.96808,82.9790932 293.120625,84.2815688 C292.317078,84.3791657 291.460317,84.4146555 291.03637,84.4341749 L291.03637,84.4341749 Z M282.747244,92.0857752 C283.288263,92.4442221 283.861212,92.8221885 284.352564,93.164665 C281.636824,92.8257375 275.969424,91.0867374 269.549919,86.4535443 C269.482514,86.4091821 269.422203,86.3736923 269.358345,86.332879 C270.653244,86.4127311 271.946369,86.5050046 273.234172,86.5724352 L275.077186,86.6718066 C275.157008,86.6753556 275.238605,86.6789046 275.318427,86.684228 C278.15124,89.0407506 280.7978,90.7957211 282.747244,92.0857752 L282.747244,92.0857752 Z M240.219575,69.2498651 C238.592969,67.8852824 236.781884,66.4497201 234.733106,64.9005904 C238.250619,66.2687221 241.46658,68.0183691 244.416466,69.9117498 C243.533096,70.1459825 242.656822,70.3660192 241.780548,70.575409 C241.259041,70.1317865 240.757046,69.698811 240.219575,69.2498651 L240.219575,69.2498651 Z M266.947705,96.0162702 C264.384515,95.2053284 258.954809,92.7086211 251.620005,87.7045597 C248.918456,85.8626392 245.988083,83.7190555 242.912254,81.431738 C242.791634,81.341239 242.676335,81.257838 242.555714,81.167339 C241.48964,80.3741421 240.407601,79.5649747 239.309598,78.7433859 C237.826672,77.6325552 236.306497,76.4951072 234.754392,75.3434633 C233.594305,74.4810612 232.43067,73.643502 231.27413,72.8219132 L231.103842,72.7030224 L231.102068,72.7030224 C228.886549,71.1325988 226.713603,69.6455763 224.771254,68.3324538 C224.137996,67.9065763 223.451522,67.4842477 222.695869,67.0494976 C222.875026,66.8791466 223.052409,66.724766 223.231567,66.550866 C224.439547,65.3850262 225.700743,64.2120883 226.977904,63.0285036 C229.358389,60.8192637 231.765482,58.5727595 234.016477,56.2038156 C239.224454,54.3015624 244.698505,52.191694 249.565906,49.2549133 C249.748611,49.1448949 250.060805,48.9230836 250.45637,48.6391653 C251.76546,47.7022346 252.780093,47.0474479 253.486079,46.678354 C252.382754,48.6959489 249.097614,52.9334307 242.665692,56.9721697 L240.955716,58.0475105 L242.757931,58.9578238 C243.204937,59.1831841 243.650169,59.4280637 244.095402,59.6676198 C245.172119,60.2602994 246.381874,60.9629974 247.392959,61.5716474 C251.405372,64.0594822 255.254591,67.0406252 258.550375,70.2595498 C260.886514,72.4510448 262.864339,74.3887877 264.762341,76.2555511 C260.746381,75.5120398 256.959246,74.7827245 254.016455,74.1208398 C248.863467,69.9454651 242.610703,65.4009966 234.972574,62.5493913 C234.637319,62.4234026 234.302064,62.3009628 233.965036,62.1802974 L233.099405,61.8662127 L232.693197,62.0312403 C232.113153,62.2672475 231.52424,62.4997056 230.924685,62.7268403 L228.948633,63.4703516 L230.653288,64.7160435 C233.826677,67.0335272 236.475011,69.090161 238.754388,71.0012866 C243.669682,75.1039072 247.9393,78.9705206 251.706923,82.3828646 C252.623995,83.2151003 253.510912,84.0171698 254.3659,84.7837494 C256.817339,86.9929893 259.041727,88.9307322 260.957468,90.6005272 C263.373429,92.7032977 265.695378,94.7279906 266.947705,96.0162702 L266.947705,96.0162702 Z M241.580105,83.2878544 C236.391641,83.3907748 231.197855,83.717281 226.145976,84.0313657 C216.530022,84.6346922 206.630254,85.2486657 196.796119,84.318833 C199.77616,83.0341024 202.633806,81.5807952 205.395666,79.8808339 C207.469278,78.6032012 209.369054,77.3912246 211.176591,76.1810225 C217.450642,76.1703756 224.09365,76.0692296 230.536215,75.0985837 C231.499407,75.7870858 232.453729,76.4773623 233.393861,77.1765113 C234.944192,78.3281552 236.46082,79.4638288 237.941972,80.5711104 C239.114476,81.4477084 240.267468,82.3101105 241.404496,83.1547677 C241.461258,83.1973554 241.523342,83.2434922 241.580105,83.2878544 L241.580105,83.2878544 Z M220.937999,68.6767049 C221.911834,69.2143753 222.741988,69.7165559 223.495868,70.22406 C224.835112,71.1308243 226.287882,72.1227642 227.783225,73.1590663 C223.366378,73.6772173 218.867935,73.8315979 214.490113,73.8777347 C216.705631,72.2682723 218.81472,70.578958 220.937999,68.6767049 L220.937999,68.6767049 Z M189.942024,84.4856351 C184.576177,86.2264096 177.917204,87.8607148 169.218322,86.9166862 C166.701252,85.2717341 164.283516,83.4227157 161.918995,81.6109615 L160.675538,80.6598349 C159.72831,79.9376176 158.83075,79.240243 157.95625,78.5552899 C158.1088,78.551741 158.259576,78.5499665 158.413899,78.5464175 C164.45203,78.3920369 170.687057,78.2518522 176.570864,79.2349196 L176.588602,79.3484869 C176.703901,79.3289675 176.808558,79.3094481 176.923857,79.2917032 C177.014322,79.3058992 177.106562,79.3165461 177.197027,79.3325165 L177.214766,79.2384685 C186.804112,77.591742 191.171291,75.4375113 199.974829,70.31101 C206.234689,66.6679823 212.890114,62.7428107 219.412502,58.3580463 C223.400081,55.6732431 227.167704,52.7275899 230.686991,49.9398663 C231.401846,49.3720296 232.12557,48.7456347 232.865259,48.1032693 C235.164148,46.1087427 237.537538,44.052109 240.251504,43.3689304 C240.104275,43.8498171 239.763699,44.6820529 238.979665,46.0572825 C235.742418,51.7800123 230.497191,56.647438 225.425799,61.3533852 C224.137996,62.5511658 222.864383,63.7312016 221.647533,64.9059139 C216.177029,70.1885702 211.105638,73.6825408 204.198328,77.935993 C199.749552,80.6758053 195.086143,82.8193891 189.942024,84.4856351 L189.942024,84.4856351 Z M175.414324,92.7884732 C177.1243,93.5053671 178.736715,94.1832222 180.217867,95.2958274 C181.131391,95.9843294 181.755781,96.5024805 182.179727,96.8893193 C171.781512,95.4892468 162.770436,91.9349436 154.658693,86.0241178 C151.547388,83.7598687 148.526549,81.261387 145.605044,78.8463063 C138.70483,73.1430959 131.574018,67.2446915 122.708395,63.9334934 C122.376688,63.8075047 122.03966,63.6886138 121.702631,63.566174 L120.837,63.2520893 L120.430792,63.4171169 C119.850749,63.653124 119.261836,63.8838077 118.66228,64.1109424 L116.686229,64.8562282 L118.390883,66.1001456 C119.999751,67.2766323 121.931456,69.1682385 123.799303,70.9995121 C124.62591,71.810454 125.41704,72.5805826 126.158502,73.2726336 C124.962938,73.8741857 123.85784,74.4775122 122.884005,75.0134082 C122.396201,75.2831306 121.93323,75.5368827 121.503962,75.7675664 C121.381567,75.831448 121.260947,75.9130745 121.140326,75.9805052 L119.81882,74.9921143 C117.521705,73.2673101 115.350532,71.636554 112.507076,69.7183304 C111.446323,69.003211 110.259628,68.3022875 108.767834,67.5197375 L108.274708,67.344063 L107.850762,67.4505324 C105.275155,68.0946722 102.937242,68.6784793 100.418398,69.177111 C102.525712,67.2127507 104.526597,65.2980761 106.447659,63.4082444 C109.495106,60.58858 112.416611,57.8327973 115.221042,54.7292145 C127.130563,57.784886 137.578446,63.4739006 146.286196,71.6436519 C149.851603,74.9867908 153.982862,78.4293012 159.291947,82.4751381 L160.531857,83.4244901 C164.340279,86.339977 168.27819,89.3548353 172.645369,91.5498792 C173.562441,92.0112466 174.506121,92.4051834 175.414324,92.7884732 L175.414324,92.7884732 Z M142.348285,85.7260035 C140.491081,84.2620494 138.729664,82.7714779 136.604611,80.8940676 C138.472458,80.5090033 140.719905,80.2197614 143.510146,80.1044196 L143.508372,80.0760278 C143.723006,80.2552512 143.934093,80.4273768 144.148727,80.6048257 C146.747393,82.7519585 149.427656,84.9558749 152.193064,87.0284791 C151.911024,87.0036362 151.628984,86.9823423 151.350492,86.959274 C147.85604,86.6771301 144.260478,86.3825648 142.348285,85.7260035 L142.348285,85.7260035 Z M149.473776,93.2320956 C151.181978,94.0465865 156.058248,96.3711682 157.166894,97.6984866 C154.972661,97.906102 147.33808,97.0738662 138.848511,91.2801568 C136.923901,89.9688088 133.25916,87.2857801 129.354951,83.5309595 C129.778898,83.282531 130.17801,83.0589452 130.518586,82.9010156 C131.488873,82.4502952 132.592198,81.9889278 133.936764,81.5736972 C138.752724,85.8732862 141.551834,88.1694761 146.80593,91.8621895 C147.226328,92.1567548 148.010363,92.5329466 149.473776,93.2320956 L149.473776,93.2320956 Z M128.395307,72.2221356 C127.504842,71.4307131 126.477792,70.4299008 125.395754,69.3687559 C124.251631,68.2472783 123.084448,67.1027323 121.959837,66.0912731 C125.41704,67.3901997 128.563821,69.086612 131.566922,71.017257 C130.465371,71.372155 129.404619,71.7802876 128.395307,72.2221356 L128.395307,72.2221356 Z M119.964274,87.296427 C117.127914,89.3867761 114.444103,91.3653323 112.686233,92.385664 C112.010403,92.5453681 111.323929,92.5826324 111.221046,92.3146844 C110.426369,90.2828935 116.003303,81.2915533 122.577132,77.7816124 C123.015269,77.5473797 123.487108,77.2900787 123.983782,77.0132583 C126.616152,75.5652745 130.181558,73.6115612 134.053837,72.6906009 C136.397072,74.342651 138.674675,76.1260133 140.954052,77.9803552 C136.482216,78.3565471 132.968251,79.240243 129.557168,80.8319604 C127.338102,81.8611646 123.588217,84.6240453 119.964274,87.296427 L119.964274,87.296427 Z M108.037015,85.7526209 C104.698659,86.075578 102.490236,86.2920658 93.6866977,86.2317331 C91.1731749,86.2157627 84.5833817,86.1714005 80.1523445,85.6497004 C83.4144251,83.5948412 86.6906965,81.2010543 90.1957924,78.2944399 C97.8055402,78.2749205 108.578034,77.9430909 118.048533,76.5164011 C118.181571,76.617547 118.312835,76.715144 118.447646,76.8180644 L119.095096,77.3007256 C116.161174,79.4496328 113.38335,82.4946575 111.465836,85.4438596 C110.107079,85.553878 109.016171,85.6567984 108.037015,85.7526209 L108.037015,85.7526209 Z M62.1195483,91.3404894 C56.320885,92.9410793 50.5452816,93.4521324 44.9559308,92.8594528 C40.6543834,92.4034089 36.3936342,91.2819313 32.2641487,89.5287353 C32.6703567,89.2430424 33.0872076,88.9644475 33.5271185,88.6911761 C39.6574887,89.2785322 45.8659076,88.8455567 51.9891825,87.3851515 C57.7168924,86.0223433 63.5191033,83.7297024 69.2343963,80.5711104 C72.7501353,78.6298185 76.001573,76.2945899 79.1483544,74.0374387 C79.4055604,73.8511173 79.6698616,73.6701193 79.9270675,73.4837979 C79.9394844,73.4820234 79.9501274,73.4820234 79.9501274,73.4820234 L79.9607704,73.458955 C80.8813902,72.7988448 81.80201,72.1387346 82.7350467,71.4910458 C88.2924686,67.6404028 94.0503336,63.4153424 100.336801,58.5763085 C102.641012,56.8053676 104.920388,54.9368298 107.12349,53.1303991 C108.040562,52.3797899 108.959408,51.6291807 109.880028,50.8821205 C110.4175,50.445596 110.963841,49.9789051 111.520824,49.5051163 C113.805523,47.554952 116.161174,45.5426805 118.862723,44.8683743 C118.715495,45.3474866 118.373145,46.1779478 117.590884,47.554952 C115.146541,51.8740603 111.426811,55.4407849 107.833024,58.8886187 C106.995774,59.6924627 106.162072,60.4909831 105.344335,61.2966015 C105.191785,61.4474331 105.030366,61.6018138 104.876042,61.7544199 C104.409524,62.1856209 103.950101,62.613273 103.478261,63.048023 C101.044561,65.2945272 98.5274906,67.6137854 96.0423492,70.1122672 C95.0472283,71.020806 94.0308215,71.9399917 92.9842594,72.8786969 C87.6219593,77.678692 82.9550021,81.2525145 78.2933665,84.1254136 C72.9292925,87.4312883 67.4889437,89.8587904 62.1195483,91.3404894 L62.1195483,91.3404894 Z M57.4029237,83.4085197 C55.4162297,84.1041198 53.4330833,84.6932504 51.4588061,85.1652647 C46.8202303,86.2707719 42.1319871,86.7623056 37.4685776,86.6434148 C38.1976233,86.3204576 38.9585981,86.0063729 39.7710141,85.6958372 C40.6171329,85.37288 41.5359789,85.0091096 42.4867539,84.6311433 C44.792738,83.717281 47.3949525,82.6845279 49.5519346,82.0457115 C50.8273212,82.2462289 51.7727747,82.4325503 52.7714432,82.6277442 C53.7470519,82.8229381 54.761685,83.0234554 56.203812,83.2576881 C56.4840778,83.2914034 56.9133456,83.3464126 57.4029237,83.4085197 L57.4029237,83.4085197 Z M26.8734672,91.3404894 C27.0614936,90.5366455 27.4801185,89.4506577 28.3422018,88.1410842 C29.6708034,86.0968719 31.9998474,83.9834545 35.0774494,82.0261921 L37.8393089,80.2676727 L34.5860974,79.9269706 C31.1501809,79.5667492 28.2091642,79.3609083 25.6016283,79.2952522 C17.9049627,79.0042359 11.2459899,79.9784308 6.84865552,82.0279666 C5.28058628,82.7555075 4.06728385,83.5309595 3.15198552,84.1626779 C3.72138622,83.3109228 4.62958922,82.2568758 6.05043023,81.1265258 C9.98656781,78.0051981 17.2291319,75.8775847 25.4419832,75.4339623 C27.7586104,75.2742582 30.4903147,74.6514122 33.3834379,73.994851 C37.5661384,73.0437244 41.897841,72.0588825 45.3603649,72.3623203 C51.107587,72.8627265 53.6672294,72.9603234 56.1417278,73.0561458 C57.3284227,73.1022826 58.51157,73.1466448 60.0211027,73.2335948 C60.1009252,73.2406928 67.1412723,73.7623928 75.8241896,73.6062377 C73.351465,75.3612082 70.8060133,77.0966593 68.1328455,78.5730348 C66.0450429,79.7264533 63.9483711,80.7592064 61.8481517,81.6677452 C61.1049153,81.5825697 59.8667791,81.4228656 58.7297516,81.2773574 C57.8038102,81.1566921 56.9435008,81.0466737 56.5213283,80.996988 C55.1590238,80.7751768 54.1674506,80.5782084 53.2149017,80.3901125 C52.1257677,80.1753992 51.0987178,79.9695584 49.6477216,79.7512961 L49.4011587,79.7140318 L49.1634649,79.7832369 C46.8521593,80.4433472 44.0849783,81.5417564 41.6441827,82.5106279 C40.7040507,82.8832707 39.7958477,83.2434922 38.9603719,83.5629004 C34.953281,85.0854127 31.9288941,86.7516586 29.4455265,88.8011944 C28.2978559,89.748772 27.4872138,90.6306935 26.8734672,91.3404894 L26.8734672,91.3404894 Z M35.9111513,65.6245823 C45.6512737,65.8197762 58.992279,66.0841752 75.1802878,65.4045455 C76.695142,65.3246935 81.9971318,64.9857659 86.5824926,63.9885026 L89.8853715,63.2680597 C88.5567698,64.2564506 87.2015607,65.2572629 85.8126487,66.2846925 L82.0467991,69.0741906 C81.7754025,69.2747079 81.161656,69.6242824 80.617089,69.9365927 C80.0210807,70.2772947 79.45168,70.6020264 79.0277337,70.8894937 C65.1865072,71.4715264 51.4623538,70.8504549 37.1013939,68.9872406 C26.3342217,67.514414 21.9918761,66.3964854 20.2606142,65.7807374 C22.7918753,65.3655068 28.9630437,65.4879466 35.9111513,65.6245823 L35.9111513,65.6245823 Z M19.0721454,57.1922064 C20.8938729,56.3564217 25.7985239,56.3014125 33.6690252,57.0271789 C35.0668064,58.0315401 36.4539445,59.1370473 37.8144752,60.3028872 C32.5745696,58.1664014 25.8854417,57.6890636 21.4029633,57.3732044 C20.604738,57.3181952 19.7479762,57.2578626 19.0721454,57.1922064 L19.0721454,57.1922064 Z M11.9803572,42.0912977 C13.4579609,42.4142548 15.7976479,43.0672671 19.4765796,44.3573212 L19.802965,44.4708886 C27.0827796,46.9445274 33.0996245,49.7517704 38.1993972,53.0540961 C40.6277759,54.6262941 43.1838706,56.5214493 46.0184573,58.846031 C47.2885224,59.8912055 48.5373016,60.9594484 49.7789853,62.0383383 C49.9776547,62.2104638 50.3625767,62.5476169 50.8060352,62.9344556 C48.4911819,62.9344556 46.2526034,62.9309067 44.120455,62.9273577 C40.4716785,59.4830729 36.5479577,55.9873278 32.5000686,53.4906206 C25.5608301,49.0508469 19.4144954,45.9153233 15.3488679,43.8409447 C14.130244,43.2180987 12.9417752,42.6129977 11.9803572,42.0912977 L11.9803572,42.0912977 Z M64.1771957,59.6587473 L64.1807434,59.6445514 C68.4858384,60.8103913 73.0108889,61.6248821 78.1550074,62.5369699 C78.5931444,62.613273 79.0348291,62.6913505 79.4818352,62.7729771 C77.4578906,62.9841414 75.8029036,63.0852873 75.072084,63.1243261 C67.7088991,63.4348618 60.9381749,63.5466546 54.8237692,63.5590761 C54.7421728,63.4632536 54.6463858,63.3567842 54.5328604,63.2378934 L54.5594679,63.2006291 L54.2384039,62.9291322 L54.2188918,62.9291322 C53.6140144,62.348874 52.6738824,61.5326086 51.2761012,60.3135341 C50.0184529,59.2222228 48.7537093,58.1415585 47.4676797,57.0821881 C47.3860833,57.0147574 47.3098084,56.9579738 47.2282121,56.8905432 C52.539071,57.2507646 58.6428337,58.2320575 64.1771957,59.6587473 L64.1771957,59.6587473 Z M41.6991716,43.3121467 C42.0876412,43.5375069 42.5151352,43.8001314 42.9213432,44.04856 C45.6707859,45.7272274 50.2703373,48.5362449 56.9168932,50.4331745 C62.0326304,52.2023409 68.3013597,52.8482552 75.5563406,53.59709 C79.1980218,53.9732818 82.9638713,54.3618951 86.9709622,54.9261829 L94.9833703,56.0583074 L87.5971256,52.7542073 C85.1581039,51.662896 83.1235164,50.5307715 81.3514562,49.2691092 C74.3909317,44.6217202 71.118208,40.0595068 70.0592291,37.8538159 C70.680071,38.2406546 71.4587842,38.7765506 72.1825084,39.2716333 C74.6818405,40.9893394 78.4601068,43.5836436 83.4711878,45.9454896 C87.1039998,47.8885561 94.4937921,49.3312163 101.014406,50.6017511 C102.481367,50.8874439 103.89866,51.1642644 105.223714,51.4357613 C100.469839,55.3236686 95.8170723,58.8549034 90.8166343,62.5760087 L86.5576589,61.7526454 C83.7159769,61.200779 81.0623213,60.7323137 78.55412,60.2886913 C69.6157707,58.7076208 62.5559114,57.4583799 55.4144559,54.028291 C47.2246644,50.4136551 43.0880836,45.70061 41.6991716,43.3121467 L41.6991716,43.3121467 Z M94.506209,74.5804326 C95.4694008,73.7180306 96.397116,72.8733734 97.3177358,72.0358142 C101.234361,71.4431346 104.411298,70.6641335 108.088456,69.7431733 C109.326592,70.4068325 110.332356,71.0048356 111.231689,71.6099366 C112.792663,72.6639836 114.142551,73.6293061 115.435676,74.5768837 C107.776261,75.5723725 99.4960039,75.9113 92.9026631,75.9929266 C93.4330394,75.5297847 93.9616419,75.0666429 94.506209,74.5804326 L94.506209,74.5804326 Z M117.908401,52.2183113 C124.698637,52.2183113 132.342088,51.8226001 139.89862,51.0826378 C138.438755,51.7906593 136.918579,52.5483664 135.320355,53.3628573 C133.919026,54.0797512 132.523019,54.8037431 131.130559,55.5366074 C130.970914,55.6200084 130.71903,55.7761635 130.421025,55.9695829 C130.013044,56.2304329 128.975351,56.8940921 128.528345,57.005885 C124.785555,55.2952768 120.858286,53.8898808 116.767825,52.7843736 C116.916827,52.5962777 117.069377,52.4064073 117.214831,52.2147624 C117.447204,52.2165368 117.676028,52.2183113 117.908401,52.2183113 L117.908401,52.2183113 Z M132.036988,41.0088588 C135.751397,41.0372507 143.034759,42.0930721 150.949606,45.9064509 C149.814352,46.4246019 148.679099,46.9587234 147.52788,47.5017173 C146.802382,47.8424193 146.057372,48.1866704 145.315909,48.5326959 C142.147842,45.5284845 136.918579,43.1826089 133.367364,41.6033129 C132.927453,41.4098935 132.469804,41.2076017 132.036988,41.0088588 L132.036988,41.0088588 Z M161.9119,44.1798722 C163.689282,43.6847896 167.173092,42.8578773 169.301692,42.5384691 C167.2742,44.0041977 163.226311,46.3891121 159.281304,48.7136938 C156.643613,50.268147 153.656477,52.0266664 150.630316,53.8756849 C149.218344,54.7398614 147.692847,55.7655166 146.078658,56.8515044 C143.574004,58.5390442 140.73587,60.4501698 137.865807,62.0259168 L137.97401,62.2193362 C135.758492,60.7713525 133.463151,59.4440341 131.091535,58.2444789 C131.276013,58.1326861 131.460492,58.0137952 131.652066,57.8913554 C131.880891,57.7440728 132.070691,57.6198585 132.191312,57.5577513 C133.574902,56.828436 134.963814,56.1079931 136.356274,55.3981972 C139.517246,53.7869604 142.362476,52.4046328 145.055156,51.1713623 C146.225886,50.6354664 147.370009,50.0977959 148.499941,49.568998 C152.923883,47.4857469 157.103036,45.5196121 161.9119,44.1798722 L161.9119,44.1798722 Z M166.085731,54.3406012 C165.484402,53.8118032 164.907906,53.2918777 164.361565,52.7896971 C163.742497,52.2200858 163.135845,51.6646705 162.502587,51.1199021 C164.13274,51.3878501 166.023647,51.8226001 168.764221,52.7187175 C167.89859,53.2599369 167.009899,53.7993818 166.085731,54.3406012 L166.085731,54.3406012 Z M150.16025,56.8781217 C151.375326,57.8949044 152.622331,59.0110585 153.803705,60.2886913 C151.004595,61.3178954 145.143847,62.9947883 140.308376,63.8092791 C140.164695,63.7063587 140.017467,63.6069873 139.872013,63.5058414 C142.511478,61.993976 145.07112,60.2851423 147.354045,58.7448851 C148.327879,58.0883238 149.26269,57.4619289 150.16025,56.8781217 L150.16025,56.8781217 Z M159.19616,51.4144674 C160.533631,52.3815644 161.654694,53.3983471 162.816555,54.4683645 C163.192608,54.8161645 163.579304,55.169288 163.976643,55.5277349 C161.521656,56.8763472 158.878644,58.1805973 156.056474,59.374829 C154.805921,57.9374922 153.482641,56.7095452 152.187742,55.6022635 C154.612573,54.1258879 156.996606,52.7116195 159.19616,51.4144674 L159.19616,51.4144674 Z M181.314096,46.6960989 C182.408552,45.8656376 183.527841,45.0174314 184.331388,44.4673396 C183.607663,48.5202744 178.88217,60.6010015 161.124318,68.7583314 C159.26534,69.6100865 154.499048,71.7980325 150.64628,72.5184754 C149.672446,71.6613968 148.739409,70.8149651 147.84717,69.9791804 C146.224112,68.4548936 144.53897,67.0211058 142.802387,65.6653955 C147.643179,64.6787792 152.911466,63.1030322 155.181974,62.2051403 C167.059566,57.5009677 175.983725,50.7383868 181.314096,46.6960989 L181.314096,46.6960989 Z M198.353545,60.769578 L201.126048,61.287729 C201.369063,61.3320913 201.855093,61.4474331 202.440459,61.5893923 C199.935805,62.004623 197.581927,62.3098352 196.143348,62.3843638 C187.696351,62.7410362 183.588151,62.609724 178.832502,62.4588924 C177.736273,62.4251771 176.597471,62.3896873 175.378847,62.3595209 C177.555342,60.4430719 179.341593,58.5035544 180.803232,56.6208207 C187.724732,58.7856983 191.786812,59.5469545 198.353545,60.769578 L198.353545,60.769578 Z M199.717623,53.4586797 C201.888796,55.9678084 204.457308,58.2498024 207.620054,60.515826 C206.990343,60.3685433 205.956197,60.1112423 204.941564,59.8574902 C203.483473,59.4937198 202.10343,59.1494688 201.551768,59.0429994 L198.77217,58.5248483 C194.678161,57.7618177 191.572178,57.183334 188.127392,56.3244809 C192.593906,55.1834839 196.489246,54.1915441 199.717623,53.4586797 L199.717623,53.4586797 Z M196.001441,69.96321 C185.406331,70.408607 176.148691,69.8602896 165.748703,68.9978875 C168.336727,67.597815 170.619651,66.112567 172.638274,64.5865057 C174.958449,64.6219955 176.909666,64.6841027 178.759775,64.7408863 C181.287488,64.8207384 183.632497,64.8952669 186.534489,64.8952669 C189.145573,64.8952669 192.203663,64.8349343 196.251552,64.6645833 C198.837802,64.5279475 203.919836,63.7453975 208.070608,62.8439567 L208.129144,62.8297607 C204.977041,64.7444353 201.855093,66.5774833 198.827159,68.3395518 C197.82849,68.91981 196.897227,69.4574804 196.001441,69.96321 L196.001441,69.96321 Z M176.899023,76.9777685 C170.820094,75.9663092 164.489281,76.1118174 158.357137,76.262649 C157.287515,76.2892664 156.224988,76.3141092 155.166009,76.3336286 C154.34295,75.664646 153.56069,75.0116337 152.797941,74.3692684 C156.317228,73.4412102 160.017445,71.7767387 161.809018,70.9551498 C171.224528,71.7696407 179.529619,72.408457 188.421849,72.408457 C189.440029,72.408457 190.472401,72.3924866 191.506546,72.3747417 C187.008103,74.6159224 183.06487,75.9113 176.899023,76.9777685 L176.899023,76.9777685 Z M194.883926,39.8128527 L194.836032,39.582169 C194.805877,39.4402098 194.777496,39.3088975 194.75621,39.1882322 C194.823615,39.2716333 194.887474,39.3532598 194.947784,39.4295629 C195.095012,39.6158843 195.236919,39.7933333 195.369956,39.9477139 C202.147776,47.728852 208.054643,53.151693 217.188114,57.0821881 C215.387673,58.2799687 213.58191,59.4404851 211.770825,60.5743841 C204.723383,56.0334645 200.443122,51.7019348 197.118957,45.7502958 C196.036918,43.8161018 195.2653,41.763017 194.883926,39.8128527 L194.883926,39.8128527 Z M224.256843,52.0532838 C222.694095,53.2404175 221.087001,54.4098063 219.451526,55.5490288 C216.498093,54.3689931 213.883462,53.0363512 211.485238,51.5244858 C217.31583,51.3328409 219.524254,51.5085154 224.256843,52.0532838 L224.256843,52.0532838 Z M272.74282,45.4131427 C269.688278,47.0172815 265.503804,49.217649 260.474985,52.2875164 C259.187181,53.0753899 257.839067,53.9502134 256.425322,54.8711737 C253.975657,56.4628911 251.449717,58.1060687 248.657703,59.6693943 C248.602714,59.635679 248.542404,59.6019637 248.487415,59.5664739 C247.510032,58.9631473 246.525554,58.3811146 245.537529,57.8398952 C248.141517,56.1204146 249.941959,54.72744 251.094951,53.8348716 C251.728209,53.3433379 252.27455,52.9192348 252.526435,52.7896971 C262.030637,47.5105897 270.493599,44.9783927 274.802242,44.3218314 C274.168983,44.6625335 273.462997,45.0334019 272.74282,45.4131427 L272.74282,45.4131427 Z M265.269658,64.446321 C273.654571,60.0899484 279.494033,55.524186 282.983164,52.7950205 C283.588041,52.3230062 284.201788,51.843894 284.749903,51.4286633 C282.782721,54.7221165 277.491374,61.2362688 267.561451,67.7273528 C266.028859,68.7654293 264.306466,69.7999569 262.442167,70.8078672 C261.700704,70.0980712 260.939729,69.3723049 260.125539,68.6092742 C259.731748,68.2224354 259.320219,67.8426946 258.912237,67.4647283 C261.223543,66.4923078 263.36456,65.4790741 265.269658,64.446321 L265.269658,64.446321 Z M296.897118,84.2265596 C296.544125,82.3509238 292.673619,81.3305921 271.004463,77.3965481 C270.261227,77.2616868 269.514443,77.1268256 268.767658,76.9901899 C268.173424,76.4099317 267.580964,75.8261245 266.981408,75.2369939 C266.067883,74.339102 265.131299,73.4181418 264.162785,72.4723387 C265.851475,71.535408 267.421318,70.5807325 268.826195,69.6278314 C282.477621,60.7039219 288.029722,51.5244858 287.937482,49.3773531 C287.91797,48.9124367 287.712205,48.5238234 287.369855,48.2860418 C286.193803,47.3863754 284.911321,48.3907367 281.578287,50.9974623 C278.15124,53.676942 272.416435,58.1593034 264.200036,62.432275 C262.073209,63.5839189 259.651926,64.7053965 257.014235,65.7736394 C255.055922,64.1002955 252.966345,62.5174505 250.80759,61.0623688 C253.27854,59.628581 255.593394,58.1344606 257.668779,56.7858483 C259.064787,55.8773094 260.395162,55.0131329 261.665227,54.2341318 C266.631962,51.2033031 270.777412,49.0242296 273.803573,47.4325122 C278.449244,44.9890396 279.554343,44.4087814 279.275851,43.1063059 C279.036383,41.9937007 277.737937,41.9102997 277.182727,41.8765844 C274.012886,41.6654201 264.982297,43.867562 254.678095,49.0739153 C255.639513,47.6631958 256.162794,46.4831601 256.198271,45.7201294 C256.233748,44.9819417 255.870112,44.5862304 255.648382,44.4176539 C254.211577,43.3121467 251.845282,44.838208 249.127769,46.7830489 C248.797836,47.019056 248.538856,47.2071519 248.38808,47.2994254 C244.906044,49.4004214 241.058598,51.0755399 237.223569,52.5625624 C238.626672,50.8306603 239.92157,49.029553 241.008931,47.1077805 C242.635536,44.2490773 243.015137,42.6751048 242.312699,41.676067 C242.078553,41.3406884 241.507378,40.806567 240.391636,41.0017609 C236.868802,41.6104109 233.945524,44.1443824 231.369917,46.3802397 C230.656836,46.9959877 229.957945,47.6028632 229.269697,48.1494061 C228.47502,48.7775755 227.664378,49.4181663 226.84664,50.0569827 L226.023581,49.9611602 C219.373478,49.1839337 217.493214,48.9674459 208.350873,49.3596082 C204.382807,46.3802397 200.879485,42.7975446 197.090575,38.4464955 C196.978824,38.3169577 196.859977,38.1679006 196.735809,38.0117455 C196.279933,37.4368107 195.71408,36.7199168 194.92295,36.3100097 C194.694126,36.1680505 193.984592,35.7386239 193.207653,36.2035403 C191.941135,36.9576985 192.356212,38.9007649 192.604549,40.0595068 L192.643574,40.2476027 C193.069294,42.4337742 193.929603,44.7228661 195.126941,46.8646754 C196.045787,48.5131765 197.033813,50.0392378 198.121173,51.4836725 C194.944236,52.2254093 191.210316,53.1800848 186.977948,54.2625237 L183.673295,55.1089553 C183.201455,54.9687706 182.720746,54.8232625 182.220525,54.6724308 C185.510987,49.8174265 186.642693,45.5905917 186.708325,43.5925161 C186.718968,43.2340691 186.749123,42.3148834 186.091031,41.857065 C185.005444,41.0337017 183.792142,41.9528874 179.934053,44.8772467 C177.670641,46.5931785 174.745589,48.8095163 171.220981,51.141196 C167.664444,49.8937296 165.314114,49.297501 163.362896,48.949701 C171.476413,44.124863 173.127852,42.8472303 172.769538,41.3477864 C172.647143,40.8367333 172.228518,40.2085639 170.930072,40.1269374 C168.702136,40.0009486 161.372654,41.9599854 161.299927,41.9812793 C158.589509,42.7354375 156.095498,43.6759171 153.65825,44.7139937 C142.034316,38.6061996 129.172246,37.644426 127.882669,39.9210965 C127.236993,41.3779527 128.654287,42.0078966 132.441422,43.690113 C135.16071,44.9003151 138.926559,46.5754336 141.796623,48.5877051 C133.95805,49.4252643 125.942095,49.8884061 118.807734,49.9274449 C119.084452,49.4944694 119.361171,49.0561704 119.616603,48.60545 C121.244982,45.7449723 121.624583,44.1727743 120.923918,43.1737365 C120.689772,42.8383579 120.127467,42.302462 119.001082,42.4994303 C115.501308,43.1045314 112.599315,45.5817192 110.037899,47.7678907 C109.49688,48.2310326 108.966504,48.6835275 108.443222,49.1076306 C108.221493,49.2850796 108.001538,49.467852 107.781582,49.6470755 C105.881806,49.2265214 103.730146,48.8059673 101.450769,48.3605704 C95.0880265,47.1202019 87.8773914,45.7130315 84.49469,43.9048263 C79.6006821,41.596215 75.9146551,39.0657924 73.4738595,37.3888995 C70.6179868,35.4298627 69.1669907,34.4308249 67.9838434,35.3375892 C67.7301851,35.5168127 67.3913829,35.8859066 67.3736445,36.5815066 C67.3186557,38.6718557 70.990492,45.095509 80.0565574,51.1482939 C80.413098,51.402046 80.7802817,51.6504746 81.1581083,51.8971287 C79.3292855,51.6912878 77.5483562,51.5067409 75.7904867,51.3275174 C68.6756386,50.5928786 62.5310778,49.9576112 57.6015932,48.2558755 C51.1945048,46.4246019 46.7599199,43.7185049 44.1115858,42.1001701 C41.8463998,40.7142935 40.5692393,39.937067 39.5173558,40.7054211 C39.109374,40.9644966 38.8699064,41.4294129 38.8699064,41.9866028 C38.8681326,44.2650477 42.9710105,50.3888123 52.3368539,55.0983084 C49.4472784,54.734538 46.6534899,54.5091778 44.1381933,54.459492 C42.5080399,53.2244471 40.947066,52.1118419 39.4393071,51.1358725 C34.1798894,47.7324009 27.998078,44.8435314 20.5373323,42.3095599 L20.2322328,42.2030905 C9.80031525,38.5476414 8.41140325,39.3088975 7.82603803,40.4960313 C7.01007441,42.1480813 8.70231202,43.0122579 14.311175,45.8745101 C18.0238095,47.7678907 23.4943135,50.5680358 29.6885418,54.4222277 C22.3714766,53.9466645 18.5825672,54.3902869 17.0127242,55.8382707 C16.4131683,56.390137 16.1027474,57.1052564 16.1133904,57.8310228 C16.0406632,59.28433 17.3515265,59.3783779 21.2433182,59.6498749 C25.8960847,59.9781555 33.9758985,60.5530902 38.9887533,63.402921 C37.9457389,63.3834016 36.9275582,63.3638822 35.9554972,63.3443628 C21.5093933,63.0586699 17.1439879,62.9699454 17.0340102,65.6582976 C16.9666045,66.8472058 16.8885558,68.4690895 35.8260073,71.1148539 C34.8415294,71.3242437 33.8570516,71.546055 32.8778952,71.7678662 C30.0752376,72.4066826 27.4269034,73.0100091 25.3000765,73.1555173 C16.5213722,73.6293061 8.98789929,75.8829082 4.62958922,79.33784 C0.861965856,82.3420513 -0.188143856,85.2575382 0.0264900548,86.4837107 C0.108086418,86.9468525 0.377709182,87.3159464 0.755535818,87.5022679 C1.69921549,88.0008995 2.59145398,87.3620832 3.71251705,86.5600137 C4.65619672,85.8857076 5.94754786,84.9629729 7.81007353,84.0987963 C11.8278075,82.228484 18.2845631,81.3075237 25.5324488,81.5790207 C27.2761275,81.619834 29.1705822,81.7280778 31.2690278,81.9037523 C29.1688084,83.5220871 27.5209166,85.2167249 26.4335564,86.8918433 C24.4220287,89.9421914 24.1293461,92.5773089 24.7306758,93.8407457 C24.9648219,94.3269559 25.358613,94.6463641 25.8198099,94.7226671 C25.9262399,94.743961 26.0273484,94.7528335 26.1249093,94.7528335 C26.9586113,94.7528335 27.570584,94.0394885 28.2606054,93.2267722 C28.7448621,92.6624844 29.3834423,91.9260711 30.252621,91.1293252 C34.9390903,93.258713 39.7976216,94.6073253 44.7164632,95.1290253 C46.2987231,95.2976019 47.8969475,95.3810029 49.5040411,95.3810029 C53.8588035,95.3810029 58.2880669,94.7652549 62.7261995,93.5408569 C67.5120036,92.2206364 72.3457011,90.1746496 77.1261837,87.4632291 C80.8459135,88.3274057 88.2906947,88.4782373 93.6707332,88.5137271 C94.655211,88.520825 95.5580925,88.524374 96.3917945,88.524374 C103.10753,88.524374 105.223714,88.3185332 108.25697,88.0239679 C108.821049,87.9707332 109.422379,87.912175 110.08934,87.8536169 C109.0481,89.9794557 108.604641,91.8923558 109.097767,93.1469201 C109.362068,93.8265498 110.044995,94.7936467 111.770935,94.7936467 C112.237453,94.7936467 112.778473,94.7244416 113.404636,94.5594141 L113.681354,94.4493957 C115.552749,93.3847018 118.351859,91.3209701 121.315936,89.1330241 C123.419703,87.5838944 125.557173,86.0134709 127.371805,84.7890729 C131.54741,88.8650761 135.511929,91.769916 137.562481,93.168214 C145.397506,98.514752 152.792619,100 156.430753,100 C157.10481,100 157.652925,99.9485398 158.046716,99.8615898 C158.286183,99.8101296 159.013455,99.648651 159.373544,99.0453245 C159.671548,98.5466928 159.737179,97.978856 159.563344,97.4021468 C158.947823,95.3614835 155.075544,93.3722803 150.45648,91.1719129 C149.445395,90.6892517 148.400607,90.1923945 148.118567,89.9936516 C147.52788,89.5766465 146.977992,89.1862587 146.444068,88.8029689 C147.91635,88.969771 149.518122,89.1010832 151.166014,89.23417 C152.805036,89.3654822 154.488405,89.5038924 155.967782,89.6795669 C163.882629,94.8486559 172.609893,97.9983754 182.562875,99.2405183 C182.727842,99.2600377 183.001012,99.2955275 183.313207,99.2955275 C184.001454,99.2955275 184.879502,99.126951 185.223626,98.2805193 C185.699014,97.102258 184.748239,95.8441447 181.518087,93.4166426 C179.882612,92.1869211 178.062658,91.422116 176.299467,90.6821537 C175.423193,90.3148343 174.518538,89.936868 173.668872,89.5092159 C173.64049,89.4967945 173.615656,89.4808241 173.587275,89.4666281 C173.814326,89.4701771 174.053793,89.4861475 174.277297,89.4861475 C180.872411,89.4861475 186.186818,88.1020454 190.644463,86.6576107 C191.201447,86.4766127 191.730049,86.2689974 192.272842,86.079127 C197.420508,86.8173148 202.573496,87.0817138 207.698102,87.0817138 C213.96151,87.0817138 220.18412,86.691326 226.289656,86.3098107 C232.297632,85.9336188 238.520242,85.5822698 244.639969,85.543231 C246.617794,86.9894403 248.524665,88.3557975 250.33575,89.5890679 C258.082083,94.8752733 265.601365,98.594604 268.434178,98.594604 C268.615109,98.594604 268.780075,98.5804081 268.921982,98.5466928 C269.489609,98.4224785 269.785839,98.0995214 269.918877,97.8741611 C270.928188,96.2576009 268.964554,94.5452181 262.456357,88.879272 C261.314008,87.8837832 260.051038,86.781825 258.706472,85.5964657 C260.835073,85.7561698 262.981412,85.9176484 265.14549,86.06848 L265.086953,86.1465576 C266.458127,87.1935066 266.990277,87.5377577 268.274533,88.3433761 C275.447917,93.526661 282.112211,95.4661784 285.315756,95.4661784 C285.975622,95.4661784 286.490034,95.3845519 286.832384,95.2301712 C287.350343,94.9977131 287.687372,94.5824824 287.767194,94.0820763 C288.010209,92.827512 286.819967,92.0414129 284.004892,90.1799731 C282.688708,89.3086985 281.044363,88.2173873 279.252791,86.8776474 C280.959219,86.952176 282.674517,87.0071852 284.389814,87.0071852 C286.353448,87.0071852 288.318857,86.9397546 290.261205,86.7623056 C290.488255,86.7410117 290.789807,86.7285903 291.135705,86.7143944 C293.471844,86.6132484 295.65366,86.4216035 296.600887,85.2770576 L297,84.7872984 L296.897118,84.2265596 Z" id="Fill-21" fill="#16254F"></path>
            </g>
        </g>
    </g>
</svg>