<?xml version="1.0" encoding="UTF-8"?>
<svg width="202px" height="202px" viewBox="0 0 202 202" version="1.1" xmlns="http://www.w3.org/2000/svg" xmlns:xlink="http://www.w3.org/1999/xlink">
    <!-- Generator: Sketch 46.2 (44496) - http://www.bohemiancoding.com/sketch -->
    <title>Photo</title>
    <desc>Created with Sketch.</desc>
    <defs></defs>
    <g id="Page-1" stroke="none" stroke-width="1" fill="none" fill-rule="evenodd">
        <g id="Photo">
            <g id="Group-3" transform="translate(2.000000, 3.000000)">
                <g id="Page-1">
                    <path d="M193.063566,196.999995 L5.72027705,196.794237 C2.55809319,196.791379 -0.00286060216,194.230841 2.39816445e-06,191.074463 L0.203275421,5.70834838 C0.207569922,2.55197049 2.77424971,-0.00428123217 5.93643358,5.38334057e-06 L193.279723,0.204334056 C196.441907,0.2071918 199.002861,2.76915901 198.999998,5.9255369 L198.796725,191.291652 C198.79243,194.44803 196.22575,197.004281 193.063566,196.999995 Z" id="Stroke-1" stroke="#16254F"></path>
                    <path d="M13.7205737,162.813795 C10.5574359,162.809498 7.9957096,160.241371 8.00000539,157.077404 L8.15608598,13.7220727 C8.16038178,10.5581061 10.7278359,7.99570847 13.8909736,8.0000054 L184.279426,8.18620533 C187.442564,8.19050226 190.00429,10.7586291 189.999995,13.9225957 L189.843914,157.277927 C189.839618,160.441894 187.272164,163.004292 184.109026,162.999995 L13.7205737,162.813795 Z" id="Fill-3" fill-opacity="0.2" fill="#FFC304"></path>
                    <path d="M184.109026,162.999995 L13.7205737,162.813795 C10.5574359,162.809498 7.9957096,160.241371 8.00000539,157.077404 L8.15608598,13.7220727 C8.16038178,10.5581061 10.7278359,7.99570847 13.8909736,8.0000054 L184.279426,8.18620533 C187.442564,8.19050226 190.00429,10.7586291 189.999995,13.9225957 L189.843914,157.277927 C189.839618,160.441894 187.272164,163.004292 184.109026,162.999995 Z" id="Stroke-5" stroke="#16254F"></path>
                    <path d="M115.400418,108.389385 C117.081919,111.138369 115.729251,115.028575 112.775497,116.834435 C109.626453,118.758006 105.701994,118.094805 104.020494,115.345821 C101.148588,110.651734 105.974825,107.525214 103.726123,103.853203 L100.384662,98.3825102 C98.1330879,94.7880166 93.3930082,97.7896484 90.3530965,92.8185098 C88.671596,90.0709616 90.0256993,86.1807549 92.976582,84.3763307 C96.128498,82.4513244 100.052957,83.1159611 101.731585,85.8635093 C104.60349,90.5561608 99.7269953,93.7774242 101.975697,97.4566123 L105.294184,102.878498 C107.538578,106.497395 112.356199,103.412504 115.400418,108.389385 M118.803626,90.2590122 C120.704827,79.8918268 120.095983,73.5598336 115.205129,68.6030499 C97.8329738,50.9894574 61.7029695,88.7703981 68.9473505,100.614714 C72.3247111,106.137084 78.7491632,107.131886 83.3700588,114.686926 C89.7758435,125.160339 88.1747563,131.391847 90.974864,135.971094 C92.67216,138.744481 95.278414,138.979903 98.00816,139 C123.984543,138.257846 145.365878,114.099806 140.233783,100.294597 C137.581579,93.1644654 129.444035,90.1527851 118.803626,90.2590122" id="Fill-7" fill="#FFC304"></path>
                    <path d="M115.400418,108.389385 C117.081919,111.138369 115.729251,115.028575 112.775497,116.834435 C109.626453,118.758006 105.701994,118.094805 104.020494,115.345821 C101.148588,110.651734 105.974825,107.525214 103.726123,103.853203 L100.384662,98.3825102 C98.1330879,94.7880166 93.3930082,97.7896484 90.3530965,92.8185098 C88.671596,90.0709616 90.0256993,86.1807549 92.976582,84.3763307 C96.128498,82.4513244 100.052957,83.1159611 101.731585,85.8635093 C104.60349,90.5561608 99.7269953,93.7774242 101.975697,97.4566123 L105.294184,102.878498 C107.538578,106.497395 112.356199,103.412504 115.400418,108.389385 Z M118.803626,90.2590122 C120.704827,79.8918268 120.095983,73.5598336 115.205129,68.6030499 C97.8329738,50.9894574 61.7029695,88.7703981 68.9473505,100.614714 C72.3247111,106.137084 78.7491632,107.131886 83.3700588,114.686926 C89.7758435,125.160339 88.1747563,131.391847 90.974864,135.971094 C92.67216,138.744481 95.278414,138.979903 98.00816,139 C123.984543,138.257846 145.365878,114.099806 140.233783,100.294597 C137.581579,93.1644654 129.444035,90.1527851 118.803626,90.2590122 Z" id="Stroke-9" stroke="#16254F"></path>
                    <path d="M36.0232412,96.6697565 C39.1306616,107.63025 46.0700834,116.914959 55.0394929,123.875241 C55.5869216,124.299965 56.3623247,123.538639 55.8105397,123.109581 C46.9848847,116.260537 40.1325869,107.172299 37.0730846,96.3822729 C36.882864,95.7119594 35.8315685,95.9965537 36.0232412,96.6697565" id="Fill-11" fill="#16254F"></path>
                    <path d="M145.15085,75.9200553 C155.07076,86.3501327 161.998458,101.904559 161.940563,116.482102 C161.937739,117.171918 162.996804,117.173347 162.999628,116.482102 C163.058936,101.616064 156.019683,85.8017074 145.899256,75.1631142 C145.426207,74.6646756 144.677801,75.4216167 145.15085,75.9200553" id="Fill-13" fill="#16254F"></path>
                    <path d="M81.258541,69.0131042 C81.2973508,68.9400621 81.8633268,69.1950452 81.9053708,69.2202779 C82.2756808,69.4513563 82.5263274,70.0330365 82.6217347,70.3862943 C82.7171421,70.7448643 82.7446324,71.0250801 83.1440498,71.2442061 C83.3138426,71.3358407 83.5159769,71.3570893 83.7067917,71.2999837 C83.8733504,71.2495183 84.0075676,71.1446034 84.1757433,71.0981221 C84.4021337,71.0330483 84.5864802,71.1804604 84.5492875,71.3690416 C84.5088606,71.5762154 84.2630653,71.7169873 84.0479944,71.7953415 C83.9073089,71.8458069 83.756921,71.8790078 83.6065331,71.8949442 C83.5774257,71.8989283 83.2637133,71.9201769 83.2604792,71.885648 C83.2604792,71.885648 83.3251621,72.5124814 84.0625481,72.2694506 C84.3487703,72.17516 85.0732196,71.9972031 84.993983,72.4593599 C84.9357683,72.7794168 84.5557558,72.929485 84.2064677,72.9826064 C83.7003234,73.0622887 83.190945,72.859099 82.8497422,72.5589627 C82.453559,72.212345 82.3290443,71.7408919 82.2109978,71.2906874 C82.1366124,71.0038315 82.0654611,70.7129914 81.9360952,70.4394158 C81.7113218,69.9653066 81.6450218,69.6598581 81.1340263,69.5974404 C80.7718016,69.5536152 81.258541,69.0131042 81.258541,69.0131042" id="Fill-15" fill="#16254F"></path>
                    <path d="M84.0938614,68.0369636 C84.1050943,67.9387399 84.745369,68.0654343 84.795917,68.0825167 C85.2396162,68.2419523 85.7015689,68.8554947 85.9248226,69.2483896 C86.1522886,69.6455551 86.282871,69.9701205 86.7518441,70.1053561 C86.9484197,70.1622974 87.1520159,70.123862 87.3148928,69.9971676 C87.456708,69.8847086 87.5479753,69.7195788 87.6925987,69.6099668 C87.8877702,69.463343 88.1194486,69.5786491 88.1545514,69.816379 C88.1924624,70.0754619 88.0099279,70.3203094 87.8287975,70.4811686 C87.7122563,70.5836629 87.5802698,70.6719219 87.4412628,70.7374044 C87.4131806,70.7502162 87.1211254,70.875487 87.1042761,70.8342046 C87.1042761,70.8342046 87.4019477,71.5616296 88.0225649,71.0406168 C88.2640721,70.8384752 88.8973263,70.4014508 88.9914017,70.9765578 C89.0559908,71.3765704 88.7456822,71.6740887 88.4297572,71.8477596 C87.9706128,72.0997248 87.4019477,72.0157364 86.9596526,71.7651947 C86.4485561,71.4762177 86.1508845,70.9537813 85.8686581,70.452698 C85.6889319,70.1352502 85.5106097,69.8106849 85.2831437,69.5245549 C84.8885884,69.0291657 84.7088621,68.6875179 84.1921492,68.7729298 C83.8284843,68.8327182 84.0924573,68.0369636 84.0938614,68.0369636" id="Fill-17" fill="#16254F"></path>
                    <path d="M100.384194,70.4543443 C97.5275969,67.7122969 93.6607051,63.3911937 92.9224675,62.5562253 C91.3198824,60.7343471 90.8083588,60.3679835 90.3251745,59.6522963 C89.7640572,58.820168 91.6712892,58.4452843 92.1318022,57.3547134 C92.4492018,56.5978458 92.2706645,55.6080959 92.3599332,55.2303721 C92.483209,54.7078069 93.361726,54.4564644 93.551599,53.9495193 C93.932762,52.920009 92.6036508,52.0822007 92.8190292,51.2671125 C93.0769164,50.2901427 94.84812,50.217722 94.3578509,49.0064499 C94.2090698,48.6329862 93.7074649,48.4938248 93.6692069,48.0380002 C93.6181962,47.413194 94.4882115,47.0070699 94.1183841,46.314103 C93.8902531,45.8880988 93.2186127,46.0088 93.1633511,45.514635 C93.7102988,45.1780917 94.6823354,44.6285462 94.8523709,43.9298992 C95.0450779,43.1304312 94.4244481,42.9742296 93.9299281,42.6277462 C94.2048189,42.1719216 95.0422439,41.812658 95.1414313,41.1608715 C95.2661241,40.3287432 94.4074446,39.9879398 93.8803344,39.6201561 C94.9161342,39.4909348 95.03941,37.9928198 94.8920459,37.2018719 C94.1807305,37.2288522 93.5771043,37.5426753 92.8912943,37.6193561 C93.5005883,36.912189 94.5406391,36.0758007 94.389024,35.0249902 C94.2714161,34.2141621 94.0050271,34.2454024 93.3858143,34.4839648 C93.2922948,34.5180451 91.9532648,35.1371713 91.9716854,35.0974109 C92.5072973,33.8903988 94.8821271,32.1579815 94.4485365,30.7393874 C93.09392,30.7436474 92.6858347,31.8583585 91.5550983,32.3596235 C91.9150068,31.2094121 93.0641637,30.2878228 93.5785213,29.1475514 C94.0517869,28.102421 94.1509743,27.2944329 93.9511825,26.1868219 C93.4453268,26.2734427 89.7541384,31.300293 89.0810811,31.6339963 C89.9185061,30.1926819 93.1165914,25.7664977 91.9178408,24 C90.5263832,24.9585096 87.6910405,32.5953459 83.8227318,35.9408993 C82.5630517,37.0314702 79.3507969,40.2591625 78.5275414,41.7473374 C77.0255608,44.4680846 76.4771961,46.3964638 74.8561906,49.0760306 C74.3120768,49.9791596 73.5511677,51.1634515 72.5337884,51.5354952 C71.7785472,51.8095579 68.3452461,51.7825777 67.4922344,51.8294381 C62.9508683,52.0807806 60.6638902,54.5473453 60.2855611,55.9261791 C59.9653275,56.6290861 60.2076282,57.5847557 59.7542001,58.3032828 C59.4197968,58.8755486 58.1884561,60.217462 58,60.9061688 C58.7028136,61.2285121 60.176455,60.1265811 60.9812899,60.1677615 C62.7907515,60.220302 64.6030471,62.225362 66.4295122,63.5573353 C67.8223868,64.5726455 73.1005735,67.4197739 74.6053881,68.0602003 C77.7567136,69.4035338 81.2254388,69.8139179 84.614814,70.0112998 C86.1323813,70.1007607 90.3180897,69.5767755 91.7293847,70.1717614 C92.9479728,70.6858066 98.0334526,77.7091968 98.7518528,78.8679284 C99.1542703,79.5182949 100.853209,82.2986826 101.618369,80.2723224 C101.957023,79.3791335 100.61941,78.635046 100.939644,77.8014977 C101.49651,78.0358 101.971192,79.1845915 102.625829,79.1576113 C103.681467,79.1135908 103.304555,77.5203349 103.276215,76.8870086 C103.855753,76.9679494 104.355941,77.3186929 104.945398,77.1781115 C104.806535,76.431184 104.047043,75.7211769 103.311639,75.1545912 C104.130644,75.7211769 104.917058,76.0818605 105.998201,75.5862756 C106.061964,74.7584073 104.435291,74.3437631 100.384194,70.4543443" id="Fill-19" fill="#16254F"></path>
                </g>
            </g>
        </g>
    </g>
</svg>