<?xml version="1.0" encoding="UTF-8"?>
<svg width="304px" height="189px" viewBox="0 0 304 189" version="1.1" xmlns="http://www.w3.org/2000/svg" xmlns:xlink="http://www.w3.org/1999/xlink">
    <!-- Generator: Sketch 46.2 (44496) - http://www.bohemiancoding.com/sketch -->
    <title>Page 1 Copy</title>
    <desc>Created with Sketch.</desc>
    <defs>
        <path d="M34.7518604,34.3385894 L4.18053134,26.1075484 C1.53654059,25.3957048 -0.0310036439,22.6723447 0.680840019,20.0283539 L5.94026459,0.495187018 L34.7518604,0.495187018 L34.7518604,34.3385894 L34.7518604,34.3385894 Z" id="path-1"></path>
        <path d="M31.178146,0.193273407 C31.1634862,0.257810809 31.1474896,0.322332754 31.1301387,0.386809019 L18.2541047,48.2059612 L0.034641691,48.2059612 L0.034641691,0.193273407 L31.178146,0.193273407 Z" id="path-3"></path>
    </defs>
    <g id="Gallery-All-photos" stroke="none" stroke-width="1" fill="none" fill-rule="evenodd">
        <g id="גלריה---כל-התמונות---מצב-אפס" transform="translate(0.000000, -155.000000)">
            <g id="Page-1-Copy" transform="translate(0.000000, 154.000000)">
                <g id="Group-19" transform="translate(52.086122, 0.909027)">
                    <path d="M176.156628,27.1028894 C177.259117,29.3649153 174.249283,32.9042912 173.62301,35.0522237 C172.315896,39.53039 172.560205,46.4094785 177.882911,48.1481628 C178.569951,48.3713891 179.311558,48.3515467 180.034563,48.319303 C183.477208,48.1642847 186.908691,47.7810797 190.305451,47.2019316 C193.377292,46.6785901 196.802574,46.2408187 199.48625,44.5467796 C201.165407,43.486455 202.545689,41.7986166 202.8086,39.8292651 C203.127318,37.4481853 201.771838,35.4775937 201.223694,33.2639335 C200.93722,32.1056374 201.341508,30.9473412 201.427078,29.7840845 C201.585816,27.6423528 201.675107,25.4026496 200.749958,23.4035346 C200.036874,21.8707145 199.14645,20.463149 198.249824,19.0617843 C195.667841,15.0238698 192.617082,11.2997121 189.455951,7.70576966 C188.316257,6.40981734 187.143079,5.14610882 185.973621,3.87619957 C185.396954,3.25240625 184.820286,2.62613265 184.249819,1.99489846 C183.964585,1.67990144 183.679352,1.36366427 183.397839,1.04494681 C183.175853,0.79443737 182.958827,0.411232332 182.606626,0.340544024 C182.204819,0.257454259 181.860058,0.780795767 181.800531,1.11439497 C181.61947,2.1288342 182.405722,3.31069311 182.912942,4.12050828 C183.267623,4.68849504 183.657029,5.23415917 184.058836,5.76866199 C184.191532,5.94600283 184.447002,6.44950201 184.650386,6.54747352 C183.908779,6.19031155 183.24282,5.69549339 182.526016,5.29616646 C182.04732,5.02829497 180.833217,4.19243674 180.359482,4.76538407 C179.973796,5.23043873 180.019682,6.14938674 180.08665,6.7012516 C180.169739,7.40193395 180.388005,8.09641557 180.699282,8.72888991 C181.318114,9.98391741 182.268066,11.0454822 183.214297,12.0624017 C182.955107,11.7833689 180.544263,10.3100757 179.991158,10.0694875 C179.253272,9.74828971 178.073893,9.07489057 177.388092,9.83634006 C176.290563,11.0566435 178.107377,13.4402036 179.104454,14.0627568 C177.79734,13.9052583 176.900715,14.3430297 176.730815,15.5682937 C176.577037,16.6931059 177.522028,17.042827 177.393053,18.072148 C177.306243,18.7740705 175.147149,18.1862414 176.450542,21.0038526 C176.869711,21.9041984 173.908243,22.6048807 176.362492,24.2530345 C175.199235,25.1608211 175.66677,26.0971312 176.156628,27.1028894" id="Fill-1" fill="#16254F"></path>
                    <path d="M216.580047,51.6684406 C217.020298,49.6097986 215.466396,46.3916204 213.746314,45.2370447 C198.957575,35.3158787 181.423155,43.3297005 166.799356,48.6672879 C163.019392,50.0475701 158.74709,51.339802 154.727777,51.8495019 C153.950206,51.9499537 149.459638,53.5150176 149.057831,54.2863883 C152.918404,54.0234774 156.726892,53.3017125 160.553982,52.76969 C171.252719,51.280275 179.691911,60.9410104 190.357165,60.7735907 C194.57242,60.7066228 198.91417,59.9575748 202.958286,58.5388481 C206.529905,57.2863008 210.750121,54.105327 214.709907,54.6088262 C216.034382,54.8506546 216.976893,55.4608063 217.97025,56.139166 C218.519635,54.4996933 216.875201,53.7742081 216.580047,51.6684406" id="Fill-3" fill="#16254F"></path>
                    <path d="M185.070175,59.5912357 C185.075136,59.4684613 184.266561,59.4870635 184.199593,59.4982248 C183.624165,59.5949562 182.932164,60.239832 182.576242,60.665202 C182.2166,61.0967727 181.988413,61.4613755 181.386942,61.5258631 C181.132712,61.5531463 180.892124,61.4638558 180.719744,61.2753537 C180.569686,61.1116544 180.494037,60.8909085 180.339019,60.7296896 C180.130675,60.5101838 179.823119,60.6007144 179.728868,60.8809873 C179.628416,61.184823 179.802036,61.5209025 179.989298,61.7515697 C180.109592,61.9003871 180.252209,62.0343229 180.409708,62.1434557 C180.440711,62.1645382 180.77307,62.3766031 180.802834,62.3307177 C180.802834,62.3307177 180.286933,63.1454935 179.635857,62.3865243 C179.382867,62.0913696 178.699547,61.4291318 178.463919,62.103771 C178.30146,62.571306 178.618937,62.996676 178.969898,63.2732285 C179.479598,63.6737956 180.191442,63.694878 180.784232,63.4852934 C181.472512,63.243465 181.943768,62.6754782 182.395181,62.1322944 C182.680414,61.7875339 182.965648,61.431612 183.302968,61.1352172 C183.889557,60.6217969 184.179751,60.2460327 184.794863,60.4580976 C185.228914,60.6069151 185.070175,59.5912357 185.070175,59.5912357" id="Fill-5" fill="#16254F"></path>
                    <path d="M181.897138,56.581774 C181.915741,56.4242755 180.866577,56.3734296 180.779767,56.3821106 C180.025758,56.454039 179.070846,57.2266498 178.571067,57.7437906 C178.065088,58.2671321 177.736449,58.7197853 176.951437,58.7470685 C176.620318,58.7582298 176.317723,58.6205737 176.111858,58.3613832 C175.932037,58.1344365 175.853908,57.8430023 175.669126,57.619776 C175.417377,57.3171805 175.011849,57.406471 174.866752,57.7599125 C174.708013,58.1431176 174.900236,58.5932905 175.122222,58.9107678 C175.264839,59.1141517 175.437219,59.2989334 175.630682,59.4551918 C175.669126,59.4861954 176.079615,59.7912713 176.12178,59.7342246 C176.12178,59.7342246 175.377692,60.7412229 174.606321,59.6995005 C174.307446,59.295213 173.482749,58.3737847 173.115666,59.2257648 C172.861436,59.8160742 173.23348,60.3952222 173.66133,60.7858682 C174.285124,61.3513746 175.205312,61.4431454 175.991564,61.22736 C176.903071,60.9780907 177.56779,60.2860894 178.201504,59.6238516 C178.602071,59.2034422 179.003878,58.7718714 179.468933,58.4184299 C180.273788,57.8070381 180.683036,57.3481841 181.460607,57.679303 C182.009992,57.9124504 181.897138,56.5830142 181.897138,56.581774" id="Fill-7" fill="#16254F"></path>
                    <path d="M101.821795,187.710198 L4.17023813,161.417867 C1.52500723,160.706024 -0.0425369994,157.982664 0.670546809,155.337433 L26.724769,58.5688596 C27.4378528,55.9236287 30.1587326,54.3573246 32.8052036,55.0691683 L130.456761,81.3614984 C133.101991,82.0733421 134.668296,84.7967021 133.956452,87.4406929 L107.90099,184.210506 C107.189146,186.855737 104.468266,188.422041 101.821795,187.710198" id="Fill-9" fill="#FFC304"></path>
                    <path d="M101.821795,187.710198 L4.17023813,161.417867 C1.52500723,160.706024 -0.0425369994,157.982664 0.670546809,155.337433 L26.724769,58.5688596 C27.4378528,55.9236287 30.1587326,54.3573246 32.8052036,55.0691683 L130.456761,81.3614984 C133.101991,82.0733421 134.668296,84.7967021 133.956452,87.4406929 L107.90099,184.210506 C107.189146,186.855737 104.468266,188.422041 101.821795,187.710198 Z" id="Stroke-11" stroke="#16254F"></path>
                    <path d="M102.234764,167.907798 L13.7565648,144.084598 C11.1100938,143.372755 9.54378968,140.650635 10.2556333,138.005404 L30.1488114,64.1237205 C30.860655,61.4797297 33.582775,59.9121855 36.2280059,60.6240291 L124.706205,84.4472291 C127.352676,85.1590727 128.92022,87.8811927 128.207136,90.5276637 L108.313958,164.408107 C107.602114,167.053338 104.881235,168.619642 102.234764,167.907798" id="Fill-13" fill="#FFF3CD"></path>
                    <path d="M102.234764,167.907798 L13.7565648,144.084598 C11.1100938,143.372755 9.54378968,140.650635 10.2556333,138.005404 L30.1488114,64.1237205 C30.860655,61.4797297 33.582775,59.9121855 36.2280059,60.6240291 L124.706205,84.4472291 C127.352676,85.1590727 128.92022,87.8811927 128.207136,90.5276637 L108.313958,164.408107 C107.602114,167.053338 104.881235,168.619642 102.234764,167.907798 Z" id="Stroke-15" stroke="#16254F"></path>
                    <path d="M70.0296666,119.957563 C69.6228988,121.479221 67.7874831,122.308879 66.1542111,121.871107 C64.4142866,121.403573 63.3266788,119.790143 63.7346867,118.269724 C64.4304085,115.671619 67.1624496,116.327656 67.7081137,114.295057 L68.5204092,111.269101 C69.0350697,109.261305 66.3761972,108.594107 67.1128438,105.842224 C67.5220919,104.323045 69.3550273,103.492147 70.9870591,103.928679 C72.7319442,104.396214 73.8170717,106.009643 73.4090638,107.530062 C72.7121018,110.128167 69.9304549,109.485772 69.3835506,111.520851 L68.5799362,114.522004 C68.0541144,116.53476 70.7687934,117.203199 70.0296666,119.957563 M77.5995163,115.056507 C81.911503,112.238895 83.9503027,109.890059 84.0594355,106.48958 C84.4500814,94.4055995 58.9030789,94.333671 57.1457923,100.887841 C56.3272961,103.94356 58.1366688,106.552827 57.0168172,110.734599 C55.4629145,116.5298 52.7159917,118.06262 52.0363918,120.594998 C51.6246634,122.130298 52.4195969,123.132336 53.3298639,124.10585 C62.3395228,133.055982 78.0955746,132.491716 81.2579462,126.025596 C82.8912182,122.684643 81.2182616,118.789345 77.5995163,115.056507" id="Fill-17" fill="#16254F"></path>
                </g>
                <g id="Group-26" transform="translate(62.007288, 91.212837)">
                    <g id="Group-22" transform="translate(0.000000, 27.510037)">
                        <mask id="mask-2" fill="white">
                            <use xlink:href="#path-1"></use>
                        </mask>
                        <g id="Clip-21"></g>
                        <path d="M-1.76919193,8.64232773 C-1.85476199,9.76465964 -3.38262156,10.6067186 -2.79231218,11.4859819 C-2.59388886,10.8510273 -1.52488322,11.6707637 -0.968057776,11.6323191 C-0.444716267,10.7158514 0.409744157,10.3500084 1.07322214,9.66420783 L0.562282085,11.7067279 C1.83963221,12.047768 2.42498101,11.2292718 3.26083925,10.8336653 C3.74821653,13.1849816 9.47768991,12.3950088 11.1332845,14.0481231 C9.67239279,15.1915375 6.96763491,14.2626683 4.64360176,13.971234 C3.888353,14.1175712 5.76965411,15.5189359 4.42285582,16.0844424 C3.21495385,15.2126199 2.65192768,14.370561 0.996333099,14.9162251 C0.582124417,15.3874805 1.625087,16.1092453 0.704898847,16.0819621 C-0.579892155,15.9443059 -1.17268183,15.3887206 -2.13875537,15.0588419 C-2.65093556,15.5821834 -3.23132378,15.9939118 -3.74474412,16.5172533 C-3.29953179,17.076559 -2.33593854,17.3258283 -2.28633271,18.1220019 C-3.13211212,17.3717137 -3.61700911,17.944661 -4.91172127,17.4634845 C-5.87531452,19.3088214 -8.16710388,21.1231546 -8.41513303,22.7837098 C-6.57475673,22.1326332 -4.25940461,22.2764902 -2.07054735,22.2058018 C-1.35746354,21.7407472 -1.23220882,20.2947372 -0.537727199,19.7999191 C-0.403791458,20.7114262 -0.617096527,21.8312778 0.0439011597,22.4253076 C0.851236046,21.1529181 2.47706713,21.2484093 2.52543281,18.7073507 C3.59815889,18.8090426 2.98428674,19.9214534 4.05577267,20.0231453 C4.79489954,19.4638396 5.28103668,18.4816441 5.88126722,17.6904312 C7.29751368,19.0186273 8.25862664,17.3109466 9.67363294,17.400237 C8.24870547,20.7647525 6.43561238,20.9582152 5.36536659,24.6898138 L4.19838944,24.3983795 L3.17526919,28.4796992 C1.73049939,27.8211818 2.1050234,30.2456668 1.42294324,31.7611249 L0.257206229,31.4672103 C-0.211568866,33.2021742 -0.171884202,33.6709493 -0.256214113,34.7498761 L-1.71462552,34.3840331 C-2.27641155,35.7109891 -1.88948607,36.4711985 -2.22804586,37.6642187 L-3.39378287,37.3727844 C-4.06098129,39.1759563 -3.60460765,40.3069693 -4.27180606,42.1113813 L-5.43878322,41.8187069 C-5.54543575,42.0245711 -5.60124231,42.2229945 -5.63968683,42.4164572 C-4.42062356,42.8033827 -3.20404057,43.2002293 -1.99365831,43.6131979 C-1.79647514,43.3292045 -1.59433138,43.0563724 -1.3562234,42.8430673 C-1.80639631,42.6992104 -2.37686335,42.6285221 -2.08418895,42.040693 C-1.10819425,40.9121604 -0.121038226,39.8034701 0.688776952,38.3959047 C0.264647104,38.2359259 -0.412472478,38.2297251 -0.403791458,37.811796 C2.90491741,35.2831388 2.45102407,31.8714979 6.01768326,29.5028195 C5.68780449,29.371364 5.17810458,29.345321 5.2165491,28.9918794 C5.97799859,27.7517337 8.0651639,26.7782192 7.11521225,25.1288254 C10.0692394,22.2330851 11.5574143,18.9392579 13.9756986,16.3113891 C15.2443677,17.6991122 15.3547406,19.7800767 16.4510295,21.2707319 C16.7982703,20.6060138 17.7159782,20.8986882 18.4203809,20.8354408 C17.0549805,21.9751347 17.2224001,24.3177701 17.8350321,25.6459662 C18.4228612,25.2305173 19.5997596,23.6580125 20.0226493,24.3363722 C19.4174581,25.2553203 18.940002,26.3912938 18.5617576,27.6884862 C19.4410209,27.9910818 19.713853,28.6508393 20.3835317,29.0774495 C20.998644,27.8968307 21.7104876,26.8761908 22.6467977,26.2337953 C22.2883956,27.8521855 22.6095933,29.065048 22.4979802,30.5358609 C24.7612462,31.5763432 26.2097364,33.1054429 28.4023141,34.18685 C29.4266745,29.9381106 26.6251853,27.9824008 24.6893177,25.5070698 C25.8128898,25.5901596 27.499488,26.6107996 28.2621776,26.0911785 C27.252699,24.4690678 26.0981233,22.1636369 23.6711581,22.1512354 C24.0047573,21.6055713 25.0824439,22.3012931 25.3478351,21.6415355 C24.2118616,21.0822298 22.5277437,19.8110804 21.0470097,20.2525723 C20.939117,17.5924596 17.0004141,17.2253765 15.799953,15.2188207 C17.2261206,16.098084 19.8949142,16.2345 21.194587,17.1906524 C21.4909818,16.5184934 20.8213031,16.421762 21.2689957,15.6590724 C22.2449905,16.7268379 23.2073436,17.8020443 24.1833383,18.8698098 C24.436328,17.7735209 24.810852,16.8843364 25.4247242,16.3907584 C25.4582081,17.5267319 25.891019,18.4258376 25.8600153,19.5990155 C26.9935085,19.6647432 26.9860677,20.4113109 28.120801,20.4757985 C28.4283572,19.3361046 28.8103221,18.3204252 29.4341154,17.706553 C28.766917,21.5770479 31.2273661,23.5724425 34.7518604,24.9304021 C34.6278458,20.7920357 32.2083214,18.0277508 30.8218385,14.6446332 C25.2312614,12.0180045 20.3698901,13.579348 15.5829275,13.6128319 C16.6134886,11.8877892 18.9635648,12.3640051 20.2520762,11.0643324 C20.0536529,10.8163032 19.680369,9.4707451 20.3252448,9.53275238 C22.2660729,10.4913851 23.7666493,10.6091989 25.4296847,10.1925099 C25.1022863,7.58076297 21.1660636,7.12810977 18.0669394,6.17691797 C17.144271,7.35505644 16.3431368,8.3732161 16.8243134,9.89487494 C14.9628546,9.1321853 15.0868692,11.6831651 13.8330818,11.9349147 C14.0352256,8.17851322 12.6760258,5.35842177 11.9443398,2.16132602 C7.41160708,0.039436635 2.27244308,0.308548264 -1.3996285,0.985667845 C2.03929568,2.47384275 5.7560125,3.6867053 8.2251427,3.39775134 C7.78861139,4.19020447 6.65263788,3.80947973 6.54598535,5.147597 C7.32355674,5.75526842 8.70135867,6.00453771 9.97250807,6.31705444 C7.81713475,8.33229129 12.0981179,11.2627557 11.7186333,12.9543145 C7.23550639,10.6836076 3.76061798,7.80646949 -1.76795179,6.16327637 C-4.37349802,7.47163014 -8.08153382,9.13590574 -9.28323506,11.4078528 C-8.17702504,11.1871068 -6.81410486,11.3917309 -5.34577229,11.7749359 C-4.13911047,10.7530558 -3.04778221,9.54267355 -1.76919193,8.64232773" id="Fill-20" fill="#16254F" mask="url(#mask-2)"></path>
                    </g>
                    <g id="Group-25" transform="translate(86.810203, 0.000000)">
                        <mask id="mask-4" fill="white">
                            <use xlink:href="#path-3"></use>
                        </mask>
                        <g id="Clip-24"></g>
                        <path d="M5.61240362,14.425631 C6.1320247,15.5256403 5.14734897,17.131629 6.17170936,17.6413289 C6.01793129,16.9394064 7.46146094,17.1390699 7.96247983,16.8054707 C7.96371997,15.6632965 8.57139139,14.8646426 8.82934171,13.8663253 L9.43949342,16.0551825 C10.8210158,15.69306 10.9326289,14.612893 11.5068164,13.7931567 C13.2206978,15.7414256 18.1800407,11.9378986 20.6181672,12.6038569 C19.8554776,14.4591149 16.8196008,15.0333024 14.4819261,16.0006161 C13.8531722,16.5413197 16.3669476,16.8525962 15.4045945,18.1039033 C13.8023262,17.9302829 12.8250913,17.4404253 11.5638631,18.8368294 C11.4262069,19.5027877 12.7916074,19.6206016 11.9123441,20.0868964 C10.6312735,20.644962 9.77929336,20.4403379 8.69416582,20.6474422 C8.49326221,21.4126122 8.16958417,22.1083339 7.96744041,22.8735039 C8.68300451,23.1624578 9.72100651,22.8809448 10.193502,23.6014694 C8.99924168,23.3497198 8.84918404,24.1458934 7.37713103,24.3864817 C7.45898065,26.6336258 6.2758816,29.5640902 6.93067856,31.255649 C8.31096079,29.6608216 10.5630655,28.558332 12.5783023,27.3206666 C12.9987117,26.5021704 12.3451549,25.0797232 12.7320804,24.2426248 C13.3447124,25.0288772 13.7440393,26.1921339 14.6815895,26.3979981 C14.7597187,24.7709269 16.335944,23.9921153 15.0251099,21.581272 C16.0854345,21.1025757 16.1040367,22.4741769 17.1643613,21.9967208 C17.5599678,21.0765327 17.4905197,19.8946738 17.6306561,18.833109 C19.671936,19.3217264 19.6607747,17.2047976 21.0373365,16.5326386 C21.4986707,20.4527394 19.9001229,21.6035946 20.888519,25.6799537 L19.6384521,26.0284347 L20.8575154,30.4086295 C19.1498347,30.5624076 20.7967482,32.6396517 20.9654081,34.4254616 L19.714101,34.7739425 C20.2014783,36.6540035 20.4891921,37.0719326 20.9864905,38.1297769 L19.4226667,38.5663082 C19.603728,40.11277 20.3726184,40.6187495 20.6938161,41.9209025 L19.4425091,42.2693835 C19.7810689,44.3193444 20.8128701,45.1390807 21.1514299,47.1890417 L19.9001229,47.5375226 C19.9088039,47.7867919 19.9621301,48.0038174 20.0303382,48.2059612 C21.382097,47.9182474 22.7363362,47.6404547 24.0930557,47.3800241 C24.1265396,47.0092205 24.1699447,46.6446177 24.2803177,46.3172192 C23.7792988,46.4238717 23.2075916,46.6607396 23.1666668,45.9526164 C23.4804237,44.3714305 23.815263,42.8026461 23.823944,41.04908 C23.3402872,41.1259691 22.6991318,41.4806508 22.4833465,41.0838041 C24.240633,36.9417173 21.9910086,33.9814894 24.0744535,29.8505639 C23.6924886,29.90265 23.2013909,30.1519193 23.0488529,29.7984778 C23.1021792,28.2272131 24.5395081,26.1983346 22.7660997,25.1566122 C23.9926038,20.858267 23.6292411,16.9704101 24.496103,13.2102882 C26.42701,13.8353216 27.6448331,15.7327446 29.4703276,16.5425598 C29.4405641,15.7352249 30.4587238,15.5194396 31.0874777,15.0816681 C30.4128384,16.8823597 31.8241243,18.9930878 33.1076751,19.913276 C33.4375539,19.207633 33.7029451,17.1031057 34.4631544,17.5135939 C34.3862654,18.7004134 34.5437639,20.0211686 34.8835639,21.4423757 C35.8669994,21.2563538 36.4783913,21.7288493 37.335332,21.7710143 C37.2820057,20.3349255 37.4047802,18.9980484 37.9405231,17.8930785 C38.4688252,19.6044797 39.4187769,20.5705532 40.100857,22.0116026 C42.780812,21.7796953 44.9572678,22.440693 47.5950578,22.2831945 C46.2854639,17.7467413 42.6096719,17.4081815 39.4696229,16.1171898 C40.5696321,15.5963286 42.6989624,15.6533753 43.1367339,14.7592302 C41.3224006,13.7733143 39.0058083,12.2280927 36.7202197,13.5128837 C36.7425423,12.8208824 38.1253049,12.8990116 38.0223728,12.1375621 C36.6569723,12.2194117 34.3961866,11.9254972 33.2416109,13.132159 C31.7174717,10.6915521 27.8234141,12.4525591 25.6233955,11.2086929 C27.4352485,11.2719403 30.0122713,9.97474789 31.7422747,10.1768916 C31.6616652,9.38815895 30.9833055,9.65603043 30.9957069,8.69987805 C32.4814015,9.18105461 33.9596553,9.67711291 35.4478302,10.1582895 C35.0981091,8.99255245 34.9765748,7.95827089 35.2878514,7.16581775 C35.9265264,8.21498106 36.8119905,8.82637292 37.4122211,9.94622454 C38.50975,9.4005604 38.9041164,10.1074435 40.0016454,9.56177935 C39.6829279,8.32535403 39.4981462,7.1670579 39.7560965,6.25803106 C41.1971459,10.2488201 44.5753029,10.8068857 48.6107372,10.1992143 C46.2817435,6.38080549 42.5327829,5.0774123 39.4237375,2.6405259 C32.7691153,3.16386741 29.0387569,7.22782504 24.5618307,9.81848952 C24.6077161,7.64699431 27.0694055,6.83841928 27.584066,4.92983496 C27.2653485,4.80209995 26.1963429,3.73929504 26.8337778,3.45158122 C29.1689722,3.31516519 30.6410252,2.62316386 31.9791425,1.34333344 C30.2764224,-0.934814311 26.3389596,0.745583186 22.9198778,1.50827282 C22.6842501,3.1068207 22.4759056,4.49206351 23.7396141,5.66400125 C21.5854809,5.94055375 23.0649748,8.27078762 22.0220122,9.17857431 C20.2051987,5.54246696 17.4210715,3.62148119 15.0251099,1.01097438 C9.63543645,1.44006481 4.95512638,4.43997739 1.86716345,7.03808274 C5.89267657,6.597831 10.0310429,5.7495713 12.1938571,4.16094459 C12.2074987,5.13569916 10.9375895,5.38496845 11.5527018,6.69952295 C12.6080658,6.85454117 14.0354736,6.35104199 15.3946733,5.96659681 C14.4484421,9.00991449 20.0340586,9.473729 20.5809629,11.2644995 C15.1578055,11.5286505 10.3584414,10.6841113 4.29040825,12.0966373 C2.54180274,14.7158251 -0.0488617427,18.262642 0.0367083143,21.0380882 C0.956896464,20.2381941 2.34461956,19.7024512 3.92952584,19.2770812 C4.51611478,17.6735727 4.89311909,15.9522504 5.61240362,14.425631" id="Fill-23" fill="#16254F" mask="url(#mask-4)"></path>
                    </g>
                </g>
                <g id="Group-31" transform="translate(0.000000, 39.353545)">
                    <path d="M133.211744,42.1989356 L127.820831,40.7529257 C126.497595,40.3994841 125.712583,39.0378041 126.067265,37.7158087 L135.540738,2.37909561 C135.89418,1.0558601 137.25586,0.269607687 138.577855,0.625529518 L143.968769,2.07029932 C145.290764,2.42498101 146.077016,3.78418075 145.722335,5.10865642 L136.248861,40.4453695 C135.89418,41.7673649 134.53374,42.5523772 133.211744,42.1989356" id="Fill-27" fill="#16254F"></path>
                    <path d="M295.481964,39.2451565 C293.133128,39.2315149 293.973947,42.0764092 294.719274,43.3153148 C296.102037,45.6157852 299.127992,45.99651 300.949767,44.0122768 C302.780222,42.0168822 303.27256,38.6598077 302.93896,36.0654228 C302.364773,31.6083389 300.208159,27.2231835 296.854805,24.2021885 C295.210372,22.7202143 293.017794,21.501151 290.928149,20.7942679 C289.774813,20.4048622 287.610759,20.0228973 286.556635,20.8550351 C285.109385,21.994729 286.246599,24.7962183 287.990243,24.9921613 C290.218785,25.2414306 292.459729,22.3568516 293.445645,20.701257 C296.861006,14.9655829 291.341117,8.31840166 285.481429,7.37217045 C268.890759,4.69593591 262.796682,27.4265674 250.426229,33.8368808 C246.468923,35.8880819 242.035402,37.2410809 237.722175,38.2902442 C219.154713,42.8068551 199.466159,39.5551929 181.957781,32.5434088 C164.258421,25.4559758 144.313157,7.1241413 124.047935,13.3571139 C105.208881,19.1510748 103.910449,44.3942416 86.4330745,52.5047949 C76.2204742,57.2433918 64.2679494,56.4931036 53.5568105,54.0388552 C46.2424309,52.360938 11.6882497,43.4703331 17.4078019,31.5959375 C20.0021869,26.2137049 31.9385897,29.5087722 30.8795053,35.5842462 C29.3057603,44.5852241 14.013523,46.1292056 7.33409798,44.7328014 C4.46316055,44.1325709 -0.630118058,42.5489048 0.901461949,38.6151624" id="Stroke-29" stroke="#16254F" stroke-linecap="round" stroke-linejoin="round"></path>
                </g>
            </g>
        </g>
    </g>
</svg>