<svg xmlns="http://www.w3.org/2000/svg" xmlns:xlink="http://www.w3.org/1999/xlink" width="122" height="96" viewBox="0 0 122 96">
    <defs>
        <path id="a" d="M0 40.136V.436h42.731v39.7z"/>
        <path id="c" d="M51.405 38.75l1.35-1.336a.26.26 0 0 1 .441.15l.24 1.886a.26.26 0 0 0 .14.198l1.686.872a.26.26 0 0 1-.007.466l-1.718.81a.259.259 0 0 0-.147.194l-.306 1.874a.26.26 0 0 1-.447.137l-1.3-1.384a.261.261 0 0 0-.23-.08l-1.878.289a.26.26 0 0 1-.267-.383l.914-1.665a.26.26 0 0 0 .004-.242l-.854-1.697a.26.26 0 0 1 .281-.372l1.867.354c.084.016.17-.01.231-.071z"/>
        <path id="d" d="M41.91 4.053l2.467-.579a.347.347 0 0 1 .395.481l-1.04 2.31a.346.346 0 0 0 .02.323l1.311 2.167a.348.348 0 0 1-.335.526l-2.519-.277a.346.346 0 0 0-.3.118l-1.656 1.918a.348.348 0 0 1-.604-.156l-.514-2.48a.349.349 0 0 0-.206-.25l-2.336-.983a.347.347 0 0 1-.038-.622l2.201-1.257a.347.347 0 0 0 .174-.272l.211-2.525a.348.348 0 0 1 .58-.228l1.876 1.705a.352.352 0 0 0 .312.081z"/>
        <path id="e" d="M35.308 24.124c.44-.876.972-1.664 1.717-2.3 2.588-2.211 6.777-1.83 8.564 1.549.908 1.717.863 3.513.365 5.333-.58 2.127-1.626 4.045-2.672 5.962-.894 1.64-1.794 3.276-2.692 4.914-.036.066-.08.13-.203.336-.693-.39-1.361-.812-2.068-1.153-2.273-1.098-4.586-2.117-6.833-3.264-1.604-.82-2.997-1.935-4.018-3.47-2.053-3.081-.764-7.156 2.692-8.39 1.645-.587 3.259-.424 4.816.354.07.035.14.072.212.106.022.01.05.01.12.023z"/>
    </defs>
    <g fill="none" fill-rule="evenodd">
        <path fill="#16254F" stroke="#16254F" d="M119.043 86.007l-26.171-2.385c-.571-.053-.97-.472-.891-.942l5.935-35.724c.073-.437.537-.77 1.075-.77h16.346c.62 0 1.088.437 1.008.94l3.89 38.11c-.075.477-.611.824-1.192.77z"/>
        <path fill="#FFC304" stroke="#16254F" d="M108.682 94.86l-44.896-4.562c-.98-.1-1.663-.905-1.53-1.802L72.44 20.151c.125-.838.92-1.474 1.845-1.474h45.04c1.065 0 1.867.836 1.73 1.801l-10.327 72.908c-.13.912-1.05 1.576-2.045 1.474z"/>
        <path fill="#FFF3CD" stroke="#16254F" d="M101.398 85.83l-29.975-2.758c-.654-.078-1.097-.71-.993-1.413l7.968-53.614c.098-.656.641-1.155 1.26-1.155h30.148c.712 0 1.236.655 1.128 1.412l-8.142 56.372c-.102.716-.729 1.235-1.394 1.156z"/>
        <path fill="#16254F" d="M91.202 60.304c-.133 1.057-1.145 1.761-2.129 1.598-1.049-.172-1.807-1.142-1.687-2.168.206-1.755 1.866-1.583 2.036-2.978l.255-2.079c.156-1.38-1.489-1.505-1.265-3.379.125-1.038 1.17-1.82 2.193-1.754 1.093.073 1.867 1.002 1.73 2.072-.235 1.822-1.949 1.724-2.124 3.131l-.256 2.071c-.162 1.384 1.488 1.57 1.247 3.486m4.15-4.079c2.41-2.453 3.501-4.355 3.37-6.748-.499-8.425-16.302-4.31-16.752-.042-.207 1.981 1.117 3.388.826 6.117-.396 3.767-1.858 4.938-2.02 6.558-.096.98.451 1.554 1.061 2.11 5.866 5.325 14.83 4.133 16.312-.677.781-2.517-.423-5.108-2.798-7.318"/>
        <g transform="translate(0 53.37)">
            <mask id="b" fill="#fff">
                <use xlink:href="#a"/>
            </mask>
            <path fill="#16254F" d="M33.168 37.835c.259.388-.097.775-.39.841-.29.064-1.195-.162-1.388-.357-.194-.193-.453-.193-.453-.193s-.582-.582-1.327-.323c-.408.142-.627.515-.746.826-.244-.079-.45-.104-.45-.104s-.808.572-1.39.733c-.582.162-1.358-.377-1.358-.377s-1.23-.29-1.423-.582c-.194-.29-.842.118-1.1-.529-.258-.647-1.81-5.497-1.81-5.497l.129-.323c.129-.324.193-1.327.355-2.329.037-.22.09-.402.149-.569.693.074 1.387.136 2.086.126.91-.014 1.806.212 2.722.072.213-.032.426-.086.639-.148-.034.03-.062.063-.098.09-.073.322-.13.621-.13.785 0 .485.906 1.132 1.908 2.102 1.003.97 3.816 5.368 4.075 5.756M42.616 5.92l-1.978-1.368-1.203-.83c-.028-.783-.335-1.519-1.116-2.106-2.147-1.617-5.615-1.437-7.931-.265-1.885.953-3.182 2.7-4.348 4.402-.862 1.26-1.785 2.487-2.856 3.578-.927.942-1.898 1.815-2.72 2.853a110.134 110.134 0 0 0-2.554 3.374c-1.616 2.212-3.204 4.5-4.806 6.685-2.05 2.796-3.301 4.726-3.654 5.41-.203.395-.228.868-.213 1.195a.914.914 0 0 1-.298.712c-1.25 1.146-5.543 5.09-6.557 6.056-1.19 1.137-2.912 2.51-2.226 3.37.686.862 1.915 1.578 2.726.85.81-.728 7.697-7.237 8.59-8.065.894-.829 1.97-1.21 3.18-1.653a9.752 9.752 0 0 0 1.894-.937.852.852 0 0 1 .324-.129 16.65 16.65 0 0 1 1.186-.19c.713-.073 1.419-.048 2.12.008a9.742 9.742 0 0 1-.31.748c-.237.533-.423 1.087-.245 1.668.083.268.226.492.413.698.196.218.338.436.468.7.534 1.09.847 2.266 1.287 3.392.217.551.487 1.074.81 1.571.124.192.298.465.16.698-.11.185-.373.092-.526.013-.108-.053-.21-.172-.324-.209-.123-.04-.187.11-.232.2a2.083 2.083 0 0 0-.127.346c-.024.083-.037.245-.115.292-.041-.06-.024-.15-.027-.219a1.76 1.76 0 0 0-.037-.24 1.454 1.454 0 0 0-.148-.419c-.12-.208-.322-.355-.57-.34-.268.015-.508.192-.67.398-.087.11-.15.236-.211.362-.037.082-.141.263-.076.351.069-.012.108-.107.144-.157.057-.079.129-.148.197-.218.115-.117.26-.299.44-.195.15.087.23.297.299.445.04.085.08.173.106.262.02.076.029.173.086.232.039-.067.002-.223.002-.303 0-.066.013-.298.086-.123.027.068.029.126.09.173a.361.361 0 0 0 .215.054c.216 0 .42-.1.638-.06.179.033.316.15.476.23.198.097.405.117.62.154.199.035.38.102.563.186.19.087.408.186.624.162.16-.018.244-.057.274.133.004.035 0 .12.049.128.059.012.117-.16.129-.193.023-.058.04-.137.089-.18.067-.058.116-.024.19-.002.208.065.44.074.657.08.442.014.863-.056 1.268-.236.193-.086.38-.162.598-.16.213.004.418.063.63.076.172.012.45-.003.503-.209.007-.024-.002-.058.007-.08.026-.07.026-.02.074-.027.046-.006.063-.029.104-.048.05-.024.099-.02.156-.01.202.03.367.154.503.301.07.075.133.155.184.245.036.062.08.192.159.207.058-.099-.084-.286-.128-.37-.077-.144-.147-.293-.262-.409-.102-.102-.236-.136-.344-.224-.117-.096.039-.21.119-.274.242-.197.52-.217.819-.167.1.017.24.028.32.101.09.083.09.27.135.378.049.122.113.25.234.317.142.076.313.05.466.028.173-.024.343-.044.516-.005.166.037.32.108.487.15.35.085.716.094 1.076.104.336.01.673-.038.99.098.176.074.343.138.537.131.19-.008.365-.086.547-.126.11-.025.22-.026.332-.033.064-.006.139-.025.196.012.097.066-.003.274.09.314.148-.07.047-.332.259-.332.15 0 .317.065.463.09.162.026.324.043.488.037.278-.009.559-.084.812-.198s.524-.31.815-.282c.216.02.435.262.648.096.095-.076.08-.159.078-.262-.004-.089.044-.094.117-.073.14.041.284.15.39.25.1.092.186.208.258.323.045.076.09.225.182.255.057-.058-.018-.209-.041-.27a1.929 1.929 0 0 0-.211-.428c-.164-.245-.386-.399-.621-.564-.053-.038-.077-.067-.091-.132-.01-.05.003-.094-.04-.135-.073-.07-.223-.046-.316-.046-.332.004-.66.066-.968.194-.297.124-.575.3-.891.377a3.031 3.031 0 0 1-.444.067c-.15.014-.307.04-.457.042-.112.001-.173-.018-.21-.126-.043-.126-.086-.247-.202-.324a.312.312 0 0 0-.315-.02c-.116.055-.188.157-.33.124-.266-.06-.528-.304-.72-.489-.233-.224-.448-.47-.661-.714a34.902 34.902 0 0 1-1.281-1.569c-.854-1.096-1.673-2.216-2.501-3.33-.191-.258-.383-.515-.576-.77-.183-.248-.371-.499-.462-.797a1.632 1.632 0 0 1-.003-.898c.084-.299.249-.564.4-.834a5.112 5.112 0 0 0 .432-.968c1.284-.579 2.527-1.256 3.658-2.094a11.224 11.224 0 0 0 2.92-3.233c1.343-2.24 1.622-4.78 1.743-7.34.077-1.609.186-3.673-.508-5.188-.398-.866.004-2.122.3-2.638.203-.349.414-.733.608-1.134l1.395-.052 2.404-.09c.238-.01.306-.24.109-.377" mask="url(#b)"/>
        </g>
        <g>
            <use fill="#FFC304" xlink:href="#c"/>
            <path stroke="#16254F" d="M51.143 38.306l1.26-1.247a.76.76 0 0 1 1.29.443l.223 1.76 1.573.812a.76.76 0 0 1-.02 1.364l-1.606.758-.285 1.747a.76.76 0 0 1-1.305.4l-1.215-1.292-1.755.27a.76.76 0 0 1-.78-1.119l.854-1.554-.798-1.585a.76.76 0 0 1 .821-1.088l1.743.33z"/>
        </g>
        <g>
            <use fill="#FFC304" xlink:href="#d"/>
            <path stroke="#16254F" d="M41.874 3.548l2.388-.56a.847.847 0 0 1 .966 1.173L44.22 6.397l1.27 2.098a.848.848 0 0 1-.817 1.283l-2.44-.268-1.602 1.858a.848.848 0 0 1-1.472-.382l-.497-2.402-2.261-.951a.847.847 0 0 1-.094-1.518l2.132-1.217.204-2.446a.848.848 0 0 1 1.414-.555l1.817 1.651z"/>
        </g>
        <g>
            <use fill="#FFC304" xlink:href="#e"/>
            <path stroke="#16254F" d="M35.078 23.488c.462-.83.98-1.496 1.622-2.044 2.95-2.521 7.462-1.838 9.33 1.695.906 1.711.989 3.568.406 5.698-.497 1.823-1.13 3.164-2.715 6.07-.508.93-.974 1.783-1.795 3.278l-.224.409-.673 1.227-.002.002c-.03.055-.205.342-.213.353l-.25.415-.423-.238c-.17-.095-.324-.185-.59-.34l-.22-.128a17.28 17.28 0 0 0-1.23-.67c-.714-.345-1.3-.621-2.578-1.218l-.03-.013c-2.124-.992-3.07-1.443-4.235-2.038-1.772-.905-3.185-2.102-4.207-3.637-2.236-3.357-.817-7.798 2.94-9.138 1.698-.607 3.41-.487 5.087.317z"/>
        </g>
        <path fill="#16254F" d="M55.833 15.544c.542-.183 1.086-.291 1.655-.25 1.982.146 3.562 2.024 2.915 4.16-.328 1.084-1.085 1.81-2.038 2.36-1.113.644-2.335 1.009-3.556 1.375-1.043.312-2.088.622-3.133.93-.043.014-.086.024-.223.057-.127-.445-.23-.895-.384-1.326-.491-1.39-1.032-2.761-1.492-4.16-.328-.998-.448-2.032-.241-3.087.414-2.121 2.622-3.281 4.56-2.373.924.43 1.526 1.162 1.852 2.124.015.044.028.087.044.13.006.014.017.025.041.06"/>
        <path stroke="#16254F" stroke-linecap="round" stroke-linejoin="round" d="M52.318 6.465C54 4.478 55.678 2.49 57.36.5M31.672 16.018l-14.13-5.624M32.122 11.082l-4.515-2.474"/>
    </g>
</svg>
