<svg xmlns="http://www.w3.org/2000/svg" xmlns:xlink="http://www.w3.org/1999/xlink" width="190" height="164" viewBox="0 0 190 164">
  <defs>
    <path id="pic9-a" d="M133,123.00025 L57,123.00025 L57,60.89425 C57,59.52825 57.6518462,58.25425 58.7353333,57.49725 L92.8378974,33.68625 C94.1474359,32.77125 95.8535385,32.77125 97.1630769,33.68625 L131.265641,57.49725 C132.349128,58.25425 133,59.52825 133,60.89425 L133,123.00025 Z"/>
    <path id="pic9-b" d="M52,131 C50.896,131 50,130.104 50,129 L50,125 C50,123.896 50.896,123 52,123 L140,123 C141.105,123 142,123.896 142,125 L142,129 C142,130.104 141.105,131 140,131 L52,131 Z"/>
    <path id="pic9-c" d="M98.254,33.8569348 C96.895,32.9126976 95.106,32.9126976 93.747,33.8569348 C93.747,33.8569348 68,51.6456711 52,62.8502119 C51.09,63.4878521 50,61.9375511 50,60.8130227 L50,56.7386442 C50,55.6141158 51.081,55.3248349 52,54.701455 C67,44.5155088 93.747,25.7081779 93.747,25.7081779 C95.106,24.7639407 96.895,24.7639407 98.254,25.7081779 L140,54.701455 C142,55.7200496 142,56.6327104 142,57.7572388 L142,60.8130227 C142,61.9375511 140.908,63.4909079 140,62.8502119 C127,53.6828604 98.254,33.8569348 98.254,33.8569348 Z"/>
    <path id="pic9-d" d="M18.1646,21.5427342 C16.8673619,21.8278785 15.5157534,21.9644359 14.129,21.934 C8.22062026,21.8049686 3.08239781,18.676127 0.136924738,14.0346514 L0.136924738,0.703899342 L18.1646,0.703899342 L18.1646,21.5427342 Z"/>
    <path id="pic9-f" d="M14.5739,12.806196 C11.8836875,17.9508301 6.64249466,21.5314392 0.565712772,21.905725 L0.565712772,0.217798503 L14.5739,0.217798503 L14.5739,12.806196 Z"/>
    <polygon id="pic9-h" points=".745 .121 4.077 .121 4.077 2.305 .745 2.305"/>
  </defs>
  <g fill="none" fill-rule="evenodd" transform="translate(0 -1)">
    <use fill="#FFF3CD" xlink:href="#pic9-a"/>
    <path stroke="#16254F" d="M133.5,123.50025 L56.5,123.50025 L56.5,60.89425 C56.5,59.3671436 57.2297744,57.9391922 58.4490929,57.087291 L92.5515186,33.2763876 C94.0330624,32.2412041 95.9679119,32.2412041 97.4493174,33.276291 L131.552006,57.0873781 C132.770908,57.9389879 133.5,59.3667704 133.5,60.89425 L133.5,123.50025 Z"/>
    <path fill="#16254F" d="M97.1583948 58.8578734C97.1311358 59.5958135 96.3785927 60.1663055 95.5871081 60.1361259 94.7430526 60.1039992 94.0771541 59.4809363 94.1053866 58.7429962 94.1530899 57.4832409 95.4702838 57.4988175 95.5072781 56.5126257L95.5627697 55.0445338C95.5890552 54.0729451 94.3039879 54.0456861 94.3546118 52.7109685 94.3818708 51.9740019 95.1344139 51.40351 95.924925 51.432716 96.7719011 51.4648427 97.434879 52.0888791 97.40762 52.8268193 97.3599167 54.0865746 96.021305 54.0826804 95.9843107 55.0688722L95.9288191 56.5252817C95.8986395 57.499791 97.2090187 57.5221823 97.1583948 58.8578734M100.106261 55.8301771C101.784637 54.0914422 102.47098 52.806375 102.167236 51.2409295 101.085638 45.6771725 89.4022353 48.3066927 89.2824904 51.485287 89.2269989 52.9670084 90.3261207 53.9707238 90.2492114 55.9985988 90.143096 58.8091966 89.0478683 59.7963619 89.0011386 61.024964 88.9738796 61.7687454 89.4402032 62.1445302 89.9581242 62.4940295 95.0088278 65.6463384 102.150686 63.7459965 102.9227 60.4603133 103.320876 58.7634404 102.150686 57.1580799 100.106261 55.8301771M99 161L93 161C91.896 161 91 160.104 91 159L91 131 101 131 101 159C101 160.104 100.105 161 99 161"/>
    <use fill="#FFC304" xlink:href="#pic9-b"/>
    <path stroke="#16254F" d="M52,131.5 C50.6198576,131.5 49.5,130.380142 49.5,129 L49.5,125 C49.5,123.619858 50.6198576,122.5 52,122.5 L140,122.5 C141.380836,122.5 142.5,123.619551 142.5,125 L142.5,129 C142.5,130.380449 141.380836,131.5 140,131.5 L52,131.5 Z"/>
    <use fill="#FFC304" xlink:href="#pic9-c"/>
    <path stroke="#16254F" d="M97.9701229,34.2685339 L97.9687028,34.2675508 C96.7812315,33.4424923 95.2197685,33.4424923 94.0312149,34.2683007 C93.9254099,34.3414019 93.9254099,34.3414019 93.422699,34.6888393 C92.9265917,35.0317423 92.3511031,35.4296021 91.7028482,35.8778762 C89.8506767,37.1586698 87.7868224,38.586611 85.5642078,40.1253592 C79.2138998,44.5217691 72.8636003,48.9253323 66.9367117,53.0453075 C66.8116034,53.1322755 66.8116034,53.1322755 66.6864984,53.2192456 C61.1749013,57.0508267 56.3166669,60.4377291 52.2869245,63.2596925 C51.0045317,64.1582696 49.5,62.4115082 49.5,60.8130227 L49.5,56.7386442 C49.5,55.8202873 49.939518,55.3353005 50.9507217,54.7487314 C50.9574449,54.7448315 51.2871345,54.5557089 51.3805973,54.5004178 C51.5107679,54.4234109 51.6192685,54.3555365 51.7191101,54.2878116 C55.945739,51.417664 61.3424118,47.7021386 67.6352761,43.3363502 C67.8904635,43.1592988 67.8904635,43.1592988 68.1456221,42.9822259 C73.7191846,39.1141051 79.6599234,34.9696001 85.5799702,30.8250827 C87.6520001,29.3744921 89.5734346,28.0275184 91.2957957,26.8187041 C91.8986108,26.395627 92.4334795,26.0200424 92.8943421,25.6962682 C93.3612393,25.3681939 93.3612393,25.3681939 93.4617028,25.2975619 C94.9922315,24.234146 97.0087685,24.234146 98.5392178,25.2975067 L140.226915,54.2559106 C140.918905,54.6083392 141.423677,54.9689085 141.778316,55.3612073 C142.383349,56.0304919 142.5,56.56518 142.5,57.7572388 L142.5,60.8130227 C142.5,61.4899553 142.188422,62.2751743 141.719377,62.8198466 C141.142909,63.4892628 140.381352,63.73124 139.71185,63.2588308 C135.565078,60.3346067 129.571124,56.1526894 122.205893,51.0391656 C122.087026,50.9566398 122.087026,50.9566398 121.968155,50.8741162 C116.718622,47.2297924 111.094056,43.3352951 105.469481,39.4475787 C103.500872,38.086873 101.672881,36.8242105 100.032382,35.6917085 C99.4582125,35.2953366 99.1183964,35.0608087 98.5090853,34.6403587 C98.0638298,34.3331629 98.0638298,34.3331629 97.9701229,34.2685339 Z"/>
    <g transform="translate(78 75)">
      <path fill="#16254F" d="M36.4995,18.159 C36.4995,28.1 28.4405,36.159 18.4995,36.159 C8.5595,36.159 0.4995,28.1 0.4995,18.159 C0.4995,8.218 8.5595,0.159 18.4995,0.159 C28.4405,0.159 36.4995,8.218 36.4995,18.159"/>
      <g transform="translate(4 13.221)">
        <mask id="pic9-e" fill="#fff">
          <use xlink:href="#pic9-d"/>
        </mask>
        <path fill="#FFC304" d="M18.1369247,24.0202814 C15.8873834,22.2051053 14.4306232,21.1321909 12.6853067,18.8459077 C12.6034326,18.7064289 12.4936014,18.5542701 12.3847688,18.3991852 C12.3308517,18.3221304 12.2749376,18.2450756 12.2250144,18.1680209 C11.0618028,16.3469925 9.949513,13.4237883 9.35542642,11.3598911 C9.08683938,10.4215786 8.92309114,9.66078478 8.91310649,9.26283106 C8.87816022,7.98801363 9.42531896,7.01848913 8.6375302,5.03067129 C8.4897574,4.65710199 8.28207671,4.33230153 8.03845129,4.05041765 C7.2257009,3.11112983 6.01056919,2.64685049 5.27370213,2.46640579 C5.19981573,2.44884901 5.13092166,2.43324298 5.06701991,2.42056308 C4.94021487,2.39617866 4.83637453,2.38154801 4.76148966,2.37764651 C4.53783354,2.36204048 4.30718816,2.32205003 4.10849365,2.27913345 C3.77600486,2.20793095 3.52638865,2.1259993 3.52638865,2.1259993 C3.52638865,2.1259993 2.8973558,1.55150239 2.30526614,1.12526274 C1.71317649,0.699998477 1.15603311,0.703899984 1.15603311,0.703899984 C1.08314517,0.712678375 1.1051114,0.76827485 1.17200854,0.843378861 C1.23790722,0.919458248 1.34773836,1.01602055 1.44658638,1.10770596 C1.5963561,1.24425871 2.05065761,1.82753401 2.37016636,2.28791184 C2.4770021,2.44104599 2.56886086,2.58150025 2.62976722,2.68684094 C2.80949089,3.00188763 3.02615776,3.21256901 3.11202574,3.42617652 C3.11901499,3.4437333 3.1160196,3.46324084 3.12101192,3.47982224 C2.93729439,3.47592074 2.81248629,3.46519159 2.81248629,3.46519159 C2.81248629,3.46519159 2.06563458,3.04773034 1.39167081,2.76682183 C0.715710109,2.4868887 0.173543698,2.61661381 0.173543698,2.61661381 C0.0357555491,2.66830878 0.314327241,2.81071379 0.551961874,2.9443404 C0.787599578,3.07699164 1.73713965,3.85729305 2.0706269,4.21330557 C2.4031157,4.56834271 2.75457532,4.72732912 2.79750931,5.02872054 C2.83644944,5.29694915 3.2637924,6.30451334 3.57731036,6.92680372 C3.5703211,7.19990921 3.55035181,7.46131018 3.49843163,7.68467146 C3.39459129,8.13139402 2.99820075,8.84829593 2.51793916,9.88414605 C2.31125693,10.3308686 2.09159467,10.8302615 1.86893701,11.4018323 C1.40664778,12.5888658 1.19996556,13.9875561 1.3237752,15.4077047 C1.37269998,15.9753739 1.47554186,16.5469447 1.6362947,17.1097371 C1.71717035,17.391621 1.81102604,17.6705787 1.92185564,17.945635 C2.24735518,18.7639761 2.83345405,19.4330845 3.41855445,20.0856116 C3.92477612,20.6513301 4.26724957,21.2863004 4.76748045,21.8520189 C5.79589924,23.014668 7.31855813,23.6857272 8.80427382,24.0924593 C11.8296223,24.9195788 15.08961,24.9068989 18.1079693,24.0583211" mask="url(#pic9-e)"/>
      </g>
      <g transform="translate(19 13.221)">
        <mask id="pic9-g" fill="#fff">
          <use xlink:href="#pic9-f"/>
        </mask>
        <path fill="#FFC304" d="M14.2658881,23.8831002 C12.7397806,21.9755131 14.0799968,20.1617577 14.3608326,18.1864572 C14.5027496,17.1794602 13.7302014,15.8522749 13.3414287,14.9168607 C12.8737023,13.7908814 12.3550056,12.6842488 11.7863382,11.6027669 C11.3645848,10.8027798 10.2772207,9.57426281 10.362171,8.6794768 C10.4441231,7.82144957 11.3645848,6.91312086 11.7033867,6.12667652 C12.408974,4.48413962 11.4775188,2.35986928 9.86346266,1.58890231 C8.96798633,1.16230704 7.90760645,0.986251844 6.92218272,1.16037236 C6.82723825,1.17681708 5.8658005,1.53569882 5.83781686,1.51635209 C5.83581803,1.51538476 4.19277888,0.349744612 3.87296591,0.260749679 C3.55215352,0.170787411 3.44421665,0.213350205 3.64509917,0.472596311 C3.84498228,0.731842418 5.17620378,2.51367574 5.17620378,2.51367574 C5.17620378,2.51367574 4.68149308,3.38040899 4.69248665,4.17362469 C4.70447964,4.96780773 5.08025988,5.49984265 5.08025988,5.49984265 C5.08025988,5.49984265 5.1392254,5.87613644 4.6565077,5.85001836 C3.49518684,5.78907618 2.07701619,7.53511805 1.56631485,8.33994179 C0.0581967963,10.7157195 0.475952492,13.7212332 1.37242823,16.2285687 C1.47037095,16.5052268 2.3478578,19.0473864 2.59971051,19.0019216 C3.58713307,21.0642824 5.44904422,22.475626 7.67074496,23.2127362 C9.83148136,23.928565 12.2880448,24.2119945 14.5657128,24.2177985 C14.4557771,24.1084895 14.3568349,23.9972458 14.2658881,23.8831002" mask="url(#pic9-g)"/>
      </g>
      <g transform="translate(21 15.221)">
        <mask id="pic9-i" fill="#fff">
          <use xlink:href="#pic9-h"/>
        </mask>
        <path fill="#FFC304" d="M3.5288,1.9029 C3.5288,1.9029 3.5728,2.0699 3.6588,2.3049 C3.7768,2.1369 3.8898,1.9679 3.9638,1.7979 C4.1688,1.3219 4.0708,0.9389 3.8608,0.5579 C3.7638,0.4119 3.6718,0.2659 3.5838,0.1209 C3.3838,0.4609 3.3148,0.6969 3.3148,0.6969 C3.3148,0.6969 1.2888,0.9289 0.9908,1.0789 C0.6918,1.2279 0.6418,1.3349 0.9718,1.3939 C1.3008,1.4549 3.5288,1.9029 3.5288,1.9029" mask="url(#pic9-i)"/>
      </g>
    </g>
    <polygon fill="#16254F" points="126.428 155 91.598 156.413 101.01 158.985 77.359 156.769 54 157.063 77.359 161.484 65.952 164.134 103.703 165 92.569 162.662 139.465 164.134 115.202 161.778 142 159.125 113.935 157.947"/>
    <path fill="#16254F" d="M47.1122939 41.324493C47.006498 41.3186326 46.8820898 41.3264465 46.8213551 41.278586 46.7243755 41.2014233 46.8419265 41.0344 46.8634776 40.904493 46.9291102 40.5294233 46.2375184 40.5538419 45.8035592 40.454214 45.3852735 40.358493 45.1413551 40.0390977 44.7632327 39.8886791 44.5340082 39.7988186 44.2891102 39.7773302 44.0383347 39.7939349 44.0530286 39.3426791 44.0373551 38.8924 43.9540898 38.4704465 43.8561306 37.9742605 43.5201306 37.0600279 43.838498 36.5765395 44.6339265 35.372214 44.4389878 32.9342605 43.6278857 31.7719349 41.6726204 28.9755163 40.4158041 28.6033767 39.2236408 27.7174698 38.5026612 27.182214 40.2345796 25.3908651 41.0417633 24.5752837 41.8724571 23.7323535 42.7687837 22.3463535 43.0273959 21.176214 43.2781714 20.0461209 43.3790694 18.9101674 43.4731102 17.7761674 43.8022531 13.8115628 43.5632327 10.0335163 43.2664163 6.01909767 43.1390694 4.31663256 42.8158041 3.10253953 42.782498 1.09435349 41.028049.261190698 41.2964571 5.16933023 41.2651102 5.32170233 40.8174367 4.44263256 40.5852735 3.12695814 39.7555592 2.5291907 37.8688653 3.67784186 38.0089469 5.93509767 38.1852735 7.72546977 38.1588245 7.46467907 37.4584163 5.66356279 37.2556408 5.30216744 36.9872327 4.8216093 36.6238041 3.9659814 35.9331918 4.09393488 34.8252735 4.30393488 34.8242939 6.35509767 35.1093551 7.1071907 34.4618449 6.47816744 33.7898449 6.34435349 33.1873959 6.94114419 32.6349061 7.48909767 33.0051918 8.07123721 32.5065796 8.5771907 32.1656816 8.92393488 31.2321306 7.70593488 30.7707429 9.78053953 30.6238041 10.4437488 28.7165388 9.59691163 29.3699265 11.5113302 28.596049 11.5191442 27.9397224 12.2546326 27.9681306 12.9510512 28.0063347 13.9150977 27.9034776 13.6171907 27.8016 14.0772372 27.3196408 12.2048186 26.4850286 10.4339814 25.2096 9.02551628 23.1279673 6.72821395 19.7307429 1.54170233 19.7522939 1.51337674 18.4974367 3.08886512 20.174498 5.66551628 20.8817633 7.19900465 20.1255184 6.94602791 18.703151 5.08142326 18.0223347 5.92337674 16.9536 6.67742326 19.3780898 8.68365581 20.2097633 10.0247256 19.7278041 9.98467907 18.0497633 8.95421395 17.774498 9.48751628 17.4296816 10.1526791 19.1322122 11.4576093 19.5338449 11.7828651 19.1978449 11.5132837 18.5699265 11.4859349 18.1957224 11.6070512 18.4827429 12.5369116 18.4827429 12.5369116 19.7944163 13.9131442 18.2789878 13.0330977 18.3044571 14.8351907 19.1958857 15.7230512 19.0195592 15.586307 18.7207837 16.9312837 18.7805388 17.1217488 18.878498 17.4245395 19.231151 17.5417488 19.3506612 17.8181674 19.5073959 18.1815163 19.3300898 18.194214 19.2801306 18.5458419 19.1978449 19.1230977 19.4946612 19.6720279 19.8571102 20.1076558 20.196049 20.5159349 20.0745796 20.4866326 20.1754776 20.9720744 20.2254367 21.2172372 20.623151 21.7134233 20.8396408 21.8570047 18.0967837 22.1050977 15.7918041 22.3629581 12.7482122 22.298493 9.98576327 22.2398884 6.93139592 22.0025395 4.2336 21.328586 3.71147755 21.1996558.449436735 21.0834233-.000195918367 21.4750977 3.09923265 22.4420744 8.30772245 23.4110047 8.81417143 23.6512837 9.78690612 24.1142605 10.6156408 24.7520744 11.4816 25.4045395 13.3183347 26.7866326 14.462498 26.9468186 15.4734367 28.2888651 15.8633143 28.804586 16.2816 29.2978419 16.7126204 29.7813302 16.5362939 29.9268651 16.4941714 30.1925395 16.5059265 30.4074233 16.5137633 30.5529581 16.5421714 30.6975163 16.591151 30.8352372 16.6009469 30.8616093 16.7106612 31.1390047 16.7488653 31.1243535 16.7488653 31.1243535 16.0690286 31.3949116 16.0063347 30.6408651 15.9818449 30.3478419 15.8554776 29.6377488 15.4097633 29.9483535 15.1011918 30.1622605 15.1070694 30.5646791 15.2011102 30.8889581 15.3362939 31.3626791 15.7673143 31.6908651 16.2247837 31.8246791 16.7557224 31.9809581 17.2984163 31.8422605 17.8185796 31.7074698 18.0135184 31.6576558 18.2113959 31.6088186 18.4112327 31.5677953 18.5278041 31.6850047 18.6443755 31.8051442 18.7638857 31.9213767 19.2125388 32.3638419 19.6131918 32.7486791 20.0069878 33.0973767 19.7660082 33.2507256 19.5593143 33.3679349 19.2350694 33.2995628 19.0734367 33.2644 18.9421714 33.1618419 18.8736 33.0104465 18.8128653 32.8795628 18.8109061 32.7271907 18.7482122 32.596307 18.6639673 32.4195163 18.4553143 32.4136558 18.340702 32.5670047 18.2172735 32.7340279 18.2564571 32.9762605 18.3250286 33.1569581 18.3691102 33.272214 18.4308245 33.3835628 18.5062531 33.4831907 18.5209469 33.5027256 18.6835592 33.7000279 18.7109878 33.6785395 18.7109878 33.6785395 18.2260898 34.0760744 17.9782531 33.4763535 17.8812735 33.2438884 17.5922939 32.6978884 17.3101714 33.0661209 17.1142531 33.3220279 17.2249469 33.6482605 17.3856 33.8895163 17.620702 34.2391907 18.0576 34.3954698 18.4660898 34.3857023 18.9392327 34.3769116 19.3467429 34.1210047 19.7356408 33.8768186 19.9668245 33.7322605 20.1999673 33.5837953 20.4497633 33.4724465 21.566498 34.390586 22.7253551 35.0596558 24.799151 35.8693767 29.2102531 37.5034698 32.1549061 37.876586 36.9353143 37.4448651 38.0373551 37.3452372 40.7410286 37.3530512 41.9096816 37.9869581 42.6179265 38.422586 43.1224163 39.1190047 43.492702 39.8750047 43.4388245 39.8857488 43.3849469 39.8955163 43.3330286 39.9072372 42.5963755 40.076214 42.0781714 39.9834233 41.3777633 39.9433767 41.0016 39.9209116 40.4549878 40.0459349 40.1630694 40.3409116 39.8113959 40.6974233 39.3500082 41.3723535 39.3441306 41.7991907 39.3402122 42.0970977 39.4460082 42.5200279 39.7056 42.6850977 39.7477224 42.7124465 39.8006204 42.7339349 39.8564571 42.722214 40.111151 42.6694698 40.0053551 42.0111442 40.0905796 41.8206791 40.2326204 41.504214 40.5598041 41.3020279 40.8673959 41.1369581 41.3601306 40.9074233 41.6500898 41.0734698 42.1212735 41.1281674 42.5611102 41.1799349 43.0998857 40.8478419 43.5162122 40.9670047 44.2744163 41.1828651 44.8073143 41.4944465 45.3558857 41.9886791 45.4499265 42.0746326 45.5782531 42.1635163 45.7859265 42.1156558 45.9328653 42.3149116 45.3421714 42.7700744 45.5625796 42.9253767 45.6164571 42.9634698 45.7075592 42.9693302 45.8016 42.9654233 46.1611102 42.9478419 46.6019265 42.7837488 46.9251918 42.5454233 47.294498 42.3471442 47.5736816 42.0375163 47.6118857 41.7845395 47.6510694 41.530586 47.4492735 41.3450047 47.1122939 41.324493M187.524968 76.1787C188.243886 76.2077 188.866265 76.1257 189.339724 75.4247 189.057292 74.9077 187.900859 75.2727 183.917022 74.4817 181.108103 73.9237 177.068805 72.8067 176.294427 72.5857 174.608049 72.1057 174.154103 72.0787 173.582049 71.8337 172.916535 71.5497 173.940481 70.6087 173.802859 69.7857 173.706319 69.2157 173.213346 68.6937 173.122968 68.4347 172.996643 68.0777 173.438265 67.5967 173.358157 67.2237 173.195886 66.4657 172.057941 66.4677 171.876157 65.9017 171.655346 65.2227 172.714211 64.5127 171.947022 63.9757 171.710805 63.8097 171.350319 63.9147 171.150049 63.6577 170.876859 63.3057 171.253778 62.7357 170.760805 62.4617 170.455778 62.2937 170.092211 62.6187 169.867292 62.3447 170.072697 61.9397 170.455778 61.2447 170.290427 60.7667 170.100427 60.2157 169.658805 60.3587 169.222319 60.3377 169.21513 59.9617 169.589995 59.4327 169.398968 59.0077 169.153508 58.4647 168.497238 58.5847 168.031995 58.5647 168.616373 58.0977 168.114157 57.1587 167.719778 56.7427 167.292535 57.0267 167.045022 57.4417 166.652697 57.7447 166.752319 57.0947 167.068643 56.2047 166.570535 55.6357 166.1854 55.1977 166.034427 55.3167 165.745832 55.6917 165.702697 55.7467 165.120373 56.6197 165.116265 56.5897 164.97967 55.6687 165.765346 53.7427 164.951941 53.0617 164.125184 53.5737 164.305941 54.3917 163.803724 55.1157 163.581886 54.2947 163.930049 53.3137 163.805778 52.4407 163.691778 51.6397 163.441184 51.1217 162.891724 50.5367 162.614427 50.7797 162.291941 55.1627 162.008481 55.6147 161.966373 54.4417 162.217995 50.6007 160.800697 49.9997 160.317995 51.0947 161.526805 56.7107 160.446373 60.1597 160.09513 61.2837 159.371076 64.4157 159.440914 65.6127 159.569292 67.7977 159.977022 69.1537 160.018103 71.3597 160.031454 72.1027 160.023238 73.0947 159.543616 73.6987 159.186211 74.1477 157.070535 75.4227 156.565238 75.7727 153.878535 77.6317 153.428697 79.9617 153.728589 80.9257 153.803562 81.4647 154.320157 81.9437 154.320157 82.5417 154.328373 82.7867 154.267778 83.2527 154.228751 83.7097 154.145562 83.7257 154.061346 83.7377 153.968914 83.7337 153.555022 83.7187 152.942914 83.5327 152.902859 83.8777 152.889508 83.9967 152.95113 84.1707 152.843292 84.2157 152.777562 84.2427 152.66767 84.2067 152.57113 84.1877 152.264049 84.1247 152.035022 84.2407 152.003184 84.4717 151.972373 84.7037 152.141832 85.0397 152.420157 85.3017 152.648157 85.5887 152.998373 85.8367 153.315724 85.9367 153.398914 85.9617 153.48313 85.9787 153.539616 85.9577 153.777886 85.8747 153.36913 85.3347 153.551941 85.1957 153.726535 85.2877 153.86313 85.2387 153.970968 85.1857 154.590265 84.8817 155.148968 84.7367 155.882265 84.7257 156.285886 84.7197 156.683346 85.1387 157.090049 85.1987 157.526535 85.2617 157.828481 85.1847 158.209508 85.5027 158.44367 85.7197 158.682968 85.9757 158.72713 86.2857 158.752805 86.4737 158.487832 87.0267 158.701454 87.1327 158.74767 87.1567 158.801076 87.1497 158.846265 87.1357 159.122535 87.0527 159.326914 86.7067 159.400859 86.4447 159.50767 86.0697 159.2694 85.3677 159.047562 84.9717 158.863724 84.6437 158.407724 84.4057 158.064697 84.3347 157.425886 84.2037 156.940103 84.1617 156.323886 83.8397 156.0394 83.6907 155.746697 83.5587 155.446805 83.5047 155.560805 83.3687 155.675832 83.2537 155.792914 83.1907 156.921616 82.5407 158.806211 83.0517 160.440211 83.1577 161.685995 83.2387 166.020049 82.9477 167.188805 82.7627 169.039508 82.4697 170.794697 81.7927 172.471832 80.9797 172.505724 81.0047 172.533454 81.0267 172.571454 81.0537 172.753238 81.1847 172.9114 81.3467 173.069562 81.5047 173.31913 81.7527 173.581022 82.0107 173.936373 82.1017 174.242427 82.1807 174.600859 82.1417 174.840157 81.9237 175.006535 81.7747 175.147238 81.5537 175.046589 81.3307 174.899724 81.0107 174.5834 81.3627 174.468373 81.5167 174.172589 81.9147 173.879886 81.5367 173.879886 81.5367 173.895292 81.5587 174.054481 81.4407 174.067832 81.4287 174.143832 81.3687 174.209562 81.2977 174.265022 81.2197 174.349238 81.0997 174.42113 80.9277 174.358481 80.7827 174.299941 80.6507 174.142805 80.6177 174.046265 80.7337 173.9754 80.8197 173.945616 80.9307 173.876805 81.0167 173.797724 81.1157 173.68167 81.1687 173.552265 81.1667 173.246211 81.1587 173.116805 80.9907 172.916535 80.7937 172.910373 80.7857 172.899076 80.7787 172.890859 80.7707 173.2914 80.5707 173.687832 80.3657 174.07913 80.1557 174.160265 80.1117 174.265022 80.0457 174.364643 79.9857 174.549508 80.0617 174.730265 80.1507 174.907941 80.2407 175.274589 80.4317 175.660751 80.6287 176.087995 80.6067 176.458751 80.5877 176.842859 80.4207 177.028751 80.0967 177.158157 79.8737 177.235184 79.5787 177.041076 79.3667 176.762751 79.0607 176.537832 79.5607 176.466968 79.7727 176.284157 80.3177 175.819941 79.9987 175.819941 79.9987 175.845616 80.0167 175.97913 79.8307 175.991454 79.8137 176.052049 79.7207 176.100319 79.6177 176.132157 79.5137 176.181454 79.3497 176.200968 79.1337 176.077724 78.9947 176.03767 78.9507 175.988373 78.9487 175.939076 78.9387 176.878805 78.3067 177.887346 77.6707 178.501508 77.5727 179.446373 77.4187 185.275778 79.6887 186.162103 80.1077 186.659184 80.3427 188.773832 81.3597 188.461616 79.8647 188.325022 79.2047 187.216859 79.2657 187.090535 78.6487 187.523941 78.5777 188.258265 79.0847 188.649562 78.8217 189.27913 78.3977 188.432859 77.5907 188.171995 77.2237 188.558157 77.0537 189.000805 77.0747 189.306859 76.7697 188.934049 76.3757 188.194589 76.2397 187.524968 76.1787"/>
  </g>
</svg>
