<svg xmlns="http://www.w3.org/2000/svg" width="24" height="24" viewBox="0 0 24 24">
    <g fill="none" fill-rule="evenodd">
        <rect width="22" height="22" x="1" y="1" fill="#CF4B39" stroke="#CF4B39" stroke-width="2" rx="2"/>
        <path fill="#FFF" d="M6.468 8.38h1.74c.941 0 1.62.088 2.036.262.416.173.744.455.985.843.24.389.36.855.36 1.398 0 .601-.157 1.101-.472 1.5-.314.398-.741.676-1.28.832-.316.09-.893.135-1.729.135V17h-1.64V8.38zm1.64 3.37h.522c.41 0 .695-.03.855-.088a.76.76 0 0 0 .378-.29.848.848 0 0 0 .138-.49c0-.331-.129-.573-.387-.726-.187-.113-.535-.17-1.043-.17h-.463v1.764zm5.08-3.37h1.74c.942 0 1.62.088 2.037.262.416.173.744.455.984.843.24.389.36.855.36 1.398 0 .601-.157 1.101-.471 1.5-.315.398-.741.676-1.28.832-.317.09-.893.135-1.729.135V17h-1.64V8.38zm1.641 3.37h.522c.41 0 .695-.03.855-.088a.76.76 0 0 0 .378-.29.848.848 0 0 0 .138-.49c0-.331-.13-.573-.387-.726-.188-.113-.535-.17-1.043-.17h-.463v1.764z"/>
    </g>
</svg>
