<svg xmlns="http://www.w3.org/2000/svg" xmlns:xlink="http://www.w3.org/1999/xlink" width="24" height="24" viewBox="0 0 24 24">
  <defs>
    <path id="public-share-add-photos-a" d="M16,21.333333 L2.666667,21.333333 C1.193907,21.333333 0,20.139426 0,18.666667 L0,2.66667 C0,1.19391 1.193907,0 2.666667,0 L18.66667,0 C20.13943,0 21.33333,1.19391 21.33333,2.66667 L21.33333,16"/>
  </defs>
  <g fill="none" fill-rule="evenodd">
    <mask id="public-share-add-photos-b" fill="#fff">
      <use xlink:href="#public-share-add-photos-a"/>
    </mask>
    <path stroke="#FFC304" stroke-width="2" d="M16,21.33333 L2.666667,21.33333 C1.193907,21.33333 0,20.13943 0,18.66667 L0,2.666667 C0,1.193907 1.193907,0 2.666667,0 L18.66667,0 C20.13943,0 21.33333,1.193907 21.33333,2.666667 L21.33333,16" mask="url(#public-share-add-photos-b)"/>
    <g stroke="#FFC304" transform="translate(0 4)">
      <path stroke-linecap="round" d="M9.769607 8.343949C11.863778 5.350392 13.823091 3.89537241 15.647548 3.97889026 17.472005 4.06240811 19.120809 5.726613 20.593957 8.971504M.8041589 12.005504C3.0669169 8.797164 5.0191609 7.18139734 6.6608899 7.15820302 8.3026199 7.1350087 9.6378789 7.9471482 10.6666669 9.594621"/>
      <path d="M6,4 C7.104569,4 8,3.104569 8,2 C8,0.8954305 7.104569,0 6,0 C4.8954305,0 4,0.8954305 4,2 C4,3.104569 4.8954305,4 6,4 Z"/>
      <path stroke-linecap="round" stroke-linejoin="round" d="M20.66667 13.9999997L20.66667 19.333333M23.333333 16.666666L18 16.666666"/>
    </g>
  </g>
</svg>
