<svg xmlns="http://www.w3.org/2000/svg" xmlns:xlink="http://www.w3.org/1999/xlink" width="25" height="27" viewBox="0 0 25 27">
  <defs>
    <path id="public-share-add-files-a" d="M16.07527,23.9998363 L2,23.9998363 C0.895431,23.9998363 0,23.1044058 0,21.999836 L0,2 C0,0.89543 0.895431,0 2,0 L20,0 C21.10457,0 22,0.89543 22,2 C22,7.07299 22,12.14599 22,17.218979"/>
    <path id="public-share-add-files-c" d="M0.5,0 L6.5,0 C6.77614,0 7,0.2238576 7,0.5 C7,0.7761424 6.77614,1 6.5,1 L0.5,1 C0.22386,1 0,0.7761424 0,0.5 C0,0.2238576 0.22386,0 0.5,0 Z"/>
    <path id="public-share-add-files-e" d="M1,0.5 L1,6.5 C1,6.776142 0.77614,7 0.5,7 C0.22386,7 0,6.776142 0,6.5 L0,0.5 C0,0.223858 0.22386,0 0.5,0 C0.77614,0 1,0.223858 1,0.5 Z"/>
  </defs>
  <g fill="none" fill-rule="evenodd" transform="translate(0 3)">
    <g stroke="#FFC304" stroke-linecap="round" stroke-linejoin="round" transform="translate(3 1)">
      <path d="M.6666667.5L15.33333.5M.6666667 3.5L15.33333 3.5M.6666667 6.5L15.33333 6.5M.6666667 9.5L15.33333 9.5M.6666667 12.5L15.33333 12.5M.6666667 15.5L15.33333 15.5"/>
    </g>
    <g transform="translate(0 -3)">
      <mask id="public-share-add-files-b" fill="#fff">
        <use xlink:href="#public-share-add-files-a"/>
      </mask>
      <path stroke="#FFC304" stroke-width="2" d="M16.07527,23.99984 L2,23.99984 C0.8954305,23.99984 0,23.10441 0,21.99984 L0,2 C0,0.8954305 0.8954305,0 2,0 L20,0 C21.10457,0 22,0.8954305 22,2 C22,7.072993 22,12.14599 22,17.21898" mask="url(#public-share-add-files-b)"/>
    </g>
    <g transform="translate(18 20)">
      <mask id="public-share-add-files-d" fill="#fff">
        <use xlink:href="#public-share-add-files-c"/>
      </mask>
      <polygon fill="#FFC304" points="-5 6 12 6 12 -5 -5 -5" mask="url(#public-share-add-files-d)"/>
    </g>
    <g transform="translate(21 17)">
      <mask id="public-share-add-files-f" fill="#fff">
        <use xlink:href="#public-share-add-files-e"/>
      </mask>
      <polygon fill="#FFC304" points="-5 12 6 12 6 -5 -5 -5" mask="url(#public-share-add-files-f)"/>
    </g>
  </g>
</svg>
