<?xml version="1.0" encoding="UTF-8"?>
<svg width="24px" height="24px" viewBox="0 0 24 24" version="1.1" xmlns="http://www.w3.org/2000/svg" xmlns:xlink="http://www.w3.org/1999/xlink">
    <!-- Generator: Sketch 48.2 (47327) - http://www.bohemiancoding.com/sketch -->
    <title>icon/24/settings</title>
    <desc>Created with Sketch.</desc>
    <defs></defs>
    <g id="Symbols" stroke="none" stroke-width="1" fill="none" fill-rule="evenodd">
        <g id="icon/24/settings" stroke="#16254F">
            <path d="M23.5,13.4311111 L23.5,10.5688889 C23.5,10.1636979 23.1696354,9.83333333 22.7644444,9.83333333 L20.5191111,9.83333333 C19.956076,9.83333333 19.4764645,9.5129427 19.2608009,8.99285366 C19.0452076,8.47293396 19.157886,7.90681246 19.5558294,7.50817489 L21.1433355,5.92111328 C21.2827493,5.78169949 21.3586667,5.59827263 21.3586667,5.40088889 C21.3586667,5.20320362 21.2828362,5.01998682 21.1433355,4.88022006 L19.1197799,2.8566645 C18.8480172,2.58490171 18.350822,2.58472919 18.0788867,2.8566645 L16.4914672,4.44408372 C16.0929348,4.84192181 15.5254316,4.9553834 15.0071463,4.73919908 C14.4870573,4.52353549 14.1666667,4.04392396 14.1666667,3.48088889 L14.1666667,1.23555556 C14.1666667,0.830364597 13.8363021,0.5 13.4311111,0.5 L10.5688889,0.5 C10.1636979,0.5 9.83333333,0.830364597 9.83333333,1.23555556 L9.83333333,3.48088889 C9.83333333,4.04392396 9.5129427,4.52353549 8.99434136,4.73857936 C8.47508545,4.95586158 7.90728991,4.84214616 7.50822439,4.44377561 L5.92111328,2.8566645 C5.64917797,2.58472919 5.15198285,2.58490171 4.88022006,2.8566645 L2.8566645,4.88022006 C2.71722644,5.01965812 2.64133333,5.20309513 2.64133333,5.40088889 C2.64133333,5.59816406 2.71718812,5.7813709 2.856615,5.92106378 L4.44452816,7.50853276 C4.84189099,7.90658906 4.95431522,8.47241223 4.73941677,8.99232782 C4.52433572,9.51268521 4.04414371,9.83333333 3.48088889,9.83333333 L1.23555556,9.83333333 C0.830364597,9.83333333 0.5,10.1636979 0.5,10.5688889 L0.5,13.4306667 C0.5,13.836261 0.830323596,14.1666667 1.23555556,14.1666667 L3.48088889,14.1666667 C4.04392396,14.1666667 4.52353549,14.4870573 4.73919908,15.0071463 C4.95479245,15.527066 4.84211399,16.0931875 4.44417056,16.4918251 L2.8566645,18.0788867 C2.71725072,18.2183005 2.64133333,18.4017274 2.64133333,18.5991111 C2.64133333,18.7967964 2.71716378,18.9800132 2.8566645,19.1197799 L4.88022006,21.1433355 C5.15239934,21.4155148 5.64902021,21.4156871 5.92106378,21.143385 L7.50853276,19.5554718 C7.90681574,19.1578827 8.47239833,19.0452728 8.99285366,19.2608009 C9.5129427,19.4764645 9.83333333,19.956076 9.83333333,20.5191111 L9.83333333,22.7644444 C9.83333333,23.1696354 10.1636979,23.5 10.5688889,23.5 L13.4306667,23.5 C13.8358576,23.5 14.1662222,23.1696354 14.1662222,22.7644444 L14.1662222,20.5191111 C14.1662222,19.956076 14.4866129,19.4764645 15.0063949,19.2609284 C15.5266376,19.0447955 16.092516,19.1576593 16.4913807,19.5558294 L18.0784423,21.1433355 C18.3503776,21.4152708 18.8475727,21.4150983 19.1193355,21.1433355 L21.1428911,19.1197799 C21.2823291,18.9803419 21.3582222,18.7969049 21.3582222,18.5991111 C21.3582222,18.4018359 21.2823674,18.2186291 21.1429406,18.0789362 L19.5550274,16.4914672 C19.1576646,16.0934109 19.0452403,15.5275878 19.2601388,15.0076722 C19.4752096,14.4873395 19.9558287,14.1666667 20.5191111,14.1666667 L22.7644444,14.1666667 C23.1696354,14.1666667 23.5,13.8363021 23.5,13.4311111 Z" id="Stroke-1"></path>
            <path d="M15.7424242,12 C15.7424242,10.0703887 14.1243207,8.5 12.1212121,8.5 C10.1178048,8.5 8.5,10.0702223 8.5,12 C8.5,13.9297777 10.1178048,15.5 12.1212121,15.5 C14.1243207,15.5 15.7424242,13.9296113 15.7424242,12 Z" id="Stroke-3"></path>
        </g>
    </g>
</svg>