<svg xmlns="http://www.w3.org/2000/svg" width="24" height="24" viewBox="0 0 24 24">
    <g fill="none" fill-rule="evenodd">
        <path fill="#16254F" d="M10 13c-.827 0-1.5-.673-1.5-1.5S9.173 10 10 10s1.5.673 1.5 1.5S10.827 13 10 13m0-4a2.5 2.5 0 1 0 0 5 2.5 2.5 0 0 0 0-5M6.912 15c-1.242 0-2.305.812-2.723 1.954-.081.222.189.58.811 1.074C5 16.91 5.858 16 6.912 16h6.175c1.055 0 1.913.911 1.913 2.03v1.455a.5.5 0 1 0 1 0V18.03c0-.363-.072-.707-.185-1.03h1.272c1.055 0 1.913.911 1.913 2.03.62-.506.887-.873.802-1.1-.424-1.128-1.48-1.93-2.715-1.93h-1.852c-.533-.61-1.294-1-2.148-1H6.912zM16 11a2 2 0 1 0 0 4 2 2 0 0 0 0-4m0 1a1.001 1.001 0 0 1 0 2 1.001 1.001 0 0 1 0-2"/>
        <path fill="#032D57" d="M19 15.661v2.342c0 .551-.448 1-1 1H6c-.551 0-1-.449-1-1v-12c0-.552.449-1 1-1H11.563c.551 0 1 .448 1 1v.658h.001v1H18c.552 0 1 .449 1 1v7zM13.564 6c0-.551.449-1 1-1h.78v.003H18a1 1 0 0 1 1 1v.938a1.96 1.96 0 0 0-1-.28h-4.437v-.002h.001V6zM18 4.003h-1.779V4h-1.657c-.6 0-1.134.274-1.501.696a1.99 1.99 0 0 0-1.5-.693H6c-1.1 0-2 .9-2 2v12c0 1.099.9 2 2 2h12c1.1 0 2-.901 2-2v-12c0-1.1-.9-2-2-2z"/>
    </g>
</svg>
