<svg xmlns="http://www.w3.org/2000/svg" width="24" height="24" viewBox="0 0 24 24">
    <g fill="#979797" fill-rule="nonzero">
        <path d="M12.5 3.379v9.13a.5.5 0 0 1-1 0V3.38L9.525 5.354a.5.5 0 0 1-.707-.708l2.828-2.828a.5.5 0 0 1 .708 0l2.828 2.828a.5.5 0 1 1-.707.708L12.5 3.379z"/>
        <path d="M17.25 7.5a.5.5 0 1 1 0-1c1.259 0 2.25 1.133 2.25 2.5v8c0 1.367-.991 2.5-2.25 2.5H6.75c-1.259 0-2.25-1.133-2.25-2.5V9c0-1.367.991-2.5 2.25-2.5a.5.5 0 0 1 0 1c-.674 0-1.25.658-1.25 1.5v8c0 .842.576 1.5 1.25 1.5h10.5c.674 0 1.25-.658 1.25-1.5V9c0-.842-.576-1.5-1.25-1.5z"/>
    </g>
</svg>
