<svg xmlns="http://www.w3.org/2000/svg" width="40" height="40" viewBox="0 0 40 40">
    <g fill="none" fill-rule="evenodd">
        <rect width="40" height="40" fill="#00A1F0" rx="7"/>
        <path fill="#FFF" d="M30.99 13.12c-.81.35-1.688.6-2.595.699a4.495 4.495 0 0 0 1.981-2.484 8.872 8.872 0 0 1-2.86 1.088A4.496 4.496 0 0 0 24.223 11a4.505 4.505 0 0 0-4.507 4.507c0 .349.042.697.112 1.032a12.81 12.81 0 0 1-9.293-4.716 4.473 4.473 0 0 0-.614 2.275c0 1.562.795 2.944 2.01 3.753a4.54 4.54 0 0 1-2.038-.572v.056a4.507 4.507 0 0 0 3.614 4.423 4.765 4.765 0 0 1-1.186.153 5.68 5.68 0 0 1-.851-.07 4.515 4.515 0 0 0 4.214 3.126 9.026 9.026 0 0 1-5.596 1.926c-.376 0-.725-.014-1.088-.056a12.735 12.735 0 0 0 6.92 2.023c8.289 0 12.824-6.865 12.824-12.823 0-.195 0-.39-.014-.586a9.689 9.689 0 0 0 2.26-2.33z"/>
    </g>
</svg>
