<?xml version="1.0" encoding="UTF-8"?>
<svg width="24px" height="24px" viewBox="0 0 24 24" version="1.1" xmlns="http://www.w3.org/2000/svg" xmlns:xlink="http://www.w3.org/1999/xlink">
    <!-- Generator: Sketch 48.1 (47250) - http://www.bohemiancoding.com/sketch -->
    <title>unknown-file</title>
    <desc>Created with Sketch.</desc>
    <defs></defs>
    <g id="Page-1" stroke="none" stroke-width="1" fill="none" fill-rule="evenodd">
        <g id="unknown-file">
            <rect id="Rectangle" fill="#152650" x="0" y="0" width="24" height="24" rx="2"></rect>
            <path d="M3.11914062,16.6672518 L3.11914062,5.37327623 L4.32163653,5.37327623 L8.67046883,14.095583 L8.67046883,5.37327623 L9.72119341,5.37327623 L9.72119341,16.6672518 L8.52453486,16.6672518 L4.16986521,7.94494499 L4.16986521,16.6672518 L3.11914062,16.6672518 Z M9.85304869,18.9260469 L12.9643609,5.37327623 L13.8691515,5.37327623 L10.7578393,18.9260469 L9.85304869,18.9260469 Z M18.3790259,12.3480692 L16.9080115,7.47945005 L15.4311597,12.3480692 L18.3790259,12.3480692 Z M19.6749196,16.6672518 L18.7351048,13.5385153 L15.0750808,13.5385153 L14.1235914,16.6672518 L12.9853064,16.6672518 L16.411836,5.37327623 L17.6260066,5.37327623 L21,16.6672518 L19.6749196,16.6672518 Z" id="N/A" fill="#FFC30B"></path>
        </g>
    </g>
</svg>