<svg xmlns="http://www.w3.org/2000/svg" width="40" height="40" viewBox="0 0 40 40">
    <g fill="none" fill-rule="evenodd">
        <rect width="40" height="40" fill="#00AF19" rx="7"/>
        <path fill="#FFF" d="M19.691 9.141c5.648 0 10.237 4.59 10.237 10.237a10.242 10.242 0 0 1-15.192 8.96l-5.662 1.82 1.847-5.499a10.187 10.187 0 0 1-1.467-5.281c0-5.648 4.59-10.237 10.237-10.237z"/>
        <path fill="#FFF" d="M19.691 27.904c4.698 0 8.526-3.829 8.526-8.526 0-4.697-3.828-8.526-8.526-8.526-4.697 0-8.526 3.829-8.526 8.526 0 1.792.57 3.543 1.63 4.996l-1.073 3.164 3.285-1.046a8.582 8.582 0 0 0 4.684 1.412z"/>
        <path fill="#00AF19" d="M22.447 20.709c.23 0 2.444 1.154 2.539 1.316.027.068.027.15.027.204 0 .34-.108.72-.23 1.032-.313.76-1.576 1.249-2.35 1.249-.651 0-1.995-.57-2.579-.842-1.941-.882-3.15-2.39-4.317-4.113-.516-.76-.978-1.698-.964-2.634v-.109c.027-.896.353-1.534 1.004-2.145.204-.19.421-.299.706-.299.163 0 .326.041.503.041.366 0 .434.109.57.462.095.23.787 2.077.787 2.213 0 .515-.936 1.1-.936 1.412 0 .067.027.135.067.203.3.638.87 1.371 1.385 1.86.625.598 1.29.991 2.05 1.371.095.055.19.095.299.095.407 0 1.086-1.316 1.44-1.316z"/>
    </g>
</svg>
