<?xml version="1.0" encoding="UTF-8"?>
<svg width="24px" height="24px" viewBox="0 0 24 24" version="1.1" xmlns="http://www.w3.org/2000/svg" xmlns:xlink="http://www.w3.org/1999/xlink">
    <!-- Generator: Sketch 48.2 (47327) - http://www.bohemiancoding.com/sketch -->
    <title>icon/24/X-O</title>
    <desc>Created with Sketch.</desc>
    <defs></defs>
    <g id="Symbols" stroke="none" stroke-width="1" fill="none" fill-rule="evenodd">
        <g id="icon/24/X-O">
            <circle id="Oval-14" fill="#D8D8D8" cx="12" cy="12" r="8"></circle>
            <path d="M12,11.7369651 L15.6824888,8.05447631 C15.7551239,7.98184123 15.8728886,7.98184123 15.9455237,8.05447631 C16.0181588,8.1271114 16.0181588,8.24487614 15.9455237,8.31751123 L12.2630349,12 L15.9455237,15.6824888 C16.0181588,15.7551239 16.0181588,15.8728886 15.9455237,15.9455237 C15.8728886,16.0181588 15.7551239,16.0181588 15.6824888,15.9455237 L12,12.2630349 L8.31751123,15.9455237 C8.24487614,16.0181588 8.1271114,16.0181588 8.05447631,15.9455237 C7.98184123,15.8728886 7.98184123,15.7551239 8.05447631,15.6824888 L11.7369651,12 L8.05447631,8.31751123 C7.98184123,8.24487614 7.98184123,8.1271114 8.05447631,8.05447631 C8.1271114,7.98184123 8.24487614,7.98184123 8.31751123,8.05447631 L12,11.7369651 Z" id="Combined-Shape" stroke="#16254F" fill="#16254F"></path>
        </g>
    </g>
</svg>